<?xml version="1.0" standalone="no"?>
<!DOCTYPE svg PUBLIC "-//W3C//DTD SVG 1.1//EN" "http://www.w3.org/Graphics/SVG/1.1/DTD/svg11.dtd" >
<svg xmlns="http://www.w3.org/2000/svg" xmlns:xlink="http://www.w3.org/1999/xlink" version="1.1">
<metadata>
Created by FontForge 20200427 at Tue Aug 23 11:33:23 2016
 By www
(c) 2014 Klim Type Foundry. All Rights Reserved.
</metadata>
<defs>
<font id="DomaineSansText-Medium" horiz-adv-x="640" >
  <font-face 
    font-family="Copyright Klim Type Foundry"
    font-weight="600"
    font-stretch="normal"
    units-per-em="1000"
    panose-1="2 11 6 3 7 7 2 4 2 3"
    ascent="800"
    descent="-200"
    x-height="491"
    cap-height="700"
    bbox="-155 -282 1314 985"
    underline-thickness="0"
    underline-position="0"
    unicode-range="U+000D-FB04"
  />
<missing-glyph horiz-adv-x="500" 
 />
    <glyph glyph-name="ff" unicode="ff" horiz-adv-x="732" 
d="M232 525v-34h219v61q0 20 3 39.5t8 37.5q-17 29 -46 44t-67 15q-57 0 -87 -41.5t-30 -121.5zM451 427h-219v-427h-124v427h-77v64h77v18q0 112 63 176t170 64q47 0 85.5 -16t64.5 -46q26 35 65.5 53.5t88.5 18.5q63 0 101.5 -31t38.5 -80q0 -16 -7 -32.5t-18 -26.5
l-54 24q6 9 9 16.5t3 15.5q0 25 -16.5 39.5t-45.5 14.5q-39 0 -60 -30.5t-21 -84.5v-93h140l-5 -64h-135v-427h-124v427z" />
    <glyph glyph-name="fi" unicode="fi" horiz-adv-x="667" 
d="M232 427v-427h-124v427h-77v64h77v23q0 115 65 180t178 65q81 0 127 -35.5t46 -94.5q0 -21 -10 -44.5t-23 -35.5l-55 24q12 18 15.5 29.5t3.5 24.5q0 34 -24.5 52.5t-70.5 18.5q-63 0 -95.5 -41.5t-32.5 -121.5v-44h343v-491h-124v427h-219z" />
    <glyph glyph-name="fl" unicode="fl" horiz-adv-x="667" 
d="M575 0h-124v629q-14 31 -43 49t-63 18q-54 0 -83.5 -37t-29.5 -106v-62h141l-5 -64h-136v-427h-124v427h-77v64h77v46q0 100 60.5 161t156.5 61q41 0 78 -14.5t59 -39.5l10 44h103v-749z" />
    <glyph glyph-name="ffi" unicode="ffi" horiz-adv-x="1010" 
d="M232 525v-34h219v23q0 30 4.5 57t13.5 49q-19 34 -49 51t-71 17q-57 0 -87 -41.5t-30 -121.5zM451 427h-219v-427h-124v427h-77v64h77v18q0 111 62.5 175.5t168.5 64.5q52 0 94 -18.5t68 -52.5q32 40 81.5 60.5t111.5 20.5q81 0 127 -35.5t46 -94.5q0 -21 -10 -44
t-24 -36l-55 24q12 17 16 28.5t4 25.5q0 34 -25 52.5t-71 18.5q-62 0 -94.5 -41.5t-32.5 -121.5v-44h342v-491h-124v427h-218v-427h-124v427z" />
    <glyph glyph-name="ffl" unicode="ffl" horiz-adv-x="1010" 
d="M232 525v-34h219v46q0 23 3.5 45t10.5 42q-18 31 -48 47.5t-68 16.5q-57 0 -87 -41.5t-30 -121.5zM451 427h-219v-427h-124v427h-77v64h77v18q0 112 63 176t170 64q49 0 88.5 -17.5t66.5 -51.5q29 38 73.5 58.5t98.5 20.5q40 0 77 -14.5t60 -39.5l10 44h102v-749h-124
v629q-13 30 -42.5 48.5t-62.5 18.5q-54 0 -83.5 -37t-29.5 -106v-62h141l-5 -64h-136v-427h-124v427z" />
    <glyph glyph-name="f_b" unicode="fb" horiz-adv-x="1018" 
d="M750 501q96 0 159 -68t63 -178q0 -115 -68 -190t-167 -75q-55 0 -98 25t-65 69l-10 -84h-113v629q-14 31 -43 49t-63 18q-54 0 -83.5 -37t-29.5 -106v-62h141l-5 -64h-136v-427h-124v427h-77v64h77v46q0 100 60.5 161t156.5 61q41 0 78 -14.5t59 -39.5l10 44h103v-374
q17 55 65.5 90.5t109.5 35.5zM707 425q-57 0 -95 -50t-38 -123v-42q0 -66 39 -110t92 -44q63 0 99 50.5t36 141.5q0 84 -35 130.5t-98 46.5z" />
    <glyph glyph-name="f_f_b" unicode="ffb" horiz-adv-x="1361" 
d="M1314 255q0 -115 -67.5 -190t-166.5 -75q-56 0 -99 25t-65 69l-9 -84h-114v629q-13 30 -42.5 48.5t-62.5 18.5q-54 0 -83.5 -37t-29.5 -106v-62h141l-5 -64h-136v-427h-124v427h-219v-427h-124v427h-77v64h77v18q0 112 63 176t170 64q49 0 88.5 -17.5t66.5 -51.5
q29 38 73.5 58.5t98.5 20.5q40 0 77 -14.5t60 -39.5l10 44h102v-374q18 56 66 91t110 35q95 0 158 -68t63 -178zM232 525v-34h219v46q0 23 3.5 45t10.5 42q-18 31 -48 47.5t-68 16.5q-57 0 -87 -41.5t-30 -121.5zM1049 425q-57 0 -94.5 -50t-37.5 -123v-42q0 -66 38.5 -110
t92.5 -44q63 0 98.5 50.5t35.5 141.5q0 84 -35 130.5t-98 46.5z" />
    <glyph glyph-name="f_h" unicode="fh" horiz-adv-x="994" 
d="M368 427h-136v-427h-124v427h-77v64h77v46q0 100 60.5 161t156.5 61q41 0 78 -14.5t59 -39.5l10 44h103v-371q22 59 67 91t106 32q76 0 118.5 -46.5t42.5 -127.5v-327h-124v305q0 51 -24.5 80t-68.5 29q-51 0 -84 -47t-33 -122v-245h-124v629q-14 31 -43 49t-63 18
q-54 0 -83.5 -37t-29.5 -106v-62h141z" />
    <glyph glyph-name="f_f_h" unicode="ffh" horiz-adv-x="1337" 
d="M232 525v-34h219v46q0 23 3.5 45t10.5 42q-18 31 -48 47.5t-68 16.5q-57 0 -87 -41.5t-30 -121.5zM451 427h-219v-427h-124v427h-77v64h77v18q0 112 63 176t170 64q49 0 88.5 -17.5t66.5 -51.5q29 38 73.5 58.5t98.5 20.5q40 0 77 -14.5t60 -39.5l10 44h102v-371
q23 59 68 91t105 32q76 0 119 -46.5t43 -127.5v-327h-124v305q0 51 -24.5 80t-68.5 29q-51 0 -84.5 -47t-33.5 -122v-245h-124v629q-13 30 -42.5 48.5t-62.5 18.5q-54 0 -83.5 -37t-29.5 -106v-62h141l-5 -64h-136v-427h-124v427z" />
    <glyph glyph-name="f_idieresis" unicode="f&#xef;" horiz-adv-x="667" 
d="M661 587h-109v131h109v-131zM31 491h77v68q0 88 56.5 144t145.5 56q67 0 106.5 -32.5t39.5 -85.5q0 -17 -7.5 -34t-18.5 -28l-61 24q7 11 10 20t3 18q0 28 -16.5 43t-47.5 15q-40 0 -63 -31t-23 -84v-93h343v-491h-124v427h-219v-427h-124v427h-77v64z" />
    <glyph glyph-name="f_f_idieresis" unicode="ff&#xef;" horiz-adv-x="1010" 
d="M1004 587h-109v131h109v-131zM232 525v-34h219v68q0 19 3 37t8 35q-19 28 -47.5 42.5t-65.5 14.5q-57 0 -87 -41.5t-30 -121.5zM451 427h-219v-427h-124v427h-77v64h77v18q0 111 62.5 175.5t168.5 64.5q48 0 87 -16t67 -46q28 35 69 53.5t91 18.5q67 0 106 -32.5
t39 -85.5q0 -17 -7 -34t-19 -28l-60 24q7 13 9.5 21.5t2.5 16.5q0 28 -16.5 43t-47.5 15q-40 0 -62.5 -31t-22.5 -84v-93h342v-491h-124v427h-218v-427h-124v427z" />
    <glyph glyph-name="f_j" unicode="fj" horiz-adv-x="667" 
d="M397 -225q-63 0 -99.5 28t-36.5 77q0 16 6.5 31t17.5 25l54 -23q-5 -7 -7.5 -14.5t-2.5 -15.5q0 -23 14.5 -36t40.5 -13q35 0 51 25t16 81v487h-219v-427h-124v427h-77v64h77v23q0 115 65 180t178 65q81 0 127 -35.5t46 -94.5q0 -21 -10 -44.5t-23 -35.5l-55 24
q12 18 15.5 29.5t3.5 24.5q0 34 -24.5 52.5t-70.5 18.5q-63 0 -95.5 -41.5t-32.5 -121.5v-44h343v-526q0 -89 -47 -139.5t-131 -50.5z" />
    <glyph glyph-name="f_f_j" unicode="ffj" horiz-adv-x="1010" 
d="M232 525v-34h219v23q0 30 4.5 57t13.5 49q-19 34 -49 51t-71 17q-57 0 -87 -41.5t-30 -121.5zM739 -225q-63 0 -99 28t-36 77q0 16 6 30.5t17 25.5l54 -23q-5 -8 -7 -15.5t-2 -14.5q0 -23 14.5 -36t40.5 -13q34 0 50 24.5t16 81.5v487h-218v-427h-124v427h-219v-427h-124
v427h-77v64h77v18q0 111 62.5 175.5t168.5 64.5q52 0 94 -18.5t68 -52.5q32 40 81.5 60.5t111.5 20.5q81 0 127 -35.5t46 -94.5q0 -21 -10 -44t-24 -36l-55 24q12 17 16 28.5t4 25.5q0 34 -25 52.5t-71 18.5q-62 0 -94.5 -41.5t-32.5 -121.5v-44h342v-526q0 -90 -46.5 -140
t-131.5 -50z" />
    <glyph glyph-name="f_k" unicode="fk" horiz-adv-x="974" 
d="M368 427h-136v-427h-124v427h-77v64h77v46q0 100 60.5 161t156.5 61q41 0 78 -14.5t59 -39.5l10 44h103v-508l265 250h98l-212 -194l220 -297h-143l-162 219l-66 -60v-159h-124v629q-14 31 -43 49t-63 18q-54 0 -83.5 -37t-29.5 -106v-62h141z" />
    <glyph glyph-name="f_f_k" unicode="ffk" horiz-adv-x="1316" 
d="M232 525v-34h219v46q0 23 3.5 45t10.5 42q-18 31 -48 47.5t-68 16.5q-57 0 -87 -41.5t-30 -121.5zM451 427h-219v-427h-124v427h-77v64h77v18q0 112 63 176t170 64q49 0 88.5 -17.5t66.5 -51.5q29 38 73.5 58.5t98.5 20.5q40 0 77 -14.5t60 -39.5l10 44h102v-509l265 251
h99l-213 -195l220 -296h-142l-162 219l-67 -61v-158h-124v629q-13 30 -42.5 48.5t-62.5 18.5q-54 0 -83.5 -37t-29.5 -106v-62h141l-5 -64h-136v-427h-124v427z" />
    <glyph glyph-name=".notdef" horiz-adv-x="500" 
 />
    <glyph glyph-name=".null" horiz-adv-x="0" 
 />
    <glyph glyph-name="nonmarkingreturn" unicode="&#xd;" horiz-adv-x="500" 
 />
    <glyph glyph-name="NULL" horiz-adv-x="500" 
 />
    <glyph glyph-name="NULL" horiz-adv-x="500" 
 />
    <glyph glyph-name="space" unicode=" " horiz-adv-x="295" 
 />
    <glyph glyph-name="exclam" unicode="!" horiz-adv-x="315" 
d="M144 236l-72 464h172l-72 -464h-28zM229 0h-143v148h143v-148z" />
    <glyph glyph-name="quotedbl" unicode="&#x22;" horiz-adv-x="456" 
d="M196 700l-42 -301h-47l-42 301h131zM391 700l-42 -301h-47l-42 301h131z" />
    <glyph glyph-name="numbersign" unicode="#" horiz-adv-x="674" 
d="M260 254h126l28 192h-126zM412 0h-62l29 203h-126l-29 -203h-62l29 203h-146l9 51h144l28 192h-155l9 51h153l29 203h62l-29 -203h126l29 203h62l-29 -203h145l-9 -51h-143l-28 -192h155l-9 -51h-153z" />
    <glyph glyph-name="dollar" unicode="$" horiz-adv-x="633" 
d="M171 537q0 -41 26.5 -65t93.5 -40v207q-56 -6 -88 -33t-32 -69zM476 176q0 45 -25.5 69.5t-92.5 40.5l-9 2v-226q61 6 94 36t33 78zM349 -9v-110h-58v110q-104 7 -172 57t-82 133l69 31q19 -71 64 -108t121 -42v240l-41 10q-96 24 -141.5 71t-45.5 122q0 84 63.5 140.5
t164.5 63.5v106h58v-107q78 -8 137 -50.5t79 -104.5l-64 -45q-17 55 -56 88.5t-96 41.5v-220l46 -12q95 -22 142 -70t47 -123q0 -92 -65.5 -153t-169.5 -69z" />
    <glyph glyph-name="percent" unicode="%" horiz-adv-x="843" 
d="M213 358q-64 0 -108.5 51t-44.5 125q0 73 45 124.5t108 51.5q64 0 108 -51t44 -125t-44 -125t-108 -51zM695 710l-481 -720h-65l481 720h65zM213 422q38 0 61.5 31.5t23.5 80.5t-23.5 80.5t-61.5 31.5t-61.5 -31t-23.5 -81t23.5 -81t61.5 -31zM631 -11q-63 0 -108 51.5
t-45 125.5q0 73 45 124.5t108 51.5q64 0 108 -51t44 -125t-44 -125.5t-108 -51.5zM631 54q38 0 61.5 31.5t23.5 80.5t-23.5 80.5t-61.5 31.5t-61.5 -31t-23.5 -81t23.5 -81t61.5 -31z" />
    <glyph glyph-name="ampersand" unicode="&#x26;" horiz-adv-x="750" 
d="M235 560q0 -25 11.5 -47t47.5 -59l36 -38q56 26 82 59t26 77q0 43 -28 69.5t-74 26.5q-47 0 -74 -24t-27 -64zM168 199q0 -59 40 -94t105 -35q33 0 66.5 12.5t66.5 37.5l-202 208q-39 -23 -57.5 -54t-18.5 -75zM731 0h-170l-67 69q-48 -39 -102 -59t-110 -20
q-106 0 -174 53.5t-68 139.5q0 62 44.5 110.5t121.5 74.5l-30 31q-29 30 -44 66t-15 74q0 76 59 123.5t149 47.5q87 0 140.5 -42.5t53.5 -111.5q0 -60 -40.5 -110t-106.5 -73l157 -163q29 44 47.5 94t23.5 99l77 -13q-9 -61 -34.5 -121t-63.5 -111z" />
    <glyph glyph-name="quotesingle" unicode="'" horiz-adv-x="265" 
d="M200 700l-44 -301h-47l-44 301h135z" />
    <glyph glyph-name="parenleft" unicode="(" horiz-adv-x="390" 
d="M64 297q0 142 65 261t184 196l37 -52q-101 -72 -150.5 -172t-49.5 -233t49.5 -233t150.5 -172l-37 -52q-119 77 -184 196t-65 261z" />
    <glyph glyph-name="parenright" unicode=")" horiz-adv-x="390" 
d="M326 297q0 -142 -65 -261t-184 -196l-37 52q101 72 150.5 172t49.5 233t-49.5 233t-150.5 172l37 52q119 -77 184 -196t65 -261z" />
    <glyph glyph-name="asterisk" unicode="*" horiz-adv-x="485" 
d="M381 391l-36 -26l-102 125l-103 -125l-36 26l87 137l-150 59l14 41l156 -40l10 161h44l10 -161l156 40l13 -41l-150 -59z" />
    <glyph glyph-name="plus" unicode="+" horiz-adv-x="635" 
d="M546 371v-67h-194v-194h-68v194h-194v67h194v195h68v-195h194z" />
    <glyph glyph-name="comma" unicode="," horiz-adv-x="295" 
d="M147 9h-71v139h143v-152q0 -76 -43 -117t-123 -41v54q48 0 71 25t23 79v13z" />
    <glyph glyph-name="hyphen" unicode="-" horiz-adv-x="400" 
d="M325 249h-249v89h249v-89z" />
    <glyph glyph-name="period" unicode="." horiz-adv-x="295" 
d="M219 0h-143v148h143v-148z" />
    <glyph glyph-name="slash" unicode="/" horiz-adv-x="424" 
d="M89 -153h-79l300 902h79z" />
    <glyph glyph-name="zero" unicode="0" horiz-adv-x="678" 
d="M339 -10q-131 0 -210 98.5t-79 261.5t79 261.5t210 98.5t210 -98.5t79 -261.5t-79 -261.5t-210 -98.5zM339 651q-74 0 -110 -73.5t-36 -227.5q0 -153 36 -227t110 -74t110 74t36 227q0 154 -36 227.5t-110 73.5z" />
    <glyph glyph-name="one" unicode="1" horiz-adv-x="454" 
d="M340 708v-708h-126v545q-15 -26 -66 -68t-90 -58l-25 60q58 31 126 98t106 131h75z" />
    <glyph glyph-name="two" unicode="2" horiz-adv-x="594" 
d="M380 275q-35 -30 -85.5 -67t-138.5 -96h383l-10 -112h-505v39l186 182q97 94 132.5 159t35.5 133q0 57 -33 91.5t-90 34.5t-91.5 -31.5t-34.5 -84.5q0 -26 15 -51.5t40 -42.5l-43 -47q-37 13 -63.5 52.5t-26.5 84.5q0 83 62 137t162 54q108 0 173.5 -55t65.5 -150
q0 -61 -31 -115t-103 -115z" />
    <glyph glyph-name="three" unicode="3" horiz-adv-x="610" 
d="M560 198q0 -94 -76.5 -151t-198.5 -57q-104 0 -171 49t-67 127q0 44 28.5 78t71.5 46l36 -46q-30 -16 -43 -34t-13 -43q0 -48 40 -79.5t100 -31.5q73 0 113 38.5t40 108.5q0 72 -41.5 108.5t-121.5 36.5h-16v53h16q73 2 109 34.5t36 95.5q0 53 -33 84.5t-90 31.5
q-55 0 -89 -26.5t-34 -68.5q0 -23 11 -39t33 -26l-31 -50q-41 10 -65 40.5t-24 73.5q0 68 61 113.5t155 45.5q108 0 172.5 -46.5t64.5 -127.5q0 -65 -50.5 -108.5t-127.5 -49.5v-2q92 -5 148.5 -54t56.5 -124z" />
    <glyph glyph-name="four" unicode="4" horiz-adv-x="652" 
d="M474 250h147v-66h-147v-184h-124v184h-323v48l320 468h127v-450zM119 250h231v341z" />
    <glyph glyph-name="five" unicode="5" horiz-adv-x="597" 
d="M153 700h370l-14 -118h-307l-22 -168q27 18 62 28.5t72 10.5q104 0 167.5 -58.5t63.5 -155.5q0 -112 -78.5 -180.5t-204.5 -68.5q-100 0 -163.5 46.5t-63.5 122.5q0 37 20 67t57 47l42 -46q-22 -16 -31 -31.5t-9 -36.5q0 -46 37 -74.5t94 -28.5q74 0 116.5 48.5
t42.5 133.5q0 66 -37 106.5t-99 40.5q-37 0 -66 -12.5t-55 -38.5h-39z" />
    <glyph glyph-name="six" unicode="6" horiz-adv-x="627" 
d="M362 439q92 0 154 -60t62 -156q0 -102 -73 -167.5t-183 -65.5q-121 0 -196.5 94.5t-75.5 243.5q0 165 90.5 273.5t235.5 108.5q87 0 141 -41.5t54 -104.5q0 -34 -16.5 -59t-42.5 -34l-47 34q13 11 19.5 24.5t6.5 28.5q0 41 -29.5 63.5t-83.5 22.5q-94 0 -148 -88
t-50 -227q17 50 66.5 80t115.5 30zM320 372q-61 0 -94.5 -42t-33.5 -119q0 -75 34 -118.5t94 -43.5q62 0 96 42.5t34 119.5q0 76 -34 118.5t-96 42.5z" />
    <glyph glyph-name="seven" unicode="7" horiz-adv-x="551" 
d="M47 582v118h490v-51l-75 -119q-80 -125 -119.5 -258.5t-38.5 -271.5h-123q18 148 65 269.5t141 260.5l34 52h-374z" />
    <glyph glyph-name="eight" unicode="8" horiz-adv-x="620" 
d="M531 546q0 -50 -32.5 -89.5t-90.5 -62.5q86 -33 125.5 -79.5t39.5 -116.5q0 -92 -75 -150t-191 -58t-187.5 51t-71.5 135q0 57 40 101t111 68q-57 29 -86.5 71.5t-29.5 96.5q0 87 64 142t162 55q95 0 158.5 -46.5t63.5 -117.5zM310 649q-55 0 -87 -26.5t-32 -71.5
q0 -38 23.5 -64t81.5 -49l58 -22q48 26 70 57t22 70q0 48 -37 77t-99 29zM456 167q0 40 -25.5 66.5t-89.5 51.5l-95 37q-58 -28 -85.5 -63t-27.5 -79q0 -59 47 -93.5t127 -34.5q67 0 108 31t41 84z" />
    <glyph glyph-name="nine" unicode="9" horiz-adv-x="627" 
d="M265 261q-92 0 -154 60t-62 156q0 102 73 167.5t183 65.5q121 0 196.5 -94.5t75.5 -243.5q0 -165 -90.5 -273.5t-235.5 -108.5q-87 0 -141 41.5t-54 104.5q0 34 16.5 59t42.5 34l47 -34q-13 -11 -19.5 -24.5t-6.5 -28.5q0 -41 29.5 -63.5t83.5 -22.5q94 0 148 88t50 227
q-17 -50 -66.5 -80t-115.5 -30zM307 328q61 0 94.5 42t33.5 119q0 75 -34 118.5t-94 43.5q-62 0 -96 -42.5t-34 -119.5q0 -76 34 -118.5t96 -42.5z" />
    <glyph glyph-name="colon" unicode=":" horiz-adv-x="295" 
d="M219 0h-143v148h143v-148zM219 301h-143v148h143v-148z" />
    <glyph glyph-name="semicolon" unicode=";" horiz-adv-x="295" 
d="M147 9h-71v139h143v-152q0 -76 -43 -117t-123 -41v54q48 0 71 25t23 79v13zM219 301h-143v148h143v-148z" />
    <glyph glyph-name="less" unicode="&#x3c;" horiz-adv-x="517" 
d="M433 110l-347 182v88l347 180v-79l-284 -145l284 -146v-80z" />
    <glyph glyph-name="equal" unicode="=" horiz-adv-x="645" 
d="M551 379h-457v65h457v-65zM551 230h-457v65h457v-65z" />
    <glyph glyph-name="greater" unicode="&#x3e;" horiz-adv-x="518" 
d="M432 380v-88l-348 -182v80l283 146l-283 145v79z" />
    <glyph glyph-name="question" unicode="?" horiz-adv-x="559" 
d="M383 526q0 51 -35 81t-96 30q-59 0 -94.5 -29t-35.5 -79q0 -21 10 -41.5t29 -37.5l-50 -42q-31 18 -50 50.5t-19 68.5q0 79 64 131t167 52q108 0 176 -56t68 -144q0 -83 -61 -142.5t-165 -81.5v-73h-55v170q69 15 108 53t39 90zM335 0h-144v143h144v-143z" />
    <glyph glyph-name="at" unicode="@" horiz-adv-x="978" 
d="M647 433h80l-66 -269q-10 -40 2.5 -60.5t46.5 -20.5q61 0 101.5 62t40.5 166q0 135 -93.5 215t-244.5 80q-160 0 -268 -113t-108 -282q0 -160 101 -256.5t266 -96.5q85 0 151 21t127 68l29 -38q-59 -51 -137.5 -77.5t-169.5 -26.5q-194 0 -314.5 112t-120.5 295
q0 92 33 174t94 144q62 63 144 96.5t173 33.5q174 0 287 -96.5t113 -252.5q0 -129 -67.5 -208.5t-163.5 -79.5q-55 0 -89 27.5t-39 75.5q-23 -48 -63 -75t-88 -27q-62 0 -99.5 41.5t-37.5 110.5q0 108 68 187.5t165 79.5q46 0 76 -21.5t38 -58.5zM446 93q40 0 71.5 35.5
t46.5 97.5l12 50q12 51 -3 82t-51 31q-55 0 -96.5 -65.5t-41.5 -149.5q0 -38 16.5 -59.5t45.5 -21.5z" />
    <glyph glyph-name="A" unicode="A" horiz-adv-x="746" 
d="M231 260h226l-115 261zM708 0h-137l-86 195h-282l-83 -195h-82l307 704h54z" />
    <glyph glyph-name="B" unicode="B" horiz-adv-x="708" 
d="M656 189q0 -91 -69.5 -140t-195.5 -49h-287v700h268q121 0 188 -45t67 -129q0 -69 -50 -113.5t-130 -50.5v-2q96 -4 152.5 -49t56.5 -122zM345 632h-111v-238h110q77 0 114 29.5t37 90.5q0 60 -37 89t-113 29zM524 196q0 65 -42.5 97t-129.5 32h-118v-256h126
q83 0 123.5 31.5t40.5 95.5z" />
    <glyph glyph-name="C" unicode="C" horiz-adv-x="723" 
d="M405 -10q-155 0 -257 99.5t-102 254.5q0 159 104 262.5t260 103.5q93 0 164.5 -39.5t114.5 -114.5l-54 -57q-38 70 -90.5 103.5t-120.5 33.5q-107 0 -169.5 -76t-62.5 -208q0 -128 64.5 -206t166.5 -79q72 0 124 31.5t89 99.5l53 -41q-44 -82 -116.5 -124.5t-167.5 -42.5
z" />
    <glyph glyph-name="D" unicode="D" horiz-adv-x="777" 
d="M732 353q0 -164 -104 -258.5t-280 -94.5h-244v700h231q184 0 290.5 -92.5t106.5 -254.5zM592 353q0 133 -70 206.5t-197 73.5h-91v-566h99q127 0 193 73t66 213z" />
    <glyph glyph-name="E" unicode="E" horiz-adv-x="677" 
d="M619 0h-515v700h499v-71h-369v-232h271v-71h-271v-254h385v-72z" />
    <glyph glyph-name="F" unicode="F" horiz-adv-x="638" 
d="M234 0h-130v700h485v-71h-355v-241h271v-72h-271v-316z" />
    <glyph glyph-name="G" unicode="G" horiz-adv-x="790" 
d="M708 331v-331h-49l-47 99q-30 -50 -88.5 -79.5t-126.5 -29.5q-154 0 -252.5 98t-98.5 255q0 159 106.5 263t265.5 104q97 0 169 -38.5t115 -114.5l-55 -58q-40 72 -92 104.5t-123 32.5q-109 0 -174 -76.5t-65 -207.5q0 -130 61.5 -208.5t162.5 -78.5q67 0 113 40t46 100
v126h132z" />
    <glyph glyph-name="H" unicode="H" horiz-adv-x="838" 
d="M234 0h-130v700h130v-304h371v304h130v-700h-130v326h-371v-326z" />
    <glyph glyph-name="I" unicode="I" horiz-adv-x="338" 
d="M104 700h130v-700h-130v700z" />
    <glyph glyph-name="J" unicode="J" horiz-adv-x="621" 
d="M263 65q66 0 100.5 43t34.5 126v466h130v-458q0 -115 -70.5 -183.5t-185.5 -68.5q-98 0 -161 54.5t-63 135.5q0 44 19.5 79.5t55.5 57.5l49 -46q-22 -20 -32 -41.5t-10 -47.5q0 -51 37.5 -84t95.5 -33z" />
    <glyph glyph-name="K" unicode="K" horiz-adv-x="764" 
d="M732 0h-158l-254 336l-86 -83v-253h-130v700h130v-353l353 353h108l-285 -277z" />
    <glyph glyph-name="L" unicode="L" horiz-adv-x="646" 
d="M588 0h-484v700h130v-628h354v-72z" />
    <glyph glyph-name="M" unicode="M" horiz-adv-x="942" 
d="M272 700l206 -504l206 504h155v-700h-128v580l-240 -583h-45l-238 583v-580h-84v700h168z" />
    <glyph glyph-name="N" unicode="N" horiz-adv-x="799" 
d="M229 700l382 -468v468h84v-702h-51l-456 555v-553h-84v700h125z" />
    <glyph glyph-name="O" unicode="O" horiz-adv-x="805" 
d="M403 -10q-152 0 -254.5 103.5t-102.5 256.5t102.5 256.5t254.5 103.5q151 0 254 -103.5t103 -256.5t-103 -256.5t-254 -103.5zM403 646q-101 0 -156 -77.5t-55 -218.5t55 -218t156 -77t156 77.5t55 217.5q0 141 -55 218.5t-156 77.5z" />
    <glyph glyph-name="P" unicode="P" horiz-adv-x="681" 
d="M651 485q0 -102 -73 -158t-202 -56h-142v-271h-130v700h272q130 0 202.5 -56.5t72.5 -158.5zM234 632v-292h105q91 0 133.5 35t42.5 110q0 76 -42 111.5t-134 35.5h-105z" />
    <glyph glyph-name="Q" unicode="Q" horiz-adv-x="805" 
d="M630 -153q-64 0 -112.5 36.5t-78.5 108.5l-22.5 -1.5t-13.5 -0.5q-152 0 -254.5 103.5t-102.5 256.5t102.5 256.5t254.5 103.5q151 0 254 -103.5t103 -256.5q0 -119 -65.5 -212t-173.5 -129q22 -46 47.5 -66.5t62.5 -20.5q28 0 48.5 19.5t25.5 53.5l64 -23
q-7 -56 -46 -90.5t-93 -34.5zM403 646q-101 0 -156 -77.5t-55 -218.5t55 -218t156 -77t156 77.5t55 217.5q0 141 -55 218.5t-156 77.5z" />
    <glyph glyph-name="R" unicode="R" horiz-adv-x="754" 
d="M362 632h-128v-260h128q81 0 122.5 33.5t41.5 99.5q0 62 -42 94.5t-122 32.5zM346 304h-112v-304h-130v700h297q126 0 195 -48.5t69 -140.5q0 -80 -58 -126t-152 -48v-3q64 -6 101.5 -35t58.5 -90l36 -99q12 -33 26 -58.5t35 -51.5h-146q-12 19 -23.5 42.5t-22.5 55.5
l-41 112q-19 55 -47.5 74.5t-85.5 19.5z" />
    <glyph glyph-name="S" unicode="S" horiz-adv-x="647" 
d="M320 63q70 0 110.5 29.5t40.5 81.5q0 42 -27 67.5t-96 45.5l-96 26q-101 28 -144.5 73.5t-43.5 118.5q0 90 72 147.5t183 57.5q85 0 153 -33.5t106 -92.5l-53 -57q-33 55 -87 84.5t-120 29.5q-61 0 -97.5 -27.5t-36.5 -74.5q0 -41 26 -64.5t94 -41.5l97 -27
q98 -27 143.5 -73.5t45.5 -119.5q0 -99 -76 -161t-194 -62q-95 0 -173.5 40t-117.5 109l56 52q38 -61 99.5 -94.5t135.5 -33.5z" />
    <glyph glyph-name="T" unicode="T" horiz-adv-x="748" 
d="M439 0h-130v630h-264v70h658v-70h-264v-630z" />
    <glyph glyph-name="U" unicode="U" horiz-adv-x="764" 
d="M587 283v417h84v-427q0 -133 -75.5 -208t-206.5 -75q-140 0 -217.5 74.5t-77.5 207.5v428h130v-417q0 -102 47.5 -157t135.5 -55q90 0 135 52.5t45 159.5z" />
    <glyph glyph-name="V" unicode="V" horiz-adv-x="746" 
d="M708 700l-306 -704h-53l-311 704h139l225 -528l222 528h84z" />
    <glyph glyph-name="W" unicode="W" horiz-adv-x="1025" 
d="M731 -4h-53l-159 448l-159 -448h-53l-269 704h134l188 -513l123 359l-55 154h131l167 -503l179 503h82z" />
    <glyph glyph-name="X" unicode="X" horiz-adv-x="744" 
d="M344 301l-223 -301h-96l274 362l-249 338h151l188 -253l185 253h95l-237 -313l287 -387h-152z" />
    <glyph glyph-name="Y" unicode="Y" horiz-adv-x="727" 
d="M185 700l210 -323l209 323h90l-265 -405v-295h-130v295l-266 405h152z" />
    <glyph glyph-name="Z" unicode="Z" horiz-adv-x="722" 
d="M220 72h442v-72h-609v46l438 583h-418v71h582v-46z" />
    <glyph glyph-name="bracketleft" unicode="[" horiz-adv-x="389" 
d="M344 -154h-241v903h241v-47l-160 -14v-780l160 -15v-47z" />
    <glyph glyph-name="backslash" unicode="\" horiz-adv-x="424" 
d="M114 749l300 -902h-79l-300 902h79z" />
    <glyph glyph-name="bracketright" unicode="]" horiz-adv-x="389" 
d="M45 -107l160 15v780l-160 14v47h241v-903h-241v47z" />
    <glyph glyph-name="asciicircum" unicode="^" horiz-adv-x="520" 
d="M45 352l183 348h64l183 -348h-75l-140 269l-140 -269h-75z" />
    <glyph glyph-name="underscore" unicode="_" horiz-adv-x="480" 
d="M430 -151h-380v79h380v-79z" />
    <glyph glyph-name="grave" unicode="`" horiz-adv-x="500" 
d="M344 561h-58l-132 188h130z" />
    <glyph glyph-name="a" unicode="a" horiz-adv-x="580" 
d="M374 225v18l-70 -12q-70 -12 -100 -35t-30 -61q0 -33 19.5 -50.5t55.5 -17.5q50 0 87.5 47t37.5 111zM289 281l85 14v37q0 53 -28 78.5t-86 25.5q-45 0 -72 -17t-27 -46q0 -11 3.5 -20t12.5 -19l-61 -36q-15 12 -24 31t-9 40q0 59 52.5 95.5t141.5 36.5
q109 0 164.5 -45.5t55.5 -135.5l-1 -320h-111l-9 109q-17 -52 -66 -85.5t-111 -33.5q-66 0 -106.5 35.5t-40.5 94.5q0 62 50.5 99.5t186.5 61.5z" />
    <glyph glyph-name="b" unicode="b" horiz-adv-x="660" 
d="M379 -10q-55 0 -98 25t-65 69l-10 -84h-113v749h124v-374q17 55 65.5 90.5t109.5 35.5q96 0 159 -68t63 -178q0 -115 -68 -190t-167 -75zM349 425q-57 0 -95 -50t-38 -123v-42q0 -66 39 -110t92 -44q63 0 99 50.5t36 141.5q0 84 -35 130.5t-98 46.5z" />
    <glyph glyph-name="c" unicode="c" horiz-adv-x="552" 
d="M425 350q0 40 -27 64.5t-76 24.5q-65 0 -105.5 -52.5t-40.5 -136.5q0 -91 38 -140t107 -49q49 0 83 27.5t54 82.5l51 -19q-19 -77 -77 -119.5t-142 -42.5q-107 0 -175 68t-68 179q0 116 74.5 190t188.5 74q85 0 134.5 -41.5t49.5 -109.5q0 -25 -11 -48.5t-28 -37.5
l-49 34q10 12 14.5 25t4.5 27z" />
    <glyph glyph-name="d" unicode="d" horiz-adv-x="655" 
d="M312 66q57 0 94.5 49.5t37.5 122.5v43q0 66 -39 110t-92 44q-63 0 -98.5 -51t-35.5 -142q0 -84 35 -130t98 -46zM281 501q56 0 97.5 -23.5t65.5 -68.5v340h124v-749h-120l-4 115q-19 -58 -65.5 -91.5t-109.5 -33.5q-97 0 -159.5 68t-62.5 179q0 115 67.5 189.5
t166.5 74.5z" />
    <glyph glyph-name="e" unicode="e" horiz-adv-x="566" 
d="M466 170l51 -18q-20 -78 -77.5 -120t-144.5 -42q-109 0 -178.5 68.5t-69.5 179.5q0 116 70 189.5t177 73.5q106 0 166 -68t60 -188h-345q1 -89 40 -136.5t110 -47.5q52 0 86 26t55 83zM293 443q-50 0 -79.5 -36.5t-36.5 -107.5h216q-1 73 -25.5 108.5t-74.5 35.5z" />
    <glyph glyph-name="f" unicode="f" horiz-adv-x="390" 
d="M314 699q-39 0 -60.5 -30.5t-21.5 -84.5v-93h141l-5 -64h-136v-427h-124v427h-77v64h77v68q0 90 53 145t141 55q63 0 101.5 -31t38.5 -80q0 -17 -7 -33t-18 -26l-53 24q6 10 8.5 17.5t2.5 14.5q0 25 -16 39.5t-45 14.5z" />
    <glyph glyph-name="g" unicode="g" horiz-adv-x="603" 
d="M280 229q42 0 66 29t24 81t-24 81t-66 29t-65.5 -29t-23.5 -81t23.5 -81t65.5 -29zM567 -42q0 -84 -81 -133.5t-209 -49.5q-120 0 -187.5 33t-67.5 94q0 39 35.5 65.5t97.5 31.5q-45 10 -69 35.5t-24 64.5q0 35 24 63.5t67 43.5q-40 22 -62 57t-22 76q0 71 58.5 116.5
t152.5 45.5q34 0 65 -6.5t58 -19.5q33 41 64.5 59.5t66.5 18.5q36 0 58 -20.5t22 -55.5q0 -19 -6.5 -35.5t-18.5 -28.5l-52 26q6 11 7.5 17t1.5 11q0 11 -7 17.5t-19 6.5q-17 0 -34.5 -12.5t-36.5 -36.5q21 -21 32.5 -47.5t11.5 -55.5q0 -71 -59.5 -116.5t-153.5 -45.5
q-23 0 -45.5 3.5t-43.5 9.5q-20 -11 -30 -22t-10 -24q0 -20 16 -30.5t45 -10.5h169q88 0 137 -38t49 -107zM462 -77q0 32 -24 48t-73 16h-153q-46 -3 -74.5 -23t-28.5 -50q0 -38 46 -59t125 -21q82 0 132 24t50 65z" />
    <glyph glyph-name="h" unicode="h" horiz-adv-x="636" 
d="M93 0v749h124v-371q22 59 67 91t106 32q76 0 118.5 -46.5t42.5 -127.5v-327h-124v305q0 51 -24.5 80t-68.5 29q-51 0 -84 -47t-33 -122v-245h-124z" />
    <glyph glyph-name="i" unicode="i" horiz-adv-x="309" 
d="M219 592h-129v136h129v-136zM93 491h124v-491h-124v491z" />
    <glyph glyph-name="j" unicode="j" horiz-adv-x="309" 
d="M219 592h-129v136h129v-136zM217 491v-526q0 -89 -47 -139.5t-131 -50.5q-63 0 -99.5 28t-36.5 77q0 16 6 30.5t17 25.5l54 -23q-5 -8 -7 -15.5t-2 -14.5q0 -23 14.5 -36t40.5 -13q35 0 51 25t16 81v551h124z" />
    <glyph glyph-name="k" unicode="k" horiz-adv-x="616" 
d="M588 0h-143l-162 219l-66 -60v-159h-124v749h124v-508l265 250h98l-212 -194z" />
    <glyph glyph-name="l" unicode="l" horiz-adv-x="309" 
d="M93 749h124v-749h-124v749z" />
    <glyph glyph-name="m" unicode="m" horiz-adv-x="947" 
d="M652 414q-49 0 -80.5 -47.5t-31.5 -122.5v-244h-124v305q0 52 -22.5 80.5t-64.5 28.5q-49 0 -80.5 -47.5t-31.5 -122.5v-244h-124v491h120l4 -114q21 59 64.5 91.5t101.5 32.5q65 0 104 -32.5t48 -93.5q22 59 67 92.5t104 33.5q75 0 116 -46t41 -128v-327h-124v305
q0 52 -22.5 80.5t-64.5 28.5z" />
    <glyph glyph-name="n" unicode="n" horiz-adv-x="636" 
d="M334 414q-51 0 -84 -47t-33 -122v-245h-124v491h120l4 -113q22 59 67 91t106 32q76 0 118.5 -46.5t42.5 -127.5v-327h-124v305q0 51 -24.5 80t-68.5 29z" />
    <glyph glyph-name="o" unicode="o" horiz-adv-x="606" 
d="M559 245q0 -110 -73 -182.5t-183 -72.5t-183 72.5t-73 182.5t73 183t183 73t183 -73t73 -183zM427 245q0 99 -31 148.5t-93 49.5t-93.5 -50t-31.5 -148t31.5 -147.5t93.5 -49.5t93 49.5t31 147.5z" />
    <glyph glyph-name="p" unicode="p" horiz-adv-x="660" 
d="M349 425q-57 0 -95 -50t-38 -123v-42q0 -66 39 -110t92 -44q63 0 99 50.5t36 141.5q0 84 -35 130.5t-98 46.5zM379 -10q-55 0 -97.5 24.5t-64.5 67.5v-297h-124v706h120l4 -115q18 56 66.5 90.5t110.5 34.5q95 0 157.5 -68t62.5 -178q0 -115 -68 -190t-167 -75z" />
    <glyph glyph-name="q" unicode="q" horiz-adv-x="660" 
d="M282 501q56 0 97 -23.5t65 -69.5l9 83h115v-706h-124v331q-19 -59 -64.5 -92.5t-108.5 -33.5q-98 0 -161 67.5t-63 179.5q0 115 68 189.5t167 74.5zM312 66q57 0 94.5 49.5t37.5 122.5v43q0 66 -38.5 110t-92.5 44q-63 0 -98.5 -51t-35.5 -142q0 -84 35 -130t98 -46z" />
    <glyph glyph-name="r" unicode="r" horiz-adv-x="523" 
d="M213 491l4 -137q22 68 65 107.5t98 39.5q52 0 83 -30.5t31 -80.5q0 -24 -9 -47.5t-24 -38.5l-56 36q7 10 11 21.5t4 22.5q0 23 -14 36t-38 13q-54 0 -102.5 -76.5t-48.5 -164.5v-192h-124v491h120z" />
    <glyph glyph-name="s" unicode="s" horiz-adv-x="522" 
d="M259 437q-41 0 -64.5 -15.5t-23.5 -41.5q0 -23 17 -36t66 -26l79 -20q74 -19 106 -52t32 -90q0 -74 -57 -120t-148 -46q-74 0 -135 30.5t-90 82.5l48 47q33 -47 78 -71.5t99 -24.5q47 0 74 17t27 47q0 26 -16.5 40t-66.5 26l-75 18q-73 17 -107 51.5t-34 90.5
q0 70 54.5 113.5t139.5 43.5q63 0 114 -24t83 -69l-41 -57q-28 42 -69 64t-90 22z" />
    <glyph glyph-name="t" unicode="t" horiz-adv-x="452" 
d="M101 427h-76v64h76l2 114l121 49v-163h170l-5 -64h-165v-284q0 -38 17 -58.5t48 -20.5q36 0 54.5 25.5t22.5 82.5l58 -7q-3 -81 -48.5 -128t-122.5 -47q-72 0 -113 40.5t-41 112.5z" />
    <glyph glyph-name="u" unicode="u" horiz-adv-x="631" 
d="M297 77q50 0 82.5 47.5t32.5 122.5v244h124v-491h-120l-4 115q-23 -61 -66 -93t-103 -32q-73 0 -114.5 47t-41.5 127v327h124v-305q0 -54 21.5 -81.5t64.5 -27.5z" />
    <glyph glyph-name="v" unicode="v" horiz-adv-x="542" 
d="M520 491l-223 -496h-48l-226 496h136l140 -327l140 327h81z" />
    <glyph glyph-name="w" unicode="w" horiz-adv-x="799" 
d="M563 -5h-41l-122 310l-129 -310h-40l-208 496h135l127 -317l82 216l-40 101h130l113 -314l128 314h78z" />
    <glyph glyph-name="x" unicode="x" horiz-adv-x="579" 
d="M545 0h-140l-137 193l-147 -193h-87l193 249l-172 242h140l115 -161l121 161h86l-167 -217z" />
    <glyph glyph-name="y" unicode="y" horiz-adv-x="542" 
d="M104 -225q-48 0 -79.5 28t-31.5 72q0 13 4 26t13 29l70 -16q-7 -13 -8.5 -20t-1.5 -14q0 -19 11 -30t29 -11q29 0 51.5 28t62.5 117l19 42l-220 465h136l146 -325l133 325h82l-238 -546q-39 -91 -81 -130.5t-97 -39.5z" />
    <glyph glyph-name="z" unicode="z" horiz-adv-x="549" 
d="M52 0v37l282 388h-265v66h421v-36l-279 -389h287v-66h-446z" />
    <glyph glyph-name="braceleft" unicode="{" horiz-adv-x="441" 
d="M175 149q0 60 -28.5 89t-96.5 31v56q68 2 96.5 31t28.5 89q0 11 -1.5 25t-6.5 45q-6 35 -8 52.5t-2 31.5q0 68 45.5 109t120.5 41q19 0 39.5 -4t33.5 -10l-8 -48q-70 14 -110.5 -8t-40.5 -77q0 -13 2 -30t8 -54q6 -35 8 -51t2 -28q0 -62 -35.5 -100t-90.5 -42
q56 -6 91 -43t35 -99q0 -12 -2 -28.5t-8 -51.5q-6 -37 -8 -54t-2 -30q0 -55 40.5 -77t110.5 -8l8 -48q-13 -6 -33.5 -10t-39.5 -4q-75 0 -120.5 41t-45.5 109q0 15 2 32.5t8 52.5q5 31 6.5 45t1.5 25z" />
    <glyph glyph-name="bar" unicode="|" horiz-adv-x="281" 
d="M178 -153h-75v902h75v-902z" />
    <glyph glyph-name="braceright" unicode="}" horiz-adv-x="441" 
d="M266 149q0 -11 1.5 -25t6.5 -45q6 -35 8 -52.5t2 -32.5q0 -68 -45.5 -109t-120.5 -41q-19 0 -39.5 4t-33.5 10l8 48q70 -14 110.5 8t40.5 77q0 13 -2 30t-8 54q-6 35 -8 51.5t-2 28.5q0 62 35 99t91 43q-55 4 -90.5 42t-35.5 100q0 12 2 28t8 51q6 37 8 54t2 30
q0 55 -40.5 77t-110.5 8l-8 48q13 6 33.5 10t39.5 4q75 0 120.5 -41t45.5 -109q0 -14 -2 -31.5t-8 -52.5q-5 -31 -6.5 -45t-1.5 -25q0 -60 28.5 -89t96.5 -31v-56q-68 -2 -96.5 -31t-28.5 -89z" />
    <glyph glyph-name="asciitilde" unicode="~" horiz-adv-x="586" 
d="M374 249q-17 0 -35 6t-52 24q-33 18 -50 23.5t-32 5.5q-21 0 -35 -14t-25 -47h-69q14 61 50.5 97.5t84.5 36.5q17 0 35 -6t52 -24q33 -18 50.5 -23.5t32.5 -5.5q21 0 35 14t25 47h70q-14 -61 -51.5 -97.5t-85.5 -36.5z" />
    <glyph glyph-name="uni00A0" unicode="&#xa0;" horiz-adv-x="500" 
 />
    <glyph glyph-name="exclamdown" unicode="&#xa1;" horiz-adv-x="315" 
d="M173 316l72 -464h-172l72 464h28zM230 404h-143v148h143v-148z" />
    <glyph glyph-name="cent" unicode="&#xa2;" horiz-adv-x="572" 
d="M470 178l52 -18q-19 -76 -73 -120t-134 -49l-9 -105h-52l9 106q-98 11 -157 80.5t-59 175.5q0 118 74 195t188 81l8 92h52l-8 -95q69 -10 108 -51t39 -103q0 -27 -11.5 -51.5t-28.5 -38.5l-50 35q11 13 16 26.5t5 28.5q0 38 -22 63.5t-61 31.5l-35 -400h8q53 0 88 29
t53 87zM175 262q0 -74 24.5 -122.5t70.5 -66.5l34 388q-59 -11 -94 -64.5t-35 -134.5z" />
    <glyph glyph-name="sterling" unicode="&#xa3;" horiz-adv-x="675" 
d="M647 121q0 -64 -43 -106t-109 -42q-31 0 -61 9t-60 27q-12 7 -37.5 26.5t-64.5 50.5q-26 -48 -63 -72t-85 -24q-50 0 -80.5 30t-30.5 78q0 47 34 79t84 32q19 0 39.5 -5t42.5 -16q1 4 1 9.5v16.5q0 17 -1.5 37t-6.5 60h-109v53h101q-8 51 -10 74.5t-2 44.5
q0 102 66 164.5t172 62.5q84 0 135 -40t51 -103q0 -34 -21 -64t-48 -40l-39 35q18 17 25.5 33t7.5 35q0 36 -27 58t-71 22q-54 0 -82 -36t-28 -107v-139h152v-53h-154q-3 -51 -10 -92.5t-18 -74.5q62 -34 106.5 -47t88.5 -13q52 0 75 30.5t9 81.5l43 8q11 -13 19.5 -37.5
t8.5 -45.5zM77 97q0 -22 13 -35.5t35 -13.5q31 0 51.5 21t29.5 63q-19 10 -37 14.5t-36 4.5q-25 0 -40.5 -15t-15.5 -39z" />
    <glyph glyph-name="yen" unicode="&#xa5;" horiz-adv-x="695" 
d="M607 250v-53h-194v-197h-130v197h-193v53h193v45l-29 49h-164v53h132l-180 303h152l187 -323l185 323h87l-180 -303h134v-53h-165l-29 -49v-45h194z" />
    <glyph glyph-name="section" unicode="&#xa7;" horiz-adv-x="609" 
d="M205 253l158 -126q22 -17 37 -30.5t26 -25.5q20 10 31 27.5t11 40.5t-14.5 44.5t-48.5 49.5l-158 126q-21 16 -36 29.5t-27 26.5q-21 -11 -32 -28.5t-11 -39.5q0 -23 14.5 -44.5t49.5 -49.5zM481 -62q0 -71 -52 -117t-133 -46q-64 0 -114.5 29t-81.5 82l49 48
q26 -48 62.5 -72t83.5 -24q39 0 62.5 20t23.5 53q0 27 -16 49t-77 70l-129 101q-54 42 -81.5 85t-27.5 85q0 54 26.5 96t73.5 63q-11 19 -16 40.5t-5 46.5q0 71 52 117t133 46q64 0 114.5 -29t81.5 -82l-49 -48q-26 48 -62.5 72t-84.5 24q-38 0 -61.5 -20t-23.5 -53
q0 -27 16 -49t77 -70l129 -100q53 -42 80.5 -85t27.5 -85q0 -54 -26 -96t-73 -64q11 -19 16 -40.5t5 -46.5z" />
    <glyph glyph-name="dieresis" unicode="&#xa8;" horiz-adv-x="500" 
d="M210 587h-109v131h109v-131zM400 587h-109v131h109v-131z" />
    <glyph glyph-name="copyright" unicode="&#xa9;" horiz-adv-x="810" 
d="M405 710q152 0 256 -103t104 -257t-104 -257t-256 -103t-256 103t-104 257t104 257t256 103zM405 23q138 0 232.5 94t94.5 233q0 140 -94.5 234t-232.5 94q-137 0 -231.5 -94.5t-94.5 -233.5t94.5 -233t231.5 -94zM418 131q-95 0 -157 59.5t-62 153.5q0 96 63.5 159
t157.5 63q57 0 100.5 -23.5t68.5 -68.5l-33 -40q-24 42 -54 61t-70 19q-61 0 -95.5 -43.5t-34.5 -120.5q0 -76 36 -120t94 -44q43 0 72.5 18t51.5 57l33 -31q-26 -48 -70 -73.5t-101 -25.5z" />
    <glyph glyph-name="ordfeminine" unicode="&#xaa;" horiz-adv-x="426" 
d="M266 515v13l-45 -7q-45 -8 -64.5 -23.5t-19.5 -40.5q0 -21 13 -33t36 -12q33 0 56.5 30.5t23.5 72.5zM207 558l59 9v26q0 35 -19 52.5t-58 17.5q-30 0 -48.5 -11.5t-18.5 -30.5q0 -9 3 -16t11 -15l-47 -27q-12 9 -19.5 23.5t-7.5 31.5q0 42 38.5 67.5t103.5 25.5
q80 0 120 -33t40 -99v-220h-90l-7 74q-11 -36 -44.5 -58.5t-77.5 -22.5q-46 0 -75.5 25t-29.5 66q0 44 37 71.5t130 43.5zM367 217h-307v54h307v-54z" />
    <glyph glyph-name="guillemotleft" unicode="&#xab;" horiz-adv-x="658" 
d="M273 29l-215 211v8l215 211h71l-155 -215l155 -215h-71zM530 29l-215 211v8l215 211h71l-155 -215l155 -215h-71z" />
    <glyph glyph-name="registered" unicode="&#xae;" horiz-adv-x="542" 
d="M55 494q0 92 62.5 154t153.5 62t153.5 -62t62.5 -154t-62.5 -154t-153.5 -62t-153.5 62t-62.5 154zM82 494q0 -82 54.5 -136t134.5 -54q81 0 135.5 54.5t54.5 135.5q0 82 -55 136.5t-135 54.5t-134.5 -54.5t-54.5 -136.5zM265 588h-36v-83h36q25 0 38 10.5t13 31.5
q0 20 -13 30.5t-38 10.5zM259 479h-30v-101h-52v236h106q41 0 64.5 -16.5t23.5 -46.5q0 -27 -20 -43t-52 -17v-1q21 -2 35 -12t21 -30l11 -31q5 -13 9 -21t12 -18h-59q-3 5 -6 11t-9 23l-14 39q-4 16 -13 22t-27 6z" />
    <glyph glyph-name="macron" unicode="&#xaf;" horiz-adv-x="500" 
d="M395 655v-69h-290v69h290z" />
    <glyph glyph-name="degree" unicode="&#xb0;" horiz-adv-x="396" 
d="M60 572q0 57 40.5 97.5t97.5 40.5q58 0 98 -40t40 -98q0 -57 -40.5 -97.5t-97.5 -40.5t-97.5 40.5t-40.5 97.5zM120 572q0 -32 23 -55t55 -23t55 23t23 55q0 33 -22.5 55.5t-55.5 22.5q-32 0 -55 -23t-23 -55z" />
    <glyph glyph-name="plusminus" unicode="&#xb1;" horiz-adv-x="634" 
d="M544 440v-68h-193v-161h-66v161h-194v68h194v161h66v-161h193zM544 95h-453v68h453v-68z" />
    <glyph glyph-name="twosuperior" unicode="&#xb2;" horiz-adv-x="385" 
d="M323 583q0 -52 -45 -96t-162 -103h218l-7 -82h-302v25l104 101q55 53 75 89t20 75q0 30 -17.5 47.5t-47.5 17.5q-28 0 -44 -15.5t-16 -42.5q0 -15 9 -28.5t26 -24.5l-32 -32q-24 6 -41 29.5t-17 51.5q0 50 37 80.5t99 30.5q65 0 104 -32.5t39 -90.5z" />
    <glyph glyph-name="threesuperior" unicode="&#xb3;" horiz-adv-x="395" 
d="M350 415q0 -55 -46 -87t-122 -32q-60 0 -99.5 28t-39.5 74q0 28 19.5 49.5t46.5 25.5l25 -31q-19 -9 -27 -19t-8 -25q0 -25 19.5 -40t50.5 -15q38 0 58.5 20.5t20.5 58.5t-19.5 57t-60.5 19h-9v32h9q37 2 54.5 19.5t17.5 52.5q0 28 -18 43.5t-49 15.5q-27 0 -43 -12
t-16 -32q0 -13 7 -22.5t21 -15.5l-22 -33q-26 4 -42 23t-16 46q0 39 36.5 65t91.5 26q65 0 105 -26.5t40 -72.5q0 -38 -29 -62.5t-77 -28.5v-1q54 -3 87.5 -30.5t33.5 -69.5z" />
    <glyph glyph-name="acute" unicode="&#xb4;" horiz-adv-x="500" 
d="M151 561l61 188h130l-132 -188h-59z" />
    <glyph glyph-name="paragraph" unicode="&#xb6;" horiz-adv-x="583" 
d="M46 480q0 102 85.5 161t225.5 59h165v-65h-93v-646q0 -98 -47 -156t-126 -58q-65 0 -105 35t-40 92q0 17 5 34.5t13 28.5l59 -15q-5 -9 -7.5 -19.5t-2.5 -20.5q0 -35 20.5 -56t55.5 -21q52 0 79 38.5t27 113.5v277q-141 0 -227.5 58.5t-86.5 159.5z" />
    <glyph glyph-name="periodcentered" unicode="&#xb7;" horiz-adv-x="295" 
d="M219 210h-143v148h143v-148z" />
    <glyph glyph-name="cedilla" unicode="&#xb8;" horiz-adv-x="500" 
d="M242 -225q-39 0 -71 17t-45 44l34 34q14 -19 34.5 -30t42.5 -11q25 0 40 10.5t15 29.5q0 20 -27.5 31t-76.5 12l45 108h50l-30 -72q56 -2 84.5 -23t28.5 -59q0 -39 -35.5 -65t-88.5 -26z" />
    <glyph glyph-name="onesuperior" unicode="&#xb9;" horiz-adv-x="318" 
d="M234 704v-402h-92v298q-9 -15 -39.5 -40t-52.5 -34l-17 44q32 17 75 58.5t63 75.5h63z" />
    <glyph glyph-name="ordmasculine" unicode="&#xba;" horiz-adv-x="445" 
d="M407 531q0 -77 -53 -128t-132 -51q-78 0 -131 51t-53 128q0 78 53 129t131 51q79 0 132 -51t53 -129zM301 531q0 71 -19 104.5t-60 33.5q-40 0 -59.5 -34t-19.5 -104q0 -69 19.5 -102.5t59.5 -33.5q41 0 60 33t19 103zM376 217h-307v54h307v-54z" />
    <glyph glyph-name="guillemotright" unicode="&#xbb;" horiz-adv-x="658" 
d="M57 29l155 215l-155 215h71l215 -211v-8l-215 -211h-71zM314 29l155 215l-155 215h71l215 -211v-8l-215 -211h-71z" />
    <glyph glyph-name="onequarter" unicode="&#xbc;" horiz-adv-x="843" 
d="M712 141h80v-41h-80v-100h-92v100h-181v29l177 269h96v-257zM498 141h122v186zM209 -10h-62l431 720h62zM234 704v-402h-92v298q-9 -15 -39.5 -40t-52.5 -34l-17 44q32 17 75 58.5t63 75.5h63z" />
    <glyph glyph-name="onehalf" unicode="&#xbd;" horiz-adv-x="849" 
d="M787 281q0 -52 -45 -96t-162 -103h218l-7 -82h-302v25l104 101q55 53 75 89t20 75q0 30 -17.5 47.5t-47.5 17.5q-28 0 -44 -15.5t-16 -42.5q0 -15 9 -28.5t26 -24.5l-32 -32q-24 6 -41 29.5t-17 51.5q0 50 37 80.5t99 30.5q65 0 104 -32.5t39 -90.5zM234 704v-402h-92
v298q-9 -15 -39.5 -40t-52.5 -34l-17 44q32 17 75 58.5t63 75.5h63zM209 -10h-62l431 720h62z" />
    <glyph glyph-name="threequarters" unicode="&#xbe;" horiz-adv-x="904" 
d="M773 141h80v-41h-80v-100h-92v100h-181v29l177 269h96v-257zM559 141h122v186zM350 415q0 -55 -46 -87t-122 -32q-60 0 -99.5 28t-39.5 74q0 28 19.5 49.5t46.5 25.5l25 -31q-19 -9 -27 -19t-8 -25q0 -25 19.5 -40t50.5 -15q38 0 58.5 20.5t20.5 58.5t-19.5 57t-60.5 19
h-9v32h9q37 2 54.5 19.5t17.5 52.5q0 28 -18 43.5t-49 15.5q-27 0 -43 -12t-16 -32q0 -13 7 -22.5t21 -15.5l-22 -33q-26 4 -42 23t-16 46q0 39 36.5 65t91.5 26q65 0 105 -26.5t40 -72.5q0 -38 -29 -62.5t-77 -28.5v-1q54 -3 87.5 -30.5t33.5 -69.5zM270 -10h-62l431 720
h62z" />
    <glyph glyph-name="questiondown" unicode="&#xbf;" horiz-adv-x="559" 
d="M176 26q0 -51 35 -81t96 -30q59 0 94.5 29t35.5 79q0 21 -10 41.5t-29 37.5l50 42q31 -18 50 -50.5t19 -68.5q0 -79 -64 -131t-167 -52q-108 0 -176 56t-68 144q0 83 61 142.5t165 81.5v73h55v-170q-69 -15 -108 -53t-39 -90zM224 552h144v-143h-144v143z" />
    <glyph glyph-name="Agrave" unicode="&#xc0;" horiz-adv-x="746" 
d="M231 260h226l-115 261zM708 0h-137l-86 195h-282l-83 -195h-82l307 704h54zM406 766h-59l-129 174h132z" />
    <glyph glyph-name="Aacute" unicode="&#xc1;" horiz-adv-x="746" 
d="M231 260h226l-115 261zM708 0h-137l-86 195h-282l-83 -195h-82l307 704h54zM342 766l57 174h131l-128 -174h-60z" />
    <glyph glyph-name="Acircumflex" unicode="&#xc2;" horiz-adv-x="746" 
d="M231 260h226l-115 261zM708 0h-137l-86 195h-282l-83 -195h-82l307 704h54zM545 761h-58l-114 103l-114 -103h-58l139 189h64z" />
    <glyph glyph-name="Atilde" unicode="&#xc3;" horiz-adv-x="746" 
d="M231 260h226l-115 261zM708 0h-137l-86 195h-282l-83 -195h-82l307 704h54zM450 783q-17 0 -35.5 8t-54.5 31q-26 18 -37.5 23.5t-20.5 5.5q-20 0 -33 -15.5t-24 -56.5h-60q14 71 43.5 110.5t67.5 39.5q17 0 36 -8t54 -32q26 -18 38 -23.5t21 -5.5q20 0 33 16.5t24 56.5
h59q-14 -72 -43 -111t-68 -39z" />
    <glyph glyph-name="Adieresis" unicode="&#xc4;" horiz-adv-x="746" 
d="M231 260h226l-115 261zM708 0h-137l-86 195h-282l-83 -195h-82l307 704h54zM332 780h-109v130h109v-130zM522 780h-109v130h109v-130z" />
    <glyph glyph-name="Aring" unicode="&#xc5;" horiz-adv-x="746" 
d="M231 260h226l-115 261zM708 0h-137l-86 195h-282l-83 -195h-82l307 704h54zM373 752q-45 0 -77.5 32t-32.5 77q0 44 33 76.5t77 32.5q45 0 78 -32.5t33 -76.5q0 -45 -33 -77t-78 -32zM373 803q26 0 42.5 16.5t16.5 41.5q0 26 -16.5 43t-42.5 17t-42.5 -17t-16.5 -43
q0 -25 17 -41.5t42 -16.5z" />
    <glyph glyph-name="AE" unicode="&#xc6;" horiz-adv-x="1094" 
d="M520 275v332l-215 -332h215zM1036 0h-516v210h-257l-136 -210h-89l458 700h524v-71h-370v-232h271v-71h-271v-254h386v-72z" />
    <glyph glyph-name="Ccedilla" unicode="&#xc7;" horiz-adv-x="723" 
d="M506 -134q0 -39 -35.5 -65t-88.5 -26q-39 0 -71 17t-45 44l34 34q14 -19 34.5 -30t42.5 -11q25 0 40 10.5t15 29.5q0 20 -27.5 31t-76.5 12l33 80q-140 15 -227.5 112t-87.5 240q0 159 104 262.5t260 103.5q93 0 164.5 -39.5t114.5 -114.5l-54 -57q-38 70 -90.5 103.5
t-120.5 33.5q-107 0 -169.5 -76t-62.5 -208q0 -128 64.5 -206t166.5 -79q72 0 124 31.5t89 99.5l53 -41q-44 -81 -115.5 -124t-162.5 -43l-18 -42q56 -2 84.5 -23t28.5 -59z" />
    <glyph glyph-name="Egrave" unicode="&#xc8;" horiz-adv-x="677" 
d="M405 766h-59l-129 174h132zM619 0h-515v700h499v-71h-369v-232h271v-71h-271v-254h385v-72z" />
    <glyph glyph-name="Eacute" unicode="&#xc9;" horiz-adv-x="677" 
d="M331 766l57 174h131l-128 -174h-60zM619 0h-515v700h499v-71h-369v-232h271v-71h-271v-254h385v-72z" />
    <glyph glyph-name="Ecircumflex" unicode="&#xca;" horiz-adv-x="677" 
d="M619 0h-515v700h499v-71h-369v-232h271v-71h-271v-254h385v-72zM537 761h-58l-114 103l-114 -103h-58l139 189h64z" />
    <glyph glyph-name="Edieresis" unicode="&#xcb;" horiz-adv-x="677" 
d="M325 780h-109v130h109v-130zM515 780h-109v130h109v-130zM619 0h-515v700h499v-71h-369v-232h271v-71h-271v-254h385v-72z" />
    <glyph glyph-name="Igrave" unicode="&#xcc;" horiz-adv-x="338" 
d="M104 700h130v-700h-130v700zM208 766h-59l-129 174h132z" />
    <glyph glyph-name="Iacute" unicode="&#xcd;" horiz-adv-x="338" 
d="M104 700h130v-700h-130v700zM133 766l57 174h131l-128 -174h-60z" />
    <glyph glyph-name="Icircumflex" unicode="&#xce;" horiz-adv-x="338" 
d="M104 700h130v-700h-130v700zM340 761h-58l-114 103l-114 -103h-58l139 189h64z" />
    <glyph glyph-name="Idieresis" unicode="&#xcf;" horiz-adv-x="338" 
d="M104 700h130v-700h-130v700zM127 780h-109v130h109v-130zM317 780h-109v130h109v-130z" />
    <glyph glyph-name="Eth" unicode="&#xd0;" horiz-adv-x="799" 
d="M754 353q0 -164 -104 -258.5t-280 -94.5h-244v326h-96v70h96v304h231q184 0 290.5 -92.5t106.5 -254.5zM256 326v-259h99q127 0 193 73t66 213q0 133 -70 206.5t-197 73.5h-91v-237h142v-70h-142z" />
    <glyph glyph-name="Ntilde" unicode="&#xd1;" horiz-adv-x="799" 
d="M474 783q-17 0 -35.5 8t-54.5 31q-26 18 -37.5 23.5t-20.5 5.5q-20 0 -33 -15.5t-24 -56.5h-60q14 71 43.5 110.5t67.5 39.5q17 0 36 -8t54 -32q26 -18 38 -23.5t21 -5.5q20 0 33 16.5t24 56.5h59q-14 -72 -43 -111t-68 -39zM229 700l382 -468v468h84v-702h-51l-456 555
v-553h-84v700h125z" />
    <glyph glyph-name="Ograve" unicode="&#xd2;" horiz-adv-x="805" 
d="M443 766h-59l-129 174h132zM403 -10q-152 0 -254.5 103.5t-102.5 256.5t102.5 256.5t254.5 103.5q151 0 254 -103.5t103 -256.5t-103 -256.5t-254 -103.5zM403 646q-101 0 -156 -77.5t-55 -218.5t55 -218t156 -77t156 77.5t55 217.5q0 141 -55 218.5t-156 77.5z" />
    <glyph glyph-name="Oacute" unicode="&#xd3;" horiz-adv-x="805" 
d="M368 766l57 174h131l-128 -174h-60zM403 -10q-152 0 -254.5 103.5t-102.5 256.5t102.5 256.5t254.5 103.5q151 0 254 -103.5t103 -256.5t-103 -256.5t-254 -103.5zM403 646q-101 0 -156 -77.5t-55 -218.5t55 -218t156 -77t156 77.5t55 217.5q0 141 -55 218.5t-156 77.5z
" />
    <glyph glyph-name="Ocircumflex" unicode="&#xd4;" horiz-adv-x="805" 
d="M403 -10q-152 0 -254.5 103.5t-102.5 256.5t102.5 256.5t254.5 103.5q151 0 254 -103.5t103 -256.5t-103 -256.5t-254 -103.5zM403 646q-101 0 -156 -77.5t-55 -218.5t55 -218t156 -77t156 77.5t55 217.5q0 141 -55 218.5t-156 77.5zM575 761h-58l-114 103l-114 -103h-58
l139 189h64z" />
    <glyph glyph-name="Otilde" unicode="&#xd5;" horiz-adv-x="805" 
d="M480 783q-17 0 -35.5 8t-54.5 31q-26 18 -37.5 23.5t-20.5 5.5q-20 0 -33 -15.5t-24 -56.5h-60q14 71 43.5 110.5t67.5 39.5q17 0 36 -8t54 -32q26 -18 38 -23.5t21 -5.5q20 0 33 16.5t24 56.5h59q-14 -72 -43 -111t-68 -39zM403 -10q-152 0 -254.5 103.5t-102.5 256.5
t102.5 256.5t254.5 103.5q151 0 254 -103.5t103 -256.5t-103 -256.5t-254 -103.5zM403 646q-101 0 -156 -77.5t-55 -218.5t55 -218t156 -77t156 77.5t55 217.5q0 141 -55 218.5t-156 77.5z" />
    <glyph glyph-name="Odieresis" unicode="&#xd6;" horiz-adv-x="805" 
d="M362 780h-109v130h109v-130zM552 780h-109v130h109v-130zM403 -10q-152 0 -254.5 103.5t-102.5 256.5t102.5 256.5t254.5 103.5q151 0 254 -103.5t103 -256.5t-103 -256.5t-254 -103.5zM403 646q-101 0 -156 -77.5t-55 -218.5t55 -218t156 -77t156 77.5t55 217.5
q0 141 -55 218.5t-156 77.5z" />
    <glyph glyph-name="multiply" unicode="&#xd7;" horiz-adv-x="556" 
d="M466 194l-48 -48l-140 142l-139 -142l-47 48l141 141l-141 140l47 48l139 -142l140 142l48 -48l-142 -140z" />
    <glyph glyph-name="Oslash" unicode="&#xd8;" horiz-adv-x="805" 
d="M403 646q-101 0 -156 -77.5t-55 -218.5q0 -47 6.5 -88t19.5 -74l344 376q-27 40 -67.5 61t-91.5 21zM403 55q101 0 156 77.5t55 217.5q0 43 -5.5 81t-16.5 71l-342 -374q27 -36 65.5 -54.5t87.5 -18.5zM760 350q0 -153 -103 -256.5t-254 -103.5q-59 0 -114 18t-102 52
l-88 -97l-48 43l89 97q-45 48 -69.5 112t-24.5 135q0 153 102.5 256.5t254.5 103.5q62 0 119 -19.5t104 -56.5l81 89l48 -42l-83 -91q43 -48 65.5 -110t22.5 -130z" />
    <glyph glyph-name="Ugrave" unicode="&#xd9;" horiz-adv-x="764" 
d="M437 766h-59l-129 174h132zM587 283v417h84v-427q0 -133 -75.5 -208t-206.5 -75q-140 0 -217.5 74.5t-77.5 207.5v428h130v-417q0 -102 47.5 -157t135.5 -55q90 0 135 52.5t45 159.5z" />
    <glyph glyph-name="Uacute" unicode="&#xda;" horiz-adv-x="764" 
d="M362 766l57 174h131l-128 -174h-60zM587 283v417h84v-427q0 -133 -75.5 -208t-206.5 -75q-140 0 -217.5 74.5t-77.5 207.5v428h130v-417q0 -102 47.5 -157t135.5 -55q90 0 135 52.5t45 159.5z" />
    <glyph glyph-name="Ucircumflex" unicode="&#xdb;" horiz-adv-x="764" 
d="M587 283v417h84v-427q0 -133 -75.5 -208t-206.5 -75q-140 0 -217.5 74.5t-77.5 207.5v428h130v-417q0 -102 47.5 -157t135.5 -55q90 0 135 52.5t45 159.5zM569 761h-58l-114 103l-114 -103h-58l139 189h64z" />
    <glyph glyph-name="Udieresis" unicode="&#xdc;" horiz-adv-x="764" 
d="M356 780h-109v130h109v-130zM546 780h-109v130h109v-130zM587 283v417h84v-427q0 -133 -75.5 -208t-206.5 -75q-140 0 -217.5 74.5t-77.5 207.5v428h130v-417q0 -102 47.5 -157t135.5 -55q90 0 135 52.5t45 159.5z" />
    <glyph glyph-name="Yacute" unicode="&#xdd;" horiz-adv-x="727" 
d="M185 700l210 -323l209 323h90l-265 -405v-295h-130v295l-266 405h152zM329 766l57 174h131l-128 -174h-60z" />
    <glyph glyph-name="Thorn" unicode="&#xde;" horiz-adv-x="681" 
d="M234 151v-151h-130v700h130v-119h142q130 0 202.5 -56.5t72.5 -158.5t-73 -158.5t-202 -56.5h-142zM234 512v-292h105q92 0 134 35t42 111t-42 111t-134 35h-105z" />
    <glyph glyph-name="germandbls" unicode="&#xdf;" horiz-adv-x="715" 
d="M565 608q0 -38 -20 -69.5t-74 -71.5q-32 -24 -43.5 -38.5t-11.5 -30.5q0 -20 18 -35t77 -40q94 -38 129.5 -75.5t35.5 -92.5q0 -72 -53.5 -118.5t-133.5 -46.5q-66 0 -118.5 29.5t-82.5 83.5l48 47q35 -50 71 -73t82 -23q39 0 60.5 17.5t21.5 48.5q0 28 -21.5 47
t-94.5 48q-75 30 -105.5 62t-30.5 80q0 37 19.5 69t71.5 74q51 41 64 61.5t13 45.5q0 41 -33 65t-89 24q-67 0 -107.5 -46.5t-40.5 -126.5v-523h-124v502q0 115 76.5 186t193.5 71q89 0 145.5 -42t56.5 -109z" />
    <glyph glyph-name="agrave" unicode="&#xe0;" horiz-adv-x="580" 
d="M374 225v18l-70 -12q-70 -12 -100 -35t-30 -61q0 -33 19.5 -50.5t55.5 -17.5q50 0 87.5 47t37.5 111zM289 281l85 14v37q0 53 -28 78.5t-86 25.5q-45 0 -72 -17t-27 -46q0 -11 3.5 -20t12.5 -19l-61 -36q-15 12 -24 31t-9 40q0 59 52.5 95.5t141.5 36.5
q109 0 164.5 -45.5t55.5 -135.5l-1 -320h-111l-9 109q-17 -52 -66 -85.5t-111 -33.5q-66 0 -106.5 35.5t-40.5 94.5q0 62 50.5 99.5t186.5 61.5zM322 561h-58l-132 188h130z" />
    <glyph glyph-name="aacute" unicode="&#xe1;" horiz-adv-x="580" 
d="M374 225v18l-70 -12q-70 -12 -100 -35t-30 -61q0 -33 19.5 -50.5t55.5 -17.5q50 0 87.5 47t37.5 111zM289 281l85 14v37q0 53 -28 78.5t-86 25.5q-45 0 -72 -17t-27 -46q0 -11 3.5 -20t12.5 -19l-61 -36q-15 12 -24 31t-9 40q0 59 52.5 95.5t141.5 36.5
q109 0 164.5 -45.5t55.5 -135.5l-1 -320h-111l-9 109q-17 -52 -66 -85.5t-111 -33.5q-66 0 -106.5 35.5t-40.5 94.5q0 62 50.5 99.5t186.5 61.5zM252 561l61 188h130l-132 -188h-59z" />
    <glyph glyph-name="acircumflex" unicode="&#xe2;" horiz-adv-x="580" 
d="M374 225v18l-70 -12q-70 -12 -100 -35t-30 -61q0 -33 19.5 -50.5t55.5 -17.5q50 0 87.5 47t37.5 111zM289 281l85 14v37q0 53 -28 78.5t-86 25.5q-45 0 -72 -17t-27 -46q0 -11 3.5 -20t12.5 -19l-61 -36q-15 12 -24 31t-9 40q0 59 52.5 95.5t141.5 36.5
q109 0 164.5 -45.5t55.5 -135.5l-1 -320h-111l-9 109q-17 -52 -66 -85.5t-111 -33.5q-66 0 -106.5 35.5t-40.5 94.5q0 62 50.5 99.5t186.5 61.5zM254 751h64l131 -199h-58l-104 113l-104 -113h-58z" />
    <glyph glyph-name="atilde" unicode="&#xe3;" horiz-adv-x="580" 
d="M374 225v18l-70 -12q-70 -12 -100 -35t-30 -61q0 -33 19.5 -50.5t55.5 -17.5q50 0 87.5 47t37.5 111zM289 281l85 14v37q0 53 -28 78.5t-86 25.5q-45 0 -72 -17t-27 -46q0 -11 3.5 -20t12.5 -19l-61 -36q-15 12 -24 31t-9 40q0 59 52.5 95.5t141.5 36.5
q109 0 164.5 -45.5t55.5 -135.5l-1 -320h-111l-9 109q-17 -52 -66 -85.5t-111 -33.5q-66 0 -106.5 35.5t-40.5 94.5q0 62 50.5 99.5t186.5 61.5zM364 582q-17 0 -35.5 8t-54.5 32q-26 18 -37.5 23.5t-20.5 5.5q-20 0 -33 -15.5t-24 -57.5h-60q14 71 43 110.5t68 39.5
q17 0 36 -7.5t54 -31.5q26 -18 38 -23.5t21 -5.5q20 0 33 16t24 56h59q-14 -72 -43 -111t-68 -39z" />
    <glyph glyph-name="adieresis" unicode="&#xe4;" horiz-adv-x="580" 
d="M374 225v18l-70 -12q-70 -12 -100 -35t-30 -61q0 -33 19.5 -50.5t55.5 -17.5q50 0 87.5 47t37.5 111zM289 281l85 14v37q0 53 -28 78.5t-86 25.5q-45 0 -72 -17t-27 -46q0 -11 3.5 -20t12.5 -19l-61 -36q-15 12 -24 31t-9 40q0 59 52.5 95.5t141.5 36.5
q109 0 164.5 -45.5t55.5 -135.5l-1 -320h-111l-9 109q-17 -52 -66 -85.5t-111 -33.5q-66 0 -106.5 35.5t-40.5 94.5q0 62 50.5 99.5t186.5 61.5zM246 587h-109v131h109v-131zM436 587h-109v131h109v-131z" />
    <glyph glyph-name="aring" unicode="&#xe5;" horiz-adv-x="580" 
d="M374 225v18l-70 -12q-70 -12 -100 -35t-30 -61q0 -33 19.5 -50.5t55.5 -17.5q50 0 87.5 47t37.5 111zM289 281l85 14v37q0 53 -28 78.5t-86 25.5q-45 0 -72 -17t-27 -46q0 -11 3.5 -20t12.5 -19l-61 -36q-15 12 -24 31t-9 40q0 59 52.5 95.5t141.5 36.5
q109 0 164.5 -45.5t55.5 -135.5l-1 -320h-111l-9 109q-17 -52 -66 -85.5t-111 -33.5q-66 0 -106.5 35.5t-40.5 94.5q0 62 50.5 99.5t186.5 61.5zM287 558q-45 0 -77.5 32.5t-32.5 77.5q0 44 32.5 76t77.5 32t78 -32t33 -76q0 -45 -33 -77.5t-78 -32.5zM287 609
q26 0 42.5 16.5t16.5 42.5t-16.5 42.5t-42.5 16.5q-25 0 -42 -16.5t-17 -42.5t16.5 -42.5t42.5 -16.5z" />
    <glyph glyph-name="ae" unicode="&#xe6;" horiz-adv-x="886" 
d="M785 170l52 -18q-20 -78 -78 -120t-145 -42q-69 0 -123 30.5t-84 86.5q-29 -55 -83 -86t-125 -31q-65 0 -106 35.5t-41 94.5q0 62 50.5 99.5t186.5 61.5l85 14v37q0 53 -28 78.5t-86 25.5q-45 0 -72 -17t-27 -46q0 -11 3.5 -20t12.5 -19l-61 -36q-15 12 -24 31t-9 40
q0 58 51.5 95t137.5 37q59 0 102 -20.5t67 -59.5q32 38 76.5 59t95.5 21q107 0 167 -68t60 -188h-346q1 -90 40 -137t111 -47q51 0 85 26t55 83zM612 443q-50 0 -79.5 -36.5t-36.5 -107.5h217q-1 74 -26 109t-75 35zM374 225v18l-70 -12q-70 -12 -100 -35t-30 -61
q0 -32 20 -50t55 -18q54 0 89.5 45t35.5 113z" />
    <glyph glyph-name="ccedilla" unicode="&#xe7;" horiz-adv-x="552" 
d="M398 -134q0 -39 -35.5 -65t-88.5 -26q-39 0 -71 17t-45 44l34 34q14 -19 34.5 -30t42.5 -11q25 0 40 10.5t15 29.5q0 20 -27.5 31t-76.5 12l33 80q-93 12 -149.5 78.5t-56.5 166.5q0 116 74.5 190t188.5 74q85 0 134.5 -41.5t49.5 -109.5q0 -25 -11 -48.5t-28 -37.5
l-49 34q10 12 14.5 25t4.5 27q0 40 -27 64.5t-76 24.5q-65 0 -105.5 -52.5t-40.5 -136.5q0 -91 38 -140t107 -49q49 0 83 27.5t54 82.5l51 -19q-19 -73 -72.5 -115.5t-133.5 -46.5l-18 -42q56 -2 84.5 -23t28.5 -59z" />
    <glyph glyph-name="egrave" unicode="&#xe8;" horiz-adv-x="566" 
d="M466 170l51 -18q-20 -78 -77.5 -120t-144.5 -42q-109 0 -178.5 68.5t-69.5 179.5q0 116 70 189.5t177 73.5q106 0 166 -68t60 -188h-345q1 -89 40 -136.5t110 -47.5q52 0 86 26t55 83zM293 443q-50 0 -79.5 -36.5t-36.5 -107.5h216q-1 73 -25.5 108.5t-74.5 35.5z
M331 561h-58l-132 188h130z" />
    <glyph glyph-name="eacute" unicode="&#xe9;" horiz-adv-x="566" 
d="M261 561l61 188h130l-132 -188h-59zM466 170l51 -18q-20 -78 -77.5 -120t-144.5 -42q-109 0 -178.5 68.5t-69.5 179.5q0 116 70 189.5t177 73.5q106 0 166 -68t60 -188h-345q1 -89 40 -136.5t110 -47.5q52 0 86 26t55 83zM293 443q-50 0 -79.5 -36.5t-36.5 -107.5h216
q-1 73 -25.5 108.5t-74.5 35.5z" />
    <glyph glyph-name="ecircumflex" unicode="&#xea;" horiz-adv-x="566" 
d="M263 751h64l131 -199h-58l-104 113l-104 -113h-58zM466 170l51 -18q-20 -78 -77.5 -120t-144.5 -42q-109 0 -178.5 68.5t-69.5 179.5q0 116 70 189.5t177 73.5q106 0 166 -68t60 -188h-345q1 -89 40 -136.5t110 -47.5q52 0 86 26t55 83zM293 443q-50 0 -79.5 -36.5
t-36.5 -107.5h216q-1 73 -25.5 108.5t-74.5 35.5z" />
    <glyph glyph-name="edieresis" unicode="&#xeb;" horiz-adv-x="566" 
d="M255 587h-109v131h109v-131zM445 587h-109v131h109v-131zM466 170l51 -18q-20 -78 -77.5 -120t-144.5 -42q-109 0 -178.5 68.5t-69.5 179.5q0 116 70 189.5t177 73.5q106 0 166 -68t60 -188h-345q1 -89 40 -136.5t110 -47.5q52 0 86 26t55 83zM293 443q-50 0 -79.5 -36.5
t-36.5 -107.5h216q-1 73 -25.5 108.5t-74.5 35.5z" />
    <glyph glyph-name="igrave" unicode="&#xec;" horiz-adv-x="309" 
d="M93 491h124v-491h-124v491zM190 561h-58l-132 188h130z" />
    <glyph glyph-name="iacute" unicode="&#xed;" horiz-adv-x="309" 
d="M119 561l61 188h130l-132 -188h-59zM93 491h124v-491h-124v491z" />
    <glyph glyph-name="icircumflex" unicode="&#xee;" horiz-adv-x="309" 
d="M122 751h64l121 -199h-58l-94 113l-94 -113h-58zM93 491h124v-491h-124v491z" />
    <glyph glyph-name="idieresis" unicode="&#xef;" horiz-adv-x="309" 
d="M114 587h-109v131h109v-131zM304 587h-109v131h109v-131zM93 491h124v-491h-124v491z" />
    <glyph glyph-name="eth" unicode="&#xf0;" horiz-adv-x="606" 
d="M560 291q0 -132 -73 -216.5t-184 -84.5q-110 0 -183 72.5t-73 182.5q0 109 72 182.5t178 73.5q35 0 70.5 -14.5t54.5 -37.5q-7 47 -28.5 89t-56.5 76l-149 -66l-22 51l122 54q-33 21 -71.5 34t-81.5 18l14 55q58 -5 112 -23.5t101 -50.5l101 44l22 -51l-73 -32
q71 -66 109.5 -158.5t38.5 -197.5zM427 245q0 98 -31.5 148t-93.5 50q-61 0 -92.5 -50t-31.5 -148q0 -97 31.5 -147t92.5 -50q62 0 93.5 49.5t31.5 147.5z" />
    <glyph glyph-name="ntilde" unicode="&#xf1;" horiz-adv-x="636" 
d="M334 414q-51 0 -84 -47t-33 -122v-245h-124v491h120l4 -113q22 59 67 91t106 32q76 0 118.5 -46.5t42.5 -127.5v-327h-124v305q0 51 -24.5 80t-68.5 29zM401 582q-17 0 -35.5 8t-54.5 32q-26 18 -37.5 23.5t-20.5 5.5q-20 0 -33 -15.5t-24 -57.5h-60q14 71 43 110.5
t68 39.5q17 0 36 -7.5t54 -31.5q26 -18 38 -23.5t21 -5.5q20 0 33 16t24 56h59q-14 -72 -43 -111t-68 -39z" />
    <glyph glyph-name="ograve" unicode="&#xf2;" horiz-adv-x="606" 
d="M559 245q0 -110 -73 -182.5t-183 -72.5t-183 72.5t-73 182.5t73 183t183 73t183 -73t73 -183zM427 245q0 99 -31 148.5t-93 49.5t-93.5 -50t-31.5 -148t31.5 -147.5t93.5 -49.5t93 49.5t31 147.5zM338 561h-58l-132 188h130z" />
    <glyph glyph-name="oacute" unicode="&#xf3;" horiz-adv-x="606" 
d="M268 561l61 188h130l-132 -188h-59zM559 245q0 -110 -73 -182.5t-183 -72.5t-183 72.5t-73 182.5t73 183t183 73t183 -73t73 -183zM427 245q0 99 -31 148.5t-93 49.5t-93.5 -50t-31.5 -148t31.5 -147.5t93.5 -49.5t93 49.5t31 147.5z" />
    <glyph glyph-name="ocircumflex" unicode="&#xf4;" horiz-adv-x="606" 
d="M270 751h64l131 -199h-58l-104 113l-104 -113h-58zM559 245q0 -110 -73 -182.5t-183 -72.5t-183 72.5t-73 182.5t73 183t183 73t183 -73t73 -183zM427 245q0 99 -31 148.5t-93 49.5t-93.5 -50t-31.5 -148t31.5 -147.5t93.5 -49.5t93 49.5t31 147.5z" />
    <glyph glyph-name="otilde" unicode="&#xf5;" horiz-adv-x="606" 
d="M559 245q0 -110 -73 -182.5t-183 -72.5t-183 72.5t-73 182.5t73 183t183 73t183 -73t73 -183zM427 245q0 99 -31 148.5t-93 49.5t-93.5 -50t-31.5 -148t31.5 -147.5t93.5 -49.5t93 49.5t31 147.5zM380 582q-17 0 -35.5 8t-54.5 32q-26 18 -37.5 23.5t-20.5 5.5
q-20 0 -33 -15.5t-24 -57.5h-60q14 71 43 110.5t68 39.5q17 0 36 -7.5t54 -31.5q26 -18 38 -23.5t21 -5.5q20 0 33 16t24 56h59q-14 -72 -43 -111t-68 -39z" />
    <glyph glyph-name="odieresis" unicode="&#xf6;" horiz-adv-x="606" 
d="M262 587h-109v131h109v-131zM452 587h-109v131h109v-131zM559 245q0 -110 -73 -182.5t-183 -72.5t-183 72.5t-73 182.5t73 183t183 73t183 -73t73 -183zM427 245q0 99 -31 148.5t-93 49.5t-93.5 -50t-31.5 -148t31.5 -147.5t93.5 -49.5t93 49.5t31 147.5z" />
    <glyph glyph-name="divide" unicode="&#xf7;" horiz-adv-x="635" 
d="M371 470h-105v107h105v-107zM546 304h-456v67h456v-67zM371 98h-105v107h105v-107z" />
    <glyph glyph-name="oslash" unicode="&#xf8;" horiz-adv-x="606" 
d="M303 443q-62 0 -93.5 -50t-31.5 -148q0 -28 2.5 -51t7.5 -42l207 243q-16 24 -38.5 36t-53.5 12zM303 48q62 0 93 49.5t31 147.5q0 24 -2 46t-6 42l-206 -241q16 -22 38.5 -33t51.5 -11zM559 245q0 -110 -73 -182.5t-183 -72.5q-39 0 -75.5 10t-67.5 30l-63 -74l-45 37
l63 74q-33 35 -50.5 81t-17.5 97q0 110 73 183t183 73q40 0 77 -11t69 -32l59 69l46 -36l-61 -71q32 -35 49 -80t17 -95z" />
    <glyph glyph-name="ugrave" unicode="&#xf9;" horiz-adv-x="631" 
d="M297 77q50 0 82.5 47.5t32.5 122.5v244h124v-491h-120l-4 115q-23 -61 -66 -93t-103 -32q-73 0 -114.5 47t-41.5 127v327h124v-305q0 -54 21.5 -81.5t64.5 -27.5zM348 561h-58l-132 188h130z" />
    <glyph glyph-name="uacute" unicode="&#xfa;" horiz-adv-x="631" 
d="M277 561l61 188h130l-132 -188h-59zM297 77q50 0 82.5 47.5t32.5 122.5v244h124v-491h-120l-4 115q-23 -61 -66 -93t-103 -32q-73 0 -114.5 47t-41.5 127v327h124v-305q0 -54 21.5 -81.5t64.5 -27.5z" />
    <glyph glyph-name="ucircumflex" unicode="&#xfb;" horiz-adv-x="631" 
d="M279 751h64l131 -199h-58l-104 113l-104 -113h-58zM297 77q50 0 82.5 47.5t32.5 122.5v244h124v-491h-120l-4 115q-23 -61 -66 -93t-103 -32q-73 0 -114.5 47t-41.5 127v327h124v-305q0 -54 21.5 -81.5t64.5 -27.5z" />
    <glyph glyph-name="udieresis" unicode="&#xfc;" horiz-adv-x="631" 
d="M271 587h-109v131h109v-131zM461 587h-109v131h109v-131zM297 77q50 0 82.5 47.5t32.5 122.5v244h124v-491h-120l-4 115q-23 -61 -66 -93t-103 -32q-73 0 -114.5 47t-41.5 127v327h124v-305q0 -54 21.5 -81.5t64.5 -27.5z" />
    <glyph glyph-name="yacute" unicode="&#xfd;" horiz-adv-x="542" 
d="M104 -225q-48 0 -79.5 28t-31.5 72q0 13 4 26t13 29l70 -16q-7 -13 -8.5 -20t-1.5 -14q0 -19 11 -30t29 -11q29 0 51.5 28t62.5 117l19 42l-220 465h136l146 -325l133 325h82l-238 -546q-39 -91 -81 -130.5t-97 -39.5zM259 561l61 188h130l-132 -188h-59z" />
    <glyph glyph-name="thorn" unicode="&#xfe;" horiz-adv-x="661" 
d="M349 425q-57 0 -94.5 -50t-37.5 -123v-42q0 -66 38.5 -110t92.5 -44q63 0 98.5 50.5t35.5 141.5q0 84 -35 130.5t-98 46.5zM379 -10q-54 0 -96.5 24.5t-65.5 67.5v-297h-124v964h124v-373q18 56 66.5 90.5t110.5 34.5q95 0 157.5 -68t62.5 -178q0 -115 -68 -190t-167 -75
z" />
    <glyph glyph-name="ydieresis" unicode="&#xff;" horiz-adv-x="542" 
d="M104 -225q-48 0 -79.5 28t-31.5 72q0 13 4 26t13 29l70 -16q-7 -13 -8.5 -20t-1.5 -14q0 -19 11 -30t29 -11q29 0 51.5 28t62.5 117l19 42l-220 465h136l146 -325l133 325h82l-238 -546q-39 -91 -81 -130.5t-97 -39.5zM253 587h-109v131h109v-131zM443 587h-109v131h109
v-131z" />
    <glyph glyph-name="Amacron" unicode="&#x100;" horiz-adv-x="746" 
d="M231 260h226l-115 261zM708 0h-137l-86 195h-282l-83 -195h-82l307 704h54zM518 855v-69h-290v69h290z" />
    <glyph glyph-name="amacron" unicode="&#x101;" horiz-adv-x="580" 
d="M374 225v18l-70 -12q-70 -12 -100 -35t-30 -61q0 -33 19.5 -50.5t55.5 -17.5q50 0 87.5 47t37.5 111zM289 281l85 14v37q0 53 -28 78.5t-86 25.5q-45 0 -72 -17t-27 -46q0 -11 3.5 -20t12.5 -19l-61 -36q-15 12 -24 31t-9 40q0 59 52.5 95.5t141.5 36.5
q109 0 164.5 -45.5t55.5 -135.5l-1 -320h-111l-9 109q-17 -52 -66 -85.5t-111 -33.5q-66 0 -106.5 35.5t-40.5 94.5q0 62 50.5 99.5t186.5 61.5zM432 655v-69h-290v69h290z" />
    <glyph glyph-name="Abreve" unicode="&#x102;" horiz-adv-x="746" 
d="M231 260h226l-115 261zM708 0h-137l-86 195h-282l-83 -195h-82l307 704h54zM473 948h53q-1 -77 -44 -126t-109 -49q-65 0 -108.5 49t-44.5 126h54q3 -45 30 -73t69 -28t69 27.5t31 73.5z" />
    <glyph glyph-name="abreve" unicode="&#x103;" horiz-adv-x="580" 
d="M374 225v18l-70 -12q-70 -12 -100 -35t-30 -61q0 -33 19.5 -50.5t55.5 -17.5q50 0 87.5 47t37.5 111zM289 281l85 14v37q0 53 -28 78.5t-86 25.5q-45 0 -72 -17t-27 -46q0 -11 3.5 -20t12.5 -19l-61 -36q-15 12 -24 31t-9 40q0 59 52.5 95.5t141.5 36.5
q109 0 164.5 -45.5t55.5 -135.5l-1 -320h-111l-9 109q-17 -52 -66 -85.5t-111 -33.5q-66 0 -106.5 35.5t-40.5 94.5q0 62 50.5 99.5t186.5 61.5zM382 750h53q-1 -81 -42.5 -131.5t-105.5 -50.5t-105.5 50.5t-42.5 131.5h54q3 -48 28.5 -78t65.5 -30t65.5 29.5t29.5 78.5z
" />
    <glyph glyph-name="Aogonek" unicode="&#x104;" horiz-adv-x="746" 
d="M646 -92l44 -22q-21 -54 -59 -82.5t-91 -28.5q-44 0 -73.5 25t-29.5 66t30 77.5t96 75.5l-78 176h-282l-83 -195h-82l307 704h54l309 -704h-93q-57 -38 -78 -63t-21 -50q0 -22 13 -35t36 -13q26 0 44.5 15.5t36.5 53.5zM231 260h226l-115 261z" />
    <glyph glyph-name="aogonek" unicode="&#x105;" horiz-adv-x="580" 
d="M374 225v18l-70 -12q-70 -12 -100 -35t-30 -61q0 -33 19.5 -50.5t55.5 -17.5q50 0 87.5 47t37.5 111zM494 -92l44 -22q-21 -54 -59 -82.5t-91 -28.5q-44 0 -73.5 25t-29.5 66q0 37 24 70t76 67l-9 106q-17 -52 -66 -85.5t-111 -33.5q-66 0 -106.5 35.5t-40.5 94.5
q0 62 50.5 99.5t186.5 61.5l85 14v37q0 53 -28 78.5t-86 25.5q-45 0 -72 -17t-27 -46q0 -11 3.5 -20t12.5 -19l-61 -36q-15 12 -24 31t-9 40q0 59 52.5 95.5t141.5 36.5q109 0 164.5 -45.5t55.5 -135.5l-1 -320h-33q-57 -38 -78 -63t-21 -50q0 -22 13 -35t36 -13
q26 0 44.5 15.5t36.5 53.5z" />
    <glyph glyph-name="Cacute" unicode="&#x106;" horiz-adv-x="723" 
d="M405 -10q-155 0 -257 99.5t-102 254.5q0 159 104 262.5t260 103.5q93 0 164.5 -39.5t114.5 -114.5l-54 -57q-38 70 -90.5 103.5t-120.5 33.5q-107 0 -169.5 -76t-62.5 -208q0 -128 64.5 -206t166.5 -79q72 0 124 31.5t89 99.5l53 -41q-44 -82 -116.5 -124.5t-167.5 -42.5
zM377 766l57 174h131l-128 -174h-60z" />
    <glyph glyph-name="cacute" unicode="&#x107;" horiz-adv-x="552" 
d="M268 561l61 188h130l-132 -188h-59zM425 350q0 40 -27 64.5t-76 24.5q-65 0 -105.5 -52.5t-40.5 -136.5q0 -91 38 -140t107 -49q49 0 83 27.5t54 82.5l51 -19q-19 -77 -77 -119.5t-142 -42.5q-107 0 -175 68t-68 179q0 116 74.5 190t188.5 74q85 0 134.5 -41.5
t49.5 -109.5q0 -25 -11 -48.5t-28 -37.5l-49 34q10 12 14.5 25t4.5 27z" />
    <glyph glyph-name="Ccircumflex" unicode="&#x108;" horiz-adv-x="723" 
d="M405 -10q-155 0 -257 99.5t-102 254.5q0 159 104 262.5t260 103.5q93 0 164.5 -39.5t114.5 -114.5l-54 -57q-38 70 -90.5 103.5t-120.5 33.5q-107 0 -169.5 -76t-62.5 -208q0 -128 64.5 -206t166.5 -79q72 0 124 31.5t89 99.5l53 -41q-44 -82 -116.5 -124.5t-167.5 -42.5
zM584 761h-58l-114 103l-114 -103h-58l139 189h64z" />
    <glyph glyph-name="ccircumflex" unicode="&#x109;" horiz-adv-x="552" 
d="M270 751h64l131 -199h-58l-104 113l-104 -113h-58zM425 350q0 40 -27 64.5t-76 24.5q-65 0 -105.5 -52.5t-40.5 -136.5q0 -91 38 -140t107 -49q49 0 83 27.5t54 82.5l51 -19q-19 -77 -77 -119.5t-142 -42.5q-107 0 -175 68t-68 179q0 116 74.5 190t188.5 74
q85 0 134.5 -41.5t49.5 -109.5q0 -25 -11 -48.5t-28 -37.5l-49 34q10 12 14.5 25t4.5 27z" />
    <glyph glyph-name="Cdotaccent" unicode="&#x10a;" horiz-adv-x="723" 
d="M476 785h-129v135h129v-135zM405 -10q-155 0 -257 99.5t-102 254.5q0 159 104 262.5t260 103.5q93 0 164.5 -39.5t114.5 -114.5l-54 -57q-38 70 -90.5 103.5t-120.5 33.5q-107 0 -169.5 -76t-62.5 -208q0 -128 64.5 -206t166.5 -79q72 0 124 31.5t89 99.5l53 -41
q-44 -82 -116.5 -124.5t-167.5 -42.5z" />
    <glyph glyph-name="cdotaccent" unicode="&#x10b;" horiz-adv-x="552" 
d="M425 350q0 40 -27 64.5t-76 24.5q-65 0 -105.5 -52.5t-40.5 -136.5q0 -91 38 -140t107 -49q49 0 83 27.5t54 82.5l51 -19q-19 -77 -77 -119.5t-142 -42.5q-107 0 -175 68t-68 179q0 116 74.5 190t188.5 74q85 0 134.5 -41.5t49.5 -109.5q0 -25 -11 -48.5t-28 -37.5
l-49 34q10 12 14.5 25t4.5 27zM368 592h-129v136h129v-136z" />
    <glyph glyph-name="Ccaron" unicode="&#x10c;" horiz-adv-x="723" 
d="M405 -10q-155 0 -257 99.5t-102 254.5q0 159 104 262.5t260 103.5q93 0 164.5 -39.5t114.5 -114.5l-54 -57q-38 70 -90.5 103.5t-120.5 33.5q-107 0 -169.5 -76t-62.5 -208q0 -128 64.5 -206t166.5 -79q72 0 124 31.5t89 99.5l53 -41q-44 -82 -116.5 -124.5t-167.5 -42.5
zM584 947l-141 -188h-64l-139 188h58l114 -102l114 102h58z" />
    <glyph glyph-name="ccaron" unicode="&#x10d;" horiz-adv-x="552" 
d="M465 753l-131 -199h-64l-129 199h58l104 -113l104 113h58zM425 350q0 40 -27 64.5t-76 24.5q-65 0 -105.5 -52.5t-40.5 -136.5q0 -91 38 -140t107 -49q49 0 83 27.5t54 82.5l51 -19q-19 -77 -77 -119.5t-142 -42.5q-107 0 -175 68t-68 179q0 116 74.5 190t188.5 74
q85 0 134.5 -41.5t49.5 -109.5q0 -25 -11 -48.5t-28 -37.5l-49 34q10 12 14.5 25t4.5 27z" />
    <glyph glyph-name="Dcaron" unicode="&#x10e;" horiz-adv-x="777" 
d="M532 947l-141 -188h-64l-139 188h58l114 -102l114 102h58zM732 353q0 -164 -104 -258.5t-280 -94.5h-244v700h231q184 0 290.5 -92.5t106.5 -254.5zM592 353q0 133 -70 206.5t-197 73.5h-91v-566h99q127 0 193 73t66 213z" />
    <glyph glyph-name="dcaron" unicode="&#x10f;" horiz-adv-x="655" 
d="M683 749h120l-96 -205h-53zM312 66q57 0 94.5 49.5t37.5 122.5v43q0 66 -39 110t-92 44q-63 0 -98.5 -51t-35.5 -142q0 -84 35 -130t98 -46zM281 501q56 0 97.5 -23.5t65.5 -68.5v340h124v-749h-120l-4 115q-19 -58 -65.5 -91.5t-109.5 -33.5q-97 0 -159.5 68t-62.5 179
q0 115 67.5 189.5t166.5 74.5z" />
    <glyph glyph-name="Dcroat" unicode="&#x110;" horiz-adv-x="799" 
d="M754 353q0 -164 -104 -258.5t-280 -94.5h-244v326h-96v70h96v304h231q184 0 290.5 -92.5t106.5 -254.5zM256 326v-259h99q127 0 193 73t66 213q0 133 -70 206.5t-197 73.5h-91v-237h142v-70h-142z" />
    <glyph glyph-name="dcroat" unicode="&#x111;" horiz-adv-x="663" 
d="M312 66q57 0 94.5 49.5t37.5 122.5v43q0 66 -39 110t-92 44q-63 0 -98.5 -51t-35.5 -142q0 -84 35 -130t98 -46zM448 0l-4 115q-19 -58 -65.5 -91.5t-109.5 -33.5q-97 0 -159.5 68t-62.5 179q0 115 67.5 189.5t166.5 74.5q56 0 97.5 -23.5t65.5 -68.5v178h-156v58h156
v104h124v-104h80v-58h-80v-587h-120z" />
    <glyph glyph-name="Emacron" unicode="&#x112;" horiz-adv-x="677" 
d="M510 855v-69h-290v69h290zM619 0h-515v700h499v-71h-369v-232h271v-71h-271v-254h385v-72z" />
    <glyph glyph-name="emacron" unicode="&#x113;" horiz-adv-x="566" 
d="M466 170l51 -18q-20 -78 -77.5 -120t-144.5 -42q-109 0 -178.5 68.5t-69.5 179.5q0 116 70 189.5t177 73.5q106 0 166 -68t60 -188h-345q1 -89 40 -136.5t110 -47.5q52 0 86 26t55 83zM293 443q-50 0 -79.5 -36.5t-36.5 -107.5h216q-1 73 -25.5 108.5t-74.5 35.5z
M441 655v-69h-290v69h290z" />
    <glyph glyph-name="Ebreve" unicode="&#x114;" horiz-adv-x="677" 
d="M465 948h53q-1 -77 -44 -126t-109 -49q-65 0 -108.5 49t-44.5 126h54q3 -45 30 -73t69 -28t69 27.5t31 73.5zM619 0h-515v700h499v-71h-369v-232h271v-71h-271v-254h385v-72z" />
    <glyph glyph-name="ebreve" unicode="&#x115;" horiz-adv-x="566" 
d="M466 170l51 -18q-20 -78 -77.5 -120t-144.5 -42q-109 0 -178.5 68.5t-69.5 179.5q0 116 70 189.5t177 73.5q106 0 166 -68t60 -188h-345q1 -89 40 -136.5t110 -47.5q52 0 86 26t55 83zM293 443q-50 0 -79.5 -36.5t-36.5 -107.5h216q-1 73 -25.5 108.5t-74.5 35.5z
M391 750h53q-1 -81 -42.5 -131.5t-105.5 -50.5t-105.5 50.5t-42.5 131.5h54q3 -48 28.5 -78t65.5 -30t65.5 29.5t29.5 78.5z" />
    <glyph glyph-name="Edotaccent" unicode="&#x116;" horiz-adv-x="677" 
d="M430 785h-129v135h129v-135zM619 0h-515v700h499v-71h-369v-232h271v-71h-271v-254h385v-72z" />
    <glyph glyph-name="edotaccent" unicode="&#x117;" horiz-adv-x="566" 
d="M466 170l51 -18q-20 -78 -77.5 -120t-144.5 -42q-109 0 -178.5 68.5t-69.5 179.5q0 116 70 189.5t177 73.5q106 0 166 -68t60 -188h-345q1 -89 40 -136.5t110 -47.5q52 0 86 26t55 83zM293 443q-50 0 -79.5 -36.5t-36.5 -107.5h216q-1 73 -25.5 108.5t-74.5 35.5z
M360 592h-129v136h129v-136z" />
    <glyph glyph-name="Eogonek" unicode="&#x118;" horiz-adv-x="677" 
d="M563 -92l44 -22q-21 -54 -59 -82.5t-91 -28.5q-44 0 -73.5 25t-29.5 66q0 36 23 69t72 65h-345v700h499v-71h-369v-232h271v-71h-271v-254h385v-72h-87q-57 -38 -78 -63t-21 -50q0 -22 13 -35t36 -13q26 0 44.5 15.5t36.5 53.5z" />
    <glyph glyph-name="eogonek" unicode="&#x119;" horiz-adv-x="566" 
d="M451 -92l44 -22q-22 -55 -60 -83t-90 -28q-44 0 -74 25t-30 66q0 34 19.5 64.5t60.5 60.5q-5 -1 -10 -1h-16q-109 0 -178.5 68.5t-69.5 179.5q0 116 70 189.5t177 73.5q106 0 166 -68t60 -188h-345q1 -89 40 -136.5t110 -47.5q52 0 86 26t55 83l51 -18
q-9 -39 -33.5 -73.5t-85.5 -85.5q-49 -41 -63 -62.5t-14 -43.5t13 -35t36 -13q25 0 43.5 15.5t37.5 53.5zM293 443q-50 0 -79.5 -36.5t-36.5 -107.5h216q-1 73 -25.5 108.5t-74.5 35.5z" />
    <glyph glyph-name="Ecaron" unicode="&#x11a;" horiz-adv-x="677" 
d="M537 947l-141 -188h-64l-139 188h58l114 -102l114 102h58zM619 0h-515v700h499v-71h-369v-232h271v-71h-271v-254h385v-72z" />
    <glyph glyph-name="ecaron" unicode="&#x11b;" horiz-adv-x="566" 
d="M458 753l-131 -199h-64l-129 199h58l104 -113l104 113h58zM466 170l51 -18q-20 -78 -77.5 -120t-144.5 -42q-109 0 -178.5 68.5t-69.5 179.5q0 116 70 189.5t177 73.5q106 0 166 -68t60 -188h-345q1 -89 40 -136.5t110 -47.5q52 0 86 26t55 83zM293 443
q-50 0 -79.5 -36.5t-36.5 -107.5h216q-1 73 -25.5 108.5t-74.5 35.5z" />
    <glyph glyph-name="Gcircumflex" unicode="&#x11c;" horiz-adv-x="790" 
d="M708 331v-331h-49l-47 99q-30 -50 -88.5 -79.5t-126.5 -29.5q-154 0 -252.5 98t-98.5 255q0 159 106.5 263t265.5 104q97 0 169 -38.5t115 -114.5l-55 -58q-40 72 -92 104.5t-123 32.5q-109 0 -174 -76.5t-65 -207.5q0 -130 61.5 -208.5t162.5 -78.5q67 0 113 40t46 100
v126h132zM593 761h-58l-114 103l-114 -103h-58l139 189h64z" />
    <glyph glyph-name="gcircumflex" unicode="&#x11d;" horiz-adv-x="603" 
d="M247 751h64l131 -199h-58l-104 113l-104 -113h-58zM280 229q42 0 66 29t24 81t-24 81t-66 29t-65.5 -29t-23.5 -81t23.5 -81t65.5 -29zM567 -42q0 -84 -81 -133.5t-209 -49.5q-120 0 -187.5 33t-67.5 94q0 39 35.5 65.5t97.5 31.5q-45 10 -69 35.5t-24 64.5q0 35 24 63.5
t67 43.5q-40 22 -62 57t-22 76q0 71 58.5 116.5t152.5 45.5q34 0 65 -6.5t58 -19.5q33 41 64.5 59.5t66.5 18.5q36 0 58 -20.5t22 -55.5q0 -19 -6.5 -35.5t-18.5 -28.5l-52 26q6 11 7.5 17t1.5 11q0 11 -7 17.5t-19 6.5q-17 0 -34.5 -12.5t-36.5 -36.5q21 -21 32.5 -47.5
t11.5 -55.5q0 -71 -59.5 -116.5t-153.5 -45.5q-23 0 -45.5 3.5t-43.5 9.5q-20 -11 -30 -22t-10 -24q0 -20 16 -30.5t45 -10.5h169q88 0 137 -38t49 -107zM462 -77q0 32 -24 48t-73 16h-153q-46 -3 -74.5 -23t-28.5 -50q0 -38 46 -59t125 -21q82 0 132 24t50 65z" />
    <glyph glyph-name="Gbreve" unicode="&#x11e;" horiz-adv-x="790" 
d="M521 948h53q-1 -77 -44 -126t-109 -49q-65 0 -108.5 49t-44.5 126h54q3 -45 30 -73t69 -28t69 27.5t31 73.5zM708 331v-331h-49l-47 99q-30 -50 -88.5 -79.5t-126.5 -29.5q-154 0 -252.5 98t-98.5 255q0 159 106.5 263t265.5 104q97 0 169 -38.5t115 -114.5l-55 -58
q-40 72 -92 104.5t-123 32.5q-109 0 -174 -76.5t-65 -207.5q0 -130 61.5 -208.5t162.5 -78.5q67 0 113 40t46 100v126h132z" />
    <glyph glyph-name="gbreve" unicode="&#x11f;" horiz-adv-x="603" 
d="M280 229q42 0 66 29t24 81t-24 81t-66 29t-65.5 -29t-23.5 -81t23.5 -81t65.5 -29zM567 -42q0 -84 -81 -133.5t-209 -49.5q-120 0 -187.5 33t-67.5 94q0 39 35.5 65.5t97.5 31.5q-45 10 -69 35.5t-24 64.5q0 35 24 63.5t67 43.5q-40 22 -62 57t-22 76q0 71 58.5 116.5
t152.5 45.5q34 0 65 -6.5t58 -19.5q33 41 64.5 59.5t66.5 18.5q36 0 58 -20.5t22 -55.5q0 -19 -6.5 -35.5t-18.5 -28.5l-52 26q6 11 7.5 17t1.5 11q0 11 -7 17.5t-19 6.5q-17 0 -34.5 -12.5t-36.5 -36.5q21 -21 32.5 -47.5t11.5 -55.5q0 -71 -59.5 -116.5t-153.5 -45.5
q-23 0 -45.5 3.5t-43.5 9.5q-20 -11 -30 -22t-10 -24q0 -20 16 -30.5t45 -10.5h169q88 0 137 -38t49 -107zM462 -77q0 32 -24 48t-73 16h-153q-46 -3 -74.5 -23t-28.5 -50q0 -38 46 -59t125 -21q82 0 132 24t50 65zM385 750h53q-1 -81 -42.5 -131.5t-105.5 -50.5
t-105.5 50.5t-42.5 131.5h54q3 -48 28.5 -78t65.5 -30t65.5 29.5t29.5 78.5z" />
    <glyph glyph-name="Gdotaccent" unicode="&#x120;" horiz-adv-x="790" 
d="M485 785h-129v135h129v-135zM708 331v-331h-49l-47 99q-30 -50 -88.5 -79.5t-126.5 -29.5q-154 0 -252.5 98t-98.5 255q0 159 106.5 263t265.5 104q97 0 169 -38.5t115 -114.5l-55 -58q-40 72 -92 104.5t-123 32.5q-109 0 -174 -76.5t-65 -207.5q0 -130 61.5 -208.5
t162.5 -78.5q67 0 113 40t46 100v126h132z" />
    <glyph glyph-name="gdotaccent" unicode="&#x121;" horiz-adv-x="603" 
d="M280 229q42 0 66 29t24 81t-24 81t-66 29t-65.5 -29t-23.5 -81t23.5 -81t65.5 -29zM567 -42q0 -84 -81 -133.5t-209 -49.5q-120 0 -187.5 33t-67.5 94q0 39 35.5 65.5t97.5 31.5q-45 10 -69 35.5t-24 64.5q0 35 24 63.5t67 43.5q-40 22 -62 57t-22 76q0 71 58.5 116.5
t152.5 45.5q34 0 65 -6.5t58 -19.5q33 41 64.5 59.5t66.5 18.5q36 0 58 -20.5t22 -55.5q0 -19 -6.5 -35.5t-18.5 -28.5l-52 26q6 11 7.5 17t1.5 11q0 11 -7 17.5t-19 6.5q-17 0 -34.5 -12.5t-36.5 -36.5q21 -21 32.5 -47.5t11.5 -55.5q0 -71 -59.5 -116.5t-153.5 -45.5
q-23 0 -45.5 3.5t-43.5 9.5q-20 -11 -30 -22t-10 -24q0 -20 16 -30.5t45 -10.5h169q88 0 137 -38t49 -107zM462 -77q0 32 -24 48t-73 16h-153q-46 -3 -74.5 -23t-28.5 -50q0 -38 46 -59t125 -21q82 0 132 24t50 65zM355 592h-129v136h129v-136z" />
    <glyph glyph-name="Gcommaaccent" unicode="&#x122;" horiz-adv-x="790" 
d="M425 -159h-71v101h135v-104q0 -59 -38.5 -89.5t-112.5 -30.5v53q45 0 66 14.5t21 45.5v10zM708 331v-331h-49l-47 99q-30 -50 -88.5 -79.5t-126.5 -29.5q-154 0 -252.5 98t-98.5 255q0 159 106.5 263t265.5 104q97 0 169 -38.5t115 -114.5l-55 -58q-40 72 -92 104.5
t-123 32.5q-109 0 -174 -76.5t-65 -207.5q0 -130 61.5 -208.5t162.5 -78.5q67 0 113 40t46 100v126h132z" />
    <glyph glyph-name="gcommaaccent" unicode="&#x123;" horiz-adv-x="603" 
d="M286 662h71v-101h-136v104q0 59 38.5 89.5t112.5 30.5v-53q-45 0 -65.5 -14.5t-20.5 -45.5v-10zM280 229q42 0 66 29t24 81t-24 81t-66 29t-65.5 -29t-23.5 -81t23.5 -81t65.5 -29zM567 -42q0 -84 -81 -133.5t-209 -49.5q-120 0 -187.5 33t-67.5 94q0 39 35.5 65.5
t97.5 31.5q-45 10 -69 35.5t-24 64.5q0 35 24 63.5t67 43.5q-40 22 -62 57t-22 76q0 71 58.5 116.5t152.5 45.5q34 0 65 -6.5t58 -19.5q33 41 64.5 59.5t66.5 18.5q36 0 58 -20.5t22 -55.5q0 -19 -6.5 -35.5t-18.5 -28.5l-52 26q6 11 7.5 17t1.5 11q0 11 -7 17.5t-19 6.5
q-17 0 -34.5 -12.5t-36.5 -36.5q21 -21 32.5 -47.5t11.5 -55.5q0 -71 -59.5 -116.5t-153.5 -45.5q-23 0 -45.5 3.5t-43.5 9.5q-20 -11 -30 -22t-10 -24q0 -20 16 -30.5t45 -10.5h169q88 0 137 -38t49 -107zM462 -77q0 32 -24 48t-73 16h-153q-46 -3 -74.5 -23t-28.5 -50
q0 -38 46 -59t125 -21q82 0 132 24t50 65z" />
    <glyph glyph-name="Hcircumflex" unicode="&#x124;" horiz-adv-x="838" 
d="M234 0h-130v700h130v-304h371v304h130v-700h-130v326h-371v-326zM591 761h-58l-114 103l-114 -103h-58l139 189h64z" />
    <glyph glyph-name="hcircumflex" unicode="&#x125;" horiz-adv-x="636" 
d="M93 0v749h124v-371q22 59 67 91t106 32q76 0 118.5 -46.5t42.5 -127.5v-327h-124v305q0 51 -24.5 80t-68.5 29q-51 0 -84 -47t-33 -122v-245h-124zM494 796h-58l-114 103l-114 -103h-58l139 189h64z" />
    <glyph glyph-name="Hbar" unicode="&#x126;" horiz-adv-x="881" 
d="M255 462v-121h371v121h-371zM626 271h-371v-271h-130v462h-95v70h95v168h130v-168h371v168h130v-168h95v-70h-95v-462h-130v271z" />
    <glyph glyph-name="hbar" unicode="&#x127;" horiz-adv-x="644" 
d="M342 414q-51 0 -84 -47t-33 -122v-245h-124v587h-82v58h82v104h124v-104h154v-58h-154v-209q22 59 67 91t106 32q76 0 118.5 -46.5t42.5 -127.5v-327h-124v305q0 51 -24.5 80t-68.5 29z" />
    <glyph glyph-name="Itilde" unicode="&#x128;" horiz-adv-x="338" 
d="M104 700h130v-700h-130v700zM245 783q-17 0 -35.5 8t-54.5 31q-26 18 -37.5 23.5t-20.5 5.5q-20 0 -33 -15.5t-24 -56.5h-60q14 71 43.5 110.5t67.5 39.5q17 0 36 -8t54 -32q26 -18 38 -23.5t21 -5.5q20 0 33 16.5t24 56.5h59q-14 -72 -43 -111t-68 -39z" />
    <glyph glyph-name="itilde" unicode="&#x129;" horiz-adv-x="309" 
d="M263 732h60q-14 -72 -42.5 -111t-66.5 -39q-17 0 -33 8.5t-41 33.5q-17 17 -25 22t-16 5q-18 0 -29.5 -14t-23.5 -59h-60q15 73 43.5 111.5t66.5 38.5q17 0 33 -8t41 -33q16 -17 24.5 -22t15.5 -5q18 0 29 13t24 59zM93 491h124v-491h-124v491z" />
    <glyph glyph-name="Imacron" unicode="&#x12a;" horiz-adv-x="338" 
d="M104 700h130v-700h-130v700zM313 855v-69h-290v69h290z" />
    <glyph glyph-name="imacron" unicode="&#x12b;" horiz-adv-x="309" 
d="M285 655v-69h-260v69h260zM93 491h124v-491h-124v491z" />
    <glyph glyph-name="Ibreve" unicode="&#x12c;" horiz-adv-x="338" 
d="M104 700h130v-700h-130v700zM268 948h53q-1 -77 -44 -126t-109 -49q-65 0 -108.5 49t-44.5 126h54q3 -45 30 -73t69 -28t69 27.5t31 73.5z" />
    <glyph glyph-name="ibreve" unicode="&#x12d;" horiz-adv-x="309" 
d="M155 642q38 0 60.5 28.5t26.5 79.5h53q-1 -82 -39.5 -132t-100.5 -50q-63 0 -101 49.5t-40 132.5h54q3 -51 26 -79.5t61 -28.5zM93 491h124v-491h-124v491z" />
    <glyph glyph-name="Iogonek" unicode="&#x12e;" horiz-adv-x="338" 
d="M255 -92l44 -22q-21 -54 -59 -82.5t-91 -28.5q-44 0 -73.5 25t-29.5 66q0 36 23 69t70 65h-35v700h130v-700q-61 -35 -85 -60.5t-24 -52.5q0 -22 13 -35t36 -13q26 0 44.5 15.5t36.5 53.5z" />
    <glyph glyph-name="iogonek" unicode="&#x12f;" horiz-adv-x="309" 
d="M219 592h-129v136h129v-136zM238 -92l44 -22q-21 -54 -59 -82.5t-91 -28.5q-44 0 -73.5 25t-29.5 66q0 36 23 69t72 65h-31v491h124v-491q-61 -35 -85 -60.5t-24 -52.5q0 -22 13 -35t36 -13q26 0 44.5 15.5t36.5 53.5z" />
    <glyph glyph-name="Idotaccent" unicode="&#x130;" horiz-adv-x="338" 
d="M104 700h130v-700h-130v700zM232 785h-129v135h129v-135z" />
    <glyph glyph-name="dotlessi" unicode="&#x131;" horiz-adv-x="309" 
d="M93 491h124v-491h-124v491z" />
    <glyph glyph-name="Jcircumflex" unicode="&#x134;" horiz-adv-x="621" 
d="M263 65q66 0 100.5 43t34.5 126v466h130v-458q0 -115 -70.5 -183.5t-185.5 -68.5q-98 0 -161 54.5t-63 135.5q0 44 19.5 79.5t55.5 57.5l49 -46q-22 -20 -32 -41.5t-10 -47.5q0 -51 37.5 -84t95.5 -33zM637 761h-58l-114 103l-114 -103h-58l139 189h64z" />
    <glyph glyph-name="jcircumflex" unicode="&#x135;" horiz-adv-x="309" 
d="M122 751h64l121 -199h-58l-94 113l-94 -113h-58zM217 491v-526q0 -89 -47 -139.5t-131 -50.5q-63 0 -99.5 28t-36.5 77q0 16 6 30.5t17 25.5l54 -23q-5 -8 -7 -15.5t-2 -14.5q0 -23 14.5 -36t40.5 -13q35 0 51 25t16 81v551h124z" />
    <glyph glyph-name="Kcommaaccent" unicode="&#x136;" horiz-adv-x="764" 
d="M384 -159h-71v101h135v-104q0 -59 -38.5 -89.5t-112.5 -30.5v53q45 0 66 14.5t21 45.5v10zM732 0h-158l-254 336l-86 -83v-253h-130v700h130v-353l353 353h108l-285 -277z" />
    <glyph glyph-name="kcommaaccent" unicode="&#x137;" horiz-adv-x="616" 
d="M331 -159h-71v101h135v-104q0 -59 -38.5 -89.5t-112.5 -30.5v53q45 0 66 14.5t21 45.5v10zM588 0h-143l-162 219l-66 -60v-159h-124v749h124v-508l265 250h98l-212 -194z" />
    <glyph glyph-name="kgreenlandic" unicode="&#x138;" horiz-adv-x="616" 
d="M588 0h-143l-162 219l-66 -60v-159h-124v491h124v-250l265 250h98l-212 -194z" />
    <glyph glyph-name="Lacute" unicode="&#x139;" horiz-adv-x="646" 
d="M144 766l57 174h131l-128 -174h-60zM588 0h-484v700h130v-628h354v-72z" />
    <glyph glyph-name="lacute" unicode="&#x13a;" horiz-adv-x="309" 
d="M120 806l57 174h131l-128 -174h-60zM93 749h124v-749h-124v749z" />
    <glyph glyph-name="Lcommaaccent" unicode="&#x13b;" horiz-adv-x="646" 
d="M350 -159h-71v101h135v-104q0 -59 -38.5 -89.5t-112.5 -30.5v53q45 0 66 14.5t21 45.5v10zM588 0h-484v700h130v-628h354v-72z" />
    <glyph glyph-name="lcommaaccent" unicode="&#x13c;" horiz-adv-x="309" 
d="M158 -159h-71v101h135v-104q0 -59 -38.5 -89.5t-112.5 -30.5v53q45 0 66 14.5t21 45.5v10zM93 749h124v-749h-124v749z" />
    <glyph glyph-name="Lcaron" unicode="&#x13d;" horiz-adv-x="646" 
d="M415 749h120l-96 -205h-53zM588 0h-484v700h130v-628h354v-72z" />
    <glyph glyph-name="lcaron" unicode="&#x13e;" horiz-adv-x="309" 
d="M337 749h120l-96 -205h-53zM93 749h124v-749h-124v749z" />
    <glyph glyph-name="Ldot" unicode="&#x13f;" horiz-adv-x="646" 
d="M588 0h-484v700h130v-628h354v-72zM542 282h-129v136h129v-136z" />
    <glyph glyph-name="ldot" unicode="&#x140;" horiz-adv-x="463" 
d="M93 749h124v-749h-124v749zM442 306h-129v136h129v-136z" />
    <glyph glyph-name="Lslash" unicode="&#x141;" horiz-adv-x="664" 
d="M606 72v-72h-484v262l-92 -37v70l92 37v368h130v-320l178 71v-70l-178 -72v-237h354z" />
    <glyph glyph-name="lslash" unicode="&#x142;" horiz-adv-x="359" 
d="M242 377v-377h-124v320l-98 -55v71l98 55v358h124v-301l97 55v-71z" />
    <glyph glyph-name="Nacute" unicode="&#x143;" horiz-adv-x="799" 
d="M363 766l57 174h131l-128 -174h-60zM229 700l382 -468v468h84v-702h-51l-456 555v-553h-84v700h125z" />
    <glyph glyph-name="nacute" unicode="&#x144;" horiz-adv-x="636" 
d="M289 561l61 188h130l-132 -188h-59zM334 414q-51 0 -84 -47t-33 -122v-245h-124v491h120l4 -113q22 59 67 91t106 32q76 0 118.5 -46.5t42.5 -127.5v-327h-124v305q0 51 -24.5 80t-68.5 29z" />
    <glyph glyph-name="Ncommaaccent" unicode="&#x145;" horiz-adv-x="799" 
d="M401 -159h-71v101h135v-104q0 -59 -38.5 -89.5t-112.5 -30.5v53q45 0 66 14.5t21 45.5v10zM229 700l382 -468v468h84v-702h-51l-456 555v-553h-84v700h125z" />
    <glyph glyph-name="ncommaaccent" unicode="&#x146;" horiz-adv-x="636" 
d="M328 -159h-71v101h135v-104q0 -59 -38.5 -89.5t-112.5 -30.5v53q45 0 66 14.5t21 45.5v10zM334 414q-51 0 -84 -47t-33 -122v-245h-124v491h120l4 -113q22 59 67 91t106 32q76 0 118.5 -46.5t42.5 -127.5v-327h-124v305q0 51 -24.5 80t-68.5 29z" />
    <glyph glyph-name="Ncaron" unicode="&#x147;" horiz-adv-x="799" 
d="M569 947l-141 -188h-64l-139 188h58l114 -102l114 102h58zM229 700l382 -468v468h84v-702h-51l-456 555v-553h-84v700h125z" />
    <glyph glyph-name="ncaron" unicode="&#x148;" horiz-adv-x="636" 
d="M486 753l-131 -199h-64l-129 199h58l104 -113l104 113h58zM334 414q-51 0 -84 -47t-33 -122v-245h-124v491h120l4 -113q22 59 67 91t106 32q76 0 118.5 -46.5t42.5 -127.5v-327h-124v305q0 51 -24.5 80t-68.5 29z" />
    <glyph glyph-name="Eng" unicode="&#x14a;" horiz-adv-x="795" 
d="M523 -225q-60 0 -95 28t-35 75q0 17 6 32t17 26l54 -23q-5 -8 -7 -15.5t-2 -14.5q0 -24 15.5 -36.5t45.5 -12.5q44 0 65.5 33.5t21.5 104.5v66l-423 515v-553h-82v700h123l382 -468v468h82v-729q0 -91 -45 -143.5t-123 -52.5z" />
    <glyph glyph-name="eng" unicode="&#x14b;" horiz-adv-x="636" 
d="M373 -225q-63 0 -99 28t-36 77q0 16 6 30.5t17 25.5l54 -23q-5 -8 -7 -15.5t-2 -14.5q0 -23 14.5 -36t40.5 -13q34 0 50 24.5t16 81.5v365q0 51 -24.5 80t-68.5 29q-51 0 -84 -47t-33 -122v-245h-124v491h120l4 -113q22 59 67 91t106 32q76 0 118.5 -46.5t42.5 -127.5
v-362q0 -90 -46.5 -140t-131.5 -50z" />
    <glyph glyph-name="Omacron" unicode="&#x14c;" horiz-adv-x="805" 
d="M548 855v-69h-290v69h290zM403 -10q-152 0 -254.5 103.5t-102.5 256.5t102.5 256.5t254.5 103.5q151 0 254 -103.5t103 -256.5t-103 -256.5t-254 -103.5zM403 646q-101 0 -156 -77.5t-55 -218.5t55 -218t156 -77t156 77.5t55 217.5q0 141 -55 218.5t-156 77.5z" />
    <glyph glyph-name="omacron" unicode="&#x14d;" horiz-adv-x="606" 
d="M448 655v-69h-290v69h290zM559 245q0 -110 -73 -182.5t-183 -72.5t-183 72.5t-73 182.5t73 183t183 73t183 -73t73 -183zM427 245q0 99 -31 148.5t-93 49.5t-93.5 -50t-31.5 -148t31.5 -147.5t93.5 -49.5t93 49.5t31 147.5z" />
    <glyph glyph-name="Obreve" unicode="&#x14e;" horiz-adv-x="805" 
d="M503 948h53q-1 -77 -44 -126t-109 -49q-65 0 -108.5 49t-44.5 126h54q3 -45 30 -73t69 -28t69 27.5t31 73.5zM403 -10q-152 0 -254.5 103.5t-102.5 256.5t102.5 256.5t254.5 103.5q151 0 254 -103.5t103 -256.5t-103 -256.5t-254 -103.5zM403 646q-101 0 -156 -77.5
t-55 -218.5t55 -218t156 -77t156 77.5t55 217.5q0 141 -55 218.5t-156 77.5z" />
    <glyph glyph-name="obreve" unicode="&#x14f;" horiz-adv-x="606" 
d="M559 245q0 -110 -73 -182.5t-183 -72.5t-183 72.5t-73 182.5t73 183t183 73t183 -73t73 -183zM427 245q0 99 -31 148.5t-93 49.5t-93.5 -50t-31.5 -148t31.5 -147.5t93.5 -49.5t93 49.5t31 147.5zM398 750h53q-1 -81 -42.5 -131.5t-105.5 -50.5t-105.5 50.5t-42.5 131.5
h54q3 -48 28.5 -78t65.5 -30t65.5 29.5t29.5 78.5z" />
    <glyph glyph-name="Ohungarumlaut" unicode="&#x150;" horiz-adv-x="805" 
d="M403 -10q-152 0 -254.5 103.5t-102.5 256.5t102.5 256.5t254.5 103.5q151 0 254 -103.5t103 -256.5t-103 -256.5t-254 -103.5zM403 646q-101 0 -156 -77.5t-55 -218.5t55 -218t156 -77t156 77.5t55 217.5q0 141 -55 218.5t-156 77.5zM272 766l64 174h122l-128 -174h-58z
M456 766l63 174h123l-129 -174h-57z" />
    <glyph glyph-name="ohungarumlaut" unicode="&#x151;" horiz-adv-x="606" 
d="M181 561l64 188h122l-128 -188h-58zM358 561l63 188h123l-129 -188h-57zM559 245q0 -110 -73 -182.5t-183 -72.5t-183 72.5t-73 182.5t73 183t183 73t183 -73t73 -183zM427 245q0 99 -31 148.5t-93 49.5t-93.5 -50t-31.5 -148t31.5 -147.5t93.5 -49.5t93 49.5t31 147.5z
" />
    <glyph glyph-name="OE" unicode="&#x152;" horiz-adv-x="1118" 
d="M1060 0h-630q-176 0 -280 94.5t-104 258.5q0 162 106.5 254.5t290.5 92.5h601v-71h-370v-232h271v-71h-271v-254h386v-72zM544 633h-91q-127 0 -197 -73.5t-70 -206.5q0 -140 66 -213t193 -73h99v566z" />
    <glyph glyph-name="oe" unicode="&#x153;" horiz-adv-x="945" 
d="M844 170l52 -18q-20 -78 -78 -120t-145 -42q-56 0 -104 23.5t-81 67.5q-34 -44 -82 -67.5t-103 -23.5q-110 0 -183 72.5t-73 182.5t73 183t183 73q56 0 105 -24.5t83 -69.5q32 45 79.5 69.5t101.5 24.5q107 0 167 -68t60 -188h-346q1 -90 40 -137t111 -47q51 0 85 26
t55 83zM671 443q-50 0 -79.5 -36.5t-36.5 -107.5h217q-1 74 -26 109t-75 35zM427 245q0 99 -31 148.5t-93 49.5t-93.5 -50t-31.5 -148t31.5 -147.5t93.5 -49.5t93 49.5t31 147.5z" />
    <glyph glyph-name="Racute" unicode="&#x154;" horiz-adv-x="754" 
d="M362 632h-128v-260h128q81 0 122.5 33.5t41.5 99.5q0 62 -42 94.5t-122 32.5zM346 304h-112v-304h-130v700h297q126 0 195 -48.5t69 -140.5q0 -80 -58 -126t-152 -48v-3q64 -6 101.5 -35t58.5 -90l36 -99q12 -33 26 -58.5t35 -51.5h-146q-12 19 -23.5 42.5t-22.5 55.5
l-41 112q-19 55 -47.5 74.5t-85.5 19.5zM328 766l57 174h131l-128 -174h-60z" />
    <glyph glyph-name="racute" unicode="&#x155;" horiz-adv-x="523" 
d="M242 561l61 188h130l-132 -188h-59zM213 491l4 -137q22 68 65 107.5t98 39.5q52 0 83 -30.5t31 -80.5q0 -24 -9 -47.5t-24 -38.5l-56 36q7 10 11 21.5t4 22.5q0 23 -14 36t-38 13q-54 0 -102.5 -76.5t-48.5 -164.5v-192h-124v491h120z" />
    <glyph glyph-name="Rcommaaccent" unicode="&#x156;" horiz-adv-x="754" 
d="M367 -159h-71v101h135v-104q0 -59 -38.5 -89.5t-112.5 -30.5v53q45 0 66 14.5t21 45.5v10zM362 632h-128v-260h128q81 0 122.5 33.5t41.5 99.5q0 62 -42 94.5t-122 32.5zM346 304h-112v-304h-130v700h297q126 0 195 -48.5t69 -140.5q0 -80 -58 -126t-152 -48v-3
q64 -6 101.5 -35t58.5 -90l36 -99q12 -33 26 -58.5t35 -51.5h-146q-12 19 -23.5 42.5t-22.5 55.5l-41 112q-19 55 -47.5 74.5t-85.5 19.5z" />
    <glyph glyph-name="rcommaaccent" unicode="&#x157;" horiz-adv-x="523" 
d="M158 -159h-71v101h135v-104q0 -59 -38.5 -89.5t-112.5 -30.5v53q45 0 66 14.5t21 45.5v10zM213 491l4 -137q22 68 65 107.5t98 39.5q52 0 83 -30.5t31 -80.5q0 -24 -9 -47.5t-24 -38.5l-56 36q7 10 11 21.5t4 22.5q0 23 -14 36t-38 13q-54 0 -102.5 -76.5t-48.5 -164.5
v-192h-124v491h120z" />
    <glyph glyph-name="Rcaron" unicode="&#x158;" horiz-adv-x="754" 
d="M535 947l-141 -188h-64l-139 188h58l114 -102l114 102h58zM362 632h-128v-260h128q81 0 122.5 33.5t41.5 99.5q0 62 -42 94.5t-122 32.5zM346 304h-112v-304h-130v700h297q126 0 195 -48.5t69 -140.5q0 -80 -58 -126t-152 -48v-3q64 -6 101.5 -35t58.5 -90l36 -99
q12 -33 26 -58.5t35 -51.5h-146q-12 19 -23.5 42.5t-22.5 55.5l-41 112q-19 55 -47.5 74.5t-85.5 19.5z" />
    <glyph glyph-name="rcaron" unicode="&#x159;" horiz-adv-x="523" 
d="M439 753l-131 -199h-64l-129 199h58l104 -113l104 113h58zM213 491l4 -137q22 68 65 107.5t98 39.5q52 0 83 -30.5t31 -80.5q0 -24 -9 -47.5t-24 -38.5l-56 36q7 10 11 21.5t4 22.5q0 23 -14 36t-38 13q-54 0 -102.5 -76.5t-48.5 -164.5v-192h-124v491h120z" />
    <glyph glyph-name="Sacute" unicode="&#x15a;" horiz-adv-x="647" 
d="M320 63q70 0 110.5 29.5t40.5 81.5q0 42 -27 67.5t-96 45.5l-96 26q-101 28 -144.5 73.5t-43.5 118.5q0 90 72 147.5t183 57.5q85 0 153 -33.5t106 -92.5l-53 -57q-33 55 -87 84.5t-120 29.5q-61 0 -97.5 -27.5t-36.5 -74.5q0 -41 26 -64.5t94 -41.5l97 -27
q98 -27 143.5 -73.5t45.5 -119.5q0 -99 -76 -161t-194 -62q-95 0 -173.5 40t-117.5 109l56 52q38 -61 99.5 -94.5t135.5 -33.5zM294 766l57 174h131l-128 -174h-60z" />
    <glyph glyph-name="sacute" unicode="&#x15b;" horiz-adv-x="522" 
d="M231 561l61 188h130l-132 -188h-59zM259 437q-41 0 -64.5 -15.5t-23.5 -41.5q0 -23 17 -36t66 -26l79 -20q74 -19 106 -52t32 -90q0 -74 -57 -120t-148 -46q-74 0 -135 30.5t-90 82.5l48 47q33 -47 78 -71.5t99 -24.5q47 0 74 17t27 47q0 26 -16.5 40t-66.5 26l-75 18
q-73 17 -107 51.5t-34 90.5q0 70 54.5 113.5t139.5 43.5q63 0 114 -24t83 -69l-41 -57q-28 42 -69 64t-90 22z" />
    <glyph glyph-name="Scircumflex" unicode="&#x15c;" horiz-adv-x="647" 
d="M320 63q70 0 110.5 29.5t40.5 81.5q0 42 -27 67.5t-96 45.5l-96 26q-101 28 -144.5 73.5t-43.5 118.5q0 90 72 147.5t183 57.5q85 0 153 -33.5t106 -92.5l-53 -57q-33 55 -87 84.5t-120 29.5q-61 0 -97.5 -27.5t-36.5 -74.5q0 -41 26 -64.5t94 -41.5l97 -27
q98 -27 143.5 -73.5t45.5 -119.5q0 -99 -76 -161t-194 -62q-95 0 -173.5 40t-117.5 109l56 52q38 -61 99.5 -94.5t135.5 -33.5zM501 761h-58l-114 103l-114 -103h-58l139 189h64z" />
    <glyph glyph-name="scircumflex" unicode="&#x15d;" horiz-adv-x="522" 
d="M238 751h64l131 -199h-58l-104 113l-104 -113h-58zM259 437q-41 0 -64.5 -15.5t-23.5 -41.5q0 -23 17 -36t66 -26l79 -20q74 -19 106 -52t32 -90q0 -74 -57 -120t-148 -46q-74 0 -135 30.5t-90 82.5l48 47q33 -47 78 -71.5t99 -24.5q47 0 74 17t27 47q0 26 -16.5 40
t-66.5 26l-75 18q-73 17 -107 51.5t-34 90.5q0 70 54.5 113.5t139.5 43.5q63 0 114 -24t83 -69l-41 -57q-28 42 -69 64t-90 22z" />
    <glyph glyph-name="Scedilla" unicode="&#x15e;" horiz-adv-x="647" 
d="M423 -134q0 -39 -35.5 -65t-88.5 -26q-39 0 -71 17t-45 44l34 34q14 -19 34.5 -30t42.5 -11q25 0 40 10.5t15 29.5q0 20 -27.5 31t-76.5 12l33 80q-83 8 -149 47t-100 100l56 52q38 -61 99.5 -94.5t135.5 -33.5q70 0 110.5 29.5t40.5 81.5q0 42 -27 67.5t-96 45.5l-96 26
q-101 28 -144.5 73.5t-43.5 118.5q0 90 72 147.5t183 57.5q85 0 153 -33.5t106 -92.5l-53 -57q-33 55 -87 84.5t-120 29.5q-61 0 -97.5 -27.5t-36.5 -74.5q0 -41 26 -64.5t94 -41.5l97 -27q98 -27 143.5 -73.5t45.5 -119.5q0 -97 -73.5 -159t-188.5 -64l-18 -42
q56 -2 84.5 -23t28.5 -59z" />
    <glyph glyph-name="scedilla" unicode="&#x15f;" horiz-adv-x="522" 
d="M365 -134q0 -39 -35.5 -65t-88.5 -26q-39 0 -71 17t-45 44l34 34q14 -19 34.5 -30t42.5 -11q25 0 40 10.5t15 29.5q0 20 -27.5 31t-76.5 12l34 81q-61 9 -108.5 37.5t-71.5 72.5l48 47q33 -47 78 -71.5t99 -24.5q47 0 74 17t27 47q0 26 -16.5 40t-66.5 26l-75 18
q-73 17 -107 51.5t-34 90.5q0 70 54.5 113.5t139.5 43.5q63 0 114 -24t83 -69l-41 -57q-28 42 -69 64t-90 22q-41 0 -64.5 -15.5t-23.5 -41.5q0 -23 17 -36t66 -26l79 -20q74 -19 106 -52t32 -90q0 -74 -56.5 -120t-144.5 -46l-18 -42q56 -2 84.5 -23t28.5 -59z" />
    <glyph glyph-name="Scaron" unicode="&#x160;" horiz-adv-x="647" 
d="M320 63q70 0 110.5 29.5t40.5 81.5q0 42 -27 67.5t-96 45.5l-96 26q-101 28 -144.5 73.5t-43.5 118.5q0 90 72 147.5t183 57.5q85 0 153 -33.5t106 -92.5l-53 -57q-33 55 -87 84.5t-120 29.5q-61 0 -97.5 -27.5t-36.5 -74.5q0 -41 26 -64.5t94 -41.5l97 -27
q98 -27 143.5 -73.5t45.5 -119.5q0 -99 -76 -161t-194 -62q-95 0 -173.5 40t-117.5 109l56 52q38 -61 99.5 -94.5t135.5 -33.5zM501 947l-141 -188h-64l-139 188h58l114 -102l114 102h58z" />
    <glyph glyph-name="scaron" unicode="&#x161;" horiz-adv-x="522" 
d="M433 753l-131 -199h-64l-129 199h58l104 -113l104 113h58zM259 437q-41 0 -64.5 -15.5t-23.5 -41.5q0 -23 17 -36t66 -26l79 -20q74 -19 106 -52t32 -90q0 -74 -57 -120t-148 -46q-74 0 -135 30.5t-90 82.5l48 47q33 -47 78 -71.5t99 -24.5q47 0 74 17t27 47
q0 26 -16.5 40t-66.5 26l-75 18q-73 17 -107 51.5t-34 90.5q0 70 54.5 113.5t139.5 43.5q63 0 114 -24t83 -69l-41 -57q-28 42 -69 64t-90 22z" />
    <glyph glyph-name="Tcommaaccent" unicode="&#x162;" horiz-adv-x="748" 
d="M486 -134q0 -39 -35.5 -65t-88.5 -26q-39 0 -71 17t-45 44l34 34q14 -19 34.5 -30t42.5 -11q25 0 40 10.5t15 29.5q0 20 -27.5 31t-76.5 12l37 88h-36v630h-264v70h658v-70h-264v-630h-44l-22 -52q56 -2 84.5 -23t28.5 -59z" />
    <glyph glyph-name="tcommaaccent" unicode="&#x163;" horiz-adv-x="452" 
d="M341 -134q0 -39 -35.5 -65t-88.5 -26q-39 0 -71 17t-45 44l34 34q14 -19 34.5 -30t42.5 -11q25 0 40 10.5t15 29.5q0 20 -27.5 31t-76.5 12l36 85q-48 14 -74 52t-26 94l2 284h-76v64h76l2 114l121 49v-163h170l-5 -64h-165v-284q0 -38 17 -58.5t48 -20.5q36 0 54.5 25.5
t22.5 82.5l58 -7q-3 -81 -48.5 -128t-122.5 -47h-7l-18 -42q56 -2 84.5 -23t28.5 -59z" />
    <glyph glyph-name="Tcaron" unicode="&#x164;" horiz-adv-x="748" 
d="M546 947l-141 -188h-64l-139 188h58l114 -102l114 102h58zM439 0h-130v630h-264v70h658v-70h-264v-630z" />
    <glyph glyph-name="tcaron" unicode="&#x165;" horiz-adv-x="452" 
d="M326 774h120l-96 -205h-53zM101 427h-76v64h76l2 114l121 49v-163h170l-5 -64h-165v-284q0 -38 17 -58.5t48 -20.5q36 0 54.5 25.5t22.5 82.5l58 -7q-3 -81 -48.5 -128t-122.5 -47q-72 0 -113 40.5t-41 112.5z" />
    <glyph glyph-name="Tbar" unicode="&#x166;" horiz-adv-x="748" 
d="M574 396v-70h-135v-326h-130v326h-135v70h135v234h-264v70h658v-70h-264v-234h135z" />
    <glyph glyph-name="tbar" unicode="&#x167;" horiz-adv-x="464" 
d="M375 172l58 -7q-3 -81 -48.5 -128t-122.5 -47q-72 0 -113 40.5t-41 112.5l1 129h-76v64h76l1 91h-76v64h76l2 114l121 49v-163h170l-5 -64h-165v-91h163v-64h-163v-129q0 -38 17 -58.5t48 -20.5q36 0 54.5 25.5t22.5 82.5z" />
    <glyph glyph-name="Utilde" unicode="&#x168;" horiz-adv-x="764" 
d="M474 783q-17 0 -35.5 8t-54.5 31q-26 18 -37.5 23.5t-20.5 5.5q-20 0 -33 -15.5t-24 -56.5h-60q14 71 43.5 110.5t67.5 39.5q17 0 36 -8t54 -32q26 -18 38 -23.5t21 -5.5q20 0 33 16.5t24 56.5h59q-14 -72 -43 -111t-68 -39zM587 283v417h84v-427q0 -133 -75.5 -208
t-206.5 -75q-140 0 -217.5 74.5t-77.5 207.5v428h130v-417q0 -102 47.5 -157t135.5 -55q90 0 135 52.5t45 159.5z" />
    <glyph glyph-name="utilde" unicode="&#x169;" horiz-adv-x="631" 
d="M297 77q50 0 82.5 47.5t32.5 122.5v244h124v-491h-120l-4 115q-23 -61 -66 -93t-103 -32q-73 0 -114.5 47t-41.5 127v327h124v-305q0 -54 21.5 -81.5t64.5 -27.5zM389 582q-17 0 -35.5 8t-54.5 32q-26 18 -37.5 23.5t-20.5 5.5q-20 0 -33 -15.5t-24 -57.5h-60
q14 71 43 110.5t68 39.5q17 0 36 -7.5t54 -31.5q26 -18 38 -23.5t21 -5.5q20 0 33 16t24 56h59q-14 -72 -43 -111t-68 -39z" />
    <glyph glyph-name="Umacron" unicode="&#x16a;" horiz-adv-x="764" 
d="M542 855v-69h-290v69h290zM587 283v417h84v-427q0 -133 -75.5 -208t-206.5 -75q-140 0 -217.5 74.5t-77.5 207.5v428h130v-417q0 -102 47.5 -157t135.5 -55q90 0 135 52.5t45 159.5z" />
    <glyph glyph-name="umacron" unicode="&#x16b;" horiz-adv-x="631" 
d="M297 77q50 0 82.5 47.5t32.5 122.5v244h124v-491h-120l-4 115q-23 -61 -66 -93t-103 -32q-73 0 -114.5 47t-41.5 127v327h124v-305q0 -54 21.5 -81.5t64.5 -27.5zM457 655v-69h-290v69h290z" />
    <glyph glyph-name="Ubreve" unicode="&#x16c;" horiz-adv-x="764" 
d="M497 948h53q-1 -77 -44 -126t-109 -49q-65 0 -108.5 49t-44.5 126h54q3 -45 30 -73t69 -28t69 27.5t31 73.5zM587 283v417h84v-427q0 -133 -75.5 -208t-206.5 -75q-140 0 -217.5 74.5t-77.5 207.5v428h130v-417q0 -102 47.5 -157t135.5 -55q90 0 135 52.5t45 159.5z" />
    <glyph glyph-name="ubreve" unicode="&#x16d;" horiz-adv-x="631" 
d="M297 77q50 0 82.5 47.5t32.5 122.5v244h124v-491h-120l-4 115q-23 -61 -66 -93t-103 -32q-73 0 -114.5 47t-41.5 127v327h124v-305q0 -54 21.5 -81.5t64.5 -27.5zM407 750h53q-1 -81 -42.5 -131.5t-105.5 -50.5t-105.5 50.5t-42.5 131.5h54q3 -48 28.5 -78t65.5 -30
t65.5 29.5t29.5 78.5z" />
    <glyph glyph-name="Uring" unicode="&#x16e;" horiz-adv-x="764" 
d="M587 283v417h84v-427q0 -133 -75.5 -208t-206.5 -75q-140 0 -217.5 74.5t-77.5 207.5v428h130v-417q0 -102 47.5 -157t135.5 -55q90 0 135 52.5t45 159.5zM397 752q-45 0 -77.5 32t-32.5 77q0 44 33 76.5t77 32.5q45 0 78 -32.5t33 -76.5q0 -45 -33 -77t-78 -32zM397 803
q26 0 42.5 16.5t16.5 41.5q0 26 -16.5 43t-42.5 17t-42.5 -17t-16.5 -43q0 -25 17 -41.5t42 -16.5z" />
    <glyph glyph-name="uring" unicode="&#x16f;" horiz-adv-x="631" 
d="M312 558q-45 0 -77.5 32.5t-32.5 77.5q0 44 32.5 76t77.5 32t78 -32t33 -76q0 -45 -33 -77.5t-78 -32.5zM312 609q26 0 42.5 16.5t16.5 42.5t-16.5 42.5t-42.5 16.5q-25 0 -42 -16.5t-17 -42.5t16.5 -42.5t42.5 -16.5zM297 77q50 0 82.5 47.5t32.5 122.5v244h124v-491
h-120l-4 115q-23 -61 -66 -93t-103 -32q-73 0 -114.5 47t-41.5 127v327h124v-305q0 -54 21.5 -81.5t64.5 -27.5z" />
    <glyph glyph-name="Uhungarumlaut" unicode="&#x170;" horiz-adv-x="764" 
d="M587 283v417h84v-427q0 -133 -75.5 -208t-206.5 -75q-140 0 -217.5 74.5t-77.5 207.5v428h130v-417q0 -102 47.5 -157t135.5 -55q90 0 135 52.5t45 159.5zM266 766l64 174h122l-128 -174h-58zM450 766l63 174h123l-129 -174h-57z" />
    <glyph glyph-name="uhungarumlaut" unicode="&#x171;" horiz-adv-x="631" 
d="M297 77q50 0 82.5 47.5t32.5 122.5v244h124v-491h-120l-4 115q-23 -61 -66 -93t-103 -32q-73 0 -114.5 47t-41.5 127v327h124v-305q0 -54 21.5 -81.5t64.5 -27.5zM190 561l64 188h122l-128 -188h-58zM367 561l63 188h123l-129 -188h-57z" />
    <glyph glyph-name="Uogonek" unicode="&#x172;" horiz-adv-x="764" 
d="M424 -225q-44 0 -74 25t-30 66q0 33 19.5 63.5t60.5 60.5h-11q-140 0 -217.5 74.5t-77.5 207.5v428h130v-417q0 -102 47.5 -157t135.5 -55q90 0 135 52.5t45 159.5v417h84v-427q0 -100 -44 -168.5t-126 -96.5q-55 -38 -78 -66t-23 -55q0 -22 13 -35t36 -13
q25 0 43.5 15.5t37.5 53.5l44 -22q-22 -55 -60 -83t-90 -28z" />
    <glyph glyph-name="uogonek" unicode="&#x173;" horiz-adv-x="631" 
d="M528 -92l44 -22q-21 -54 -59 -82.5t-91 -28.5q-44 0 -73.5 25t-29.5 66q0 37 23.5 70t73.5 65l-4 114q-23 -61 -66 -93t-103 -32q-73 0 -114.5 47t-41.5 127v327h124v-305q0 -54 21.5 -81.5t64.5 -27.5q50 0 82.5 47.5t32.5 122.5v244h124v-491h-39q-57 -38 -78 -63
t-21 -50q0 -22 13 -35t36 -13q26 0 44.5 15.5t36.5 53.5z" />
    <glyph glyph-name="Wcircumflex" unicode="&#x174;" horiz-adv-x="1025" 
d="M731 -4h-53l-159 448l-159 -448h-53l-269 704h134l188 -513l123 359l-55 154h131l167 -503l179 503h82zM684 761h-58l-114 103l-114 -103h-58l139 189h64z" />
    <glyph glyph-name="wcircumflex" unicode="&#x175;" horiz-adv-x="799" 
d="M366 751h64l131 -199h-58l-104 113l-104 -113h-58zM563 -5h-41l-122 310l-129 -310h-40l-208 496h135l127 -317l82 216l-40 101h130l113 -314l128 314h78z" />
    <glyph glyph-name="Ycircumflex" unicode="&#x176;" horiz-adv-x="727" 
d="M185 700l210 -323l209 323h90l-265 -405v-295h-130v295l-266 405h152zM535 761h-58l-114 103l-114 -103h-58l139 189h64z" />
    <glyph glyph-name="ycircumflex" unicode="&#x177;" horiz-adv-x="542" 
d="M104 -225q-48 0 -79.5 28t-31.5 72q0 13 4 26t13 29l70 -16q-7 -13 -8.5 -20t-1.5 -14q0 -19 11 -30t29 -11q29 0 51.5 28t62.5 117l19 42l-220 465h136l146 -325l133 325h82l-238 -546q-39 -91 -81 -130.5t-97 -39.5zM261 751h64l131 -199h-58l-104 113l-104 -113h-58z
" />
    <glyph glyph-name="Ydieresis" unicode="&#x178;" horiz-adv-x="727" 
d="M185 700l210 -323l209 323h90l-265 -405v-295h-130v295l-266 405h152zM323 780h-109v130h109v-130zM513 780h-109v130h109v-130z" />
    <glyph glyph-name="Zacute" unicode="&#x179;" horiz-adv-x="722" 
d="M220 72h442v-72h-609v46l438 583h-418v71h582v-46zM321 766l57 174h131l-128 -174h-60z" />
    <glyph glyph-name="zacute" unicode="&#x17a;" horiz-adv-x="549" 
d="M240 561l61 188h130l-132 -188h-59zM52 0v37l282 388h-265v66h421v-36l-279 -389h287v-66h-446z" />
    <glyph glyph-name="Zdotaccent" unicode="&#x17b;" horiz-adv-x="722" 
d="M420 785h-129v135h129v-135zM220 72h442v-72h-609v46l438 583h-418v71h582v-46z" />
    <glyph glyph-name="zdotaccent" unicode="&#x17c;" horiz-adv-x="549" 
d="M52 0v37l282 388h-265v66h421v-36l-279 -389h287v-66h-446zM339 592h-129v136h129v-136z" />
    <glyph glyph-name="Zcaron" unicode="&#x17d;" horiz-adv-x="722" 
d="M527 947l-141 -188h-64l-139 188h58l114 -102l114 102h58zM220 72h442v-72h-609v46l438 583h-418v71h582v-46z" />
    <glyph glyph-name="zcaron" unicode="&#x17e;" horiz-adv-x="549" 
d="M437 753l-131 -199h-64l-129 199h58l104 -113l104 113h58zM52 0v37l282 388h-265v66h421v-36l-279 -389h287v-66h-446z" />
    <glyph glyph-name="florin" unicode="&#x192;" horiz-adv-x="550" 
d="M60 -204q-61 0 -96.5 30.5t-35.5 79.5q0 21 9.5 41t24.5 33l53 -26q-9 -13 -14 -24.5t-5 -21.5q0 -24 13.5 -37.5t38.5 -13.5q32 0 50 27t26 92l47 354h-98l7 51h98l16 120q13 100 63 154.5t130 54.5q61 0 97.5 -30t36.5 -77q0 -20 -9 -39t-25 -34l-52 26q13 22 15.5 30
t2.5 15q0 23 -14.5 35.5t-40.5 12.5q-31 0 -49 -26.5t-27 -92.5l-20 -149h116l-7 -51h-115l-43 -324q-13 -101 -63 -155.5t-130 -54.5z" />
    <glyph glyph-name="AEacute" unicode="&#x1fc;" horiz-adv-x="1094" 
d="M713 766l57 174h131l-128 -174h-60zM520 275v332l-215 -332h215zM1036 0h-516v210h-257l-136 -210h-89l458 700h524v-71h-370v-232h271v-71h-271v-254h386v-72z" />
    <glyph glyph-name="aeacute" unicode="&#x1fd;" horiz-adv-x="886" 
d="M411 561l61 188h130l-132 -188h-59zM785 170l52 -18q-20 -78 -78 -120t-145 -42q-69 0 -123 30.5t-84 86.5q-29 -55 -83 -86t-125 -31q-65 0 -106 35.5t-41 94.5q0 62 50.5 99.5t186.5 61.5l85 14v37q0 53 -28 78.5t-86 25.5q-45 0 -72 -17t-27 -46q0 -11 3.5 -20
t12.5 -19l-61 -36q-15 12 -24 31t-9 40q0 58 51.5 95t137.5 37q59 0 102 -20.5t67 -59.5q32 38 76.5 59t95.5 21q107 0 167 -68t60 -188h-346q1 -90 40 -137t111 -47q51 0 85 26t55 83zM612 443q-50 0 -79.5 -36.5t-36.5 -107.5h217q-1 74 -26 109t-75 35zM374 225v18
l-70 -12q-70 -12 -100 -35t-30 -61q0 -32 20 -50t55 -18q54 0 89.5 45t35.5 113z" />
    <glyph glyph-name="Oslashacute" unicode="&#x1fe;" horiz-adv-x="805" 
d="M403 646q-101 0 -156 -77.5t-55 -218.5q0 -47 6.5 -88t19.5 -74l344 376q-27 40 -67.5 61t-91.5 21zM403 55q101 0 156 77.5t55 217.5q0 43 -5.5 81t-16.5 71l-342 -374q27 -36 65.5 -54.5t87.5 -18.5zM760 350q0 -153 -103 -256.5t-254 -103.5q-59 0 -114 18t-102 52
l-88 -97l-48 43l89 97q-45 48 -69.5 112t-24.5 135q0 153 102.5 256.5t254.5 103.5q62 0 119 -19.5t104 -56.5l81 89l48 -42l-83 -91q43 -48 65.5 -110t22.5 -130zM368 766l57 174h131l-128 -174h-60z" />
    <glyph glyph-name="oslashacute" unicode="&#x1ff;" horiz-adv-x="606" 
d="M303 443q-62 0 -93.5 -50t-31.5 -148q0 -28 2.5 -51t7.5 -42l207 243q-16 24 -38.5 36t-53.5 12zM303 48q62 0 93 49.5t31 147.5q0 24 -2 46t-6 42l-206 -241q16 -22 38.5 -33t51.5 -11zM559 245q0 -110 -73 -182.5t-183 -72.5q-39 0 -75.5 10t-67.5 30l-63 -74l-45 37
l63 74q-33 35 -50.5 81t-17.5 97q0 110 73 183t183 73q40 0 77 -11t69 -32l59 69l46 -36l-61 -71q32 -35 49 -80t17 -95zM268 561l61 188h130l-132 -188h-59z" />
    <glyph glyph-name="Scommaaccent" unicode="&#x218;" horiz-adv-x="647" 
d="M333 -159h-71v101h135v-104q0 -59 -38.5 -89.5t-112.5 -30.5v53q45 0 66 14.5t21 45.5v10zM320 63q70 0 110.5 29.5t40.5 81.5q0 42 -27 67.5t-96 45.5l-96 26q-101 28 -144.5 73.5t-43.5 118.5q0 90 72 147.5t183 57.5q85 0 153 -33.5t106 -92.5l-53 -57
q-33 55 -87 84.5t-120 29.5q-61 0 -97.5 -27.5t-36.5 -74.5q0 -41 26 -64.5t94 -41.5l97 -27q98 -27 143.5 -73.5t45.5 -119.5q0 -99 -76 -161t-194 -62q-95 0 -173.5 40t-117.5 109l56 52q38 -61 99.5 -94.5t135.5 -33.5z" />
    <glyph glyph-name="scommaaccent" unicode="&#x219;" horiz-adv-x="522" 
d="M275 -159h-71v101h135v-104q0 -59 -38.5 -89.5t-112.5 -30.5v53q45 0 66 14.5t21 45.5v10zM259 437q-41 0 -64.5 -15.5t-23.5 -41.5q0 -23 17 -36t66 -26l79 -20q74 -19 106 -52t32 -90q0 -74 -57 -120t-148 -46q-74 0 -135 30.5t-90 82.5l48 47q33 -47 78 -71.5
t99 -24.5q47 0 74 17t27 47q0 26 -16.5 40t-66.5 26l-75 18q-73 17 -107 51.5t-34 90.5q0 70 54.5 113.5t139.5 43.5q63 0 114 -24t83 -69l-41 -57q-28 42 -69 64t-90 22z" />
    <glyph glyph-name="uni021A" unicode="&#x21a;" horiz-adv-x="748" 
d="M378 -159h-71v101h135v-104q0 -59 -38.5 -89.5t-112.5 -30.5v53q45 0 66 14.5t21 45.5v10zM439 0h-130v630h-264v70h658v-70h-264v-630z" />
    <glyph glyph-name="uni021B" unicode="&#x21b;" horiz-adv-x="452" 
d="M239 -159h-71v101h135v-104q0 -59 -38.5 -89.5t-112.5 -30.5v53q45 0 66 14.5t21 45.5v10zM101 427h-76v64h76l2 114l121 49v-163h170l-5 -64h-165v-284q0 -38 17 -58.5t48 -20.5q36 0 54.5 25.5t22.5 82.5l58 -7q-3 -81 -48.5 -128t-122.5 -47q-72 0 -113 40.5
t-41 112.5z" />
    <glyph glyph-name="uni0237" unicode="&#x237;" horiz-adv-x="309" 
d="M217 491v-526q0 -89 -47 -139.5t-131 -50.5q-63 0 -99.5 28t-36.5 77q0 16 6 30.5t17 25.5l54 -23q-5 -8 -7 -15.5t-2 -14.5q0 -23 14.5 -36t40.5 -13q35 0 51 25t16 81v551h124z" />
    <glyph glyph-name="circumflex" unicode="&#x2c6;" horiz-adv-x="500" 
d="M217 751h64l131 -199h-58l-104 113l-104 -113h-58z" />
    <glyph glyph-name="caron" unicode="&#x2c7;" horiz-adv-x="500" 
d="M412 753l-131 -199h-64l-129 199h58l104 -113l104 113h58z" />
    <glyph glyph-name="breve" unicode="&#x2d8;" horiz-adv-x="500" 
d="M345 750h53q-1 -81 -42.5 -131.5t-105.5 -50.5t-105.5 50.5t-42.5 131.5h54q3 -48 28.5 -78t65.5 -30t65.5 29.5t29.5 78.5z" />
    <glyph glyph-name="dotaccent" unicode="&#x2d9;" horiz-adv-x="500" 
d="M315 592h-129v136h129v-136z" />
    <glyph glyph-name="ring" unicode="&#x2da;" horiz-adv-x="501" 
d="M250 558q-45 0 -77.5 32.5t-32.5 77.5q0 44 32.5 76t77.5 32t78 -32t33 -76q0 -45 -33 -77.5t-78 -32.5zM250 609q26 0 42.5 16.5t16.5 42.5t-16.5 42.5t-42.5 16.5q-25 0 -42 -16.5t-17 -42.5t16.5 -42.5t42.5 -16.5z" />
    <glyph glyph-name="ogonek" unicode="&#x2db;" horiz-adv-x="500" 
d="M249 -225q-44 0 -73.5 25t-29.5 66q0 44 35 83.5t120 86.5l31 -31q-62 -40 -84.5 -66t-22.5 -52q0 -22 13 -35t36 -13q26 0 44.5 15.5t36.5 53.5l44 -22q-21 -54 -59 -82.5t-91 -28.5z" />
    <glyph glyph-name="tilde" unicode="&#x2dc;" horiz-adv-x="500" 
d="M327 582q-17 0 -35.5 8t-54.5 32q-26 18 -37.5 23.5t-20.5 5.5q-20 0 -33 -15.5t-24 -57.5h-60q14 71 43 110.5t68 39.5q17 0 36 -7.5t54 -31.5q26 -18 38 -23.5t21 -5.5q20 0 33 16t24 56h59q-14 -72 -43 -111t-68 -39z" />
    <glyph glyph-name="hungarumlaut" unicode="&#x2dd;" horiz-adv-x="500" 
d="M69 561l64 188h122l-128 -188h-58zM246 561l63 188h123l-129 -188h-57z" />
    <glyph glyph-name="Wgrave" unicode="&#x1e80;" horiz-adv-x="1025" 
d="M552 766h-59l-129 174h132zM731 -4h-53l-159 448l-159 -448h-53l-269 704h134l188 -513l123 359l-55 154h131l167 -503l179 503h82z" />
    <glyph glyph-name="wgrave" unicode="&#x1e81;" horiz-adv-x="799" 
d="M563 -5h-41l-122 310l-129 -310h-40l-208 496h135l127 -317l82 216l-40 101h130l113 -314l128 314h78zM435 561h-58l-132 188h130z" />
    <glyph glyph-name="Wacute" unicode="&#x1e82;" horiz-adv-x="1025" 
d="M478 766l57 174h131l-128 -174h-60zM731 -4h-53l-159 448l-159 -448h-53l-269 704h134l188 -513l123 359l-55 154h131l167 -503l179 503h82z" />
    <glyph glyph-name="wacute" unicode="&#x1e83;" horiz-adv-x="799" 
d="M364 561l61 188h130l-132 -188h-59zM563 -5h-41l-122 310l-129 -310h-40l-208 496h135l127 -317l82 216l-40 101h130l113 -314l128 314h78z" />
    <glyph glyph-name="Wdieresis" unicode="&#x1e84;" horiz-adv-x="1025" 
d="M472 780h-109v130h109v-130zM662 780h-109v130h109v-130zM731 -4h-53l-159 448l-159 -448h-53l-269 704h134l188 -513l123 359l-55 154h131l167 -503l179 503h82z" />
    <glyph glyph-name="wdieresis" unicode="&#x1e85;" horiz-adv-x="799" 
d="M359 587h-109v131h109v-131zM549 587h-109v131h109v-131zM563 -5h-41l-122 310l-129 -310h-40l-208 496h135l127 -317l82 216l-40 101h130l113 -314l128 314h78z" />
    <glyph glyph-name="Ygrave" unicode="&#x1ef2;" horiz-adv-x="727" 
d="M185 700l210 -323l209 323h90l-265 -405v-295h-130v295l-266 405h152zM403 766h-59l-129 174h132z" />
    <glyph glyph-name="ygrave" unicode="&#x1ef3;" horiz-adv-x="542" 
d="M104 -225q-48 0 -79.5 28t-31.5 72q0 13 4 26t13 29l70 -16q-7 -13 -8.5 -20t-1.5 -14q0 -19 11 -30t29 -11q29 0 51.5 28t62.5 117l19 42l-220 465h136l146 -325l133 325h82l-238 -546q-39 -91 -81 -130.5t-97 -39.5zM329 561h-58l-132 188h130z" />
    <glyph glyph-name="endash" unicode="&#x2013;" horiz-adv-x="571" 
d="M496 254h-420v79h420v-79z" />
    <glyph glyph-name="emdash" unicode="&#x2014;" horiz-adv-x="871" 
d="M796 254h-720v79h720v-79z" />
    <glyph glyph-name="quoteleft" unicode="&#x2018;" horiz-adv-x="293" 
d="M147 540h71v-139h-143v151q0 76 43 117t123 41v-54q-49 0 -71.5 -25t-22.5 -78v-13z" />
    <glyph glyph-name="quoteright" unicode="&#x2019;" horiz-adv-x="293" 
d="M146 561h-71v139h143v-151q0 -76 -43 -117t-123 -41v54q49 0 71.5 25t22.5 78v13z" />
    <glyph glyph-name="quotesinglbase" unicode="&#x201a;" horiz-adv-x="293" 
d="M146 9h-71v139h143v-151q0 -76 -43 -117t-123 -41v54q49 0 71.5 25t22.5 78v13z" />
    <glyph glyph-name="quotedblleft" unicode="&#x201c;" horiz-adv-x="537" 
d="M147 540h71v-139h-143v151q0 76 43 117t123 41v-54q-49 0 -71.5 -25t-22.5 -78v-13zM391 540h71v-139h-143v151q0 76 43 117t123 41v-54q-49 0 -71.5 -25t-22.5 -78v-13z" />
    <glyph glyph-name="quotedblright" unicode="&#x201d;" horiz-adv-x="537" 
d="M146 561h-71v139h143v-151q0 -76 -43 -117t-123 -41v54q49 0 71.5 25t22.5 78v13zM390 561h-71v139h143v-151q0 -76 -43 -117t-123 -41v54q49 0 71.5 25t22.5 78v13z" />
    <glyph glyph-name="quotedblbase" unicode="&#x201e;" horiz-adv-x="537" 
d="M146 9h-71v139h143v-151q0 -76 -43 -117t-123 -41v54q49 0 71.5 25t22.5 78v13zM390 9h-71v139h143v-151q0 -76 -43 -117t-123 -41v54q49 0 71.5 25t22.5 78v13z" />
    <glyph glyph-name="dagger" unicode="&#x2020;" horiz-adv-x="457" 
d="M257 280h-57v272h-140v57h140v140h57v-140h140v-57h-140v-272z" />
    <glyph glyph-name="daggerdbl" unicode="&#x2021;" horiz-adv-x="457" 
d="M258 280h-57v128h-141v57h141v100h-141v57h141v127h57v-127h139v-57h-139v-100h139v-57h-139v-128z" />
    <glyph glyph-name="bullet" unicode="&#x2022;" horiz-adv-x="450" 
d="M225 129q-61 0 -105 44t-44 105t44 105.5t105 44.5t105 -44t44 -106q0 -61 -43.5 -105t-105.5 -44z" />
    <glyph glyph-name="ellipsis" unicode="&#x2026;" horiz-adv-x="801" 
d="M726 0h-143v148h143v-148zM473 0h-143v148h143v-148zM219 0h-143v148h143v-148z" />
    <glyph glyph-name="perthousand" unicode="&#x2030;" horiz-adv-x="1280" 
d="M695 710l-481 -720h-65l481 720h65zM213 358q-64 0 -108.5 51t-44.5 125q0 73 45 124.5t108 51.5q64 0 108 -51t44 -125t-44 -125t-108 -51zM213 422q38 0 61.5 31.5t23.5 80.5t-23.5 80.5t-61.5 31.5t-61.5 -31t-23.5 -81t23.5 -81t61.5 -31zM631 -11q-63 0 -108 51.5
t-45 125.5q0 73 45 124.5t108 51.5q64 0 108 -51t44 -125t-44 -125.5t-108 -51.5zM1004 -11q-63 0 -107.5 51.5t-44.5 125.5q0 73 44.5 124.5t107.5 51.5q64 0 108.5 -51.5t44.5 -124.5q0 -74 -44.5 -125.5t-108.5 -51.5zM631 54q38 0 61.5 31.5t23.5 80.5t-23.5 80.5
t-61.5 31.5t-61.5 -31t-23.5 -81t23.5 -81t61.5 -31zM1004 54q38 0 62 31.5t24 80.5t-24 80.5t-62 31.5t-61.5 -31.5t-23.5 -80.5t23.5 -80.5t61.5 -31.5z" />
    <glyph glyph-name="guilsinglleft" unicode="&#x2039;" horiz-adv-x="401" 
d="M273 29l-215 211v8l215 211h71l-155 -215l155 -215h-71z" />
    <glyph glyph-name="guilsinglright" unicode="&#x203a;" horiz-adv-x="401" 
d="M57 29l155 215l-155 215h71l215 -211v-8l-215 -211h-71z" />
    <glyph glyph-name="fraction" unicode="&#x2044;" horiz-adv-x="183" 
d="M-93 -10h-62l431 720h62z" />
    <glyph glyph-name="uni2070" unicode="&#x2070;" horiz-adv-x="436" 
d="M218 296q-78 0 -126.5 56t-48.5 149t48.5 149t126.5 56q79 0 127.5 -56t48.5 -149q0 -92 -49 -148.5t-127 -56.5zM218 664q-37 0 -53 -38t-16 -125t16 -125t53 -38t53 38t16 125t-16 125t-53 38z" />
    <glyph glyph-name="uni2074" unicode="&#x2074;" horiz-adv-x="414" 
d="M302 443h80v-41h-80v-100h-92v100h-181v29l177 269h96v-257zM88 443h122v186z" />
    <glyph glyph-name="uni2075" unicode="&#x2075;" horiz-adv-x="389" 
d="M108 700h220l-10 -83h-180l-10 -76q16 9 36 14.5t40 5.5q62 0 100.5 -33.5t38.5 -88.5q0 -66 -46.5 -104.5t-123.5 -38.5q-61 0 -98.5 26.5t-37.5 72.5q0 21 11 38t31 27l31 -30q-9 -8 -13.5 -17t-4.5 -20q0 -22 17.5 -35.5t45.5 -13.5q40 0 62 24.5t22 68.5q0 36 -19 57
t-52 21q-18 0 -33 -5.5t-30 -17.5h-23z" />
    <glyph glyph-name="uni2076" unicode="&#x2076;" horiz-adv-x="403" 
d="M236 556q52 0 88 -34t36 -88q0 -61 -44 -99.5t-110 -38.5q-72 0 -117.5 54t-45.5 140q0 93 54.5 154.5t140.5 61.5q54 0 86 -24t32 -61q0 -19 -8.5 -33.5t-22.5 -19.5l-38 20q7 6 10.5 13.5t3.5 15.5q0 21 -15.5 32.5t-43.5 11.5q-49 0 -76 -44t-27 -117q10 26 36 41
t61 15zM204 507q-30 0 -45 -21.5t-15 -62.5q0 -42 15.5 -64t44.5 -22q30 0 46 22t16 64q0 41 -16 62.5t-46 21.5z" />
    <glyph glyph-name="uni2077" unicode="&#x2077;" horiz-adv-x="356" 
d="M42 617v83h290v-32l-51 -86q-40 -66 -58 -133.5t-17 -146.5h-92q13 71 38 132.5t77 143.5l24 39h-211z" />
    <glyph glyph-name="uni2078" unicode="&#x2078;" horiz-adv-x="401" 
d="M333 611q0 -25 -16.5 -45t-47.5 -34q45 -18 67.5 -45t22.5 -64q0 -58 -45 -92.5t-117 -34.5q-68 0 -111 29t-43 76q0 31 22.5 55t61.5 35q-33 17 -49.5 41.5t-16.5 55.5q0 53 39 85.5t99 32.5q58 0 96 -26.5t38 -68.5zM199 663q-29 0 -46 -12.5t-17 -34.5q0 -20 15 -33.5
t53 -25.5l28 -10q20 12 31 28.5t11 34.5q0 25 -20 39t-55 14zM274 395q0 20 -14 34.5t-47 26.5l-54 20q-27 -11 -42 -29.5t-15 -42.5q0 -30 25.5 -47t69.5 -17q35 0 56 15t21 40z" />
    <glyph glyph-name="uni2079" unicode="&#x2079;" horiz-adv-x="403" 
d="M199 495q30 0 45 21.5t15 63.5q0 41 -15.5 63t-44.5 22q-31 0 -46.5 -21.5t-15.5 -63.5t15.5 -63.5t46.5 -21.5zM167 446q-52 0 -88 34t-36 89q0 61 43.5 99t110.5 38q72 0 117.5 -54t45.5 -140q0 -93 -54.5 -154.5t-140.5 -61.5q-53 0 -85.5 24t-32.5 62q0 19 8.5 33
t22.5 19l38 -19q-7 -6 -10.5 -13.5t-3.5 -15.5q0 -21 15.5 -33t43.5 -12q49 0 76 44.5t27 117.5q-10 -26 -36 -41.5t-61 -15.5z" />
    <glyph glyph-name="uni2080" unicode="&#x2080;" horiz-adv-x="436" 
d="M218 -107q-78 0 -126.5 56.5t-48.5 149.5t48.5 149t126.5 56t127 -56.5t49 -148.5q0 -93 -49 -149.5t-127 -56.5zM218 262q-37 0 -53 -38t-16 -125q0 -88 16 -126t53 -38t53 38t16 126q0 87 -16 125t-53 38z" />
    <glyph glyph-name="uni2081" unicode="&#x2081;" horiz-adv-x="318" 
d="M234 302v-402h-92v298q-9 -15 -39.5 -40t-52.5 -34l-17 44q32 17 75 58.5t63 75.5h63z" />
    <glyph glyph-name="uni2082" unicode="&#x2082;" horiz-adv-x="385" 
d="M323 181q0 -52 -45 -96t-162 -103h218l-7 -82h-302v25l104 101q55 53 75 89t20 75q0 30 -17.5 47.5t-47.5 17.5q-28 0 -44 -15.5t-16 -42.5q0 -15 9 -28.5t26 -24.5l-32 -32q-24 6 -41 29.5t-17 51.5q0 50 37 80.5t99 30.5q65 0 104 -32.5t39 -90.5z" />
    <glyph glyph-name="uni2083" unicode="&#x2083;" horiz-adv-x="395" 
d="M350 13q0 -55 -46 -87t-122 -32q-61 0 -100 28t-39 74q0 28 19.5 49.5t46.5 25.5l25 -31q-19 -9 -27 -19t-8 -25q0 -25 19 -40t51 -15q38 0 58.5 20.5t20.5 58.5t-19.5 57t-60.5 19h-9v32h9q37 2 54.5 19.5t17.5 52.5q0 28 -18 43.5t-49 15.5q-27 0 -43 -12t-16 -32
q0 -13 7 -22.5t21 -15.5l-22 -33q-26 4 -42 23t-16 46q0 39 36.5 65t91.5 26q65 0 105 -26.5t40 -72.5q0 -38 -29 -62.5t-77 -28.5v-1q54 -3 87.5 -30.5t33.5 -69.5z" />
    <glyph glyph-name="uni2084" unicode="&#x2084;" horiz-adv-x="414" 
d="M302 41h80v-42h-80v-99h-92v99h-181v30l177 269h96v-257zM88 41h122v186z" />
    <glyph glyph-name="uni2085" unicode="&#x2085;" horiz-adv-x="389" 
d="M108 298h220l-10 -83h-180l-10 -76q16 9 36 14.5t40 5.5q62 0 100.5 -33.5t38.5 -88.5q0 -66 -46.5 -104.5t-123.5 -38.5q-61 0 -98.5 26.5t-37.5 72.5q0 21 11 38t31 27l31 -30q-9 -8 -13.5 -17t-4.5 -20q0 -23 17.5 -36.5t45.5 -13.5q40 0 62 24.5t22 69.5q0 36 -19 57
t-52 21q-18 0 -33 -5.5t-30 -17.5h-23z" />
    <glyph glyph-name="uni2086" unicode="&#x2086;" horiz-adv-x="403" 
d="M236 154q52 0 88 -34t36 -88q0 -62 -43.5 -100t-110.5 -38q-72 0 -117.5 54t-45.5 140q0 93 54.5 154.5t140.5 61.5q54 0 86 -24t32 -61q0 -19 -8.5 -33.5t-22.5 -19.5l-38 20q7 6 10.5 13.5t3.5 15.5q0 21 -15.5 32.5t-43.5 11.5q-49 0 -76 -44t-27 -117q10 26 36 41
t61 15zM204 105q-30 0 -45 -21.5t-15 -62.5q0 -42 15.5 -64t44.5 -22q31 0 46.5 22t15.5 64q0 41 -16 62.5t-46 21.5z" />
    <glyph glyph-name="uni2087" unicode="&#x2087;" horiz-adv-x="356" 
d="M42 215v83h290v-32l-51 -86q-40 -66 -58 -133.5t-17 -146.5h-92q13 71 38 132.5t77 143.5l24 39h-211z" />
    <glyph glyph-name="uni2088" unicode="&#x2088;" horiz-adv-x="401" 
d="M333 209q0 -25 -16.5 -45t-47.5 -34q45 -18 67.5 -45t22.5 -64q0 -58 -45 -92.5t-117 -34.5q-68 0 -111 28.5t-43 75.5q0 32 22.5 56t61.5 35q-33 17 -49.5 41.5t-16.5 55.5q0 53 39 85.5t99 32.5q58 0 96 -26.5t38 -68.5zM199 261q-29 0 -46 -12.5t-17 -34.5
q0 -20 15 -33.5t53 -25.5l28 -10q20 12 31 28.5t11 34.5q0 25 -20 39t-55 14zM274 -7q0 20 -14 34.5t-47 26.5l-54 20q-27 -11 -42 -29.5t-15 -42.5q0 -30 25.5 -47.5t69.5 -17.5q35 0 56 15t21 41z" />
    <glyph glyph-name="uni2089" unicode="&#x2089;" horiz-adv-x="403" 
d="M199 93q30 0 45 21.5t15 63.5q0 41 -15.5 63t-44.5 22q-31 0 -46.5 -21.5t-15.5 -63.5t15.5 -63.5t46.5 -21.5zM167 44q-52 0 -88 34t-36 89q0 61 43.5 99t110.5 38q72 0 117.5 -54t45.5 -140q0 -93 -54.5 -154.5t-140.5 -61.5q-54 0 -86 24t-32 61q0 19 8.5 33.5
t22.5 19.5l38 -19q-7 -6 -10.5 -13.5t-3.5 -16.5q0 -21 15.5 -32.5t43.5 -11.5q49 0 76 44.5t27 117.5q-10 -26 -36 -41.5t-61 -15.5z" />
    <glyph glyph-name="Euro" unicode="&#x20ac;" horiz-adv-x="661" 
d="M578 194l50 -33q-30 -80 -91 -125.5t-138 -45.5q-103 0 -180 69.5t-101 186.5h-88v53h80q-1 19 -1.5 28t-0.5 17t0.5 18l1.5 30h-80v53h88q25 120 104 192.5t183 72.5q86 0 145 -51t74 -134l-67 -26q-15 72 -50 106t-92 34q-68 0 -110.5 -49.5t-56.5 -144.5h206l-10 -53
h-201q-1 -7 -1 -15v-25q0 -10 0.5 -21t1.5 -32h181l-10 -53h-164q15 -86 57.5 -132.5t105.5 -47.5q59 0 99.5 31.5t64.5 96.5z" />
    <glyph glyph-name="trademark" unicode="&#x2122;" horiz-adv-x="866" 
d="M239 394h-77v266h-113v40h303v-40h-113v-266zM508 700l76 -189l75 189h92v-306h-76v247l-97 -247h-29l-97 247v-247h-45v306h101z" />
    <glyph glyph-name="uni2153" unicode="&#x2153;" horiz-adv-x="848" 
d="M209 -10h-62l431 720h62zM234 704v-402h-92v298q-9 -15 -39.5 -40t-52.5 -34l-17 44q32 17 75 58.5t63 75.5h63zM803 113q0 -55 -46 -87t-122 -32q-60 0 -99.5 28t-39.5 74q0 28 19.5 49.5t46.5 25.5l25 -31q-19 -9 -27 -19t-8 -25q0 -25 19.5 -40t50.5 -15
q38 0 58.5 20.5t20.5 58.5t-19.5 57t-60.5 19h-9v32h9q37 2 54.5 19.5t17.5 52.5q0 28 -18 43.5t-49 15.5q-27 0 -43 -12t-16 -32q0 -13 7 -22.5t21 -15.5l-22 -33q-26 4 -42 23t-16 46q0 39 36.5 65t91.5 26q65 0 105 -26.5t40 -72.5q0 -38 -29 -62.5t-77 -28.5v-1
q54 -3 87.5 -30.5t33.5 -69.5z" />
    <glyph glyph-name="uni2154" unicode="&#x2154;" horiz-adv-x="922" 
d="M323 583q0 -52 -45 -96t-162 -103h218l-7 -82h-302v25l104 101q55 53 75 89t20 75q0 30 -17.5 47.5t-47.5 17.5q-28 0 -44 -15.5t-16 -42.5q0 -15 9 -28.5t26 -24.5l-32 -32q-24 6 -41 29.5t-17 51.5q0 50 37 80.5t99 30.5q65 0 104 -32.5t39 -90.5zM284 -10h-62l431 720
h62zM878 113q0 -55 -46 -87t-122 -32q-60 0 -99.5 28t-39.5 74q0 28 19.5 49.5t46.5 25.5l25 -31q-19 -9 -27 -19t-8 -25q0 -25 19.5 -40t50.5 -15q38 0 58.5 20.5t20.5 58.5t-19.5 57t-60.5 19h-9v32h9q37 2 54.5 19.5t17.5 52.5q0 28 -18 43.5t-49 15.5q-27 0 -43 -12
t-16 -32q0 -13 7 -22.5t21 -15.5l-22 -33q-26 4 -42 23t-16 46q0 39 36.5 65t91.5 26q65 0 105 -26.5t40 -72.5q0 -38 -29 -62.5t-77 -28.5v-1q54 -3 87.5 -30.5t33.5 -69.5z" />
    <glyph glyph-name="uni215B" unicode="&#x215b;" horiz-adv-x="853" 
d="M786 309q0 -25 -16.5 -45t-47.5 -34q45 -18 67.5 -45t22.5 -64q0 -58 -45 -92.5t-117 -34.5q-68 0 -111 29t-43 76q0 31 22.5 55t61.5 35q-33 17 -49.5 41.5t-16.5 55.5q0 53 39 85.5t99 32.5q58 0 96 -26.5t38 -68.5zM652 361q-29 0 -46 -12.5t-17 -34.5q0 -20 15 -33.5
t53 -25.5l28 -10q20 12 31 28.5t11 34.5q0 25 -20 39t-55 14zM727 93q0 20 -14 34.5t-47 26.5l-54 20q-27 -11 -42 -29.5t-15 -42.5q0 -30 25.5 -47t69.5 -17q35 0 56 15t21 40zM209 -10h-62l431 720h62zM234 704v-402h-92v298q-9 -15 -39.5 -40t-52.5 -34l-17 44
q32 17 75 58.5t63 75.5h63z" />
    <glyph glyph-name="uni215C" unicode="&#x215c;" horiz-adv-x="916" 
d="M849 307q0 -25 -16.5 -45t-47.5 -34q45 -18 67.5 -45t22.5 -64q0 -58 -45 -92.5t-117 -34.5q-68 0 -111 29t-43 76q0 31 22.5 55t61.5 35q-33 17 -49.5 41.5t-16.5 55.5q0 53 39 85.5t99 32.5q58 0 96 -26.5t38 -68.5zM715 359q-29 0 -46 -12.5t-17 -34.5q0 -20 15 -33.5
t53 -25.5l28 -10q20 12 31 28.5t11 34.5q0 25 -20 39t-55 14zM790 91q0 20 -14 34.5t-47 26.5l-54 20q-27 -11 -42 -29.5t-15 -42.5q0 -30 25.5 -47t69.5 -17q35 0 56 15t21 40zM350 415q0 -55 -46 -87t-122 -32q-60 0 -99.5 28t-39.5 74q0 28 19.5 49.5t46.5 25.5l25 -31
q-19 -9 -27 -19t-8 -25q0 -25 19.5 -40t50.5 -15q38 0 58.5 20.5t20.5 58.5t-19.5 57t-60.5 19h-9v32h9q37 2 54.5 19.5t17.5 52.5q0 28 -18 43.5t-49 15.5q-27 0 -43 -12t-16 -32q0 -13 7 -22.5t21 -15.5l-22 -33q-26 4 -42 23t-16 46q0 39 36.5 65t91.5 26q65 0 105 -26.5
t40 -72.5q0 -38 -29 -62.5t-77 -28.5v-1q54 -3 87.5 -30.5t33.5 -69.5zM270 -10h-62l431 720h62z" />
    <glyph glyph-name="uni215D" unicode="&#x215d;" horiz-adv-x="910" 
d="M843 307q0 -25 -16.5 -45t-47.5 -34q45 -18 67.5 -45t22.5 -64q0 -58 -45 -92.5t-117 -34.5q-68 0 -111 29t-43 76q0 31 22.5 55t61.5 35q-33 17 -49.5 41.5t-16.5 55.5q0 53 39 85.5t99 32.5q58 0 96 -26.5t38 -68.5zM709 359q-29 0 -46 -12.5t-17 -34.5q0 -20 15 -33.5
t53 -25.5l28 -10q20 12 31 28.5t11 34.5q0 25 -20 39t-55 14zM784 91q0 20 -14 34.5t-47 26.5l-54 20q-27 -11 -42 -29.5t-15 -42.5q0 -30 25.5 -47t69.5 -17q35 0 56 15t21 40zM108 700h220l-10 -83h-180l-10 -76q16 9 36 14.5t40 5.5q62 0 100.5 -33.5t38.5 -88.5
q0 -66 -46.5 -104.5t-123.5 -38.5q-61 0 -98.5 26.5t-37.5 72.5q0 21 11 38t31 27l31 -30q-9 -8 -13.5 -17t-4.5 -20q0 -22 17.5 -35.5t45.5 -13.5q40 0 62 24.5t22 68.5q0 36 -19 57t-52 21q-18 0 -33 -5.5t-30 -17.5h-23zM264 -10h-62l431 720h62z" />
    <glyph glyph-name="uni215E" unicode="&#x215e;" horiz-adv-x="840" 
d="M773 307q0 -25 -16.5 -45t-47.5 -34q45 -18 67.5 -45t22.5 -64q0 -58 -45 -92.5t-117 -34.5q-68 0 -111 29t-43 76q0 31 22.5 55t61.5 35q-33 17 -49.5 41.5t-16.5 55.5q0 53 39 85.5t99 32.5q58 0 96 -26.5t38 -68.5zM639 359q-29 0 -46 -12.5t-17 -34.5q0 -20 15 -33.5
t53 -25.5l28 -10q20 12 31 28.5t11 34.5q0 25 -20 39t-55 14zM714 91q0 20 -14 34.5t-47 26.5l-54 20q-27 -11 -42 -29.5t-15 -42.5q0 -30 25.5 -47t69.5 -17q35 0 56 15t21 40zM195 -10h-62l431 720h62zM42 617v83h290v-32l-51 -86q-40 -66 -58 -133.5t-17 -146.5h-92
q13 71 38 132.5t77 143.5l24 39h-211z" />
    <glyph glyph-name="minus" unicode="&#x2212;" horiz-adv-x="635" 
d="M546 307h-456v67h456v-67z" />
    <glyph glyph-name="approxequal" unicode="&#x2248;" horiz-adv-x="645" 
d="M217 395q-30 0 -60.5 -10.5t-62.5 -30.5v66q33 20 64 30.5t59 10.5q21 0 42.5 -4t62.5 -16q40 -12 61.5 -16t41.5 -4q32 0 63.5 10t62.5 31v-66q-31 -21 -62.5 -31t-63.5 -10q-20 0 -41.5 4t-61.5 16q-41 12 -62.5 16t-42.5 4zM217 255q-30 0 -60.5 -10.5t-62.5 -30.5v66
q32 20 62.5 30.5t60.5 10.5q21 0 42.5 -4t62.5 -16q40 -12 61.5 -16t41.5 -4q32 0 63.5 10t62.5 31v-66q-32 -20 -64 -30.5t-62 -10.5q-20 0 -41.5 4t-61.5 16q-41 12 -62.5 16t-42.5 4z" />
    <glyph glyph-name="notequal" unicode="&#x2260;" horiz-adv-x="645" 
d="M551 291v-61h-274l-80 -109h-66l80 109h-117v61h162l67 91h-229v61h273l81 110h67l-81 -110h117v-61h-162l-67 -91h229z" />
    <glyph glyph-name="lessequal" unicode="&#x2264;" horiz-adv-x="530" 
d="M441 205l-349 152v81l349 152v-73l-276 -119l276 -119v-74zM441 95h-349v68h349v-68z" />
    <glyph glyph-name="greaterequal" unicode="&#x2265;" horiz-adv-x="530" 
d="M438 438v-81l-348 -152v74l274 119l-274 119v73zM438 163v-68h-348v68h348z" />
    <glyph glyph-name="commaaccent" unicode="&#xf6c3;" horiz-adv-x="500" 
d="M256 -159h-71v101h135v-104q0 -59 -38.5 -89.5t-112.5 -30.5v53q45 0 66 14.5t21 45.5v10z" />
    <glyph glyph-name="idotaccent" horiz-adv-x="309" 
d="M93 491h124v-491h-124v491zM219 592h-129v136h129v-136z" />
    <glyph glyph-name="a.ord" horiz-adv-x="426" 
d="M266 440v13l-45 -7q-45 -8 -64.5 -23.5t-19.5 -40.5q0 -21 13 -33t36 -12q33 0 56.5 30.5t23.5 72.5zM207 483l59 9v26q0 35 -19 52.5t-58 17.5q-30 0 -48.5 -11.5t-18.5 -30.5q0 -9 3 -16t11 -15l-47 -27q-12 9 -19.5 23.5t-7.5 31.5q0 42 38.5 67.5t103.5 25.5
q80 0 120 -33t40 -99v-220h-90l-7 74q-11 -36 -44.5 -58.5t-77.5 -22.5q-46 0 -75.5 25t-29.5 66q0 44 37 71.5t130 43.5z" />
    <glyph glyph-name="b.ord" horiz-adv-x="486" 
d="M281 277q-38 0 -68 17.5t-46 47.5l-7 -58h-91v524h99v-259q12 38 46 62.5t77 24.5q67 0 112 -47.5t45 -124.5q0 -82 -48 -134.5t-119 -52.5zM256 577q-38 0 -63 -33.5t-25 -82.5v-28q0 -45 26 -75.5t61 -30.5q41 0 64 34t23 96q0 58 -22.5 89t-63.5 31z" />
    <glyph glyph-name="c.ord" horiz-adv-x="406" 
d="M307 530q0 27 -18 43.5t-50 16.5q-44 0 -71 -36t-27 -94q0 -62 26 -95.5t72 -33.5q33 0 56 18.5t37 56.5l39 -15q-15 -55 -56.5 -84.5t-102.5 -29.5q-76 0 -125 48t-49 125q0 82 53 134t136 52q61 0 96.5 -29t35.5 -77q0 -19 -8 -35t-21 -26l-37 24q8 10 11 18.5t3 18.5z
" />
    <glyph glyph-name="d.ord" horiz-adv-x="483" 
d="M230 336q38 0 63 33t25 83v28q0 45 -26 75.5t-62 30.5q-41 0 -63.5 -34t-22.5 -97q0 -58 22 -88.5t64 -30.5zM205 636q39 0 67.5 -16t45.5 -47v235h99v-524h-97l-2 79q-14 -41 -46 -63.5t-76 -22.5q-69 0 -113.5 47.5t-44.5 126.5q0 81 48 133t119 52z" />
    <glyph glyph-name="e.ord" horiz-adv-x="417" 
d="M338 405l39 -14q-14 -55 -56 -84.5t-105 -29.5q-78 0 -128 48t-50 126q0 82 50.5 133.5t128.5 51.5q76 0 119.5 -48.5t43.5 -133.5h-239q1 -61 27 -92t74 -31q35 0 58.5 17.5t37.5 56.5zM216 594q-32 0 -50.5 -24.5t-22.5 -74.5h136q0 51 -15.5 75t-47.5 24z" />
    <glyph glyph-name="f.ord" horiz-adv-x="298" 
d="M235 770q-26 0 -40.5 -20.5t-14.5 -55.5v-65h98l-4 -49h-94v-296h-99v296h-53v49h53v44q0 64 39.5 103t103.5 39q47 0 75 -22t28 -58q0 -13 -5.5 -25t-14.5 -20l-40 19q6 11 7.5 15.5t1.5 9.5q0 17 -11 26.5t-30 9.5z" />
    <glyph glyph-name="g.ord" horiz-adv-x="443" 
d="M206 448q28 0 42.5 19t14.5 55t-14.5 55.5t-42.5 19.5q-27 0 -42 -19.5t-15 -55.5t15 -55t42 -19zM413 257q0 -60 -58 -95t-151 -35q-86 0 -134.5 22.5t-48.5 63.5q0 27 25 44.5t67 20.5q-32 8 -49 26t-17 46q0 26 18 47t49 32q-29 15 -45 39.5t-16 53.5q0 50 42 82
t111 32q25 0 47.5 -4.5t40.5 -12.5q21 28 44.5 42.5t49.5 14.5q27 0 43.5 -15.5t16.5 -41.5q0 -15 -4.5 -27t-13.5 -21l-41 19q3 6 5 11t2 10q0 9 -5 13.5t-14 4.5q-11 0 -23 -8t-26 -25q16 -15 24.5 -34t8.5 -40q0 -50 -43 -81.5t-112 -31.5q-17 0 -33 2t-30 6
q-12 -7 -18.5 -14.5t-6.5 -15.5q0 -12 10 -19.5t28 -7.5h124q62 0 97.5 -27t35.5 -76zM330 228q0 20 -16 30t-49 10h-119q-26 -3 -42 -15t-16 -29q0 -25 31.5 -39t86.5 -14q56 0 90 15.5t34 41.5z" />
    <glyph glyph-name="h.ord" horiz-adv-x="467" 
d="M69 284v524h99v-258q16 41 47.5 63.5t73.5 22.5q54 0 84 -32.5t30 -89.5v-230h-99v213q0 33 -15.5 51.5t-44.5 18.5q-33 0 -54.5 -31t-21.5 -82v-170h-99z" />
    <glyph glyph-name="i.ord" horiz-adv-x="237" 
d="M170 699h-103v100h103v-100zM69 629h99v-345h-99v345z" />
    <glyph glyph-name="j.ord" horiz-adv-x="237" 
d="M170 699h-103v100h103v-100zM168 629v-367q0 -64 -34.5 -99.5t-97.5 -35.5q-47 0 -74 20.5t-27 55.5q0 11 5 22t14 20l40 -19q-4 -7 -5.5 -12t-1.5 -10q0 -15 10.5 -24t27.5 -9q23 0 33.5 16t10.5 53v389h99z" />
    <glyph glyph-name="k.ord" horiz-adv-x="456" 
d="M434 284h-113l-108 149l-45 -41v-108h-99v524h99v-354l186 175h74l-147 -134z" />
    <glyph glyph-name="l.ord" horiz-adv-x="237" 
d="M69 808h99v-524h-99v524z" />
    <glyph glyph-name="m.ord" horiz-adv-x="688" 
d="M286 636q45 0 73 -22.5t35 -64.5q15 41 47 64t73 23q53 0 82 -32t29 -90v-230h-99v213q0 34 -14.5 52t-42.5 18q-32 0 -52 -31t-20 -82v-170h-100v213q0 34 -14.5 52t-42.5 18q-32 0 -52 -31t-20 -82v-170h-99v345h97l2 -78q16 41 46.5 63t71.5 22z" />
    <glyph glyph-name="n.ord" horiz-adv-x="467" 
d="M69 284v345h97l2 -79q16 41 47.5 63.5t73.5 22.5q54 0 84 -32.5t30 -89.5v-230h-99v213q0 33 -15.5 51.5t-44.5 18.5q-33 0 -54.5 -31t-21.5 -82v-170h-99z" />
    <glyph glyph-name="o.ord" horiz-adv-x="445" 
d="M407 456q0 -77 -53 -128t-132 -51q-78 0 -131 51t-53 128q0 78 53 129t131 51q79 0 132 -51t53 -129zM301 456q0 71 -19 104.5t-60 33.5q-40 0 -59.5 -34t-19.5 -104q0 -69 19.5 -102.5t59.5 -33.5q41 0 60 33t19 103z" />
    <glyph glyph-name="p.ord" horiz-adv-x="486" 
d="M256 577q-38 0 -63 -33.5t-25 -82.5v-28q0 -45 26 -75.5t61 -30.5q41 0 64 34t23 96q0 58 -22.5 89t-63.5 31zM281 277q-37 0 -66.5 16.5t-46.5 46.5v-206h-99v495h97l2 -79q13 38 47 62t77 24q67 0 111.5 -47.5t44.5 -125.5q0 -81 -48 -133.5t-119 -52.5z" />
    <glyph glyph-name="q.ord" horiz-adv-x="486" 
d="M205 636q39 0 67.5 -16t45.5 -48l7 57h92v-495h-99v230q-14 -42 -45 -64.5t-76 -22.5q-69 0 -114 47.5t-45 126.5q0 81 48 133t119 52zM230 336q38 0 63 33.5t25 83.5v27q0 45 -26 75.5t-61 30.5q-41 0 -64 -34t-23 -97q0 -57 22.5 -88t63.5 -31z" />
    <glyph glyph-name="r.ord" horiz-adv-x="388" 
d="M166 629l2 -94q15 47 45.5 74t69.5 27q37 0 59.5 -22t22.5 -58q0 -17 -6.5 -34t-17.5 -28l-44 25q6 7 9 15.5t3 16.5q0 15 -9.5 24t-26.5 9q-38 0 -71.5 -54t-33.5 -118v-128h-99v345h97z" />
    <glyph glyph-name="s.ord" horiz-adv-x="382" 
d="M190 588q-27 0 -42 -9.5t-15 -26.5q0 -14 11.5 -22.5t46.5 -17.5l54 -14q54 -14 76.5 -37.5t22.5 -64.5q0 -53 -42 -86t-108 -33q-53 0 -97 21t-65 57l36 35q24 -32 56.5 -48.5t69.5 -16.5q32 0 50 10.5t18 29.5q0 17 -11.5 26t-44.5 16l-53 13q-52 12 -77 37t-25 65
q0 51 40 82.5t103 31.5q43 0 80 -16t59 -45l-30 -44q-21 28 -49.5 42.5t-63.5 14.5z" />
    <glyph glyph-name="t.ord" horiz-adv-x="339" 
d="M75 580h-53v49h53l1 74l98 40v-114h118l-4 -49h-114v-193q0 -26 11.5 -40t32.5 -14q25 0 38 18t15 57l44 -5q-2 -58 -35.5 -92t-91.5 -34q-53 0 -83.5 29.5t-30.5 82.5z" />
    <glyph glyph-name="u.ord" horiz-adv-x="464" 
d="M393 629v-345h-96l-3 79q-17 -42 -46.5 -64t-71.5 -22q-52 0 -81.5 32.5t-29.5 89.5v230h100v-213q0 -35 14 -52.5t41 -17.5q32 0 53 31.5t21 81.5v170h99z" />
    <glyph glyph-name="v.ord" horiz-adv-x="399" 
d="M130 629l93 -215l94 215h61l-159 -348h-35l-164 348h110z" />
    <glyph glyph-name="w.ord" horiz-adv-x="586" 
d="M412 281h-31l-86 212l-93 -212h-30l-152 348h110l87 -208l52 134l-30 74h106l76 -206l85 206h60z" />
    <glyph glyph-name="x.ord" horiz-adv-x="428" 
d="M400 284h-112l-93 130l-100 -130h-67l136 172l-124 173h112l79 -110l83 110h66l-119 -152z" />
    <glyph glyph-name="y.ord" horiz-adv-x="399" 
d="M165 275l13 28l-158 326h110l97 -215l89 215h62l-171 -385q-27 -63 -57 -90t-70 -27q-35 0 -57 20t-22 53q0 10 3 20.5t9 19.5l54 -11q-6 -11 -7.5 -16t-1.5 -10q0 -13 7.5 -20.5t20.5 -7.5q20 0 36 19.5t43 80.5z" />
    <glyph glyph-name="z.ord" horiz-adv-x="404" 
d="M42 284v27l192 268h-181v50h305v-27l-190 -268h196v-50h-322z" />
    <glyph glyph-name="A.sc" horiz-adv-x="696" 
d="M421 207l-103 227l-100 -227h203zM646 0h-132l-66 146h-257l-64 -146h-77l268 596h56z" />
    <glyph glyph-name="B.sc" horiz-adv-x="667" 
d="M603 161q0 -78 -61 -119.5t-174 -41.5h-258v594h243q107 0 166 -38t59 -108q0 -59 -44 -97t-115 -43v-2q85 -4 134.5 -41.5t49.5 -103.5zM326 529h-91v-191h90q64 0 95 24t31 73q0 48 -30 71t-95 23zM476 168q0 53 -35.5 79t-108.5 26h-97v-208h102q71 0 105 25t34 78z
" />
    <glyph glyph-name="C.sc" horiz-adv-x="676" 
d="M377 -10q-136 0 -226.5 84.5t-90.5 216.5q0 135 92.5 224t229.5 89q82 0 145.5 -34.5t97.5 -96.5l-55 -50q-30 57 -72.5 84t-100.5 27q-91 0 -144 -62.5t-53 -171.5q0 -106 55 -171t142 -66q64 0 106.5 25t70.5 78l52 -35q-35 -68 -99 -104.5t-150 -36.5z" />
    <glyph glyph-name="D.sc" horiz-adv-x="729" 
d="M669 300q0 -141 -91 -220.5t-246 -79.5h-222v594h208q164 0 257.5 -78t93.5 -216zM534 300q0 111 -58.5 170.5t-166.5 59.5h-74v-466h83q108 0 162 59t54 177z" />
    <glyph glyph-name="E.sc" 
d="M569 0h-459v594h444v-68h-319v-184h233v-68h-233v-206h334v-68z" />
    <glyph glyph-name="F.sc" horiz-adv-x="606" 
d="M235 0h-125v594h433v-68h-308v-190h233v-68h-233v-268z" />
    <glyph glyph-name="G.sc" horiz-adv-x="738" 
d="M647 286v-286h-45l-47 89q-30 -47 -78.5 -73t-107.5 -26q-135 0 -222 83.5t-87 216.5q0 136 95 225t236 89q87 0 151.5 -34.5t96.5 -97.5l-57 -48q-27 56 -70.5 83t-105.5 27q-94 0 -150 -64t-56 -173q0 -108 51.5 -172.5t136.5 -64.5q56 0 93.5 33.5t37.5 85.5v107h128z
" />
    <glyph glyph-name="H.sc" horiz-adv-x="782" 
d="M235 0h-125v594h125v-253h312v253h125v-594h-125v274h-312v-274z" />
    <glyph glyph-name="I.sc" horiz-adv-x="345" 
d="M110 594h125v-594h-125v594z" />
    <glyph glyph-name="J.sc" horiz-adv-x="594" 
d="M252 61q57 0 86.5 35t29.5 103v395h125v-380q0 -104 -62.5 -164t-167.5 -60q-88 0 -144.5 49t-56.5 122q0 40 18 72t50 48l47 -43q-19 -16 -27.5 -35t-8.5 -41q0 -44 31 -72.5t80 -28.5z" />
    <glyph glyph-name="K.sc" horiz-adv-x="724" 
d="M674 0h-150l-215 280l-74 -70v-210h-125v594h125v-295l303 295h100l-240 -229z" />
    <glyph glyph-name="L.sc" horiz-adv-x="612" 
d="M541 0h-431v594h125v-526h306v-68z" />
    <glyph glyph-name="M.sc" horiz-adv-x="871" 
d="M271 594l171 -409l172 409h147v-594h-123v484l-205 -485h-44l-201 485v-484h-78v594h161z" />
    <glyph glyph-name="N.sc" horiz-adv-x="739" 
d="M230 594l321 -365v365h78v-595h-48l-393 453v-452h-78v594h120z" />
    <glyph glyph-name="O.sc" horiz-adv-x="752" 
d="M376 -10q-134 0 -225 88t-91 220q0 131 91 218.5t225 87.5q135 0 226 -87.5t91 -218.5q0 -132 -91 -220t-226 -88zM376 544q-85 0 -130 -63.5t-45 -182.5q0 -120 45 -183.5t130 -63.5q86 0 131 63.5t45 183.5t-45 183t-131 63z" />
    <glyph glyph-name="P.sc" horiz-adv-x="648" 
d="M601 409q0 -89 -64.5 -138t-178.5 -49h-123v-222h-125v594h248q114 0 178.5 -48.5t64.5 -136.5zM235 529v-241h84q79 0 115.5 29t36.5 92t-36.5 91.5t-115.5 28.5h-84z" />
    <glyph glyph-name="Q.sc" horiz-adv-x="752" 
d="M573 -136q-57 0 -100.5 32.5t-68.5 94.5q-5 -1 -10.5 -1h-17.5q-134 0 -225 88t-91 220q0 131 91 218.5t225 87.5q135 0 226 -87.5t91 -218.5q0 -103 -57.5 -182t-154.5 -110q18 -36 40.5 -53t52.5 -17q25 0 42.5 16.5t23.5 45.5l59 -24q-8 -50 -43 -80t-83 -30zM376 544
q-85 0 -130 -63.5t-45 -182.5q0 -120 45 -183.5t130 -63.5q86 0 131 63.5t45 183.5t-45 183t-131 63z" />
    <glyph glyph-name="R.sc" horiz-adv-x="709" 
d="M339 529h-104v-209h104q69 0 104.5 27t35.5 80q0 49 -36 75.5t-104 26.5zM325 255h-90v-255h-125v594h270q110 0 171 -41.5t61 -118.5q0 -67 -52 -106.5t-136 -41.5v-2q58 -4 92 -29t53 -77l30 -78q10 -28 21.5 -49.5t33.5 -50.5h-141q-12 18 -22 39t-19 48l-35 95
q-16 43 -39.5 58t-72.5 15z" />
    <glyph glyph-name="S.sc" horiz-adv-x="614" 
d="M304 59q58 0 92.5 22.5t34.5 62.5q0 33 -23 53t-82 36l-84 23q-88 24 -127 64t-39 103q0 79 64 130t163 51q75 0 135.5 -28t94.5 -79l-48 -57q-30 47 -77 73t-105 26q-51 0 -81.5 -21.5t-30.5 -57.5q0 -31 21.5 -49.5t80.5 -33.5l86 -24q86 -22 126 -63t40 -105
q0 -86 -68 -140.5t-173 -54.5q-84 0 -153 33.5t-105 92.5l52 52q34 -52 88.5 -80.5t117.5 -28.5z" />
    <glyph glyph-name="T.sc" horiz-adv-x="698" 
d="M412 0h-125v527h-230v67h585v-67h-230v-527z" />
    <glyph glyph-name="U.sc" horiz-adv-x="713" 
d="M533 241v353h79v-361q0 -114 -66.5 -178.5t-182.5 -64.5q-123 0 -192 63.5t-69 178.5v362h126v-353q0 -84 39.5 -128.5t114.5 -44.5t113 43.5t38 129.5z" />
    <glyph glyph-name="V.sc" horiz-adv-x="696" 
d="M185 594l191 -428l189 428h81l-270 -596h-49l-277 596h135z" />
    <glyph glyph-name="W.sc" horiz-adv-x="945" 
d="M667 -2h-49l-138 367l-139 -367h-50l-241 596h130l164 -418l103 276l-54 142h127l147 -409l151 409h77z" />
    <glyph glyph-name="X.sc" horiz-adv-x="700" 
d="M324 248l-193 -248h-90l242 303l-220 291h146l159 -210l161 210h89l-209 -264l250 -330h-147z" />
    <glyph glyph-name="Y.sc" horiz-adv-x="686" 
d="M192 594l182 -270l181 270h85l-234 -342v-252h-126v252l-234 342h146z" />
    <glyph glyph-name="Z.sc" horiz-adv-x="681" 
d="M229 68h379v-68h-542v40l376 486h-358v68h518v-40z" />
    <glyph glyph-name="Aacute.sc" horiz-adv-x="696" 
d="M315 661l61 188h130l-132 -188h-59zM421 207l-103 227l-100 -227h203zM646 0h-132l-66 146h-257l-64 -146h-77l268 596h56z" />
    <glyph glyph-name="Abreve.sc" horiz-adv-x="696" 
d="M421 207l-103 227l-100 -227h203zM646 0h-132l-66 146h-257l-64 -146h-77l268 596h56zM445 850h53q-1 -81 -42.5 -131.5t-105.5 -50.5t-105.5 50.5t-42.5 131.5h54q3 -48 28.5 -78t65.5 -30t65.5 29.5t29.5 78.5z" />
    <glyph glyph-name="Acircumflex.sc" horiz-adv-x="696" 
d="M317 851h64l131 -199h-58l-104 113l-104 -113h-58zM421 207l-103 227l-100 -227h203zM646 0h-132l-66 146h-257l-64 -146h-77l268 596h56z" />
    <glyph glyph-name="Adieresis.sc" horiz-adv-x="696" 
d="M310 687h-109v131h109v-131zM500 687h-109v131h109v-131zM421 207l-103 227l-100 -227h203zM646 0h-132l-66 146h-257l-64 -146h-77l268 596h56z" />
    <glyph glyph-name="Agrave.sc" horiz-adv-x="696" 
d="M421 207l-103 227l-100 -227h203zM646 0h-132l-66 146h-257l-64 -146h-77l268 596h56zM386 661h-58l-132 188h130z" />
    <glyph glyph-name="Amacron.sc" horiz-adv-x="696" 
d="M421 207l-103 227l-100 -227h203zM646 0h-132l-66 146h-257l-64 -146h-77l268 596h56zM495 755v-69h-290v69h290z" />
    <glyph glyph-name="Aogonek.sc" horiz-adv-x="696" 
d="M421 207l-103 227l-100 -227h203zM584 -92l44 -22q-21 -54 -59 -82.5t-91 -28.5q-44 0 -73.5 25t-29.5 66t30 78t99 77l-56 125h-257l-64 -146h-77l268 596h56l272 -596h-93q-57 -38 -78 -63t-21 -50q0 -22 13 -35t36 -13q26 0 44.5 15.5t36.5 53.5z" />
    <glyph glyph-name="Aring.sc" horiz-adv-x="696" 
d="M350 658q-45 0 -77.5 32.5t-32.5 77.5q0 44 32.5 76t77.5 32t78 -32t33 -76q0 -45 -33 -77.5t-78 -32.5zM350 709q26 0 42.5 16.5t16.5 42.5t-16.5 42.5t-42.5 16.5q-25 0 -42 -16.5t-17 -42.5t16.5 -42.5t42.5 -16.5zM421 207l-103 227l-100 -227h203zM646 0h-132
l-66 146h-257l-64 -146h-77l268 596h56z" />
    <glyph glyph-name="Atilde.sc" horiz-adv-x="696" 
d="M421 207l-103 227l-100 -227h203zM646 0h-132l-66 146h-257l-64 -146h-77l268 596h56zM427 682q-17 0 -35.5 8t-54.5 32q-26 18 -37.5 23.5t-20.5 5.5q-20 0 -33 -15.5t-24 -57.5h-60q14 71 43 110.5t68 39.5q17 0 36 -7.5t54 -31.5q26 -18 38 -23.5t21 -5.5q20 0 33 16
t24 56h59q-14 -72 -43 -111t-68 -39z" />
    <glyph glyph-name="AE.sc" horiz-adv-x="1006" 
d="M476 231v269l-185 -269h185zM936 0h-460v170h-226l-117 -170h-83l406 594h465v-68h-319v-184h232v-68h-232v-206h334v-68z" />
    <glyph glyph-name="AEacute.sc" horiz-adv-x="1006" 
d="M642 661l61 188h130l-132 -188h-59zM476 231v269l-185 -269h185zM936 0h-460v170h-226l-117 -170h-83l406 594h465v-68h-319v-184h232v-68h-232v-206h334v-68z" />
    <glyph glyph-name="Cacute.sc" horiz-adv-x="676" 
d="M349 661l61 188h130l-132 -188h-59zM377 -10q-136 0 -226.5 84.5t-90.5 216.5q0 135 92.5 224t229.5 89q82 0 145.5 -34.5t97.5 -96.5l-55 -50q-30 57 -72.5 84t-100.5 27q-91 0 -144 -62.5t-53 -171.5q0 -106 55 -171t142 -66q64 0 106.5 25t70.5 78l52 -35
q-35 -68 -99 -104.5t-150 -36.5z" />
    <glyph glyph-name="Ccaron.sc" horiz-adv-x="676" 
d="M546 853l-131 -199h-64l-129 199h58l104 -113l104 113h58zM377 -10q-136 0 -226.5 84.5t-90.5 216.5q0 135 92.5 224t229.5 89q82 0 145.5 -34.5t97.5 -96.5l-55 -50q-30 57 -72.5 84t-100.5 27q-91 0 -144 -62.5t-53 -171.5q0 -106 55 -171t142 -66q64 0 106.5 25
t70.5 78l52 -35q-35 -68 -99 -104.5t-150 -36.5z" />
    <glyph glyph-name="Ccedilla.sc" horiz-adv-x="676" 
d="M479 -134q0 -39 -35.5 -65t-88.5 -26q-39 0 -71 17t-45 44l34 34q14 -19 34.5 -30t42.5 -11q25 0 40 10.5t15 29.5q0 20 -27.5 31t-76.5 12l34 80q-122 14 -198.5 96.5t-76.5 202.5q0 135 92.5 224t229.5 89q82 0 145.5 -34.5t97.5 -96.5l-55 -50q-30 57 -72.5 84
t-100.5 27q-91 0 -144 -62.5t-53 -171.5q0 -106 55 -171t142 -66q64 0 106.5 25t70.5 78l52 -35q-35 -67 -97 -103.5t-145 -37.5l-18 -42q56 -2 84.5 -23t28.5 -59z" />
    <glyph glyph-name="Ccircumflex.sc" horiz-adv-x="676" 
d="M351 851h64l131 -199h-58l-104 113l-104 -113h-58zM377 -10q-136 0 -226.5 84.5t-90.5 216.5q0 135 92.5 224t229.5 89q82 0 145.5 -34.5t97.5 -96.5l-55 -50q-30 57 -72.5 84t-100.5 27q-91 0 -144 -62.5t-53 -171.5q0 -106 55 -171t142 -66q64 0 106.5 25t70.5 78
l52 -35q-35 -68 -99 -104.5t-150 -36.5z" />
    <glyph glyph-name="Cdotaccent.sc" horiz-adv-x="676" 
d="M377 -10q-136 0 -226.5 84.5t-90.5 216.5q0 135 92.5 224t229.5 89q82 0 145.5 -34.5t97.5 -96.5l-55 -50q-30 57 -72.5 84t-100.5 27q-91 0 -144 -62.5t-53 -171.5q0 -106 55 -171t142 -66q64 0 106.5 25t70.5 78l52 -35q-35 -68 -99 -104.5t-150 -36.5zM449 692h-129
v136h129v-136z" />
    <glyph glyph-name="Dcaron.sc" horiz-adv-x="729" 
d="M669 300q0 -141 -91 -220.5t-246 -79.5h-222v594h208q164 0 257.5 -78t93.5 -216zM534 300q0 111 -58.5 170.5t-166.5 59.5h-74v-466h83q108 0 162 59t54 177zM517 853l-131 -199h-64l-129 199h58l104 -113l104 113h58z" />
    <glyph glyph-name="Dcroat.sc" horiz-adv-x="748" 
d="M689 300q0 -141 -91 -220.5t-246 -79.5h-223v274h-84v67h84v254h209q164 0 257.5 -78.5t93.5 -216.5zM255 274v-210h83q108 0 162 59t54 177q0 111 -58.5 171t-166.5 60h-74v-190h121v-67h-121z" />
    <glyph glyph-name="Eacute.sc" 
d="M304 661l61 188h130l-132 -188h-59zM569 0h-459v594h444v-68h-319v-184h233v-68h-233v-206h334v-68z" />
    <glyph glyph-name="Ebreve.sc" 
d="M569 0h-459v594h444v-68h-319v-184h233v-68h-233v-206h334v-68zM434 850h53q-1 -81 -42.5 -131.5t-105.5 -50.5t-105.5 50.5t-42.5 131.5h54q3 -48 28.5 -78t65.5 -30t65.5 29.5t29.5 78.5z" />
    <glyph glyph-name="Ecaron.sc" 
d="M501 853l-131 -199h-64l-129 199h58l104 -113l104 113h58zM569 0h-459v594h444v-68h-319v-184h233v-68h-233v-206h334v-68z" />
    <glyph glyph-name="Ecircumflex.sc" 
d="M306 851h64l131 -199h-58l-104 113l-104 -113h-58zM569 0h-459v594h444v-68h-319v-184h233v-68h-233v-206h334v-68z" />
    <glyph glyph-name="Edieresis.sc" 
d="M299 687h-109v131h109v-131zM489 687h-109v131h109v-131zM569 0h-459v594h444v-68h-319v-184h233v-68h-233v-206h334v-68z" />
    <glyph glyph-name="Edotaccent.sc" 
d="M404 692h-129v136h129v-136zM569 0h-459v594h444v-68h-319v-184h233v-68h-233v-206h334v-68z" />
    <glyph glyph-name="Egrave.sc" 
d="M375 661h-58l-132 188h130zM569 0h-459v594h444v-68h-319v-184h233v-68h-233v-206h334v-68z" />
    <glyph glyph-name="Emacron.sc" 
d="M484 755v-69h-290v69h290zM569 0h-459v594h444v-68h-319v-184h233v-68h-233v-206h334v-68z" />
    <glyph glyph-name="Eogonek.sc" 
d="M512 -92l44 -22q-21 -54 -59 -82.5t-91 -28.5q-44 0 -73.5 25t-29.5 66q0 36 23 69t72 65h-288v594h444v-68h-319v-184h233v-68h-233v-206h334v-68h-88q-57 -38 -78 -63t-21 -50q0 -22 13 -35t36 -13q26 0 44.5 15.5t36.5 53.5z" />
    <glyph glyph-name="Eth.sc" horiz-adv-x="748" 
d="M689 300q0 -141 -91 -220.5t-246 -79.5h-223v274h-84v67h84v254h209q164 0 257.5 -78.5t93.5 -216.5zM255 274v-210h83q108 0 162 59t54 177q0 111 -58.5 171t-166.5 60h-74v-190h121v-67h-121z" />
    <glyph glyph-name="Gbreve.sc" horiz-adv-x="738" 
d="M647 286v-286h-45l-47 89q-30 -47 -78.5 -73t-107.5 -26q-135 0 -222 83.5t-87 216.5q0 136 95 225t236 89q87 0 151.5 -34.5t96.5 -97.5l-57 -48q-27 56 -70.5 83t-105.5 27q-94 0 -150 -64t-56 -173q0 -108 51.5 -172.5t136.5 -64.5q56 0 93.5 33.5t37.5 85.5v107h128z
M487 850h53q-1 -81 -42.5 -131.5t-105.5 -50.5t-105.5 50.5t-42.5 131.5h54q3 -48 28.5 -78t65.5 -30t65.5 29.5t29.5 78.5z" />
    <glyph glyph-name="Gcircumflex.sc" horiz-adv-x="738" 
d="M359 851h64l131 -199h-58l-104 113l-104 -113h-58zM647 286v-286h-45l-47 89q-30 -47 -78.5 -73t-107.5 -26q-135 0 -222 83.5t-87 216.5q0 136 95 225t236 89q87 0 151.5 -34.5t96.5 -97.5l-57 -48q-27 56 -70.5 83t-105.5 27q-94 0 -150 -64t-56 -173
q0 -108 51.5 -172.5t136.5 -64.5q56 0 93.5 33.5t37.5 85.5v107h128z" />
    <glyph glyph-name="Gcommaaccent.sc" horiz-adv-x="738" 
d="M396 -159h-71v101h135v-104q0 -59 -38.5 -89.5t-112.5 -30.5v53q45 0 66 14.5t21 45.5v10zM647 286v-286h-45l-47 89q-30 -47 -78.5 -73t-107.5 -26q-135 0 -222 83.5t-87 216.5q0 136 95 225t236 89q87 0 151.5 -34.5t96.5 -97.5l-57 -48q-27 56 -70.5 83t-105.5 27
q-94 0 -150 -64t-56 -173q0 -108 51.5 -172.5t136.5 -64.5q56 0 93.5 33.5t37.5 85.5v107h128z" />
    <glyph glyph-name="Gdotaccent.sc" horiz-adv-x="738" 
d="M647 286v-286h-45l-47 89q-30 -47 -78.5 -73t-107.5 -26q-135 0 -222 83.5t-87 216.5q0 136 95 225t236 89q87 0 151.5 -34.5t96.5 -97.5l-57 -48q-27 56 -70.5 83t-105.5 27q-94 0 -150 -64t-56 -173q0 -108 51.5 -172.5t136.5 -64.5q56 0 93.5 33.5t37.5 85.5v107h128z
M457 692h-129v136h129v-136z" />
    <glyph glyph-name="Hbar.sc" horiz-adv-x="820" 
d="M255 391v-98h312v98h-312zM567 225h-312v-225h-126v391h-84v67h84v136h126v-136h312v136h125v-136h84v-67h-84v-391h-125v225z" />
    <glyph glyph-name="Hcircumflex.sc" horiz-adv-x="782" 
d="M358 851h64l131 -199h-58l-104 113l-104 -113h-58zM235 0h-125v594h125v-253h312v253h125v-594h-125v274h-312v-274z" />
    <glyph glyph-name="Iacute.sc" horiz-adv-x="345" 
d="M137 661l61 188h130l-132 -188h-59zM110 594h125v-594h-125v594z" />
    <glyph glyph-name="Ibreve.sc" horiz-adv-x="345" 
d="M110 594h125v-594h-125v594zM267 850h53q-1 -81 -42.5 -131.5t-105.5 -50.5t-105.5 50.5t-42.5 131.5h54q3 -48 28.5 -78t65.5 -30t65.5 29.5t29.5 78.5z" />
    <glyph glyph-name="Icircumflex.sc" horiz-adv-x="345" 
d="M139 851h64l131 -199h-58l-104 113l-104 -113h-58zM110 594h125v-594h-125v594z" />
    <glyph glyph-name="Idieresis.sc" horiz-adv-x="345" 
d="M132 687h-109v131h109v-131zM322 687h-109v131h109v-131zM110 594h125v-594h-125v594z" />
    <glyph glyph-name="Idotaccent.sc" horiz-adv-x="345" 
d="M110 594h125v-594h-125v594zM237 692h-129v136h129v-136z" />
    <glyph glyph-name="Igrave.sc" horiz-adv-x="345" 
d="M110 594h125v-594h-125v594zM208 661h-58l-132 188h130z" />
    <glyph glyph-name="Imacron.sc" horiz-adv-x="345" 
d="M110 594h125v-594h-125v594zM317 755v-69h-290v69h290z" />
    <glyph glyph-name="Iogonek.sc" horiz-adv-x="345" 
d="M257 -92l44 -22q-22 -55 -60 -83t-90 -28q-44 0 -74 25t-30 66q0 36 23 69t70 65h-30v594h125v-594q-60 -35 -84 -60.5t-24 -52.5q0 -22 13 -35t36 -13q25 0 43.5 15.5t37.5 53.5z" />
    <glyph glyph-name="Itilde.sc" horiz-adv-x="345" 
d="M110 594h125v-594h-125v594zM249 682q-17 0 -35.5 8t-54.5 32q-26 18 -37.5 23.5t-20.5 5.5q-20 0 -33 -15.5t-24 -57.5h-60q14 71 43 110.5t68 39.5q17 0 36 -7.5t54 -31.5q26 -18 38 -23.5t21 -5.5q20 0 33 16t24 56h59q-14 -72 -43 -111t-68 -39z" />
    <glyph glyph-name="Jcircumflex.sc" horiz-adv-x="594" 
d="M398 851h64l131 -199h-58l-104 113l-104 -113h-58zM252 61q57 0 86.5 35t29.5 103v395h125v-380q0 -104 -62.5 -164t-167.5 -60q-88 0 -144.5 49t-56.5 122q0 40 18 72t50 48l47 -43q-19 -16 -27.5 -35t-8.5 -41q0 -44 31 -72.5t80 -28.5z" />
    <glyph glyph-name="Kcommaaccent.sc" horiz-adv-x="729" 
d="M361 -159h-71v101h135v-104q0 -59 -38.5 -89.5t-112.5 -30.5v53q45 0 66 14.5t21 45.5v10zM674 0h-150l-215 280l-74 -70v-210h-125v594h125v-295l303 295h100l-240 -229z" />
    <glyph glyph-name="Lacute.sc" horiz-adv-x="612" 
d="M541 0h-431v594h125v-526h306v-68zM145 661l61 188h130l-132 -188h-59z" />
    <glyph glyph-name="Lcaron.sc" horiz-adv-x="612" 
d="M541 0h-431v594h125v-526h306v-68zM419 647h120l-96 -205h-53z" />
    <glyph glyph-name="Lcommaaccent.sc" horiz-adv-x="612" 
d="M541 0h-431v594h125v-526h306v-68zM344 -159h-71v101h135v-104q0 -59 -38.5 -89.5t-112.5 -30.5v53q45 0 66 14.5t21 45.5v10z" />
    <glyph glyph-name="Ldot.sc" horiz-adv-x="612" 
d="M541 0h-431v594h125v-526h306v-68zM559 261h-129v136h129v-136z" />
    <glyph glyph-name="Lslash.sc" horiz-adv-x="630" 
d="M559 68v-68h-432v219l-82 -32v67l82 31v310h126v-264l153 55v-67l-153 -55v-196h306z" />
    <glyph glyph-name="Nacute.sc" horiz-adv-x="739" 
d="M334 661l61 188h130l-132 -188h-59zM230 594l321 -365v365h78v-595h-48l-393 453v-452h-78v594h120z" />
    <glyph glyph-name="Ncaron.sc" horiz-adv-x="739" 
d="M531 853l-131 -199h-64l-129 199h58l104 -113l104 113h58zM230 594l321 -365v365h78v-595h-48l-393 453v-452h-78v594h120z" />
    <glyph glyph-name="Ncommaaccent.sc" horiz-adv-x="739" 
d="M373 -159h-71v101h135v-104q0 -59 -38.5 -89.5t-112.5 -30.5v53q45 0 66 14.5t21 45.5v10zM230 594l321 -365v365h78v-595h-48l-393 453v-452h-78v594h120z" />
    <glyph glyph-name="Ntilde.sc" horiz-adv-x="739" 
d="M230 594l321 -365v365h78v-595h-48l-393 453v-452h-78v594h120zM446 682q-17 0 -35.5 8t-54.5 32q-26 18 -37.5 23.5t-20.5 5.5q-20 0 -33 -15.5t-24 -57.5h-60q14 71 43 110.5t68 39.5q17 0 36 -7.5t54 -31.5q26 -18 38 -23.5t21 -5.5q20 0 33 16t24 56h59
q-14 -72 -43 -111t-68 -39z" />
    <glyph glyph-name="Eng.sc" horiz-adv-x="739" 
d="M478 -191q-55 0 -86 24t-31 66q0 16 5.5 30t16.5 25l50 -24q-5 -7 -7 -13.5t-2 -12.5q0 -20 13.5 -30t39.5 -10q39 0 57.5 28.5t18.5 87.5v54l-366 418v-452h-77v594h119l324 -365v365h77v-614q0 -79 -40.5 -125t-111.5 -46z" />
    <glyph glyph-name="Oacute.sc" horiz-adv-x="752" 
d="M376 -10q-134 0 -225 88t-91 220q0 131 91 218.5t225 87.5q135 0 226 -87.5t91 -218.5q0 -132 -91 -220t-226 -88zM376 544q-85 0 -130 -63.5t-45 -182.5q0 -120 45 -183.5t130 -63.5q86 0 131 63.5t45 183.5t-45 183t-131 63zM341 661l61 188h130l-132 -188h-59z" />
    <glyph glyph-name="Obreve.sc" horiz-adv-x="752" 
d="M376 -10q-134 0 -225 88t-91 220q0 131 91 218.5t225 87.5q135 0 226 -87.5t91 -218.5q0 -132 -91 -220t-226 -88zM376 544q-85 0 -130 -63.5t-45 -182.5q0 -120 45 -183.5t130 -63.5q86 0 131 63.5t45 183.5t-45 183t-131 63zM471 850h53q-1 -81 -42.5 -131.5
t-105.5 -50.5t-105.5 50.5t-42.5 131.5h54q3 -48 28.5 -78t65.5 -30t65.5 29.5t29.5 78.5z" />
    <glyph glyph-name="Ocircumflex.sc" horiz-adv-x="752" 
d="M343 851h64l131 -199h-58l-104 113l-104 -113h-58zM376 -10q-134 0 -225 88t-91 220q0 131 91 218.5t225 87.5q135 0 226 -87.5t91 -218.5q0 -132 -91 -220t-226 -88zM376 544q-85 0 -130 -63.5t-45 -182.5q0 -120 45 -183.5t130 -63.5q86 0 131 63.5t45 183.5t-45 183
t-131 63z" />
    <glyph glyph-name="Odieresis.sc" horiz-adv-x="752" 
d="M336 687h-109v131h109v-131zM526 687h-109v131h109v-131zM376 -10q-134 0 -225 88t-91 220q0 131 91 218.5t225 87.5q135 0 226 -87.5t91 -218.5q0 -132 -91 -220t-226 -88zM376 544q-85 0 -130 -63.5t-45 -182.5q0 -120 45 -183.5t130 -63.5q86 0 131 63.5t45 183.5
t-45 183t-131 63z" />
    <glyph glyph-name="Ograve.sc" horiz-adv-x="752" 
d="M376 -10q-134 0 -225 88t-91 220q0 131 91 218.5t225 87.5q135 0 226 -87.5t91 -218.5q0 -132 -91 -220t-226 -88zM376 544q-85 0 -130 -63.5t-45 -182.5q0 -120 45 -183.5t130 -63.5q86 0 131 63.5t45 183.5t-45 183t-131 63zM412 661h-58l-132 188h130z" />
    <glyph glyph-name="Ohungarumlaut.sc" horiz-adv-x="752" 
d="M376 -10q-134 0 -225 88t-91 220q0 131 91 218.5t225 87.5q135 0 226 -87.5t91 -218.5q0 -132 -91 -220t-226 -88zM376 544q-85 0 -130 -63.5t-45 -182.5q0 -120 45 -183.5t130 -63.5q86 0 131 63.5t45 183.5t-45 183t-131 63zM255 661l64 188h122l-128 -188h-58z
M432 661l63 188h123l-129 -188h-57z" />
    <glyph glyph-name="Omacron.sc" horiz-adv-x="752" 
d="M376 -10q-134 0 -225 88t-91 220q0 131 91 218.5t225 87.5q135 0 226 -87.5t91 -218.5q0 -132 -91 -220t-226 -88zM376 544q-85 0 -130 -63.5t-45 -182.5q0 -120 45 -183.5t130 -63.5q86 0 131 63.5t45 183.5t-45 183t-131 63zM521 755v-69h-290v69h290z" />
    <glyph glyph-name="Oslash.sc" horiz-adv-x="752" 
d="M376 543q-85 0 -130 -63.5t-45 -181.5q0 -37 4.5 -69t13.5 -58l290 305q-22 33 -55.5 50t-77.5 17zM376 52q86 0 131 63t45 183q0 35 -4 64.5t-11 54.5l-289 -304q22 -30 54 -45.5t74 -15.5zM693 298q0 -131 -91 -219t-226 -88q-52 0 -100.5 15t-88.5 43l-76 -80l-45 41
l75 79q-40 42 -60.5 95.5t-20.5 113.5q0 130 91 217.5t225 87.5q55 0 105 -15.5t90 -45.5l72 75l45 -40l-72 -76q38 -41 57.5 -93t19.5 -110z" />
    <glyph glyph-name="Oslashacute.sc" horiz-adv-x="752" 
d="M341 661l61 188h130l-132 -188h-59zM376 543q-85 0 -130 -63.5t-45 -181.5q0 -37 4.5 -69t13.5 -58l290 305q-22 33 -55.5 50t-77.5 17zM376 52q86 0 131 63t45 183q0 35 -4 64.5t-11 54.5l-289 -304q22 -30 54 -45.5t74 -15.5zM693 298q0 -131 -91 -219t-226 -88
q-52 0 -100.5 15t-88.5 43l-76 -80l-45 41l75 79q-40 42 -60.5 95.5t-20.5 113.5q0 130 91 217.5t225 87.5q55 0 105 -15.5t90 -45.5l72 75l45 -40l-72 -76q38 -41 57.5 -93t19.5 -110z" />
    <glyph glyph-name="Otilde.sc" horiz-adv-x="752" 
d="M376 -10q-134 0 -225 88t-91 220q0 131 91 218.5t225 87.5q135 0 226 -87.5t91 -218.5q0 -132 -91 -220t-226 -88zM376 544q-85 0 -130 -63.5t-45 -182.5q0 -120 45 -183.5t130 -63.5q86 0 131 63.5t45 183.5t-45 183t-131 63zM453 682q-17 0 -35.5 8t-54.5 32
q-26 18 -37.5 23.5t-20.5 5.5q-20 0 -33 -15.5t-24 -57.5h-60q14 71 43 110.5t68 39.5q17 0 36 -7.5t54 -31.5q26 -18 38 -23.5t21 -5.5q20 0 33 16t24 56h59q-14 -72 -43 -111t-68 -39z" />
    <glyph glyph-name="OE.sc" horiz-adv-x="1024" 
d="M954 0h-556q-155 0 -246.5 79.5t-91.5 220.5q0 138 93.5 216.5t257.5 78.5h528v-68h-319v-185h232v-68h-232v-206h334v-68zM195 300q0 -118 54 -177t163 -59h82v467h-73q-109 0 -167.5 -60t-58.5 -171z" />
    <glyph glyph-name="Racute.sc" horiz-adv-x="709" 
d="M314 661l61 188h130l-132 -188h-59zM339 529h-104v-209h104q69 0 104.5 27t35.5 80q0 49 -36 75.5t-104 26.5zM325 255h-90v-255h-125v594h270q110 0 171 -41.5t61 -118.5q0 -67 -52 -106.5t-136 -41.5v-2q58 -4 92 -29t53 -77l30 -78q10 -28 21.5 -49.5t33.5 -50.5h-141
q-12 18 -22 39t-19 48l-35 95q-16 43 -39.5 58t-72.5 15z" />
    <glyph glyph-name="Rcaron.sc" horiz-adv-x="709" 
d="M511 853l-131 -199h-64l-129 199h58l104 -113l104 113h58zM339 529h-104v-209h104q69 0 104.5 27t35.5 80q0 49 -36 75.5t-104 26.5zM325 255h-90v-255h-125v594h270q110 0 171 -41.5t61 -118.5q0 -67 -52 -106.5t-136 -41.5v-2q58 -4 92 -29t53 -77l30 -78
q10 -28 21.5 -49.5t33.5 -50.5h-141q-12 18 -22 39t-19 48l-35 95q-16 43 -39.5 58t-72.5 15z" />
    <glyph glyph-name="Rcommaaccent.sc" horiz-adv-x="709" 
d="M353 -159h-71v101h135v-104q0 -59 -38.5 -89.5t-112.5 -30.5v53q45 0 66 14.5t21 45.5v10zM339 529h-104v-209h104q69 0 104.5 27t35.5 80q0 49 -36 75.5t-104 26.5zM325 255h-90v-255h-125v594h270q110 0 171 -41.5t61 -118.5q0 -67 -52 -106.5t-136 -41.5v-2
q58 -4 92 -29t53 -77l30 -78q10 -28 21.5 -49.5t33.5 -50.5h-141q-12 18 -22 39t-19 48l-35 95q-16 43 -39.5 58t-72.5 15z" />
    <glyph glyph-name="Sacute.sc" horiz-adv-x="614" 
d="M276 661l61 188h130l-132 -188h-59zM304 59q58 0 92.5 22.5t34.5 62.5q0 33 -23 53t-82 36l-84 23q-88 24 -127 64t-39 103q0 79 64 130t163 51q75 0 135.5 -28t94.5 -79l-48 -57q-30 47 -77 73t-105 26q-51 0 -81.5 -21.5t-30.5 -57.5q0 -31 21.5 -49.5t80.5 -33.5
l86 -24q86 -22 126 -63t40 -105q0 -86 -68 -140.5t-173 -54.5q-84 0 -153 33.5t-105 92.5l52 52q34 -52 88.5 -80.5t117.5 -28.5z" />
    <glyph glyph-name="Scaron.sc" horiz-adv-x="614" 
d="M473 853l-131 -199h-64l-129 199h58l104 -113l104 113h58zM304 59q58 0 92.5 22.5t34.5 62.5q0 33 -23 53t-82 36l-84 23q-88 24 -127 64t-39 103q0 79 64 130t163 51q75 0 135.5 -28t94.5 -79l-48 -57q-30 47 -77 73t-105 26q-51 0 -81.5 -21.5t-30.5 -57.5
q0 -31 21.5 -49.5t80.5 -33.5l86 -24q86 -22 126 -63t40 -105q0 -86 -68 -140.5t-173 -54.5q-84 0 -153 33.5t-105 92.5l52 52q34 -52 88.5 -80.5t117.5 -28.5z" />
    <glyph glyph-name="Scedilla.sc" horiz-adv-x="614" 
d="M405 -134q0 -39 -35.5 -65t-88.5 -26q-39 0 -71 17t-45 44l34 34q14 -19 34.5 -30t42.5 -11q25 0 40 10.5t15 29.5q0 20 -27.5 31t-76.5 12l34 80q-71 8 -127.5 41t-87.5 83l52 52q34 -52 88.5 -80.5t117.5 -28.5q58 0 92.5 22.5t34.5 62.5q0 33 -23 53t-82 36l-84 23
q-88 24 -127 64t-39 103q0 79 64 130t163 51q75 0 135.5 -28t94.5 -79l-48 -57q-30 47 -77 73t-105 26q-51 0 -81.5 -21.5t-30.5 -57.5q0 -31 21.5 -49.5t80.5 -33.5l86 -24q86 -22 126 -63t40 -105q0 -85 -67 -140t-168 -55l-18 -42q56 -2 84.5 -23t28.5 -59z" />
    <glyph glyph-name="Scircumflex.sc" horiz-adv-x="614" 
d="M278 851h64l131 -199h-58l-104 113l-104 -113h-58zM304 59q58 0 92.5 22.5t34.5 62.5q0 33 -23 53t-82 36l-84 23q-88 24 -127 64t-39 103q0 79 64 130t163 51q75 0 135.5 -28t94.5 -79l-48 -57q-30 47 -77 73t-105 26q-51 0 -81.5 -21.5t-30.5 -57.5q0 -31 21.5 -49.5
t80.5 -33.5l86 -24q86 -22 126 -63t40 -105q0 -86 -68 -140.5t-173 -54.5q-84 0 -153 33.5t-105 92.5l52 52q34 -52 88.5 -80.5t117.5 -28.5z" />
    <glyph glyph-name="Scommaaccent.sc" horiz-adv-x="614" 
d="M315 -159h-71v101h135v-104q0 -59 -38.5 -89.5t-112.5 -30.5v53q45 0 66 14.5t21 45.5v10zM304 59q58 0 92.5 22.5t34.5 62.5q0 33 -23 53t-82 36l-84 23q-88 24 -127 64t-39 103q0 79 64 130t163 51q75 0 135.5 -28t94.5 -79l-48 -57q-30 47 -77 73t-105 26
q-51 0 -81.5 -21.5t-30.5 -57.5q0 -31 21.5 -49.5t80.5 -33.5l86 -24q86 -22 126 -63t40 -105q0 -86 -68 -140.5t-173 -54.5q-84 0 -153 33.5t-105 92.5l52 52q34 -52 88.5 -80.5t117.5 -28.5z" />
    <glyph glyph-name="Tbar.sc" horiz-adv-x="699" 
d="M528 341v-67h-115v-274h-126v274h-115v67h115v186h-230v67h586v-67h-230v-186h115z" />
    <glyph glyph-name="Tcaron.sc" horiz-adv-x="698" 
d="M412 0h-125v527h-230v67h585v-67h-230v-527zM513 853l-131 -199h-64l-129 199h58l104 -113l104 113h58z" />
    <glyph glyph-name="Tcommaaccent.sc" horiz-adv-x="698" 
d="M461 -134q0 -39 -35.5 -65t-88.5 -26q-39 0 -71 17t-45 44l34 34q14 -19 34.5 -30t42.5 -11q25 0 40 10.5t15 29.5q0 20 -27.5 31t-76.5 12l37 88h-33v527h-230v67h585v-67h-230v-527h-42l-22 -52q56 -2 84.5 -23t28.5 -59z" />
    <glyph glyph-name="uni021A.sc" horiz-adv-x="698" 
d="M412 0h-125v527h-230v67h585v-67h-230v-527zM355 -159h-71v101h135v-104q0 -59 -38.5 -89.5t-112.5 -30.5v53q45 0 66 14.5t21 45.5v10z" />
    <glyph glyph-name="Thorn.sc" horiz-adv-x="649" 
d="M236 0h-126v594h126v-97h123q114 0 178.5 -49t64.5 -137t-65 -137.5t-178 -49.5h-123v-124zM471 311q0 63 -36 92t-115 29h-84v-242h84q79 0 115 29t36 92z" />
    <glyph glyph-name="Uacute.sc" horiz-adv-x="713" 
d="M335 661l61 188h130l-132 -188h-59zM533 241v353h79v-361q0 -114 -66.5 -178.5t-182.5 -64.5q-123 0 -192 63.5t-69 178.5v362h126v-353q0 -84 39.5 -128.5t114.5 -44.5t113 43.5t38 129.5z" />
    <glyph glyph-name="Ubreve.sc" horiz-adv-x="713" 
d="M533 241v353h79v-361q0 -114 -66.5 -178.5t-182.5 -64.5q-123 0 -192 63.5t-69 178.5v362h126v-353q0 -84 39.5 -128.5t114.5 -44.5t113 43.5t38 129.5zM465 850h53q-1 -81 -42.5 -131.5t-105.5 -50.5t-105.5 50.5t-42.5 131.5h54q3 -48 28.5 -78t65.5 -30t65.5 29.5
t29.5 78.5z" />
    <glyph glyph-name="Ucircumflex.sc" horiz-adv-x="713" 
d="M337 851h64l131 -199h-58l-104 113l-104 -113h-58zM533 241v353h79v-361q0 -114 -66.5 -178.5t-182.5 -64.5q-123 0 -192 63.5t-69 178.5v362h126v-353q0 -84 39.5 -128.5t114.5 -44.5t113 43.5t38 129.5z" />
    <glyph glyph-name="Udieresis.sc" horiz-adv-x="713" 
d="M330 687h-109v131h109v-131zM520 687h-109v131h109v-131zM533 241v353h79v-361q0 -114 -66.5 -178.5t-182.5 -64.5q-123 0 -192 63.5t-69 178.5v362h126v-353q0 -84 39.5 -128.5t114.5 -44.5t113 43.5t38 129.5z" />
    <glyph glyph-name="Ugrave.sc" horiz-adv-x="713" 
d="M406 661h-58l-132 188h130zM533 241v353h79v-361q0 -114 -66.5 -178.5t-182.5 -64.5q-123 0 -192 63.5t-69 178.5v362h126v-353q0 -84 39.5 -128.5t114.5 -44.5t113 43.5t38 129.5z" />
    <glyph glyph-name="Uhungarumlaut.sc" horiz-adv-x="713" 
d="M249 661l64 188h122l-128 -188h-58zM426 661l63 188h123l-129 -188h-57zM533 241v353h79v-361q0 -114 -66.5 -178.5t-182.5 -64.5q-123 0 -192 63.5t-69 178.5v362h126v-353q0 -84 39.5 -128.5t114.5 -44.5t113 43.5t38 129.5z" />
    <glyph glyph-name="Umacron.sc" horiz-adv-x="713" 
d="M515 755v-69h-290v69h290zM533 241v353h79v-361q0 -114 -66.5 -178.5t-182.5 -64.5q-123 0 -192 63.5t-69 178.5v362h126v-353q0 -84 39.5 -128.5t114.5 -44.5t113 43.5t38 129.5z" />
    <glyph glyph-name="Uogonek.sc" horiz-adv-x="713" 
d="M398 -225q-44 0 -74 25t-30 66q0 33 19 64t59 60h-9q-123 0 -192 63.5t-69 178.5v362h126v-353q0 -84 39.5 -128.5t114.5 -44.5t113 43.5t38 129.5v353h79v-361q0 -84 -36.5 -142t-105.5 -83q-50 -35 -73 -64t-23 -57q0 -22 13 -35t36 -13q25 0 43.5 15.5t37.5 53.5
l44 -22q-22 -55 -60 -83t-90 -28z" />
    <glyph glyph-name="Uring.sc" horiz-adv-x="713" 
d="M370 658q-45 0 -77.5 32.5t-32.5 77.5q0 44 32.5 76t77.5 32t78 -32t33 -76q0 -45 -33 -77.5t-78 -32.5zM370 709q26 0 42.5 16.5t16.5 42.5t-16.5 42.5t-42.5 16.5q-25 0 -42 -16.5t-17 -42.5t16.5 -42.5t42.5 -16.5zM533 241v353h79v-361q0 -114 -66.5 -178.5
t-182.5 -64.5q-123 0 -192 63.5t-69 178.5v362h126v-353q0 -84 39.5 -128.5t114.5 -44.5t113 43.5t38 129.5z" />
    <glyph glyph-name="Utilde.sc" horiz-adv-x="713" 
d="M533 241v353h79v-361q0 -114 -66.5 -178.5t-182.5 -64.5q-123 0 -192 63.5t-69 178.5v362h126v-353q0 -84 39.5 -128.5t114.5 -44.5t113 43.5t38 129.5zM447 682q-17 0 -35.5 8t-54.5 32q-26 18 -37.5 23.5t-20.5 5.5q-20 0 -33 -15.5t-24 -57.5h-60q14 71 43 110.5
t68 39.5q17 0 36 -7.5t54 -31.5q26 -18 38 -23.5t21 -5.5q20 0 33 16t24 56h59q-14 -72 -43 -111t-68 -39z" />
    <glyph glyph-name="Wacute.sc" horiz-adv-x="945" 
d="M667 -2h-49l-138 367l-139 -367h-50l-241 596h130l164 -418l103 276l-54 142h127l147 -409l151 409h77zM440 661l61 188h130l-132 -188h-59z" />
    <glyph glyph-name="Wcircumflex.sc" horiz-adv-x="945" 
d="M442 851h64l131 -199h-58l-104 113l-104 -113h-58zM667 -2h-49l-138 367l-139 -367h-50l-241 596h130l164 -418l103 276l-54 142h127l147 -409l151 409h77z" />
    <glyph glyph-name="Wgrave.sc" horiz-adv-x="945" 
d="M667 -2h-49l-138 367l-139 -367h-50l-241 596h130l164 -418l103 276l-54 142h127l147 -409l151 409h77zM511 661h-58l-132 188h130z" />
    <glyph glyph-name="Wdieresis.sc" horiz-adv-x="945" 
d="M435 687h-109v131h109v-131zM625 687h-109v131h109v-131zM667 -2h-49l-138 367l-139 -367h-50l-241 596h130l164 -418l103 276l-54 142h127l147 -409l151 409h77z" />
    <glyph glyph-name="Yacute.sc" horiz-adv-x="686" 
d="M311 661l61 188h130l-132 -188h-59zM192 594l182 -270l181 270h85l-234 -342v-252h-126v252l-234 342h146z" />
    <glyph glyph-name="Ycircumflex.sc" horiz-adv-x="686" 
d="M313 851h64l131 -199h-58l-104 113l-104 -113h-58zM192 594l182 -270l181 270h85l-234 -342v-252h-126v252l-234 342h146z" />
    <glyph glyph-name="Ydieresis.sc" horiz-adv-x="686" 
d="M305 687h-109v131h109v-131zM495 687h-109v131h109v-131zM192 594l182 -270l181 270h85l-234 -342v-252h-126v252l-234 342h146z" />
    <glyph glyph-name="Ygrave.sc" horiz-adv-x="686" 
d="M192 594l182 -270l181 270h85l-234 -342v-252h-126v252l-234 342h146zM382 661h-58l-132 188h130z" />
    <glyph glyph-name="Zacute.sc" horiz-adv-x="681" 
d="M302 661l61 188h130l-132 -188h-59zM229 68h379v-68h-542v40l376 486h-358v68h518v-40z" />
    <glyph glyph-name="Zcaron.sc" horiz-adv-x="681" 
d="M499 853l-131 -199h-64l-129 199h58l104 -113l104 113h58zM229 68h379v-68h-542v40l376 486h-358v68h518v-40z" />
    <glyph glyph-name="Zdotaccent.sc" horiz-adv-x="681" 
d="M229 68h379v-68h-542v40l376 486h-358v68h518v-40zM401 692h-129v136h129v-136z" />
    <glyph glyph-name="f_short" horiz-adv-x="390" 
d="M108 491v68q0 89 51 144.5t133 55.5q60 0 95.5 -30.5t35.5 -80.5q0 -17 -6.5 -33t-17.5 -26l-53 24q6 10 8.5 17.5t2.5 14.5q0 26 -13.5 40t-39.5 14q-34 0 -53 -30.5t-19 -84.5v-93h141l-5 -64h-136v-427h-124v427h-77v64h77z" />
    <glyph glyph-name="f_f_short" horiz-adv-x="732" 
d="M232 525v-34h219v68q0 18 2.5 36t7.5 35q-18 28 -46.5 43t-65.5 15q-57 0 -87 -41.5t-30 -121.5zM451 427h-219v-427h-124v427h-77v64h77v18q0 112 63 176t170 64q47 0 85.5 -15.5t63.5 -44.5q25 34 62 52t82 18q61 0 96 -30t35 -81q0 -17 -6.5 -33t-17.5 -26l-53 24
q6 8 8.5 15.5t2.5 16.5q0 26 -13.5 40t-39.5 14q-34 0 -52.5 -31t-18.5 -84v-93h140l-5 -64h-135v-427h-124v427z" />
    <glyph glyph-name="ampersand.sc" horiz-adv-x="704" 
d="M237 475q0 -19 9 -36t43 -52l29 -30q45 20 67.5 47.5t22.5 63.5q0 35 -23 56.5t-63 21.5q-39 0 -62 -19.5t-23 -51.5zM173 174q0 -49 35 -78.5t92 -29.5q27 0 55 9.5t54 27.5l-172 172q-33 -19 -48.5 -43.5t-15.5 -57.5zM671 0h-158l-56 56q-44 -32 -91.5 -48.5
t-96.5 -16.5q-94 0 -154.5 45.5t-60.5 119.5q0 54 39.5 95t108.5 59l-28 28q-25 26 -38 55.5t-13 60.5q0 67 53.5 108t134.5 41q78 0 125.5 -36.5t47.5 -95.5q0 -51 -35 -92.5t-92 -60.5l132 -134q26 38 42.5 80t20.5 84l72 -13q-9 -53 -31.5 -104.5t-55.5 -94.5z" />
    <glyph glyph-name="caron.Slovak" horiz-adv-x="500" 
d="M227 749h120l-96 -205h-53z" />
    <glyph glyph-name="commaturn" horiz-adv-x="500" 
d="M244 662h71v-101h-136v104q0 59 38.5 89.5t112.5 30.5v-53q-45 0 -65.5 -14.5t-20.5 -45.5v-10z" />
    <glyph glyph-name="dotbelow" horiz-adv-x="500" 
d="M315 -204h-129v135h129v-135z" />
    <glyph glyph-name="grave.cap" horiz-adv-x="500" 
d="M344 766h-59l-129 174h132z" />
    <glyph glyph-name="acute.cap" horiz-adv-x="500" 
d="M156 766l57 174h131l-128 -174h-60z" />
    <glyph glyph-name="circumflex.cap" horiz-adv-x="500" 
d="M422 761h-58l-114 103l-114 -103h-58l139 189h64z" />
    <glyph glyph-name="tilde.cap" horiz-adv-x="500" 
d="M327 783q-17 0 -35.5 8t-54.5 31q-26 18 -37.5 23.5t-20.5 5.5q-20 0 -33 -15.5t-24 -56.5h-60q14 71 43.5 110.5t67.5 39.5q17 0 36 -8t54 -32q26 -18 38 -23.5t21 -5.5q20 0 33 16.5t24 56.5h59q-14 -72 -43 -111t-68 -39z" />
    <glyph glyph-name="macron.cap" horiz-adv-x="500" 
d="M395 855v-69h-290v69h290z" />
    <glyph glyph-name="breve.cap" horiz-adv-x="500" 
d="M350 948h53q-1 -77 -44 -126t-109 -49q-65 0 -108.5 49t-44.5 126h54q3 -45 30 -73t69 -28t69 27.5t31 73.5z" />
    <glyph glyph-name="dotaccent.cap" horiz-adv-x="500" 
d="M315 785h-129v135h129v-135z" />
    <glyph glyph-name="dieresis.cap" horiz-adv-x="500" 
d="M210 780h-109v130h109v-130zM400 780h-109v130h109v-130z" />
    <glyph glyph-name="ring.cap" horiz-adv-x="501" 
d="M250 752q-45 0 -77.5 32t-32.5 77q0 44 33 76.5t77 32.5q45 0 78 -32.5t33 -76.5q0 -45 -33 -77t-78 -32zM250 803q26 0 42.5 16.5t16.5 41.5q0 26 -16.5 43t-42.5 17t-42.5 -17t-16.5 -43q0 -25 17 -41.5t42 -16.5z" />
    <glyph glyph-name="hungarumlaut.cap" horiz-adv-x="500" 
d="M69 766l64 174h122l-128 -174h-58zM253 766l63 174h123l-129 -174h-57z" />
    <glyph glyph-name="caron.cap" horiz-adv-x="500" 
d="M422 947l-141 -188h-64l-139 188h58l114 -102l114 102h58z" />
    <glyph glyph-name="exclamdown.cap" horiz-adv-x="315" 
d="M172 464l72 -464h-172l72 464h28zM229 552h-143v148h143v-148z" />
    <glyph glyph-name="questiondown.cap" horiz-adv-x="559" 
d="M176 175q0 -51 35 -81t96 -30q59 0 94.5 29t35.5 79q0 21 -10 41.5t-29 37.5l50 42q31 -18 50 -50.5t19 -68.5q0 -79 -64 -131t-167 -52q-108 0 -176 56t-68 144q0 83 61 142.5t165 81.5v73h55v-170q-69 -15 -108 -53t-39 -90zM224 701h144v-143h-144v143z" />
    <glyph glyph-name="exclam.sc" horiz-adv-x="336" 
d="M156 212l-71 383h166l-71 -383h-24zM235 0h-134v141h134v-141z" />
    <glyph glyph-name="exclamdown.sc" horiz-adv-x="336" 
d="M180 382l71 -383h-166l71 383h24zM235 453h-134v141h134v-141z" />
    <glyph glyph-name="question.sc" horiz-adv-x="532" 
d="M261 604q96 0 156.5 -47.5t60.5 -125.5q0 -73 -54.5 -122t-149.5 -66v-55h-49v149q57 8 91 37t34 70q0 42 -29 66.5t-81 24.5q-48 0 -79 -26t-31 -67q0 -19 9 -36.5t27 -31.5l-45 -42q-29 15 -48 44.5t-19 63.5q0 70 58 117t149 47zM317 0h-135v135h135v-135z" />
    <glyph glyph-name="questiondown.sc" horiz-adv-x="532" 
d="M271 -9q-96 0 -156.5 47.5t-60.5 125.5q0 73 54.5 122t149.5 66v55h49v-149q-57 -8 -91 -37t-34 -70q0 -42 29 -66.5t81 -24.5q48 0 79 26t31 67q0 19 -9 36.5t-27 31.5l45 42q29 -15 48 -44.5t19 -63.5q0 -70 -58 -117t-149 -47zM215 595h135v-135h-135v135z" />
    <glyph glyph-name="guilsinglleft.cap" horiz-adv-x="401" 
d="M273 129l-215 211v8l215 211h71l-155 -215l155 -215h-71z" />
    <glyph glyph-name="guilsinglright.cap" horiz-adv-x="401" 
d="M57 129l155 215l-155 215h71l215 -211v-8l-215 -211h-71z" />
    <glyph glyph-name="guillemotleft.cap" horiz-adv-x="658" 
d="M273 129l-215 211v8l215 211h71l-155 -215l155 -215h-71zM530 129l-215 211v8l215 211h71l-155 -215l155 -215h-71z" />
    <glyph glyph-name="guillemotright.cap" horiz-adv-x="658" 
d="M57 129l155 215l-155 215h71l215 -211v-8l-215 -211h-71zM314 129l155 215l-155 215h71l215 -211v-8l-215 -211h-71z" />
    <glyph glyph-name="slash.cap" horiz-adv-x="429" 
d="M104 -113h-79l300 882h79z" />
    <glyph glyph-name="backslash.cap" horiz-adv-x="429" 
d="M104 769l300 -882h-79l-300 882h79z" />
    <glyph glyph-name="bar.cap" horiz-adv-x="281" 
d="M178 -113h-75v882h75v-882z" />
    <glyph glyph-name="periodcentered.cap" horiz-adv-x="295" 
d="M219 270h-143v148h143v-148z" />
    <glyph glyph-name="bullet.cap" horiz-adv-x="450" 
d="M225 189q-61 0 -105 44t-44 105t44 105.5t105 44.5t105 -44t44 -106q0 -61 -43.5 -105t-105.5 -44z" />
    <glyph glyph-name="hyphen.cap" horiz-adv-x="400" 
d="M325 304h-249v89h249v-89z" />
    <glyph glyph-name="endash.cap" horiz-adv-x="571" 
d="M496 309h-420v79h420v-79z" />
    <glyph glyph-name="emdash.cap" horiz-adv-x="871" 
d="M796 309h-720v79h720v-79z" />
    <glyph glyph-name="parenleft.cap" horiz-adv-x="390" 
d="M64 327q0 142 65 261t184 196l37 -52q-101 -72 -150.5 -172t-49.5 -233t49.5 -233t150.5 -172l-37 -52q-119 77 -184 196t-65 261z" />
    <glyph glyph-name="parenright.cap" horiz-adv-x="390" 
d="M326 327q0 -142 -65 -261t-184 -196l-37 52q101 72 150.5 172t49.5 233t-49.5 233t-150.5 172l37 52q119 -77 184 -196t65 -261z" />
    <glyph glyph-name="bracketleft.cap" horiz-adv-x="389" 
d="M344 -124h-241v903h241v-47l-160 -14v-780l160 -15v-47z" />
    <glyph glyph-name="bracketright.cap" horiz-adv-x="389" 
d="M45 -77l160 15v780l-160 14v47h241v-903h-241v47z" />
    <glyph glyph-name="braceleft.cap" horiz-adv-x="441" 
d="M175 179q0 60 -28.5 89t-96.5 31v56q68 2 96.5 31t28.5 89q0 11 -1.5 25t-6.5 45q-6 35 -8 52.5t-2 31.5q0 68 45.5 109t120.5 41q19 0 39.5 -4t33.5 -10l-8 -48q-70 14 -110.5 -8t-40.5 -77q0 -13 2 -30t8 -54q6 -35 8 -51t2 -28q0 -62 -35.5 -100t-90.5 -42
q56 -6 91 -43t35 -99q0 -12 -2 -28.5t-8 -51.5q-6 -37 -8 -54t-2 -30q0 -55 40.5 -77t110.5 -8l8 -48q-13 -6 -33.5 -10t-39.5 -4q-75 0 -120.5 41t-45.5 109q0 15 2 32.5t8 52.5q5 31 6.5 45t1.5 25z" />
    <glyph glyph-name="braceright.cap" horiz-adv-x="441" 
d="M266 179q0 -11 1.5 -25t6.5 -45q6 -35 8 -52.5t2 -32.5q0 -68 -45.5 -109t-120.5 -41q-19 0 -39.5 4t-33.5 10l8 48q70 -14 110.5 8t40.5 77q0 13 -2 30t-8 54q-6 35 -8 51.5t-2 28.5q0 62 35 99t91 43q-55 4 -90.5 42t-35.5 100q0 12 2 28t8 51q6 37 8 54t2 30
q0 55 -40.5 77t-110.5 8l-8 48q13 6 33.5 10t39.5 4q75 0 120.5 -41t45.5 -109q0 -14 -2 -31.5t-8 -52.5q-5 -31 -6.5 -45t-1.5 -25q0 -60 28.5 -89t96.5 -31v-56q-68 -2 -96.5 -31t-28.5 -89z" />
    <glyph glyph-name="at.cap" horiz-adv-x="978" 
d="M647 537h80l-66 -269q-10 -40 2.5 -60.5t46.5 -20.5q61 0 101.5 62t40.5 166q0 135 -93.5 215t-244.5 80q-160 0 -268 -113t-108 -282q0 -160 101 -256.5t266 -96.5q85 0 151 21t127 68l29 -38q-59 -51 -137.5 -77.5t-169.5 -26.5q-194 0 -314.5 112t-120.5 295
q0 92 33 174t94 144q62 63 144 96.5t173 33.5q174 0 287 -96.5t113 -252.5q0 -129 -67.5 -208.5t-163.5 -79.5q-55 0 -89 27.5t-39 75.5q-23 -48 -63 -75t-88 -27q-62 0 -99.5 41.5t-37.5 110.5q0 108 68 187.5t165 79.5q46 0 76 -21.5t38 -58.5zM446 197q40 0 71.5 35.5
t46.5 97.5l12 50q12 51 -3 82t-51 31q-55 0 -96.5 -65.5t-41.5 -149.5q0 -38 16.5 -59.5t45.5 -21.5z" />
    <glyph glyph-name="published" horiz-adv-x="810" 
d="M405 710q152 0 256 -103t104 -257t-104 -257t-256 -103t-256 103t-104 257t104 257t256 103zM79 350q0 -139 94.5 -233t231.5 -94q138 0 232.5 94t94.5 233q0 140 -94.5 234t-232.5 94q-137 0 -231.5 -94.5t-94.5 -233.5zM600 431q0 -60 -44 -93.5t-120 -33.5h-76v-155
h-88v408h164q76 0 120 -33.5t44 -92.5zM360 515v-168h52q49 0 73 20.5t24 63.5t-24 63.5t-73 20.5h-52z" />
    <glyph glyph-name="florin.op" horiz-adv-x="552" 
d="M77 -182q-57 0 -91 27.5t-34 71.5q0 18 9 36t23 30l49 -23q-10 -16 -13 -25t-3 -16q0 -22 12.5 -34t35.5 -12q28 0 44 23.5t24 82.5l43 312h-89l6 49h90l15 109q12 90 59 138.5t122 48.5q58 0 92 -26.5t34 -69.5q0 -18 -8.5 -35.5t-22.5 -29.5l-50 23q9 13 13 22.5
t4 17.5q0 21 -13 32.5t-37 11.5q-28 0 -44 -23t-24 -84l-18 -135h104l-7 -49h-104l-39 -286q-12 -90 -59 -138.5t-123 -48.5z" />
    <glyph glyph-name="Euro.op" horiz-adv-x="665" 
d="M404 -10q-99 0 -174 62t-99 165h-86v52h78l-1.5 24t-0.5 15q0 8 0.5 17t1.5 26h-78v52h87q26 105 103 169t176 64q83 0 140 -46t71 -120l-66 -24q-14 64 -47 94.5t-88 30.5q-63 0 -103.5 -43t-54.5 -125h193l-10 -52h-189q-1 -6 -1 -13.5v-23.5q0 -9 0.5 -19t1.5 -26h169
l-9 -52h-153q16 -75 56.5 -116t99.5 -41q56 -1 94.5 27t61.5 87l49 -30q-30 -73 -88 -113.5t-134 -40.5z" />
    <glyph glyph-name="dollar.op" horiz-adv-x="613" 
d="M174 480q0 -37 24 -59t83 -36v183q-51 -5 -79 -28t-28 -60zM452 157q0 41 -23.5 62.5t-84.5 36.5l-5 1v-200q54 6 83.5 31.5t29.5 68.5zM339 -8v-98h-58v98q-95 6 -158 51t-76 118l64 31q18 -63 59.5 -96.5t110.5 -38.5v214l-38 9q-88 20 -130 62t-42 109
q0 75 58.5 125.5t151.5 56.5v95h58v-96q71 -7 125 -45t73 -93l-60 -42q-15 48 -51 78t-87 37v-195l43 -10q88 -20 131 -62.5t43 -109.5q0 -82 -60 -136t-157 -62z" />
    <glyph glyph-name="sterling.op" horiz-adv-x="662" 
d="M620 108q0 -57 -39.5 -94.5t-101.5 -37.5q-29 0 -56.5 7.5t-54.5 23.5q-13 8 -27 17.5t-67 52.5q-24 -43 -59.5 -64.5t-79.5 -21.5q-46 0 -74.5 27t-28.5 69q0 43 31.5 72t78.5 29q18 0 36.5 -4.5t39.5 -13.5v20q0 16 -1.5 34.5t-6.5 53.5h-99v51h90q-6 36 -8.5 59.5
t-2.5 43.5q0 91 62 147.5t161 56.5q78 0 126 -36t48 -92q0 -30 -19.5 -57t-45.5 -36l-37 31q16 15 23.5 29.5t7.5 31.5q0 32 -25 52t-65 20q-49 0 -74 -32.5t-25 -96.5v-121h138v-51h-140q-3 -45 -10 -82.5t-18 -67.5q59 -30 99 -41t80 -11q48 0 69.5 27t7.5 73l40 7
q11 -12 19 -34t8 -41zM92 86q0 -19 12.5 -31.5t31.5 -12.5q30 0 49 19.5t27 57.5q-18 9 -35 13t-33 4q-23 0 -37.5 -14t-14.5 -36z" />
    <glyph glyph-name="yen.op" horiz-adv-x="687" 
d="M585 224v-53h-178v-171h-126v171h-177v53h177v39l-24 39h-153v53h121l-166 271h147l171 -288l169 288h82l-165 -271h122v-53h-154l-24 -39v-39h178z" />
    <glyph glyph-name="florin.sc" horiz-adv-x="543" 
d="M77 -182q-57 0 -91 27.5t-34 71.5q0 18 9 36t23 30l49 -23q-10 -16 -13 -25t-3 -16q0 -22 12.5 -34t35.5 -12q28 0 44 23.5t24 82.5l42 297h-89l6 49h90l13 92q12 90 59 138.5t122 48.5q58 0 92 -26.5t34 -69.5q0 -18 -8.5 -35.5t-22.5 -29.5l-50 23q9 13 13 22.5t4 17.5
q0 21 -13 32.5t-37 11.5q-28 0 -44 -23t-24 -84l-16 -118h103l-7 -49h-103l-38 -271q-12 -90 -59 -138.5t-123 -48.5z" />
    <glyph glyph-name="Euro.sc" horiz-adv-x="622" 
d="M531 163l46 -33q-29 -65 -83 -102.5t-121 -37.5q-92 0 -160.5 59t-90.5 158h-75v49h67q-1 6 -1 13v22q0 7 0.5 16t1.5 26h-68v49h76q25 100 95 161t162 61q77 0 129 -45t63 -117l-62 -21q-12 59 -41 87t-78 28q-57 0 -94 -39.5t-49 -114.5h176l-9 -49h-172q-1 -5 -1 -12
v-21q0 -8 0.5 -18t1.5 -26h154l-8 -49h-139q15 -69 51 -106.5t88 -37.5q50 0 85 24.5t56 75.5z" />
    <glyph glyph-name="dollar.sc" horiz-adv-x="589" 
d="M170 457q0 -33 22.5 -51t78.5 -30h1v160q-48 -4 -75 -25t-27 -54zM433 146q0 36 -21.5 55t-79.5 33l-6 1v-176q51 5 79 27.5t28 59.5zM326 -8v-91h-54v91q-90 6 -150.5 47t-74.5 107l62 33q18 -57 58 -86t105 -34v188l-38 8q-83 18 -124 60t-41 107q0 74 56.5 123.5
t146.5 55.5v89h54v-90q68 -7 120 -42t71 -87l-59 -43q-15 45 -49 72.5t-83 34.5v-172l43 -10q83 -17 124.5 -59t41.5 -109q0 -79 -58 -132t-151 -61z" />
    <glyph glyph-name="sterling.sc" horiz-adv-x="629" 
d="M592 109q0 -58 -37.5 -96t-96.5 -38q-27 0 -53 7.5t-53 22.5q-11 7 -33 23.5t-56 43.5q-24 -40 -57.5 -61t-75.5 -21q-44 0 -72 27t-28 68q0 42 30.5 69.5t75.5 27.5q17 0 34 -4t37 -12v6q0 17 -1.5 36t-6.5 52h-93v49h84q-6 35 -8.5 58t-2.5 44q0 86 60 139.5t156 53.5
q75 0 120 -34.5t45 -89.5q0 -28 -18.5 -53.5t-42.5 -33.5l-36 31q16 14 22.5 27t6.5 29q0 30 -23 47t-61 17q-46 0 -69.5 -29t-23.5 -86v-120h130v-49h-132q-3 -40 -9 -73t-16 -60q49 -24 88 -34t79 -10q46 0 65.5 25.5t6.5 70.5l39 8q11 -12 18.5 -35t7.5 -43zM89 85
q0 -18 11.5 -29.5t30.5 -11.5q28 0 45.5 17t25.5 52q-16 8 -32 12t-32 4q-22 0 -35.5 -12t-13.5 -32z" />
    <glyph glyph-name="yen.sc" horiz-adv-x="641" 
d="M551 213v-49h-168v-164h-125v164h-167v49h167v39l-23 37h-144v49h114l-158 257h147l161 -265l158 265h81l-158 -257h115v-49h-145l-23 -37v-39h168z" />
    <glyph glyph-name="florin.lt" 
d="M140 -204q-60 0 -95.5 30.5t-35.5 79.5q0 21 9.5 41t24.5 33l52 -26q-10 -15 -14 -26t-4 -20q0 -24 13.5 -37.5t38.5 -13.5q31 0 49 26.5t27 92.5l47 354h-98l7 51h97l16 120q13 100 63 154.5t130 54.5q61 0 97.5 -29.5t36.5 -77.5q0 -20 -9 -39.5t-24 -33.5l-53 26
q10 15 14 25.5t4 19.5q0 23 -14 35.5t-40 12.5q-32 0 -50 -27t-26 -92l-20 -149h115l-7 -51h-115l-43 -324q-13 -101 -63 -155.5t-130 -54.5z" />
    <glyph glyph-name="Euro.lt" 
d="M569 194l50 -33q-30 -80 -91 -125.5t-138 -45.5q-103 0 -180 69.5t-101 186.5h-78v53h70q-1 19 -1.5 28t-0.5 17t0.5 18l1.5 30h-70v53h78q25 120 104 192.5t183 72.5q86 0 145 -51t74 -134l-67 -26q-15 72 -50 106t-92 34q-68 0 -110.5 -49.5t-56.5 -144.5h206l-10 -53
h-201q-1 -7 -1 -15v-25q0 -10 0.5 -21t1.5 -32h181l-10 -53h-164q15 -86 57.5 -132.5t105.5 -47.5q59 0 99.5 31.5t64.5 96.5z" />
    <glyph glyph-name="dollar.lt" 
d="M181 537q0 -41 26.5 -65t93.5 -40v207q-55 -5 -87.5 -32t-32.5 -70zM486 176q0 45 -25.5 69.5t-93.5 40.5l-9 2v-226q61 6 94.5 35.5t33.5 78.5zM358 -9v-110h-57v110q-104 7 -172 57t-82 133l68 31q20 -71 65.5 -108t120.5 -42v240l-42 10q-96 24 -141 71t-45 122
q0 84 63.5 140.5t164.5 63.5v106h57v-107q77 -8 136.5 -50.5t79.5 -104.5l-64 -45q-17 55 -56 88.5t-96 41.5v-220l47 -12q95 -22 142 -70t47 -123q0 -92 -66 -153t-170 -69z" />
    <glyph glyph-name="cent.lt" 
d="M506 178l52 -18q-19 -76 -73 -120t-134 -49l-9 -105h-52l9 106q-98 11 -157 80.5t-59 175.5q0 118 74 195t188 81l8 92h52l-8 -95q69 -10 108 -51t39 -103q0 -27 -11.5 -51.5t-28.5 -38.5l-50 35q11 13 16 26.5t5 28.5q0 38 -22 63.5t-61 31.5l-35 -400h8q53 0 88 29
t53 87zM211 262q0 -74 24.5 -122.5t70.5 -66.5l34 388q-59 -11 -94 -64.5t-35 -134.5z" />
    <glyph glyph-name="sterling.lt" 
d="M621 121q0 -64 -41 -106t-105 -42q-29 0 -57.5 8.5t-57.5 27.5q-11 7 -35 25.5t-61 49.5q-26 -46 -62.5 -70t-81.5 -24q-47 0 -76.5 30t-29.5 78t32.5 79.5t81.5 31.5q19 0 38.5 -5t39.5 -16q1 4 1 9.5v16.5q0 23 -2 47t-6 50h-104v53h96q-6 41 -8.5 68t-2.5 51
q0 102 63 164.5t165 62.5q81 0 129.5 -40t48.5 -103q0 -34 -20 -64t-46 -40l-39 35q17 16 24.5 32.5t7.5 35.5q0 36 -25.5 58t-68.5 22q-50 0 -74 -35t-24 -108v-139h139v-53h-141q-3 -51 -10.5 -93t-19.5 -77q54 -31 95.5 -44t83.5 -13q51 0 73 30.5t8 81.5l46 8
q11 -13 18.5 -37.5t7.5 -45.5zM75 97q0 -22 13 -35.5t33 -13.5q30 0 50 21t29 62q-18 10 -36 15t-35 5q-24 0 -39 -15t-15 -39z" />
    <glyph glyph-name="yen.lt" 
d="M579 250v-53h-194v-197h-129v197h-194v53h194v45l-28 49h-166v53h136l-174 303h149l181 -323l177 323h85l-173 -303h136v-53h-166l-28 -49v-45h194z" />
    <glyph glyph-name="florin.ot" 
d="M168 -182q-57 0 -90.5 27.5t-33.5 71.5q0 19 8.5 36.5t22.5 29.5l50 -23q-8 -11 -12 -21.5t-4 -19.5q0 -22 12.5 -34t34.5 -12q29 0 45 23.5t23 82.5l43 312h-89l6 49h90l15 108q12 90 59 138.5t122 48.5q58 0 92 -26.5t34 -69.5q0 -18 -8 -35.5t-22 -29.5l-51 24
q10 14 13.5 23t3.5 17q0 21 -13 32t-37 11q-28 0 -44 -23t-24 -83l-18 -135h104l-7 -49h-104l-39 -286q-12 -90 -59 -138.5t-123 -48.5z" />
    <glyph glyph-name="Euro.ot" 
d="M562 174l49 -30q-29 -73 -88 -113.5t-134 -40.5q-99 0 -171.5 61.5t-96.5 165.5h-82v52h74l-1.5 24t-0.5 15q0 8 0.5 17t1.5 26h-74v52h83q25 105 100 169t174 64q83 0 140 -46t70 -120l-66 -24q-13 64 -46 94.5t-88 30.5q-63 0 -102 -42.5t-52 -125.5h188l-10 -52h-183
q-1 -6 -1 -13.5v-23.5q0 -9 0.5 -19t1.5 -26h164l-10 -52h-148q15 -76 54 -116.5t97 -40.5q56 -1 94.5 27t62.5 87z" />
    <glyph glyph-name="dollar.ot" 
d="M193 480q0 -37 24 -59t83 -36v183q-51 -5 -79 -28t-28 -60zM471 157q0 41 -23.5 62.5t-84.5 36.5l-5 1v-200q54 6 83.5 31.5t29.5 68.5zM358 -8v-98h-58v98q-95 6 -158 51t-76 118l64 31q18 -63 59.5 -96.5t110.5 -38.5v214l-39 9q-88 20 -130 62t-42 109q0 75 59 125.5
t152 56.5v95h58v-96q71 -7 125 -45t73 -93l-61 -42q-15 49 -50.5 78.5t-86.5 36.5v-195l42 -10q88 -20 131 -62.5t43 -109.5q0 -82 -59.5 -136t-156.5 -62z" />
    <glyph glyph-name="sterling.ot" 
d="M607 108q0 -57 -39 -94.5t-100 -37.5q-28 0 -55 7.5t-55 23.5q-10 6 -33 23.5t-59 45.5q-24 -42 -59 -63.5t-78 -21.5q-46 0 -74.5 26.5t-28.5 69.5t31.5 72t77.5 29q18 0 36.5 -4.5t38.5 -14.5v21q0 21 -2 43t-6 45h-98v51h90q-6 36 -8.5 59.5t-2.5 43.5q0 91 61 147.5
t159 56.5q77 0 124 -36t47 -92q0 -31 -19 -57.5t-45 -35.5l-37 31q16 14 23 28.5t7 32.5q0 32 -24 52t-63 20q-48 0 -72 -32t-24 -97v-121h134v-51h-136q-3 -43 -10 -80.5t-18 -70.5q54 -29 93.5 -40t79.5 -11q48 0 69 27t7 73l42 7q11 -12 18.5 -34t7.5 -41zM85 86
q0 -19 12.5 -31.5t31.5 -12.5q29 0 48 19.5t27 57.5q-18 9 -34.5 13t-32.5 4q-23 0 -37.5 -14t-14.5 -36z" />
    <glyph glyph-name="yen.ot" 
d="M561 224v-53h-178v-171h-126v171h-177v53h177v39l-23 39h-154v53h122l-162 271h147l166 -288l164 288h83l-162 -271h123v-53h-155l-23 -39v-39h178z" />
    <glyph glyph-name="florin.st" 
d="M169 -182q-57 0 -90.5 27.5t-33.5 71.5q0 19 8.5 36.5t22.5 29.5l50 -23q-8 -11 -12 -21.5t-4 -19.5q0 -22 12.5 -34t35.5 -12q28 0 44 23.5t24 82.5l41 297h-89l6 49h90l13 93q12 90 59 138.5t122 48.5q58 0 92.5 -26.5t34.5 -69.5q0 -18 -8.5 -35.5t-22.5 -29.5l-50 23
q8 12 12 21.5t4 18.5q0 21 -13 32.5t-37 11.5q-28 0 -44 -24t-23 -83l-17 -119h104l-7 -49h-104l-38 -271q-11 -89 -58.5 -138t-123.5 -49z" />
    <glyph glyph-name="Euro.st" 
d="M545 164l45 -33q-28 -64 -82.5 -102t-120.5 -38q-92 0 -160.5 58.5t-90.5 157.5h-75v49h67q-1 6 -1 13v22q0 7 0.5 16t1.5 26h-68v49h76q24 100 94.5 160.5t162.5 60.5q77 0 129 -45t63 -117l-62 -21q-13 60 -42 87.5t-78 27.5q-57 0 -93.5 -39.5t-48.5 -113.5h175
l-9 -49h-171q-1 -5 -1 -12v-21q0 -8 0.5 -18t1.5 -26h154l-9 -49h-138q15 -69 51 -106t87 -37t85.5 24.5t56.5 75.5z" />
    <glyph glyph-name="dollar.st" 
d="M199 457q0 -32 22.5 -50.5t79.5 -30.5h1v160q-48 -4 -75.5 -25t-27.5 -54zM462 146q0 37 -21.5 56t-79.5 32l-6 1v-176q51 5 79 27.5t28 59.5zM355 -8v-91h-53v91q-91 6 -151.5 46.5t-74.5 107.5l63 33q18 -57 57.5 -86t105.5 -34v188l-39 8q-82 18 -123 59.5t-41 107.5
q0 74 56.5 123.5t146.5 55.5v89h53v-89q68 -7 120 -42.5t71 -87.5l-59 -43q-15 45 -49 72.5t-83 34.5v-172l43 -10q83 -17 124.5 -59t41.5 -109q0 -79 -58 -132t-151 -61z" />
    <glyph glyph-name="sterling.st" 
d="M601 109q0 -58 -37.5 -96t-96.5 -38q-27 0 -53 7.5t-53 22.5q-11 7 -33 23.5t-56 43.5q-24 -40 -57.5 -60.5t-75.5 -20.5q-44 0 -72 27t-28 68q0 42 30.5 69.5t75.5 27.5q15 0 31.5 -3.5t39.5 -12.5v5q0 17 -1.5 36t-6.5 52h-93v49h84q-6 35 -8.5 58t-2.5 43
q0 86 60 139.5t156 53.5q75 0 120 -34.5t45 -89.5q0 -28 -18.5 -53.5t-42.5 -33.5l-36 31q16 14 22.5 27t6.5 29q0 30 -23 47t-61 17q-46 0 -69.5 -29t-23.5 -86v-119h130v-49h-132q-3 -40 -9 -73t-16 -60q49 -24 88 -34t79 -10q46 0 65.5 25.5t6.5 70.5l39 8
q11 -12 18.5 -35t7.5 -43zM98 86q0 -18 11.5 -29.5t30.5 -11.5q28 0 45.5 17t25.5 52q-16 8 -32 12t-32 4q-22 0 -35.5 -12t-13.5 -32z" />
    <glyph glyph-name="yen.st" 
d="M551 213v-49h-168v-164h-125v164h-168v49h168v39l-22 37h-146v49h116l-155 256h147l156 -264l154 264h81l-154 -256h116v-49h-146l-22 -37v-39h168z" />
    <glyph glyph-name="zero.op" horiz-adv-x="657" 
d="M329 -10q-125 0 -202 90t-77 233q0 144 77 233.5t202 89.5t201.5 -89.5t76.5 -233.5t-77 -233.5t-201 -89.5zM329 578q-71 0 -104.5 -64t-33.5 -201t33.5 -200.5t104.5 -63.5t104.5 64t33.5 200t-33.5 200.5t-104.5 64.5z" />
    <glyph glyph-name="one.op" horiz-adv-x="454" 
d="M340 631v-631h-125v468q-14 -26 -66 -68t-91 -58l-25 60q58 31 126 98t106 131h75z" />
    <glyph glyph-name="two.op" horiz-adv-x="582" 
d="M382 242q-24 -18 -57 -40t-148 -93h351l-10 -109h-491v38l170 150q78 69 92.5 83.5t25.5 27.5q32 36 46.5 71t14.5 74q0 57 -32.5 90t-88.5 33q-54 0 -88 -32.5t-34 -83.5q0 -25 13 -47.5t38 -39.5l-44 -46q-37 13 -60.5 49t-23.5 81q0 82 60.5 135t158.5 53
q105 0 169.5 -53t64.5 -144q0 -54 -29.5 -100t-97.5 -97z" />
    <glyph glyph-name="three.op" horiz-adv-x="609" 
d="M560 177q0 -84 -75.5 -135.5t-195.5 -51.5q-101 0 -168 46t-67 117q0 40 28.5 72t69.5 43l38 -43q-30 -14 -43 -30.5t-13 -37.5q0 -43 38.5 -71.5t97.5 -28.5q71 0 110 33t39 93q0 62 -40 94.5t-114 32.5h-17v52h17q68 1 102 29t34 83q0 47 -31.5 73t-87.5 26
q-53 0 -86.5 -24t-33.5 -62q0 -19 11 -33.5t33 -23.5l-32 -48q-40 9 -64 38t-24 69q0 61 61 104t152 43q105 0 169.5 -41.5t64.5 -111.5q0 -60 -47.5 -99.5t-122.5 -45.5v-2q89 -4 143 -48t54 -111z" />
    <glyph glyph-name="four.op" horiz-adv-x="646" 
d="M474 221h142v-66h-142v-155h-124v155h-323v48l325 423h122v-405zM119 221h231v303z" />
    <glyph glyph-name="five.op" horiz-adv-x="593" 
d="M147 631h364l-13 -112h-304l-18 -140q25 17 60.5 27.5t73.5 10.5q100 0 163.5 -56t63.5 -145q0 -102 -77 -164t-202 -62q-97 0 -160 44.5t-63 115.5q0 34 20.5 61.5t54.5 42.5l42 -41q-21 -13 -29.5 -28t-8.5 -35q0 -40 36 -67t90 -27q72 0 114.5 43.5t42.5 117.5
q0 61 -36 98.5t-97 37.5q-36 0 -64.5 -11t-55.5 -36h-38z" />
    <glyph glyph-name="six.op" horiz-adv-x="619" 
d="M357 439q90 0 151 -60t61 -156q0 -102 -71.5 -167.5t-179.5 -65.5q-119 0 -193.5 94.5t-74.5 243.5q0 166 89 274t232 108q85 0 138 -41.5t53 -104.5q0 -34 -16 -59t-42 -34l-47 34q13 11 19.5 24t6.5 29q0 41 -29 63.5t-82 22.5q-92 0 -144.5 -88t-48.5 -227
q17 50 65 80t113 30zM316 372q-60 0 -91.5 -41.5t-31.5 -119.5q0 -76 32.5 -119t90.5 -43q60 0 92.5 42t32.5 120q0 77 -32.5 119t-92.5 42z" />
    <glyph glyph-name="seven.op" horiz-adv-x="551" 
d="M40 514v112h490v-50l-74 -116q-79 -123 -119 -259t-39 -275h-123q19 152 66.5 277t138.5 259l34 52h-374z" />
    <glyph glyph-name="eight.op" horiz-adv-x="620" 
d="M528 489q0 -45 -31 -80.5t-88 -57.5q84 -28 122.5 -69.5t38.5 -104.5q0 -83 -74.5 -135t-190.5 -52q-115 0 -186 46t-71 121q0 52 39.5 92.5t108.5 61.5q-54 20 -83.5 58.5t-29.5 90.5q0 78 63.5 127t160.5 49q95 0 158 -41.5t63 -105.5zM309 575q-55 0 -87 -23t-32 -61
q0 -33 22.5 -55t82.5 -42l57 -21q49 25 70.5 52t21.5 60q0 43 -35.5 66.5t-99.5 23.5zM454 150q0 35 -24.5 58t-89.5 46l-95 33q-58 -25 -85 -55.5t-27 -70.5q0 -50 47 -80t126 -30q65 0 106.5 27.5t41.5 71.5z" />
    <glyph glyph-name="nine.op" horiz-adv-x="619" 
d="M262 188q-90 0 -151 60t-61 156q0 102 71.5 167.5t179.5 65.5q119 0 193.5 -94.5t74.5 -243.5q0 -166 -89 -274t-232 -108q-85 0 -138 41.5t-53 104.5q0 34 16 59t42 34l47 -34q-13 -11 -19.5 -24t-6.5 -29q0 -41 29 -63.5t82 -22.5q92 0 144.5 88t48.5 227
q-17 -50 -65 -80t-113 -30zM303 255q60 0 91.5 41.5t31.5 119.5q0 76 -32.5 119t-90.5 43q-60 0 -92.5 -42t-32.5 -120q0 -77 32.5 -119t92.5 -42z" />
    <glyph glyph-name="zero.sc" horiz-adv-x="642" 
d="M321 -10q-117 0 -187.5 84t-70.5 224t70.5 223t187.5 83t187.5 -83t70.5 -223t-70.5 -224t-187.5 -84zM321 552q-62 0 -91 -61t-29 -193q0 -133 29 -194t91 -61q63 0 91.5 61t28.5 194t-28.5 193.5t-91.5 60.5z" />
    <glyph glyph-name="one.sc" horiz-adv-x="452" 
d="M330 601v-601h-121v455q-12 -22 -57.5 -58.5t-79.5 -49.5l-24 56q49 24 111 84t95 114h76z" />
    <glyph glyph-name="two.sc" horiz-adv-x="568" 
d="M478 424q0 -77 -66.5 -144.5t-249.5 -167.5h336l-8 -112h-452v36l163 152q87 84 117 137.5t30 109.5q0 47 -28.5 75t-77.5 28q-46 0 -76 -27t-30 -70q0 -23 13 -43.5t37 -36.5l-39 -44q-34 10 -58.5 44t-24.5 75q0 74 55.5 121t145.5 47q98 0 155.5 -47.5t57.5 -132.5z
" />
    <glyph glyph-name="three.sc" horiz-adv-x="583" 
d="M519 168q0 -82 -67.5 -130t-179.5 -48q-93 0 -152 41.5t-59 110.5q0 40 27.5 71t65.5 38l33 -43q-27 -13 -39 -28.5t-12 -36.5q0 -39 33.5 -65t84.5 -26q62 0 96 32.5t34 91.5t-34 88.5t-102 29.5h-13v47h13q63 2 92.5 28t29.5 80q0 44 -28.5 69.5t-77.5 25.5
q-46 0 -75 -20.5t-29 -53.5q0 -19 10 -33t31 -23l-28 -48q-37 8 -59.5 35.5t-22.5 66.5q0 58 54 97t137 39q97 0 155.5 -40t58.5 -109q0 -56 -44 -92.5t-115 -42.5v-2q82 -5 132 -46t50 -104z" />
    <glyph glyph-name="four.sc" horiz-adv-x="627" 
d="M451 211h127v-59h-127v-152h-120v152h-282v42l279 401h123v-384zM134 211h197v283z" />
    <glyph glyph-name="five.sc" horiz-adv-x="572" 
d="M156 594h330l-13 -116h-274l-16 -125q22 14 54 22.5t64 8.5q92 0 149 -49.5t57 -130.5q0 -98 -69.5 -156t-183.5 -58q-91 0 -147 39.5t-56 106.5q0 33 19 59.5t52 39.5l38 -42q-19 -13 -27 -26.5t-8 -31.5q0 -37 31.5 -60t78.5 -23q63 0 99.5 40t36.5 108
q0 54 -31.5 87.5t-84.5 33.5q-32 0 -56.5 -9.5t-46.5 -31.5h-35z" />
    <glyph glyph-name="six.sc" horiz-adv-x="596" 
d="M345 376q80 0 135 -51t55 -133q0 -89 -65 -145.5t-164 -56.5q-108 0 -175.5 80t-67.5 208q0 140 81 233t210 93q78 0 126 -35.5t48 -90.5q0 -28 -14 -49.5t-36 -29.5l-46 29q11 9 16.5 19.5t5.5 24.5q0 34 -25.5 52t-72.5 18q-79 0 -125 -72t-43 -183q16 41 58 65t99 24z
M304 313q-51 0 -78.5 -35t-27.5 -100q0 -64 27.5 -99.5t78.5 -35.5q52 0 79.5 35t27.5 100t-27.5 100t-79.5 35z" />
    <glyph glyph-name="seven.sc" horiz-adv-x="528" 
d="M61 478v116h435v-45l-70 -119q-68 -107 -100 -212.5t-30 -217.5h-120q18 117 58.5 214.5t121.5 211.5l32 52h-327z" />
    <glyph glyph-name="eight.sc" horiz-adv-x="592" 
d="M493 464q0 -39 -27.5 -71t-76.5 -52q72 -26 107 -67t35 -100q0 -83 -66.5 -133.5t-172.5 -50.5q-103 0 -166.5 43t-63.5 114q0 48 35.5 84.5t96.5 54.5q-49 24 -75.5 61t-26.5 83q0 78 56.5 126t145.5 48q86 0 142.5 -39t56.5 -101zM296 548q-47 0 -75 -21t-28 -56
q0 -30 20.5 -50.5t76.5 -41.5l48 -16q37 18 56 43t19 55q0 40 -32 63.5t-85 23.5zM420 136q0 33 -22 55t-77 42l-84 31q-46 -19 -70.5 -48t-24.5 -64q0 -49 40 -77t111 -28q57 0 92 24t35 65z" />
    <glyph glyph-name="nine.sc" horiz-adv-x="596" 
d="M251 218q-80 0 -135 51t-55 133q0 89 65 145.5t164 56.5q108 0 175.5 -80t67.5 -208q0 -140 -81 -233t-210 -93q-78 0 -126 35.5t-48 90.5q0 28 14 49.5t36 29.5l46 -29q-11 -9 -16.5 -19.5t-5.5 -24.5q0 -34 25.5 -52t72.5 -18q79 0 125 72t43 183q-16 -41 -58 -65
t-99 -24zM292 281q51 0 78.5 35t27.5 100q0 64 -27.5 99.5t-78.5 35.5q-52 0 -79.5 -35t-27.5 -100t27.5 -100t79.5 -35z" />
    <glyph glyph-name="zero.lt" 
d="M320 -10q-126 0 -201.5 98t-75.5 262t75.5 262t201.5 98t201.5 -98t75.5 -262t-75.5 -262t-201.5 -98zM320 651q-69 0 -101.5 -72t-32.5 -229q0 -156 32.5 -228.5t101.5 -72.5t101.5 72.5t32.5 228.5q0 157 -32.5 229t-101.5 72z" />
    <glyph glyph-name="one.lt" 
d="M588 66v-66h-488v66h184v479q-24 -30 -79 -69t-97 -57l-25 60q69 33 141 98t111 131h75v-642h178z" />
    <glyph glyph-name="two.lt" 
d="M412 274q-35 -30 -86 -66.5t-139 -95.5h386l-10 -112h-510v39l189 182q99 96 134.5 160.5t35.5 131.5q0 58 -34 92t-92 34t-93 -31.5t-35 -84.5q0 -26 15.5 -51t40.5 -43l-42 -47q-38 13 -64.5 52.5t-26.5 84.5q0 83 62.5 137t163.5 54q108 0 174 -55t66 -150
q0 -61 -31.5 -115.5t-103.5 -115.5z" />
    <glyph glyph-name="three.lt" 
d="M577 198q0 -93 -76.5 -150.5t-198.5 -57.5q-104 0 -171 49t-67 127q0 44 28.5 78t70.5 46l36 -46q-29 -16 -42 -34t-13 -43q0 -48 39.5 -79.5t99.5 -31.5q73 0 113 38.5t40 108.5q0 72 -41.5 108.5t-121.5 36.5h-15v53h15q73 2 109 34t36 96q0 53 -33 84.5t-90 31.5
q-55 0 -89 -26.5t-34 -68.5q0 -22 11 -38.5t33 -26.5l-30 -50q-41 10 -65.5 40.5t-24.5 73.5q0 67 61.5 113t154.5 46q109 0 173.5 -46.5t64.5 -127.5q0 -65 -51 -108.5t-128 -49.5v-2q92 -5 149 -54.5t57 -123.5z" />
    <glyph glyph-name="four.lt" 
d="M474 250h137v-66h-137v-184h-124v184h-323v48l320 468h127v-450zM119 250h231v341z" />
    <glyph glyph-name="five.lt" 
d="M178 700h370l-14 -118h-307l-22 -168q27 18 62 28.5t72 10.5q104 0 167.5 -58.5t63.5 -155.5q0 -112 -78.5 -180.5t-204.5 -68.5q-100 0 -163.5 46.5t-63.5 122.5q0 37 20 67t57 47l42 -46q-22 -16 -31 -31.5t-9 -36.5q0 -46 37 -74.5t94 -28.5q74 0 116.5 48.5
t42.5 133.5q0 66 -37 106.5t-99 40.5q-37 0 -66 -12.5t-55 -38.5h-39z" />
    <glyph glyph-name="six.lt" 
d="M368 439q92 0 154 -60t62 -156q0 -102 -73 -167.5t-183 -65.5q-121 0 -196.5 94.5t-75.5 243.5q0 165 90.5 273.5t235.5 108.5q87 0 141 -41.5t54 -104.5q0 -34 -16.5 -59t-42.5 -34l-47 34q13 11 19.5 24.5t6.5 28.5q0 41 -29.5 63.5t-83.5 22.5q-94 0 -148 -88
t-50 -227q17 50 66.5 80t115.5 30zM326 372q-61 0 -94.5 -42t-33.5 -119q0 -75 34 -118.5t94 -43.5q62 0 96 42.5t34 119.5q0 76 -34 118.5t-96 42.5z" />
    <glyph glyph-name="seven.lt" 
d="M70 582v118h511v-51l-75 -119q-82 -129 -123 -262t-40 -268h-123q18 143 65.5 264t145.5 266l34 52h-395z" />
    <glyph glyph-name="eight.lt" 
d="M541 546q0 -50 -32.5 -89.5t-90.5 -62.5q86 -33 125.5 -79.5t39.5 -116.5q0 -92 -75 -150t-191 -58t-187.5 51t-71.5 135q0 57 40 101t111 68q-57 29 -86.5 71.5t-29.5 96.5q0 87 64 142t162 55q95 0 158.5 -46.5t63.5 -117.5zM320 649q-55 0 -87 -26.5t-32 -71.5
q0 -38 23.5 -64t81.5 -49l58 -22q48 26 70 57t22 70q0 48 -37 77t-99 29zM466 167q0 40 -25.5 66.5t-89.5 51.5l-95 37q-58 -28 -85.5 -63t-27.5 -79q0 -59 47 -93.5t127 -34.5q67 0 108 31t41 84z" />
    <glyph glyph-name="nine.lt" 
d="M272 261q-92 0 -154 60t-62 156q0 102 73 167.5t183 65.5q121 0 196.5 -94.5t75.5 -243.5q0 -165 -90.5 -273.5t-235.5 -108.5q-87 0 -141 41.5t-54 104.5q0 34 16.5 59t42.5 34l47 -34q-13 -11 -19.5 -24.5t-6.5 -28.5q0 -41 29.5 -63.5t83.5 -22.5q94 0 148 88t50 227
q-17 -50 -66.5 -80t-115.5 -30zM314 328q61 0 94.5 42t33.5 119q0 75 -34 118.5t-94 43.5q-62 0 -96 -42.5t-34 -119.5q0 -76 34 -118.5t96 -42.5z" />
    <glyph glyph-name="zero.ot" 
d="M49 313q0 144 75 233.5t196 89.5t196.5 -89.5t75.5 -233.5q0 -143 -75.5 -233t-196.5 -90t-196 90t-75 233zM189 313q0 -136 32 -200t99 -64t99 64t32 200t-32 200.5t-99 64.5t-99 -64.5t-32 -200.5z" />
    <glyph glyph-name="one.ot" 
d="M584 66v-66h-488v66h187v403q-24 -30 -79.5 -70t-96.5 -57l-25 60q69 33 141 98t111 131h75v-565h175z" />
    <glyph glyph-name="two.ot" 
d="M418 242q-24 -18 -57 -40t-148 -93h351l-10 -109h-491v38l170 150q78 69 92.5 83.5t25.5 27.5q32 36 46.5 71t14.5 74q0 57 -32.5 90t-88.5 33q-54 0 -88 -32.5t-34 -83.5q0 -25 13 -47.5t38 -39.5l-44 -46q-37 13 -60.5 49t-23.5 81q0 82 60.5 135t158.5 53
q105 0 169.5 -53t64.5 -144q0 -54 -29.5 -100t-97.5 -97z" />
    <glyph glyph-name="three.ot" 
d="M570 177q0 -84 -75.5 -135.5t-196.5 -51.5q-101 0 -168 46t-67 117q0 40 29 72t70 43l37 -43q-29 -14 -42 -30.5t-13 -37.5q0 -43 38 -71.5t98 -28.5q71 0 110 33t39 93q0 61 -40 94t-115 33h-17v52h17q68 1 102.5 29t34.5 83q0 47 -31.5 73t-88.5 26q-53 0 -86 -24
t-33 -62q0 -20 11 -34t33 -23l-33 -48q-40 10 -64 39t-24 68q0 61 61 104.5t152 43.5q105 0 170 -42t65 -112q0 -60 -47.5 -99.5t-123.5 -45.5v-2q90 -4 144 -48t54 -111z" />
    <glyph glyph-name="four.ot" 
d="M480 221h132v-66h-132v-155h-124v155h-323v48l325 423h122v-405zM124 221h232v303z" />
    <glyph glyph-name="five.ot" 
d="M178 631h364l-13 -112h-304l-18 -140q25 17 60.5 27.5t73.5 10.5q100 0 163.5 -56t63.5 -145q0 -102 -77 -164t-202 -62q-97 0 -160 44.5t-63 115.5q0 34 20.5 61.5t54.5 42.5l42 -41q-21 -13 -29.5 -28t-8.5 -35q0 -40 36 -67t90 -27q72 0 114.5 43.5t42.5 117.5
q0 61 -36 98.5t-97 37.5q-36 0 -64.5 -11t-55.5 -36h-38z" />
    <glyph glyph-name="six.ot" 
d="M368 439q90 0 150.5 -60t60.5 -156q0 -102 -71.5 -167.5t-179.5 -65.5q-119 0 -193 94.5t-74 243.5q0 166 88.5 274t231.5 108q86 0 139 -41.5t53 -104.5q0 -34 -16.5 -59t-42.5 -34l-46 34q13 11 19 24t6 29q0 41 -28.5 63.5t-81.5 22.5q-92 0 -145 -88t-49 -227
q17 50 65.5 80t113.5 30zM327 372q-60 0 -92 -42t-32 -119t32.5 -119.5t91.5 -42.5q60 0 92 42t32 120q0 77 -32 119t-92 42z" />
    <glyph glyph-name="seven.ot" 
d="M70 514v112h500v-50l-73 -116q-79 -123 -119 -259t-39 -275h-124q20 153 67.5 278t137.5 258l35 52h-385z" />
    <glyph glyph-name="eight.ot" 
d="M539 489q0 -45 -31 -80.5t-88 -57.5q84 -28 122.5 -69.5t38.5 -104.5q0 -83 -74.5 -135t-190.5 -52q-115 0 -186 46t-71 121q0 52 39.5 92.5t108.5 61.5q-54 20 -83.5 58.5t-29.5 90.5q0 78 63.5 127.5t160.5 49.5q94 0 157.5 -42t63.5 -106zM320 576q-54 0 -86.5 -23
t-32.5 -62q0 -33 22.5 -55t82.5 -42l57 -21q49 25 70.5 52t21.5 60q0 43 -36 67t-99 24zM465 150q0 35 -24.5 58t-89.5 46l-95 33q-58 -25 -85 -55.5t-27 -70.5q0 -50 47 -80t126 -30q65 0 106.5 27.5t41.5 71.5z" />
    <glyph glyph-name="nine.ot" 
d="M272 188q-90 0 -151 60t-61 156q0 102 71.5 167.5t179.5 65.5q119 0 193.5 -94.5t74.5 -243.5q0 -166 -89 -274t-232 -108q-85 0 -138 41.5t-53 104.5q0 34 16 59t42 34l47 -34q-13 -11 -19.5 -24t-6.5 -29q0 -41 29 -63.5t82 -22.5q92 0 144.5 88t48.5 227
q-17 -50 -65 -80t-113 -30zM313 255q60 0 91.5 41.5t31.5 119.5q0 76 -32.5 119t-90.5 43q-60 0 -92.5 -42t-32.5 -120q0 -77 32.5 -119t92.5 -42z" />
    <glyph glyph-name="zero.st" 
d="M320 -10q-117 0 -187.5 84t-70.5 224t70.5 223t187.5 83t187.5 -83t70.5 -223t-70.5 -224t-187.5 -84zM320 552q-62 0 -91 -61t-29 -193q0 -133 29 -194t91 -61q63 0 91.5 61t28.5 194t-28.5 193.5t-91.5 60.5z" />
    <glyph glyph-name="one.st" 
d="M588 66v-66h-488v66h184v383q-23 -29 -75.5 -66t-91.5 -53l-24 58q65 29 133.5 90.5t105.5 123.5h73v-536h183z" />
    <glyph glyph-name="two.st" 
d="M520 425q0 -78 -67 -146t-249 -167h336l-8 -112h-452v36l163 152q87 84 117 137.5t30 109.5q0 47 -28.5 75t-77.5 28q-46 0 -76 -27t-30 -70q0 -23 13 -43.5t37 -36.5l-40 -44q-34 10 -58 44t-24 75q0 74 55.5 121t145.5 47q99 0 156 -47t57 -132z" />
    <glyph glyph-name="three.st" 
d="M543 168q0 -82 -67.5 -130t-179.5 -48q-93 0 -152 41.5t-59 110.5q0 40 27.5 71t65.5 38l33 -43q-27 -13 -39 -28.5t-12 -36.5q0 -39 33.5 -65t84.5 -26q62 0 96 32.5t34 91.5t-34 88.5t-102 29.5h-13v47h13q63 2 92.5 28t29.5 80q0 44 -28.5 69.5t-77.5 25.5
q-46 0 -75 -20.5t-29 -53.5q0 -19 10 -33t31 -23l-28 -48q-37 8 -59.5 35.5t-22.5 66.5q0 58 54 97t137 39q97 0 155.5 -40t58.5 -109q0 -56 -44 -92.5t-115 -42.5v-2q82 -5 132 -46t50 -104z" />
    <glyph glyph-name="four.st" 
d="M457 211h128v-59h-128v-152h-119v152h-282v42l279 401h122v-384zM140 211h198v283z" />
    <glyph glyph-name="five.st" 
d="M192 594h330l-13 -116h-274l-16 -125q22 14 54 22.5t64 8.5q92 0 149 -49.5t57 -130.5q0 -98 -69.5 -156t-183.5 -58q-91 0 -147 39.5t-56 106.5q0 33 19 59.5t52 39.5l38 -42q-19 -13 -27 -26.5t-8 -31.5q0 -37 31.5 -60t78.5 -23q63 0 99.5 40t36.5 108
q0 54 -31.5 87.5t-84.5 33.5q-32 0 -56.5 -9.5t-46.5 -31.5h-35z" />
    <glyph glyph-name="six.st" 
d="M366 376q80 0 135 -51t55 -133q0 -89 -65 -145.5t-164 -56.5q-108 0 -175.5 80t-67.5 208q0 140 81 233t210 93q78 0 126 -35.5t48 -90.5q0 -28 -14 -49.5t-36 -29.5l-46 29q11 9 16.5 19.5t5.5 24.5q0 34 -25.5 52t-72.5 18q-79 0 -125 -72t-43 -183q16 41 58 65t99 24z
M325 313q-51 0 -78.5 -35t-27.5 -100q0 -64 27.5 -99.5t78.5 -35.5q52 0 79.5 35t27.5 100t-27.5 100t-79.5 35z" />
    <glyph glyph-name="seven.st" 
d="M102 478v116h436v-45l-70 -119q-68 -105 -100 -211t-31 -219h-119q18 118 58.5 215.5t120.5 210.5l33 52h-328z" />
    <glyph glyph-name="eight.st" 
d="M517 464q0 -39 -27.5 -71t-76.5 -52q72 -26 107 -67t35 -100q0 -83 -66.5 -133.5t-172.5 -50.5q-103 0 -166.5 43t-63.5 114q0 48 35.5 84.5t96.5 54.5q-49 24 -75.5 61t-26.5 83q0 78 56.5 126t145.5 48q86 0 142.5 -39t56.5 -101zM320 548q-47 0 -75 -21t-28 -56
q0 -30 20.5 -50.5t76.5 -41.5l48 -16q37 18 56 43t19 55q0 40 -32 63.5t-85 23.5zM444 136q0 33 -22 55t-77 42l-84 31q-46 -19 -70.5 -48t-24.5 -64q0 -49 40 -77t111 -28q57 0 92 24t35 65z" />
    <glyph glyph-name="nine.st" 
d="M274 218q-80 0 -135 51t-55 133q0 89 65 145.5t164 56.5q108 0 175.5 -80t67.5 -208q0 -140 -81 -233t-210 -93q-78 0 -126 35.5t-48 90.5q0 28 14 49.5t36 29.5l46 -29q-11 -9 -16.5 -19.5t-5.5 -24.5q0 -34 25.5 -52t72.5 -18q79 0 125 72t43 183q-16 -41 -58 -65
t-99 -24zM315 281q51 0 78.5 35t27.5 100q0 64 -27.5 99.5t-78.5 35.5q-52 0 -79.5 -35t-27.5 -100t27.5 -100t79.5 -35z" />
    <glyph glyph-name="zero.dnom" horiz-adv-x="436" 
d="M218 -6q-78 0 -126.5 56t-48.5 149t48.5 149t126.5 56q79 0 127.5 -56t48.5 -149q0 -92 -49 -148.5t-127 -56.5zM218 362q-37 0 -53 -38t-16 -125t16 -125t53 -38t53 38t16 125t-16 125t-53 38z" />
    <glyph glyph-name="one.dnom" horiz-adv-x="318" 
d="M234 402v-402h-92v298q-9 -15 -39.5 -40t-52.5 -34l-17 44q32 17 75 58.5t63 75.5h63z" />
    <glyph glyph-name="two.dnom" horiz-adv-x="385" 
d="M323 281q0 -52 -45 -96t-162 -103h218l-7 -82h-302v25l104 101q55 53 75 89t20 75q0 30 -17.5 47.5t-47.5 17.5q-28 0 -44 -15.5t-16 -42.5q0 -15 9 -28.5t26 -24.5l-32 -32q-24 6 -41 29.5t-17 51.5q0 50 37 80.5t99 30.5q65 0 104 -32.5t39 -90.5z" />
    <glyph glyph-name="three.dnom" horiz-adv-x="395" 
d="M350 113q0 -55 -46 -87t-122 -32q-60 0 -99.5 28t-39.5 74q0 28 19.5 49.5t46.5 25.5l25 -31q-19 -9 -27 -19t-8 -25q0 -25 19.5 -40t50.5 -15q38 0 58.5 20.5t20.5 58.5t-19.5 57t-60.5 19h-9v32h9q37 2 54.5 19.5t17.5 52.5q0 28 -18 43.5t-49 15.5q-27 0 -43 -12
t-16 -32q0 -13 7 -22.5t21 -15.5l-22 -33q-26 4 -42 23t-16 46q0 39 36.5 65t91.5 26q65 0 105 -26.5t40 -72.5q0 -38 -29 -62.5t-77 -28.5v-1q54 -3 87.5 -30.5t33.5 -69.5z" />
    <glyph glyph-name="four.dnom" horiz-adv-x="414" 
d="M302 141h80v-41h-80v-100h-92v100h-181v29l177 269h96v-257zM88 141h122v186z" />
    <glyph glyph-name="five.dnom" horiz-adv-x="389" 
d="M108 398h220l-10 -83h-180l-10 -76q16 9 36 14.5t40 5.5q62 0 100.5 -33.5t38.5 -88.5q0 -66 -46.5 -104.5t-123.5 -38.5q-61 0 -98.5 26.5t-37.5 72.5q0 21 11 38t31 27l31 -30q-9 -8 -13.5 -17t-4.5 -20q0 -22 17.5 -35.5t45.5 -13.5q40 0 62 24.5t22 68.5q0 36 -19 57
t-52 21q-18 0 -33 -5.5t-30 -17.5h-23z" />
    <glyph glyph-name="six.dnom" horiz-adv-x="403" 
d="M236 254q52 0 88 -34t36 -88q0 -61 -44 -99.5t-110 -38.5q-72 0 -117.5 54t-45.5 140q0 93 54.5 154.5t140.5 61.5q54 0 86 -24t32 -61q0 -19 -8.5 -33.5t-22.5 -19.5l-38 20q7 6 10.5 13.5t3.5 15.5q0 21 -15.5 32.5t-43.5 11.5q-49 0 -76 -44t-27 -117q10 26 36 41
t61 15zM204 205q-30 0 -45 -21.5t-15 -62.5q0 -42 15.5 -64t44.5 -22q30 0 46 22t16 64q0 41 -16 62.5t-46 21.5z" />
    <glyph glyph-name="seven.dnom" horiz-adv-x="356" 
d="M42 315v83h290v-32l-51 -86q-40 -66 -58 -133.5t-17 -146.5h-92q13 71 38 132.5t77 143.5l24 39h-211z" />
    <glyph glyph-name="eight.dnom" horiz-adv-x="401" 
d="M333 309q0 -25 -16.5 -45t-47.5 -34q45 -18 67.5 -45t22.5 -64q0 -58 -45 -92.5t-117 -34.5q-68 0 -111 29t-43 76q0 31 22.5 55t61.5 35q-33 17 -49.5 41.5t-16.5 55.5q0 53 39 85.5t99 32.5q58 0 96 -26.5t38 -68.5zM199 361q-29 0 -46 -12.5t-17 -34.5q0 -20 15 -33.5
t53 -25.5l28 -10q20 12 31 28.5t11 34.5q0 25 -20 39t-55 14zM274 93q0 20 -14 34.5t-47 26.5l-54 20q-27 -11 -42 -29.5t-15 -42.5q0 -30 25.5 -47t69.5 -17q35 0 56 15t21 40z" />
    <glyph glyph-name="nine.dnom" horiz-adv-x="403" 
d="M199 193q30 0 45 21.5t15 63.5q0 41 -15.5 63t-44.5 22q-31 0 -46.5 -21.5t-15.5 -63.5t15.5 -63.5t46.5 -21.5zM167 144q-52 0 -88 34t-36 89q0 61 43.5 99t110.5 38q72 0 117.5 -54t45.5 -140q0 -93 -54.5 -154.5t-140.5 -61.5q-53 0 -85.5 24t-32.5 62q0 19 8.5 33
t22.5 19l38 -19q-7 -6 -10.5 -13.5t-3.5 -15.5q0 -21 15.5 -33t43.5 -12q49 0 76 44.5t27 117.5q-10 -26 -36 -41.5t-61 -15.5z" />
    <glyph glyph-name="percent.op" horiz-adv-x="896" 
d="M722 637l-481 -647h-65l481 647h65zM216 282q-63 0 -107.5 51t-44.5 125t44.5 125.5t107.5 51.5q64 0 108.5 -51.5t44.5 -125.5t-44.5 -125t-108.5 -51zM216 346q38 0 62 31.5t24 80.5t-24 81t-62 32t-61.5 -31.5t-23.5 -81.5q0 -49 23.5 -80.5t61.5 -31.5zM680 -11
q-63 0 -108 51.5t-45 125.5q0 73 45 124.5t108 51.5q64 0 108 -51t44 -125t-44 -125.5t-108 -51.5zM680 54q38 0 61.5 31.5t23.5 80.5t-23.5 80.5t-61.5 31.5t-61.5 -31t-23.5 -81t23.5 -81t61.5 -31z" />
    <glyph glyph-name="perthousand.op" horiz-adv-x="1285" 
d="M722 637l-481 -647h-65l481 647h65zM216 282q-63 0 -107.5 51t-44.5 125t44.5 125.5t107.5 51.5q64 0 108.5 -51.5t44.5 -125.5t-44.5 -125t-108.5 -51zM216 346q38 0 62 31.5t24 80.5t-24 81t-62 32t-61.5 -31.5t-23.5 -81.5q0 -49 23.5 -80.5t61.5 -31.5zM680 -11
q-63 0 -108 51.5t-45 125.5q0 73 45 124.5t108 51.5q64 0 108 -51t44 -125t-44 -125.5t-108 -51.5zM1053 -11q-63 0 -107.5 51.5t-44.5 125.5q0 73 44.5 124.5t107.5 51.5q64 0 108.5 -51.5t44.5 -124.5q0 -74 -44.5 -125.5t-108.5 -51.5zM680 54q38 0 61.5 31.5t23.5 80.5
t-23.5 80.5t-61.5 31.5t-61.5 -31t-23.5 -81t23.5 -81t61.5 -31zM1053 54q38 0 62 31.5t24 80.5t-24 80.5t-62 31.5t-61.5 -31.5t-23.5 -80.5t23.5 -80.5t61.5 -31.5z" />
    <glyph glyph-name="percent.lt" horiz-adv-x="900" 
d="M177 -10l481 720h65l-481 -720h-65zM240 358q-63 0 -107.5 51t-44.5 125q0 73 44.5 124.5t107.5 51.5q64 0 108.5 -51.5t44.5 -124.5q0 -74 -44.5 -125t-108.5 -51zM240 646q-38 0 -61.5 -31.5t-23.5 -80.5t23.5 -80.5t61.5 -31.5t62 31.5t24 80.5t-24 80.5t-62 31.5z
M658 -11q-63 0 -107.5 51.5t-44.5 125.5q0 73 44.5 124.5t107.5 51.5q64 0 108.5 -51.5t44.5 -124.5q0 -74 -44.5 -125.5t-108.5 -51.5zM658 54q38 0 62 31.5t24 80.5t-24 80.5t-62 31.5t-61.5 -31.5t-23.5 -80.5t23.5 -80.5t61.5 -31.5z" />
    <glyph glyph-name="perthousand.lt" horiz-adv-x="1300" 
d="M254 358q-63 0 -107.5 51t-44.5 125q0 73 44.5 124.5t107.5 51.5q64 0 108.5 -51.5t44.5 -124.5q0 -74 -44.5 -125t-108.5 -51zM191 -10l481 720h65l-481 -720h-65zM254 646q-38 0 -61.5 -31.5t-23.5 -80.5t23.5 -80.5t61.5 -31.5t62 31.5t24 80.5t-24 80.5t-62 31.5z
M672 -11q-63 0 -107.5 51.5t-44.5 125.5q0 73 44.5 124.5t107.5 51.5q64 0 108.5 -51.5t44.5 -124.5q0 -74 -44.5 -125.5t-108.5 -51.5zM1046 -11q-63 0 -108 51.5t-45 125.5q0 73 45 124.5t108 51.5q64 0 108 -51t44 -125t-44 -125.5t-108 -51.5zM1046 54q38 0 61.5 31.5
t23.5 80.5t-23.5 80.5t-61.5 31.5t-61.5 -31t-23.5 -81t23.5 -81t61.5 -31zM672 54q38 0 62 31.5t24 80.5t-24 80.5t-62 31.5t-61.5 -31.5t-23.5 -80.5t23.5 -80.5t61.5 -31.5z" />
    <glyph glyph-name="percent.ot" horiz-adv-x="900" 
d="M724 637l-481 -647h-65l481 647h65zM219 282q-64 0 -108.5 51t-44.5 125t45 125.5t108 51.5q64 0 108 -51.5t44 -125.5t-44 -125t-108 -51zM219 346q38 0 61.5 31.5t23.5 80.5q0 50 -23.5 81.5t-61.5 31.5t-61.5 -31.5t-23.5 -81.5t23.5 -81t61.5 -31zM682 -11
q-63 0 -107.5 51.5t-44.5 125.5q0 73 44.5 124.5t107.5 51.5q64 0 108.5 -51.5t44.5 -124.5q0 -74 -44.5 -125.5t-108.5 -51.5zM682 54q38 0 62 31.5t24 80.5t-24 80.5t-62 31.5t-61.5 -31.5t-23.5 -80.5t23.5 -80.5t61.5 -31.5z" />
    <glyph glyph-name="perthousand.ot" horiz-adv-x="1300" 
d="M737 637l-481 -647h-65l481 647h65zM231 282q-63 0 -107.5 51t-44.5 125t44.5 125.5t107.5 51.5q64 0 108.5 -51.5t44.5 -125.5t-44.5 -125t-108.5 -51zM231 346q38 0 62 31.5t24 80.5t-24 81t-62 32t-61.5 -31.5t-23.5 -81.5q0 -49 23.5 -80.5t61.5 -31.5zM1068 -11
q-63 0 -107.5 51.5t-44.5 125.5q0 73 44.5 124.5t107.5 51.5q64 0 108.5 -51.5t44.5 -124.5q0 -74 -44.5 -125.5t-108.5 -51.5zM695 -11q-63 0 -108 51.5t-45 125.5q0 73 45 124.5t108 51.5q64 0 108 -51t44 -125t-44 -125.5t-108 -51.5zM1068 54q38 0 62 31.5t24 80.5
t-24 80.5t-62 31.5t-61.5 -31.5t-23.5 -80.5t23.5 -80.5t61.5 -31.5zM695 54q38 0 61.5 31.5t23.5 80.5t-23.5 80.5t-61.5 31.5t-61.5 -31t-23.5 -81t23.5 -81t61.5 -31z" />
    <glyph glyph-name="plus.op" horiz-adv-x="635" 
d="M546 341v-67h-194v-194h-68v194h-194v67h194v195h68v-195h194z" />
    <glyph glyph-name="minus.op" horiz-adv-x="635" 
d="M546 277h-456v68h456v-68z" />
    <glyph glyph-name="multiply.op" horiz-adv-x="556" 
d="M92 164l142 141l-142 140l47 48l139 -142l140 142l48 -48l-142 -140l142 -141l-48 -48l-140 142l-139 -142z" />
    <glyph glyph-name="divide.op" horiz-adv-x="635" 
d="M371 440h-105v107h105v-107zM546 274h-456v67h456v-67zM371 68h-105v107h105v-107z" />
    <glyph glyph-name="equal.op" horiz-adv-x="645" 
d="M552 349h-458v65h458v-65zM552 200h-458v65h458v-65z" />
    <glyph glyph-name="less.op" horiz-adv-x="517" 
d="M433 81l-347 181v88l347 180v-79l-283 -145l283 -145v-80z" />
    <glyph glyph-name="greater.op" horiz-adv-x="518" 
d="M84 530l348 -180v-88l-348 -181v80l284 145l-284 145v79z" />
    <glyph glyph-name="plusminus.op" horiz-adv-x="634" 
d="M545 410v-67h-194v-162h-66v162h-194v67h194v161h66v-161h194zM545 65h-454v68h454v-68z" />
    </font>
</defs>
</svg>
