<?xml version="1.0" standalone="no"?>
<!DOCTYPE svg PUBLIC "-//W3C//DTD SVG 20010904//EN"
 "http://www.w3.org/TR/2001/REC-SVG-20010904/DTD/svg10.dtd">
<svg version="1.0" xmlns="http://www.w3.org/2000/svg"
 width="700.000000pt" height="700.000000pt" viewBox="0 0 700.000000 700.000000"
 preserveAspectRatio="xMidYMid meet">
<metadata>
Created by potrace 1.14, written by Peter Selinger 2001-2017
</metadata>
<g transform="translate(0.000000,700.000000) scale(0.100000,-0.100000)"
fill="#000000" stroke="none">
<path d="M3330 4801 c-282 -41 -498 -203 -582 -437 -25 -69 -36 -208 -26 -311
4 -39 22 -111 40 -159 30 -85 35 -92 137 -194 130 -129 169 -152 511 -304 146
-65 295 -135 331 -157 85 -49 150 -113 186 -180 25 -49 28 -64 28 -154 0 -89
-3 -107 -29 -163 -120 -259 -514 -312 -772 -104 -65 53 -163 189 -191 265 -9
26 -21 47 -26 47 -11 0 -264 -156 -286 -176 -11 -10 -7 -25 28 -89 132 -245
333 -399 609 -467 118 -29 355 -31 451 -4 254 70 432 235 519 479 23 65 26 87
26 227 1 166 -7 204 -62 315 -63 127 -187 249 -333 328 -35 20 -183 88 -329
153 -364 161 -421 200 -479 324 -21 45 -25 69 -25 135 1 96 17 138 79 204 73
78 182 121 310 121 132 0 233 -39 323 -124 62 -58 95 -103 150 -204 l38 -71
144 86 c80 47 146 86 148 88 8 7 -65 136 -113 201 -115 154 -296 269 -488 310
-88 18 -242 26 -317 15z"/>
<path d="M367 4753 c-4 -3 -7 -566 -7 -1250 l0 -1243 424 0 c234 0 482 5 553
11 309 26 491 114 611 292 74 112 97 194 96 347 0 109 -4 135 -28 205 -36 105
-87 187 -162 260 -82 80 -163 126 -303 171 -131 41 -141 47 -141 80 0 18 7 25
28 29 124 26 155 40 253 106 139 94 218 253 219 439 0 135 -55 265 -155 366
-107 108 -259 165 -492 184 -139 11 -886 14 -896 3z m782 -273 c246 -26 372
-112 400 -274 21 -123 -22 -266 -108 -353 -52 -53 -82 -69 -178 -94 -65 -16
-111 -19 -325 -19 l-248 0 0 375 0 375 179 0 c98 0 224 -5 280 -10z m21 -1020
c185 -19 286 -57 375 -141 139 -131 176 -373 87 -557 -47 -96 -144 -162 -279
-188 -54 -10 -155 -14 -369 -14 l-294 0 0 455 0 455 193 0 c105 0 235 -5 287
-10z"/>
<path d="M4790 4600 l0 -160 365 0 365 0 2 -1087 3 -1088 180 0 180 0 3 1088
2 1087 365 0 365 0 0 160 0 160 -915 0 -915 0 0 -160z"/>
</g>
</svg>
