<?xml version="1.0" standalone="no"?>
<!DOCTYPE svg PUBLIC "-//W3C//DTD SVG 1.1//EN" "http://www.w3.org/Graphics/SVG/1.1/DTD/svg11.dtd" >
<svg xmlns="http://www.w3.org/2000/svg" xmlns:xlink="http://www.w3.org/1999/xlink" version="1.1">
<metadata>
Created by FontForge 20200427 at Tue Aug 23 11:33:00 2016
 By www
(c) 2014 Klim Type Foundry. All Rights Reserved.
</metadata>
<defs>
<font id="DomaineSansText-Regular" horiz-adv-x="640" >
  <font-face 
    font-family="Copyright Klim Type Foundry"
    font-weight="400"
    font-stretch="normal"
    units-per-em="1000"
    panose-1="2 11 5 3 7 7 2 4 2 3"
    ascent="800"
    descent="-200"
    x-height="487"
    cap-height="700"
    bbox="-154 -270 1276 981"
    underline-thickness="0"
    underline-position="0"
    unicode-range="U+000D-FB04"
  />
<missing-glyph horiz-adv-x="500" 
 />
    <glyph glyph-name="ff" unicode="ff" horiz-adv-x="700" 
d="M206 521v-34h242v75q0 18 2.5 35t6.5 33q-18 32 -49 49t-74 17q-63 0 -95.5 -44.5t-32.5 -130.5zM448 433h-242v-433h-94v433h-80v54h80v23q0 111 59 175t159 64q49 0 87 -16.5t64 -48.5q23 36 61 55t85 19q58 0 94 -28.5t36 -73.5q0 -15 -6 -29.5t-15 -22.5l-46 18
q6 10 7.5 16t1.5 12q0 26 -18 41t-48 15q-44 0 -67.5 -32.5t-23.5 -93.5v-93h145l-5 -54h-140v-433h-94v433z" />
    <glyph glyph-name="fi" unicode="fi" horiz-adv-x="642" 
d="M206 433v-433h-94v433h-80v54h80v31q0 115 60.5 178t168.5 63q78 0 123 -35.5t45 -92.5q0 -20 -10 -42.5t-24 -36.5l-49 19q13 19 17.5 31.5t4.5 26.5q0 37 -26.5 57t-76.5 20q-70 0 -104.5 -43.5t-34.5 -131.5v-44h336v-487h-94v433h-242z" />
    <glyph glyph-name="fl" unicode="fl" horiz-adv-x="642" 
d="M542 0h-94v627q-16 36 -47 57t-69 21q-62 0 -94 -42t-32 -124v-52h156l-5 -54h-151v-433h-94v433h-80v54h80v40q0 107 57 169.5t153 62.5q40 0 76 -16.5t58 -44.5l10 51h76v-749z" />
    <glyph glyph-name="ffi" unicode="ffi" horiz-adv-x="979" 
d="M206 521v-34h242v31q0 28 4 54t12 49q-22 37 -54.5 56t-75.5 19q-63 0 -95.5 -44.5t-32.5 -130.5zM448 433h-242v-433h-94v433h-80v54h80v23q0 111 58.5 175t158.5 64q52 0 92.5 -19.5t68.5 -56.5q30 42 77.5 64t110.5 22q78 0 123 -35.5t45 -92.5q0 -20 -9.5 -41.5
t-24.5 -37.5l-49 19q13 19 17.5 31.5t4.5 26.5q0 37 -26.5 57t-76.5 20q-70 0 -105 -43.5t-35 -131.5v-44h337v-487h-94v433h-243v-433h-94v433z" />
    <glyph glyph-name="ffl" unicode="ffl" horiz-adv-x="979" 
d="M206 521v-34h242v40q0 26 3.5 49.5t10.5 45.5q-20 36 -53 55t-75 19q-63 0 -95.5 -44.5t-32.5 -130.5zM448 433h-242v-433h-94v433h-80v54h80v23q0 111 59 175t159 64q51 0 91 -19t67 -56q28 41 72 63t99 22q40 0 76 -16.5t58 -44.5l10 51h76v-749h-94v627
q-17 37 -47.5 57.5t-68.5 20.5q-62 0 -94.5 -42.5t-32.5 -123.5v-52h157l-5 -54h-152v-433h-94v433z" />
    <glyph glyph-name="f_b" unicode="fb" horiz-adv-x="989" 
d="M721 497q95 0 156.5 -67.5t61.5 -177.5q0 -113 -67 -187.5t-163 -74.5q-58 0 -102 25.5t-65 70.5l-9 -86h-85v627q-16 36 -47 57t-69 21q-62 0 -94 -42t-32 -124v-52h156l-5 -54h-151v-433h-94v433h-80v54h80v40q0 107 57 169.5t153 62.5q40 0 76 -16.5t58 -44.5l10 51
h76v-381q19 58 67.5 93.5t111.5 35.5zM688 436q-62 0 -104 -53.5t-42 -129.5v-49q0 -69 42.5 -113.5t101.5 -44.5q70 0 111.5 54.5t41.5 148.5q0 86 -40.5 136.5t-110.5 50.5z" />
    <glyph glyph-name="f_f_b" unicode="ffb" horiz-adv-x="1326" 
d="M1276 252q0 -113 -67 -187.5t-163 -74.5q-58 0 -102 25.5t-65 70.5l-9 -86h-85v627q-17 37 -47.5 57.5t-68.5 20.5q-62 0 -94.5 -42.5t-32.5 -123.5v-52h157l-5 -54h-152v-433h-94v433h-242v-433h-94v433h-80v54h80v23q0 111 59 175t159 64q51 0 91 -19t67 -56
q28 41 72 63t99 22q40 0 76 -16.5t58 -44.5l10 51h76v-381q19 58 67 93.5t111 35.5q95 0 157 -67.5t62 -177.5zM206 521v-34h242v40q0 26 3.5 49.5t10.5 45.5q-20 36 -53 55t-75 19q-63 0 -95.5 -44.5t-32.5 -130.5zM1025 436q-63 0 -105 -53.5t-42 -129.5v-49
q0 -69 43 -113.5t102 -44.5q70 0 111.5 54.5t41.5 148.5q0 86 -41 136.5t-110 50.5z" />
    <glyph glyph-name="f_h" unicode="fh" horiz-adv-x="970" 
d="M357 433h-151v-433h-94v433h-80v54h80v40q0 107 57 169.5t153 62.5q40 0 76 -16.5t58 -44.5l10 51h76v-377q22 60 68 92.5t108 32.5q75 0 117.5 -46t42.5 -128v-323h-94v305q0 57 -28 90.5t-78 33.5q-59 0 -97.5 -50.5t-38.5 -130.5v-248h-94v627q-16 36 -47 57t-69 21
q-62 0 -94 -42t-32 -124v-52h156z" />
    <glyph glyph-name="f_f_h" unicode="ffh" horiz-adv-x="1307" 
d="M206 521v-34h242v40q0 26 3.5 49.5t10.5 45.5q-20 36 -53 55t-75 19q-63 0 -95.5 -44.5t-32.5 -130.5zM448 433h-242v-433h-94v433h-80v54h80v23q0 111 59 175t159 64q51 0 91 -19t67 -56q28 41 72 63t99 22q40 0 76 -16.5t58 -44.5l10 51h76v-377q22 60 68 92.5
t108 32.5q75 0 117.5 -46t42.5 -128v-323h-94v305q0 57 -28 90.5t-79 33.5q-58 0 -96.5 -50.5t-38.5 -130.5v-248h-94v627q-17 37 -47.5 57.5t-68.5 20.5q-62 0 -94.5 -42.5t-32.5 -123.5v-52h157l-5 -54h-152v-433h-94v433z" />
    <glyph glyph-name="f_idieresis" unicode="f&#xef;" horiz-adv-x="642" 
d="M629 591h-93v114h93v-114zM32 487h80v78q0 86 52 139.5t135 53.5q62 0 99 -31.5t37 -81.5q0 -16 -6 -32t-15 -24l-52 18q6 11 8.5 19t2.5 17q0 30 -18 46.5t-53 16.5q-45 0 -70.5 -33.5t-25.5 -92.5v-93h336v-487h-94v433h-242v-433h-94v433h-80v54z" />
    <glyph glyph-name="f_f_idieresis" unicode="ff&#xef;" horiz-adv-x="979" 
d="M966 591h-93v114h93v-114zM206 521v-34h242v78q0 19 2.5 35.5t7.5 30.5q-22 32 -53 48.5t-71 16.5q-63 0 -95.5 -44.5t-32.5 -130.5zM448 433h-242v-433h-94v433h-80v54h80v23q0 111 58.5 175t158.5 64q48 0 87 -17t66 -49q25 36 65 55.5t88 19.5q63 0 100 -31.5
t37 -81.5q0 -15 -6.5 -31t-15.5 -25l-51 18q6 11 8.5 19t2.5 17q0 30 -18 46.5t-53 16.5q-45 0 -71 -34t-26 -92v-93h337v-487h-94v433h-243v-433h-94v433z" />
    <glyph glyph-name="f_j" unicode="fj" horiz-adv-x="642" 
d="M382 -225q-58 0 -91.5 27t-33.5 73q0 14 5 27t13 22l48 -17q-4 -6 -5.5 -13.5t-1.5 -15.5q0 -24 15.5 -38t42.5 -14q39 0 56.5 27.5t17.5 91.5v488h-242v-433h-94v433h-80v54h80v31q0 115 60.5 178t168.5 63q78 0 123 -35.5t45 -92.5q0 -20 -10 -42.5t-24 -36.5l-49 19
q13 19 17.5 31.5t4.5 26.5q0 37 -26.5 57t-76.5 20q-70 0 -104.5 -43.5t-34.5 -131.5v-44h336v-525q0 -87 -42.5 -137t-117.5 -50z" />
    <glyph glyph-name="f_f_j" unicode="ffj" horiz-adv-x="979" 
d="M206 521v-34h242v31q0 28 4 54t12 49q-22 37 -54.5 56t-75.5 19q-63 0 -95.5 -44.5t-32.5 -130.5zM719 -225q-58 0 -91.5 27t-33.5 73q0 14 4.5 26.5t12.5 22.5l49 -17q-4 -6 -5.5 -13.5t-1.5 -15.5q0 -24 15.5 -38t42.5 -14q39 0 56.5 27.5t17.5 91.5v488h-243v-433h-94
v433h-242v-433h-94v433h-80v54h80v23q0 111 58.5 175t158.5 64q52 0 92.5 -19.5t68.5 -56.5q30 42 77.5 64t110.5 22q78 0 123 -35.5t45 -92.5q0 -20 -9.5 -41.5t-24.5 -37.5l-49 19q13 19 17.5 31.5t4.5 26.5q0 37 -26.5 57t-76.5 20q-70 0 -105 -43.5t-35 -131.5v-44h337
v-525q0 -86 -42.5 -136.5t-117.5 -50.5z" />
    <glyph glyph-name="f_k" unicode="fk" horiz-adv-x="940" 
d="M357 433h-151v-433h-94v433h-80v54h80v40q0 107 57 169.5t153 62.5q40 0 76 -16.5t58 -44.5l10 51h76v-511l268 249h87l-219 -198l226 -289h-111l-180 230l-71 -64v-166h-94v627q-16 36 -47 57t-69 21q-62 0 -94 -42t-32 -124v-52h156z" />
    <glyph glyph-name="f_f_k" unicode="ffk" horiz-adv-x="1277" 
d="M206 521v-34h242v40q0 26 3.5 49.5t10.5 45.5q-20 36 -53 55t-75 19q-63 0 -95.5 -44.5t-32.5 -130.5zM448 433h-242v-433h-94v433h-80v54h80v23q0 111 59 175t159 64q51 0 91 -19t67 -56q28 41 72 63t99 22q40 0 76 -16.5t58 -44.5l10 51h76v-511l268 249h87l-219 -198
l226 -289h-111l-180 230l-71 -64v-166h-94v627q-17 37 -47.5 57.5t-68.5 20.5q-62 0 -94.5 -42.5t-32.5 -123.5v-52h157l-5 -54h-152v-433h-94v433z" />
    <glyph glyph-name=".notdef" horiz-adv-x="500" 
 />
    <glyph glyph-name=".null" horiz-adv-x="0" 
 />
    <glyph glyph-name="nonmarkingreturn" unicode="&#xd;" horiz-adv-x="500" 
 />
    <glyph glyph-name="NULL" horiz-adv-x="500" 
 />
    <glyph glyph-name="NULL" horiz-adv-x="500" 
 />
    <glyph glyph-name="space" unicode=" " horiz-adv-x="286" 
 />
    <glyph glyph-name="exclam" unicode="!" horiz-adv-x="285" 
d="M128 217l-50 483h129l-49 -483h-30zM201 0h-118v124h118v-124z" />
    <glyph glyph-name="quotedbl" unicode="&#x22;" horiz-adv-x="430" 
d="M182 700l-38 -289h-38l-38 289h114zM362 700l-38 -289h-38l-38 289h114z" />
    <glyph glyph-name="numbersign" unicode="#" horiz-adv-x="663" 
d="M250 247h132l30 205h-132zM400 0h-53l28 199h-132l-28 -199h-53l28 199h-148l10 48h145l30 205h-163l9 47h160l29 201h53l-29 -201h132l29 201h53l-29 -201h150l-11 -47h-145l-30 -205h164l-10 -48h-161z" />
    <glyph glyph-name="dollar" unicode="$" horiz-adv-x="613" 
d="M154 535q0 -46 28.5 -72t101.5 -45l2 -1v232q-60 -5 -96 -35.5t-36 -78.5zM477 180q0 47 -26.5 74t-99.5 47l-15 4v-253q66 5 103.5 38.5t37.5 89.5zM336 -9v-112h-50v112q-106 7 -171.5 60t-75.5 141l62 22q16 -77 60.5 -116.5t124.5 -45.5v267l-34 9q-99 26 -142 70
t-43 116q0 81 61.5 135.5t157.5 59.5v108h50v-108q77 -8 135 -51.5t78 -107.5l-58 -36q-16 57 -56 92t-99 42v-244l39 -11q96 -24 142.5 -70t46.5 -117q0 -91 -64 -150t-164 -65z" />
    <glyph glyph-name="percent" unicode="%" horiz-adv-x="833" 
d="M210 365q-63 0 -106.5 49.5t-43.5 122.5t43.5 123t106.5 50q64 0 107.5 -50t43.5 -123t-43.5 -122.5t-107.5 -49.5zM673 710l-453 -720h-59l453 720h59zM210 422q40 0 65 32t25 83t-25 83.5t-65 32.5t-64 -32t-24 -84q0 -51 24 -83t64 -32zM622 -10q-63 0 -106.5 49.5
t-43.5 122.5t43.5 123t106.5 50q64 0 107.5 -50t43.5 -123t-43.5 -122.5t-107.5 -49.5zM622 47q40 0 65 32t25 83t-25 83.5t-65 32.5t-64 -32t-24 -84q0 -51 24 -83t64 -32z" />
    <glyph glyph-name="ampersand" unicode="&#x26;" horiz-adv-x="734" 
d="M207 560q0 -28 12 -51.5t44 -56.5l42 -43q64 28 93 63t29 82q0 45 -30.5 73.5t-81.5 28.5q-50 0 -79 -26.5t-29 -69.5zM146 192q0 -62 42.5 -98.5t110.5 -36.5q41 0 80 17t75 49l-210 214q-51 -24 -74.5 -59.5t-23.5 -85.5zM706 0h-131l-79 81q-49 -45 -103.5 -68
t-112.5 -23q-103 0 -168.5 53t-65.5 139q0 61 43 111t119 80l-27 28q-32 33 -48 69t-16 74q0 73 55 119.5t139 46.5q82 0 133.5 -43t51.5 -111q0 -61 -41.5 -111.5t-110.5 -74.5l171 -175q30 46 48 98t22 100l67 -10q-7 -59 -31.5 -119.5t-62.5 -112.5z" />
    <glyph glyph-name="quotesingle" unicode="'" horiz-adv-x="250" 
d="M182 700l-38 -289h-38l-38 289h114z" />
    <glyph glyph-name="parenleft" unicode="(" horiz-adv-x="376" 
d="M66 297q0 145 61.5 264t174.5 196l34 -41q-98 -72 -147.5 -177t-49.5 -242t49.5 -242t147.5 -177l-34 -41q-113 77 -174.5 196t-61.5 264z" />
    <glyph glyph-name="parenright" unicode=")" horiz-adv-x="376" 
d="M310 297q0 -145 -61.5 -264t-174.5 -196l-34 41q98 72 147.5 177t49.5 242t-49.5 242t-147.5 177l34 41q113 -77 174.5 -196t61.5 -264z" />
    <glyph glyph-name="asterisk" unicode="*" horiz-adv-x="483" 
d="M373 402l-31 -22l-100 125l-101 -125l-32 22l89 135l-150 57l11 36l155 -41l8 160h39l8 -160l155 41l11 -36l-150 -57z" />
    <glyph glyph-name="plus" unicode="+" horiz-adv-x="634" 
d="M545 369v-60h-198v-198h-59v198h-199v60h199v198h59v-198h198z" />
    <glyph glyph-name="comma" unicode="," horiz-adv-x="264" 
d="M132 6h-59v118h118v-132q0 -69 -38.5 -106.5t-109.5 -37.5v50q47 0 68 22.5t21 72.5v13z" />
    <glyph glyph-name="hyphen" unicode="-" horiz-adv-x="395" 
d="M322 249h-249v74h249v-74z" />
    <glyph glyph-name="period" unicode="." horiz-adv-x="264" 
d="M191 0h-118v124h118v-124z" />
    <glyph glyph-name="slash" unicode="/" horiz-adv-x="417" 
d="M80 -153h-70l300 902h70z" />
    <glyph glyph-name="zero" unicode="0" horiz-adv-x="662" 
d="M331 -10q-125 0 -201 99.5t-76 260.5t76 260.5t201 99.5t201.5 -99.5t76.5 -260.5t-76.5 -260.5t-201.5 -99.5zM331 655q-83 0 -126 -78t-43 -227t43 -227t126 -78q82 0 125 78t43 227t-43 227t-125 78z" />
    <glyph glyph-name="one" unicode="1" horiz-adv-x="419" 
d="M307 709v-709h-97v557q-14 -26 -64 -66.5t-89 -56.5l-21 52q58 30 120 92t105 131h46z" />
    <glyph glyph-name="two" unicode="2" horiz-adv-x="575" 
d="M364 272q-32 -31 -77.5 -69.5t-141.5 -115.5h379l-8 -87h-484v35l189 185q95 92 132 159.5t37 136.5q0 61 -35 97t-96 36q-63 0 -100.5 -33.5t-37.5 -92.5q0 -26 15 -52.5t36 -41.5l-38 -39q-33 13 -56.5 51.5t-23.5 81.5q0 80 59.5 133.5t153.5 53.5q102 0 165 -53.5
t63 -141.5q0 -64 -29.5 -119.5t-101.5 -123.5z" />
    <glyph glyph-name="three" unicode="3" horiz-adv-x="591" 
d="M540 198q0 -92 -72.5 -150t-186.5 -58q-103 0 -168 48.5t-65 124.5q0 41 23.5 72t63.5 46l32 -39q-27 -17 -38.5 -35t-11.5 -41q0 -52 43 -86t107 -34q78 0 121 40t43 111q0 75 -46.5 114.5t-134.5 39.5h-16v50h16q81 1 120.5 34.5t39.5 99.5q0 55 -34 87.5t-94 32.5
q-61 0 -98.5 -29t-37.5 -77q0 -21 10 -36t30 -25l-27 -45q-37 12 -58 40.5t-21 68.5q0 66 59.5 112t150.5 46q103 0 163 -46t60 -127q0 -63 -50.5 -107.5t-122.5 -49.5v-2q90 -5 145 -55t55 -125z" />
    <glyph glyph-name="four" unicode="4" horiz-adv-x="639" 
d="M454 251h151v-61h-151v-190h-94v190h-328v46l326 464h96v-449zM113 251h247v353z" />
    <glyph glyph-name="five" unicode="5" horiz-adv-x="576" 
d="M148 700h356l-11 -93h-300l-24 -196q25 20 59 31t72 11q99 0 160.5 -59t61.5 -156q0 -110 -75 -179t-195 -69q-95 0 -156 46.5t-61 119.5q0 35 18 63t52 46l36 -40q-21 -17 -29.5 -32.5t-8.5 -34.5q0 -51 40 -81.5t104 -30.5q77 0 122 51.5t45 142.5q0 70 -39 112
t-107 42q-39 0 -70.5 -14t-57.5 -43h-36z" />
    <glyph glyph-name="six" unicode="6" horiz-adv-x="609" 
d="M343 433q93 0 153.5 -60t60.5 -157q0 -98 -69 -162t-174 -64q-117 0 -188.5 93.5t-71.5 241.5q0 168 86 276.5t226 108.5q82 0 133.5 -40.5t51.5 -101.5q0 -36 -17 -60.5t-46 -33.5l-34 33q14 12 21 25.5t7 28.5q0 44 -30.5 68t-85.5 24q-102 0 -161 -94.5t-53 -244.5
q18 53 70 86t121 33zM313 374q-67 0 -106 -44t-39 -120q0 -75 40 -120.5t105 -45.5q68 0 107 44.5t39 121.5q0 76 -39 120t-107 44z" />
    <glyph glyph-name="seven" unicode="7" horiz-adv-x="538" 
d="M49 607v93h474v-47l-63 -94q-87 -129 -133.5 -273.5t-45.5 -285.5h-92q14 165 62 296t147 271l28 40h-377z" />
    <glyph glyph-name="eight" unicode="8" horiz-adv-x="601" 
d="M511 546q0 -56 -35.5 -98t-97.5 -64q92 -35 132.5 -81.5t40.5 -116.5q0 -85 -71 -140.5t-180 -55.5q-113 0 -181.5 51t-68.5 136q0 59 40 104.5t114 73.5q-59 29 -87.5 71t-28.5 98q0 81 60.5 133.5t153.5 52.5q90 0 149.5 -46.5t59.5 -117.5zM302 656q-58 0 -92 -29.5
t-34 -79.5q0 -42 22.5 -71t71.5 -48l65 -27q58 32 82 66t24 78q0 50 -38 80.5t-101 30.5zM459 173q0 42 -28 71t-93 55l-94 37q-67 -35 -95 -71.5t-28 -84.5q0 -62 49 -99t130 -37q69 0 114 35.5t45 93.5z" />
    <glyph glyph-name="nine" unicode="9" horiz-adv-x="609" 
d="M266 267q-93 0 -153.5 60t-60.5 157q0 98 69 162t174 64q117 0 188.5 -93.5t71.5 -241.5q0 -168 -86 -276.5t-226 -108.5q-82 0 -133.5 40.5t-51.5 101.5q0 36 17 60.5t46 33.5l34 -33q-14 -12 -21 -25.5t-7 -28.5q0 -44 30.5 -68t85.5 -24q102 0 161 94.5t53 244.5
q-18 -53 -70 -86t-121 -33zM296 326q67 0 106 44t39 120q0 75 -40 120.5t-105 45.5q-68 0 -107 -44.5t-39 -121.5q0 -76 39 -120t107 -44z" />
    <glyph glyph-name="colon" unicode=":" horiz-adv-x="264" 
d="M191 0h-118v124h118v-124zM191 313h-118v124h118v-124z" />
    <glyph glyph-name="semicolon" unicode=";" horiz-adv-x="264" 
d="M132 6h-59v118h118v-132q0 -69 -38.5 -106.5t-109.5 -37.5v50q47 0 68 22.5t21 72.5v13zM191 313h-118v124h118v-124z" />
    <glyph glyph-name="less" unicode="&#x3c;" horiz-adv-x="511" 
d="M431 113l-347 186v76l347 186v-71l-290 -153l290 -153v-71z" />
    <glyph glyph-name="equal" unicode="=" horiz-adv-x="650" 
d="M554 380h-458v59h458v-59zM554 237h-458v59h458v-59z" />
    <glyph glyph-name="greater" unicode="&#x3e;" horiz-adv-x="511" 
d="M428 375v-76l-348 -186v71l290 153l-290 153v71z" />
    <glyph glyph-name="question" unicode="?" horiz-adv-x="538" 
d="M395 530q0 54 -37.5 86.5t-101.5 32.5t-101.5 -31.5t-37.5 -86.5q0 -19 8.5 -38.5t23.5 -36.5l-48 -34q-25 20 -39 49t-14 59q0 77 60.5 128.5t155.5 51.5q102 0 164 -54t62 -138q0 -82 -56 -141t-154 -83v-92h-52v171q77 15 122 56.5t45 100.5zM311 0h-118v122h118v-122
z" />
    <glyph glyph-name="at" unicode="@" horiz-adv-x="972" 
d="M650 427h61l-65 -267q-11 -43 4 -65.5t53 -22.5q65 0 108 63t43 169q0 138 -94 219t-248 81q-163 0 -272 -112.5t-109 -282.5q0 -161 103.5 -260t270.5 -99q84 0 148 19t122 61l27 -37q-58 -46 -134 -69.5t-163 -23.5q-192 0 -314 113.5t-122 295.5q0 92 32.5 174
t94.5 144t143.5 95.5t172.5 33.5q174 0 286.5 -97.5t112.5 -254.5q0 -57 -13.5 -105t-39.5 -86q-31 -44 -76 -69t-93 -25q-56 0 -90 28.5t-36 77.5q-22 -47 -62.5 -75.5t-87.5 -28.5q-61 0 -98.5 41t-37.5 108q0 108 67 187t161 79q45 0 76 -22t38 -58zM441 77q44 0 79 38
t50 103l12 48q13 55 -5.5 89.5t-59.5 34.5q-59 0 -103 -66.5t-44 -153.5q0 -43 19 -68t52 -25z" />
    <glyph glyph-name="A" unicode="A" horiz-adv-x="730" 
d="M225 274h243l-122 288zM691 0h-106l-93 218h-290l-92 -218h-71l303 706h47z" />
    <glyph glyph-name="B" unicode="B" horiz-adv-x="692" 
d="M634 189q0 -91 -68 -140t-189 -49h-269v700h245q121 0 186.5 -45.5t65.5 -131.5q0 -67 -50 -111.5t-127 -49.5v-2q95 -3 150.5 -48.5t55.5 -122.5zM338 642h-132v-253h130q84 0 125.5 32t41.5 96q0 62 -42 93.5t-123 31.5zM532 193q0 68 -47 102.5t-140 34.5h-139v-272
h152q86 0 130 34t44 101z" />
    <glyph glyph-name="C" unicode="C" horiz-adv-x="721" 
d="M400 -10q-151 0 -252 100.5t-101 254.5q0 157 102 261t254 104q94 0 164.5 -41t114.5 -121l-49 -48q-38 74 -93 109.5t-131 35.5q-113 0 -181.5 -80.5t-68.5 -215.5q0 -132 70.5 -212.5t179.5 -80.5q78 0 132.5 35.5t92.5 110.5l49 -34q-46 -89 -116.5 -133.5
t-166.5 -44.5z" />
    <glyph glyph-name="D" unicode="D" horiz-adv-x="760" 
d="M713 352q0 -163 -103.5 -257.5t-280.5 -94.5h-221v700h214q181 0 286 -93.5t105 -254.5zM605 352q0 138 -76.5 214.5t-214.5 76.5h-108v-586h113q137 0 211.5 76.5t74.5 218.5z" />
    <glyph glyph-name="E" unicode="E" horiz-adv-x="663" 
d="M603 0h-495v700h482v-60h-384v-250h286v-60h-286v-270h397v-60z" />
    <glyph glyph-name="F" unicode="F" horiz-adv-x="621" 
d="M206 0h-98v700h465v-60h-367v-262h286v-61h-286v-317z" />
    <glyph glyph-name="G" unicode="G" horiz-adv-x="780" 
d="M694 324v-324h-45l-35 104q-28 -50 -87.5 -82t-129.5 -32q-154 0 -252 99t-98 256t104 261t258 104q95 0 165.5 -40.5t116.5 -120.5l-49 -50q-40 76 -95.5 111.5t-131.5 35.5q-114 0 -185 -81t-71 -216t69 -215t184 -80q77 0 130 46t53 114v110h99z" />
    <glyph glyph-name="H" unicode="H" horiz-adv-x="822" 
d="M206 0h-98v700h98v-311h410v311h98v-700h-98v331h-410v-331z" />
    <glyph glyph-name="I" unicode="I" horiz-adv-x="315" 
d="M108 700h98v-700h-98v700z" />
    <glyph glyph-name="J" unicode="J" horiz-adv-x="596" 
d="M259 54q70 0 107 45.5t37 131.5v469h98v-472q0 -107 -66.5 -172.5t-172.5 -65.5q-92 0 -152 52t-60 128q0 42 16.5 74t52.5 58l43 -39q-23 -22 -32.5 -43t-9.5 -46q0 -53 39 -86.5t100 -33.5z" />
    <glyph glyph-name="K" unicode="K" horiz-adv-x="738" 
d="M698 0h-124l-277 346l-91 -86v-260h-98v700h98v-362l372 362h94l-306 -289z" />
    <glyph glyph-name="L" unicode="L" horiz-adv-x="630" 
d="M574 0h-466v700h98v-640h368v-60z" />
    <glyph glyph-name="M" unicode="M" horiz-adv-x="925" 
d="M238 700l231 -554l226 554h122v-700h-98v600l-253 -605h-34l-254 605v-600h-70v700h130z" />
    <glyph glyph-name="N" unicode="N" horiz-adv-x="794" 
d="M201 700l415 -517v517h70v-703h-39l-469 583v-580h-70v700h93z" />
    <glyph glyph-name="O" unicode="O" horiz-adv-x="791" 
d="M396 -10q-149 0 -249 103.5t-100 256.5t100 256.5t249 103.5t248.5 -103.5t99.5 -256.5t-99.5 -256.5t-248.5 -103.5zM396 654q-110 0 -174 -82t-64 -222t64 -222t174 -82t174 82t64 222t-64 222t-174 82z" />
    <glyph glyph-name="P" unicode="P" horiz-adv-x="652" 
d="M622 490q0 -99 -71 -153.5t-198 -54.5h-147v-282h-98v700h245q129 0 199 -54.5t70 -155.5zM206 642v-301h129q94 0 139 36.5t45 112.5q0 78 -45 115t-139 37h-129z" />
    <glyph glyph-name="Q" unicode="Q" horiz-adv-x="791" 
d="M631 -144q-61 0 -107.5 34.5t-78.5 102.5q-12 -2 -24 -2.5t-25 -0.5q-149 0 -249 103.5t-100 256.5t100 256.5t249 103.5t248.5 -103.5t99.5 -256.5q0 -119 -63 -212t-169 -129q22 -48 49.5 -69t68.5 -21q29 0 50.5 20.5t22.5 52.5l56 -17q-4 -53 -41 -86t-87 -33z
M396 654q-110 0 -174 -82t-64 -222t64 -222t174 -82t174 82t64 222t-64 222t-174 82z" />
    <glyph glyph-name="R" unicode="R" horiz-adv-x="733" 
d="M358 642h-152v-275h152q86 0 130.5 36t44.5 106q0 66 -44.5 99.5t-130.5 33.5zM342 309h-136v-309h-98v700h270q126 0 194 -48.5t68 -140.5q0 -80 -55 -126t-145 -48v-3q60 -8 94 -35.5t55 -89.5l40 -109q10 -28 24 -53t33 -47h-110q-12 16 -24.5 42t-20.5 50l-42 113
q-22 62 -53 83t-94 21z" />
    <glyph glyph-name="S" unicode="S" horiz-adv-x="631" 
d="M313 53q77 0 121.5 33.5t44.5 92.5q0 47 -29.5 75.5t-100.5 47.5l-96 26q-102 27 -144.5 70.5t-42.5 116.5q0 85 69 140t175 55q83 0 150 -34.5t102 -93.5l-49 -47q-30 55 -83 85t-120 30q-68 0 -109.5 -31t-41.5 -83q0 -46 28 -72.5t102 -45.5l94 -25q99 -26 144 -71
t45 -116q0 -96 -73.5 -156t-185.5 -60q-93 0 -170.5 41.5t-112.5 110.5l50 42q38 -64 98 -97.5t135 -33.5z" />
    <glyph glyph-name="T" unicode="T" horiz-adv-x="734" 
d="M416 0h-98v641h-269v59h636v-59h-269v-641z" />
    <glyph glyph-name="U" unicode="U" horiz-adv-x="759" 
d="M593 280v420h70v-431q0 -129 -75 -204t-201 -75q-140 0 -215.5 73t-75.5 206v431h98v-420q0 -106 53 -164t148 -58q98 0 148 56t50 166z" />
    <glyph glyph-name="V" unicode="V" horiz-adv-x="730" 
d="M691 700l-303 -706h-47l-302 706h104l239 -570l237 570h72z" />
    <glyph glyph-name="W" unicode="W" horiz-adv-x="996" 
d="M710 -6h-47l-161 488l-161 -488h-46l-256 706h100l196 -551l137 424l-42 127h96l174 -544l188 544h69z" />
    <glyph glyph-name="X" unicode="X" horiz-adv-x="726" 
d="M341 320l-234 -320h-79l274 371l-249 329h114l202 -267l193 267h78l-233 -316l291 -384h-115z" />
    <glyph glyph-name="Y" unicode="Y" horiz-adv-x="693" 
d="M150 700l217 -339l215 339h77l-263 -408v-292h-98v292l-263 408h115z" />
    <glyph glyph-name="Z" unicode="Z" horiz-adv-x="703" 
d="M175 60h465v-60h-589v45l461 595h-437v60h561v-45z" />
    <glyph glyph-name="bracketleft" unicode="[" horiz-adv-x="361" 
d="M313 -154h-212v903h212v-39l-144 -11v-802l144 -12v-39z" />
    <glyph glyph-name="backslash" unicode="\" horiz-adv-x="417" 
d="M107 749l300 -902h-70l-300 902h70z" />
    <glyph glyph-name="bracketright" unicode="]" horiz-adv-x="361" 
d="M48 -115l144 12v802l-144 11v39h212v-903h-212v39z" />
    <glyph glyph-name="asciicircum" unicode="^" horiz-adv-x="514" 
d="M48 352l183 348h52l183 -348h-66l-143 272l-143 -272h-66z" />
    <glyph glyph-name="underscore" unicode="_" horiz-adv-x="480" 
d="M430 -138h-380v66h380v-66z" />
    <glyph glyph-name="grave" unicode="`" horiz-adv-x="500" 
d="M333 561h-48l-122 188h105z" />
    <glyph glyph-name="a" unicode="a" horiz-adv-x="565" 
d="M383 230v13l-80 -13q-82 -13 -116.5 -37.5t-34.5 -65.5q0 -36 21.5 -55.5t62.5 -19.5q58 0 102.5 53t44.5 125zM295 275l88 15v37q0 58 -29.5 85.5t-92.5 27.5q-48 0 -77.5 -19t-29.5 -51q0 -9 3 -17.5t9 -16.5l-49 -33q-14 13 -21.5 30t-7.5 35q0 57 50 93t134 36
q99 0 151.5 -43t52.5 -123v-331h-83l-9 115q-18 -53 -68.5 -89t-113.5 -36q-65 0 -104.5 35t-39.5 94q0 62 50 97.5t187 58.5z" />
    <glyph glyph-name="b" unicode="b" 
d="M360 -10q-58 0 -102 25.5t-65 70.5l-9 -86h-85v749h94v-381q19 58 67.5 93.5t111.5 35.5q95 0 156.5 -67.5t61.5 -177.5q0 -113 -67 -187.5t-163 -74.5zM339 436q-62 0 -104 -53.5t-42 -129.5v-49q0 -69 42.5 -113.5t101.5 -44.5q70 0 111.5 54.5t41.5 148.5
q0 86 -40.5 136.5t-110.5 50.5z" />
    <glyph glyph-name="c" unicode="c" horiz-adv-x="541" 
d="M421 346q0 44 -30 70.5t-83 26.5q-71 0 -115.5 -54.5t-44.5 -141.5q0 -94 41 -145.5t115 -51.5q55 0 91 28.5t55 86.5l45 -14q-17 -75 -73 -118t-137 -43q-104 0 -169.5 67.5t-65.5 178.5q0 114 71.5 187.5t181.5 73.5q82 0 130.5 -41.5t48.5 -108.5q0 -25 -10 -48
t-27 -38l-42 34q9 12 13.5 25t4.5 26z" />
    <glyph glyph-name="d" unicode="d" horiz-adv-x="632" 
d="M301 51q63 0 105 53t42 129v50q0 69 -43 114t-102 45q-70 0 -111.5 -55t-41.5 -150q0 -86 41 -136t110 -50zM279 497q59 0 102 -24.5t66 -70.5v347h94v-749h-90l-4 119q-19 -59 -67 -94t-112 -35q-95 0 -156.5 68t-61.5 177q0 113 66.5 187.5t162.5 74.5z" />
    <glyph glyph-name="e" unicode="e" horiz-adv-x="552" 
d="M456 165l45 -14q-18 -77 -73.5 -119t-139.5 -42q-104 0 -171 68.5t-67 178.5q0 114 67 187t168 73q103 0 160.5 -66t57.5 -183h-356q1 -95 43 -146.5t119 -51.5q55 0 90 27.5t57 87.5zM284 445q-55 0 -90.5 -39t-43.5 -110h253q-2 74 -32 111.5t-87 37.5z" />
    <glyph glyph-name="f" unicode="f" horiz-adv-x="363" 
d="M296 706q-44 0 -67 -32.5t-23 -93.5v-93h144l-5 -54h-139v-433h-94v433h-80v54h80v78q0 87 48.5 140t130.5 53q57 0 93 -28.5t36 -73.5q0 -15 -5.5 -29.5t-14.5 -22.5l-47 18q5 7 7 13.5t2 14.5q0 26 -18 41t-48 15z" />
    <glyph glyph-name="g" unicode="g" horiz-adv-x="589" 
d="M273 221q48 0 76.5 30.5t28.5 84.5t-28.5 84.5t-76.5 30.5q-47 0 -75.5 -30.5t-28.5 -84.5t28.5 -84.5t75.5 -30.5zM550 -46q0 -80 -79.5 -129.5t-198.5 -49.5q-117 0 -183 35.5t-66 99.5q0 41 36.5 68.5t100.5 34.5q-43 8 -67 32t-24 60q0 33 21.5 58.5t61.5 41.5
q-37 22 -57.5 56.5t-20.5 74.5q0 69 56 115t143 46q34 0 64.5 -7.5t56.5 -22.5q34 40 64 57.5t63 17.5q31 0 50.5 -18t19.5 -48q0 -17 -6 -33t-16 -27l-45 25q4 5 6.5 12t2.5 13q0 11 -6 17t-17 6q-17 0 -35.5 -12.5t-41.5 -39.5q21 -21 31.5 -47t10.5 -54q0 -69 -57 -115.5
t-145 -46.5q-24 0 -45.5 4t-41.5 11q-24 -12 -35.5 -25t-11.5 -27q0 -22 18 -33t53 -11h159q86 0 133.5 -36.5t47.5 -102.5zM466 -70q0 36 -26.5 55t-78.5 19h-128q-59 -1 -97.5 -25.5t-38.5 -63.5q0 -41 47.5 -64.5t128.5 -23.5q88 0 140.5 27.5t52.5 75.5z" />
    <glyph glyph-name="h" unicode="h" horiz-adv-x="621" 
d="M99 0v749h94v-377q22 60 68 92.5t108 32.5q75 0 117.5 -46t42.5 -128v-323h-94v305q0 57 -28 90.5t-78 33.5q-59 0 -97.5 -50.5t-38.5 -130.5v-248h-94z" />
    <glyph glyph-name="i" unicode="i" horiz-adv-x="293" 
d="M197 593h-101v122h101v-122zM99 487h94v-487h-94v487z" />
    <glyph glyph-name="j" unicode="j" horiz-adv-x="293" 
d="M197 593h-101v122h101v-122zM193 487v-525q0 -87 -42.5 -137t-117.5 -50q-58 0 -91.5 27t-33.5 73q0 14 5 27t13 22l48 -17q-4 -6 -5.5 -13.5t-1.5 -15.5q0 -24 15.5 -38t42.5 -14q39 0 56.5 27.5t17.5 91.5v542h94z" />
    <glyph glyph-name="k" unicode="k" horiz-adv-x="591" 
d="M555 0h-111l-180 230l-71 -64v-166h-94v749h94v-511l268 249h87l-219 -198z" />
    <glyph glyph-name="l" unicode="l" horiz-adv-x="293" 
d="M99 749h94v-749h-94v749z" />
    <glyph glyph-name="m" unicode="m" horiz-adv-x="925" 
d="M643 429q-55 0 -92 -51.5t-37 -131.5v-246h-94v305q0 60 -24.5 92t-72.5 32q-56 0 -93 -51.5t-37 -131.5v-246h-94v487h90l4 -116q21 60 65 93t103 33q63 0 101 -33t47 -95q21 60 66.5 94t105.5 34q73 0 113.5 -46t40.5 -128v-323h-94v305q0 60 -25 92t-73 32z" />
    <glyph glyph-name="n" unicode="n" horiz-adv-x="621" 
d="M329 429q-59 0 -97.5 -50.5t-38.5 -130.5v-248h-94v487h90l4 -115q22 60 68 92.5t108 32.5q75 0 117.5 -46t42.5 -128v-323h-94v305q0 57 -28 90.5t-78 33.5z" />
    <glyph glyph-name="o" unicode="o" horiz-adv-x="592" 
d="M542 243q0 -109 -70 -181t-176 -72t-176 72t-70 181t70 181.5t176 72.5t176 -72.5t70 -181.5zM441 243q0 95 -38 148t-107 53t-107.5 -53t-38.5 -148t38.5 -148t107.5 -53t107 53t38 148z" />
    <glyph glyph-name="p" unicode="p" 
d="M339 436q-62 0 -104 -53.5t-42 -129.5v-49q0 -69 42.5 -113.5t101.5 -44.5q70 0 111.5 54.5t41.5 148.5q0 86 -40.5 136.5t-110.5 50.5zM360 -10q-57 0 -101 25.5t-66 70.5v-301h-94v702h90l4 -118q19 58 67.5 93t111.5 35q95 0 156.5 -67.5t61.5 -177.5
q0 -113 -67 -187.5t-163 -74.5z" />
    <glyph glyph-name="q" unicode="q" 
d="M280 497q59 0 102 -24.5t66 -71.5l5 86h88v-702h-93v334q-20 -60 -67 -94.5t-111 -34.5q-96 0 -158 67.5t-62 177.5q0 113 67 187.5t163 74.5zM302 51q62 0 104 53.5t42 129.5v48q0 69 -43 114.5t-102 45.5q-70 0 -111.5 -55.5t-41.5 -149.5q0 -85 41 -135.5t111 -50.5z
" />
    <glyph glyph-name="r" unicode="r" horiz-adv-x="505" 
d="M189 487l4 -141q23 69 67 110.5t98 41.5q50 0 80 -29t30 -77q0 -24 -8.5 -45.5t-22.5 -34.5l-46 35q6 8 9.5 18.5t3.5 22.5q0 24 -14 37.5t-40 13.5q-56 0 -106.5 -74.5t-50.5 -156.5v-208h-94v487h90z" />
    <glyph glyph-name="s" unicode="s" horiz-adv-x="511" 
d="M253 442q-46 0 -73 -18t-27 -49q0 -27 17.5 -42t65.5 -28l83 -20q73 -19 104.5 -50.5t31.5 -86.5q0 -69 -55 -113.5t-140 -44.5q-74 0 -131 31t-85 86l43 41q31 -51 75 -77t98 -26q50 0 80.5 20.5t30.5 55.5q0 30 -18.5 46.5t-72.5 30.5l-72 17q-71 17 -103.5 49
t-32.5 85q0 66 51 107t130 41q63 0 112.5 -25.5t82.5 -75.5l-39 -47q-23 43 -65 68t-91 25z" />
    <glyph glyph-name="t" unicode="t" horiz-adv-x="433" 
d="M106 433h-79v54h79l3 130l91 34v-164h173l-5 -54h-168v-297q0 -42 18 -63.5t52 -21.5q36 0 54.5 26t24.5 84l50 -6q-4 -77 -44.5 -121t-109.5 -44q-66 0 -103.5 37t-37.5 102z" />
    <glyph glyph-name="u" unicode="u" horiz-adv-x="613" 
d="M284 58q58 0 96.5 51.5t38.5 132.5v245h94v-487h-90l-4 119q-22 -63 -66 -96t-106 -33q-70 0 -112.5 47.5t-42.5 126.5v323h94v-306q0 -61 25 -92t73 -31z" />
    <glyph glyph-name="v" unicode="v" horiz-adv-x="532" 
d="M505 487l-216 -491h-46l-216 491h102l154 -361l152 361h70z" />
    <glyph glyph-name="w" unicode="w" horiz-adv-x="772" 
d="M543 -5h-38l-121 321l-124 -321h-38l-195 492h100l134 -352l94 259l-35 93h97l122 -350l138 350h68z" />
    <glyph glyph-name="x" unicode="x" horiz-adv-x="559" 
d="M522 0h-108l-147 206l-156 -206h-74l195 254l-166 233h107l122 -170l127 170h72l-165 -217z" />
    <glyph glyph-name="y" unicode="y" horiz-adv-x="532" 
d="M101 -225q-45 0 -74.5 26.5t-29.5 67.5q0 13 3 25t9 23l59 -15q-4 -13 -5 -18.5t-1 -11.5q0 -18 11.5 -29.5t29.5 -11.5q32 0 55.5 28t63.5 121l19 43l-214 464h102l160 -356l145 356h71l-230 -536q-40 -94 -80.5 -135t-93.5 -41z" />
    <glyph glyph-name="z" unicode="z" horiz-adv-x="535" 
d="M55 0v33l297 398h-280v56h402v-32l-295 -399h301v-56h-425z" />
    <glyph glyph-name="braceleft" unicode="{" horiz-adv-x="430" 
d="M180 148q0 62 -27.5 91t-96.5 31v52q69 2 96.5 31t27.5 91q0 11 -1.5 25t-6.5 45q-6 36 -8 53.5t-2 31.5q0 66 45 108t118 42q14 0 29 -2t28 -6l-7 -42q-70 11 -107.5 -15.5t-37.5 -88.5q0 -9 1.5 -23.5t7.5 -47.5q6 -38 8 -56t2 -30q0 -60 -35 -98t-87 -44q52 -6 87 -44
t35 -98q0 -12 -2 -30t-8 -56q-6 -33 -7.5 -47.5t-1.5 -23.5q0 -62 37.5 -88t107.5 -15l7 -43q-17 -4 -31 -6t-26 -2q-73 0 -118 42t-45 109q0 14 2 31.5t8 52.5q5 31 6.5 45t1.5 25z" />
    <glyph glyph-name="bar" unicode="|" horiz-adv-x="280" 
d="M173 -153h-66v902h66v-902z" />
    <glyph glyph-name="braceright" unicode="}" horiz-adv-x="430" 
d="M250 148q0 -11 1.5 -25t6.5 -45q6 -35 8 -52.5t2 -31.5q0 -67 -45 -109t-118 -42q-12 0 -26 2t-31 6l7 43q70 -11 107.5 15t37.5 88q0 9 -1.5 23.5t-7.5 47.5q-6 38 -8 56t-2 30q0 60 35 98t87 44q-52 6 -87 44t-35 98q0 12 2 30t8 56q6 33 7.5 47.5t1.5 23.5
q0 62 -37.5 88.5t-107.5 15.5l-7 42q13 4 28 6t29 2q73 0 118 -42t45 -108q0 -14 -2 -31.5t-8 -53.5q-5 -31 -6.5 -45t-1.5 -25q0 -62 27.5 -91t96.5 -31v-52q-69 -2 -96.5 -31t-27.5 -91z" />
    <glyph glyph-name="asciitilde" unicode="~" horiz-adv-x="572" 
d="M366 249q-17 0 -35 6t-53 24q-33 18 -50.5 23.5t-32.5 5.5q-21 0 -36 -14t-27 -47h-59q14 57 50 91t82 34q17 0 35 -6t53 -24q34 -18 51.5 -23.5t32.5 -5.5q21 0 35.5 13.5t27.5 47.5h59q-14 -57 -50 -91t-83 -34z" />
    <glyph glyph-name="uni00A0" unicode="&#xa0;" horiz-adv-x="500" 
 />
    <glyph glyph-name="exclamdown" unicode="&#xa1;" horiz-adv-x="285" 
d="M160 334l49 -483h-129l50 483h30zM203 427h-118v124h118v-124z" />
    <glyph glyph-name="cent" unicode="&#xa2;" horiz-adv-x="556" 
d="M461 172l45 -13q-16 -77 -71.5 -122t-135.5 -47l-9 -104h-45l9 107q-93 13 -148.5 81.5t-55.5 173.5q0 116 69.5 192.5t178.5 81.5l8 94h45l-8 -96q70 -8 110.5 -50.5t40.5 -105.5q0 -25 -11 -49.5t-27 -39.5l-42 35q9 12 14 26t5 28q0 40 -25.5 68t-69.5 34l-34 -415h6
q58 0 95.5 30t55.5 91zM149 260q0 -81 28.5 -133.5t81.5 -68.5l34 408q-66 -9 -105 -65t-39 -141z" />
    <glyph glyph-name="sterling" unicode="&#xa3;" horiz-adv-x="659" 
d="M634 112q0 -58 -42.5 -97.5t-104.5 -39.5q-21 0 -42.5 4.5t-42.5 13.5q-17 8 -35 18.5t-39 25.5q-14 11 -37.5 29t-30.5 24q-24 -50 -58.5 -75t-80.5 -25t-74.5 28.5t-28.5 74.5t32.5 76.5t81.5 30.5q19 0 38.5 -5.5t43.5 -16.5q1 17 1.5 28.5t0.5 21.5q0 18 -1 40t-4 48
h-115v48h110q-5 48 -6.5 73t-1.5 46q0 103 60.5 165t160.5 62q80 0 129 -39.5t49 -100.5q0 -35 -19.5 -65t-46.5 -40l-35 32q18 16 26.5 33.5t8.5 38.5q0 38 -29.5 61.5t-77.5 23.5q-58 0 -88 -38.5t-30 -113.5v-138h160v-48h-161q-3 -55 -9.5 -98t-16.5 -77q74 -45 118 -60
t88 -15q53 0 77 30.5t11 80.5l41 6q8 -12 14 -33.5t6 -37.5zM74 91q0 -23 13.5 -36.5t34.5 -13.5q31 0 52 21.5t32 64.5q-20 11 -37.5 16.5t-35.5 5.5q-26 0 -42.5 -16t-16.5 -42z" />
    <glyph glyph-name="yen" unicode="&#xa5;" horiz-adv-x="673" 
d="M586 250v-47h-200v-203h-98v203h-199v47h199v42l-32 55h-167v47h139l-181 306h115l196 -339l193 339h76l-181 -306h140v-47h-168l-32 -55v-42h200z" />
    <glyph glyph-name="section" unicode="&#xa7;" horiz-adv-x="605" 
d="M210 235l148 -117q36 -28 46 -37.5t18 -17.5q25 9 38 28t13 48q0 25 -17.5 50.5t-59.5 60.5l-149 117q-28 22 -40.5 33.5t-22.5 21.5q-26 -9 -39 -28t-13 -48q0 -25 17.5 -50.5t60.5 -60.5zM478 -69q0 -67 -51 -111.5t-127 -44.5q-64 0 -113 27.5t-81 81.5l42 43
q22 -45 62.5 -71t88.5 -26q44 0 71.5 24.5t27.5 63.5q0 32 -18.5 58.5t-75.5 70.5l-136 104q-57 43 -84.5 84.5t-27.5 83.5q0 52 25 90.5t69 55.5q-11 19 -16.5 40.5t-5.5 48.5q0 67 50.5 111.5t126.5 44.5q64 0 113.5 -27.5t81.5 -81.5l-42 -43q-22 45 -62.5 71t-88.5 26
q-45 0 -72 -24.5t-27 -63.5q0 -33 18.5 -59.5t74.5 -69.5l137 -104q56 -43 83.5 -84.5t27.5 -83.5q0 -52 -24.5 -90.5t-68.5 -55.5q11 -19 16.5 -40.5t5.5 -48.5z" />
    <glyph glyph-name="dieresis" unicode="&#xa8;" horiz-adv-x="500" 
d="M208 591h-93v114h93v-114zM386 591h-93v114h93v-114z" />
    <glyph glyph-name="copyright" unicode="&#xa9;" horiz-adv-x="810" 
d="M405 710q152 0 256 -103t104 -257t-104 -257t-256 -103t-256 103t-104 257t104 257t256 103zM405 20q138 0 233.5 95t95.5 235t-95.5 235t-233.5 95t-233.5 -95t-95.5 -235t95.5 -235t233.5 -95zM417 132q-92 0 -153.5 60t-61.5 153q0 95 62 157.5t155 62.5
q57 0 99.5 -24t68.5 -71l-31 -35q-23 43 -55 63.5t-75 20.5q-64 0 -102 -45.5t-38 -124.5q0 -78 38.5 -123.5t101.5 -45.5q45 0 76.5 20t53.5 63l32 -28q-27 -51 -70.5 -77t-100.5 -26z" />
    <glyph glyph-name="ordfeminine" unicode="&#xaa;" horiz-adv-x="415" 
d="M270 520v11l-51 -9q-52 -9 -74 -25t-22 -44q0 -23 14.5 -36t40.5 -13q37 0 64.5 34t27.5 82zM210 556l60 10v26q0 39 -20 57t-62 18q-32 0 -51.5 -12.5t-19.5 -33.5q0 -8 3 -15t9 -14l-38 -26q-12 9 -19 23t-7 30q0 40 36.5 65.5t98.5 25.5q74 0 112 -31t38 -92v-226h-73
l-6 77q-12 -37 -47 -60.5t-78 -23.5q-46 0 -74.5 24.5t-28.5 65.5q0 44 36 70t131 42zM358 222h-301v48h301v-48z" />
    <glyph glyph-name="guillemotleft" unicode="&#xab;" horiz-adv-x="637" 
d="M274 32l-218 208v8l218 208h62l-170 -212l170 -212h-62zM519 32l-218 208v8l218 208h62l-170 -212l170 -212h-62z" />
    <glyph glyph-name="registered" unicode="&#xae;" horiz-adv-x="542" 
d="M55 494q0 92 62.5 154t153.5 62t153.5 -62t62.5 -154t-62.5 -154t-153.5 -62t-153.5 62t-62.5 154zM81 494q0 -82 54.5 -136.5t135.5 -54.5t135.5 54.5t54.5 136.5t-54.5 136.5t-135.5 54.5t-135.5 -54.5t-54.5 -136.5zM264 590h-40v-86h40q27 0 40 11t13 33
q0 20 -13.5 31t-39.5 11zM258 480h-34v-102h-47v236h102q41 0 64 -16.5t23 -47.5q0 -26 -19.5 -42t-50.5 -17v-1q21 -2 34 -12t19 -29l12 -33q4 -11 8 -19t12 -19h-52q-5 7 -8.5 15.5t-6.5 17.5l-14 39q-6 17 -15 23.5t-27 6.5z" />
    <glyph glyph-name="macron" unicode="&#xaf;" horiz-adv-x="500" 
d="M390 647v-57h-280v57h280z" />
    <glyph glyph-name="degree" unicode="&#xb0;" horiz-adv-x="389" 
d="M60 575q0 56 39 95.5t95 39.5t95.5 -39.5t39.5 -95.5t-39.5 -95t-95.5 -39q-55 0 -94.5 39.5t-39.5 94.5zM114 575q0 -33 23.5 -56.5t56.5 -23.5q34 0 57.5 23t23.5 57t-23.5 57.5t-57.5 23.5t-57 -23.5t-23 -57.5z" />
    <glyph glyph-name="plusminus" unicode="&#xb1;" horiz-adv-x="637" 
d="M547 435v-60h-198v-168h-59v168h-199v60h199v167h59v-167h198zM547 98h-456v61h456v-61z" />
    <glyph glyph-name="twosuperior" unicode="&#xb2;" horiz-adv-x="374" 
d="M312 588q0 -51 -39.5 -95.5t-162.5 -122.5h215l-5 -68h-291v23l106 102q55 54 75 91t20 76q0 32 -18.5 50.5t-50.5 18.5q-31 0 -48.5 -17t-17.5 -47q0 -15 8.5 -28.5t23.5 -24.5l-29 -28q-22 7 -37 29.5t-15 49.5q0 48 35.5 78.5t93.5 30.5q62 0 99.5 -31.5t37.5 -86.5z
" />
    <glyph glyph-name="threesuperior" unicode="&#xb3;" horiz-adv-x="383" 
d="M339 415q0 -54 -44 -86.5t-115 -32.5q-60 0 -98 28t-38 73q0 25 17 45t41 26l24 -27q-17 -9 -24.5 -19.5t-7.5 -24.5q0 -27 20.5 -43t54.5 -16q41 0 63 20.5t22 59.5q0 41 -23 61.5t-67 20.5h-9v30h9q40 1 60.5 19.5t20.5 54.5q0 29 -19 45.5t-51 16.5q-31 0 -48 -13
t-17 -37q0 -12 6 -21.5t19 -15.5l-20 -30q-24 6 -38.5 23.5t-14.5 42.5q0 39 35.5 65t88.5 26q62 0 99.5 -26.5t37.5 -72.5q0 -37 -28.5 -62t-73.5 -28v-2q53 -3 85.5 -30.5t32.5 -69.5z" />
    <glyph glyph-name="acute" unicode="&#xb4;" horiz-adv-x="500" 
d="M159 561l65 188h105l-122 -188h-48z" />
    <glyph glyph-name="paragraph" unicode="&#xb6;" horiz-adv-x="557" 
d="M37 488q0 98 81.5 155t215.5 57h161v-59h-93v-655q0 -98 -44.5 -154.5t-122.5 -56.5q-63 0 -101 34t-38 90q0 14 4.5 29.5t12.5 26.5l52 -15q-4 -7 -6 -16t-2 -20q0 -35 20.5 -56t55.5 -21q52 0 79 39.5t27 115.5v295q-136 0 -219 57t-83 154z" />
    <glyph glyph-name="periodcentered" unicode="&#xb7;" horiz-adv-x="264" 
d="M191 219h-118v124h118v-124z" />
    <glyph glyph-name="cedilla" unicode="&#xb8;" horiz-adv-x="500" 
d="M240 -225q-36 0 -65.5 16t-43.5 43l31 30q14 -20 33.5 -30.5t41.5 -10.5q25 0 40.5 11t15.5 31q0 22 -26 33.5t-76 12.5l45 109h44l-31 -74q53 -4 81 -25t28 -57q0 -38 -34 -63.5t-84 -25.5z" />
    <glyph glyph-name="onesuperior" unicode="&#xb9;" horiz-adv-x="298" 
d="M215 705v-403h-76v304q-8 -15 -38 -39t-52 -33l-14 39q33 19 73 58t60 74h47z" />
    <glyph glyph-name="ordmasculine" unicode="&#xba;" horiz-adv-x="434" 
d="M394 532q0 -77 -50.5 -127.5t-126.5 -50.5t-126.5 50.5t-50.5 127.5t50.5 127.5t126.5 50.5t126.5 -50.5t50.5 -127.5zM309 532q0 68 -23.5 103.5t-68.5 35.5t-69 -35.5t-24 -103.5t24 -103.5t69 -35.5t68.5 35.5t23.5 103.5zM367 222h-300v48h300v-48z" />
    <glyph glyph-name="guillemotright" unicode="&#xbb;" horiz-adv-x="637" 
d="M56 32l170 212l-170 212h62l218 -208v-8l-218 -208h-62zM301 32l170 212l-170 212h62l218 -208v-8l-218 -208h-62z" />
    <glyph glyph-name="onequarter" unicode="&#xbc;" horiz-adv-x="822" 
d="M694 141h82v-38h-82v-103h-75v103h-183v28l181 267h77v-257zM489 141h130v194zM194 -10h-58l433 720h58zM215 705v-403h-76v304q-8 -15 -38 -39t-52 -33l-14 39q33 19 73 58t60 74h47z" />
    <glyph glyph-name="onehalf" unicode="&#xbd;" horiz-adv-x="831" 
d="M770 286q0 -51 -39.5 -95.5t-162.5 -122.5h215l-5 -68h-291v23l106 102q55 54 75 91t20 76q0 32 -18.5 50.5t-50.5 18.5q-31 0 -48.5 -17t-17.5 -47q0 -15 8.5 -28.5t23.5 -24.5l-29 -28q-22 7 -37 29.5t-15 49.5q0 48 35.5 78.5t93.5 30.5q62 0 99.5 -31.5t37.5 -86.5z
M215 705v-403h-76v304q-8 -15 -38 -39t-52 -33l-14 39q33 19 73 58t60 74h47zM194 -10h-58l433 720h58z" />
    <glyph glyph-name="threequarters" unicode="&#xbe;" horiz-adv-x="894" 
d="M766 141h82v-38h-82v-103h-75v103h-183v28l181 267h77v-257zM561 141h130v194zM339 415q0 -54 -44 -86.5t-115 -32.5q-60 0 -98 28t-38 73q0 25 17 45t41 26l24 -27q-17 -9 -24.5 -19.5t-7.5 -24.5q0 -27 20.5 -43t54.5 -16q41 0 63 20.5t22 59.5q0 41 -23 61.5t-67 20.5
h-9v30h9q40 1 60.5 19.5t20.5 54.5q0 29 -19 45.5t-51 16.5q-31 0 -48 -13t-17 -37q0 -12 6 -21.5t19 -15.5l-20 -30q-24 6 -38.5 23.5t-14.5 42.5q0 39 35.5 65t88.5 26q62 0 99.5 -26.5t37.5 -72.5q0 -37 -28.5 -62t-73.5 -28v-2q53 -3 85.5 -30.5t32.5 -69.5zM266 -10
h-58l433 720h58z" />
    <glyph glyph-name="questiondown" unicode="&#xbf;" horiz-adv-x="538" 
d="M143 21q0 -54 37.5 -86.5t101.5 -32.5t101.5 31.5t37.5 86.5q0 19 -8.5 38.5t-23.5 36.5l48 34q25 -20 39 -49t14 -59q0 -77 -60.5 -128.5t-155.5 -51.5q-102 0 -164 54t-62 138q0 82 56 141t154 83v92h52v-171q-77 -15 -122 -56.5t-45 -100.5zM227 551h118v-122h-118
v122z" />
    <glyph glyph-name="Agrave" unicode="&#xc0;" horiz-adv-x="730" 
d="M225 274h243l-122 288zM691 0h-106l-93 218h-290l-92 -218h-71l303 706h47zM399 768h-50l-116 167h108z" />
    <glyph glyph-name="Aacute" unicode="&#xc1;" horiz-adv-x="730" 
d="M225 274h243l-122 288zM691 0h-106l-93 218h-290l-92 -218h-71l303 706h47zM338 768l58 167h108l-116 -167h-50z" />
    <glyph glyph-name="Acircumflex" unicode="&#xc2;" horiz-adv-x="730" 
d="M225 274h243l-122 288zM691 0h-106l-93 218h-290l-92 -218h-71l303 706h47zM524 765h-49l-111 107l-111 -107h-49l136 184h46z" />
    <glyph glyph-name="Atilde" unicode="&#xc3;" horiz-adv-x="730" 
d="M225 274h243l-122 288zM691 0h-106l-93 218h-290l-92 -218h-71l303 706h47zM437 788q-15 0 -32.5 8t-51.5 32q-27 20 -39.5 26t-22.5 6q-20 0 -33.5 -17.5t-22.5 -57.5h-51q13 65 41.5 102t65.5 37q15 0 32.5 -8t51.5 -32q27 -20 39.5 -26t22.5 -6q20 0 33.5 17.5
t22.5 57.5h51q-13 -65 -41.5 -102t-65.5 -37z" />
    <glyph glyph-name="Adieresis" unicode="&#xc4;" horiz-adv-x="730" 
d="M225 274h243l-122 288zM691 0h-106l-93 218h-290l-92 -218h-71l303 706h47zM322 782h-93v114h93v-114zM500 782h-93v114h93v-114z" />
    <glyph glyph-name="Aring" unicode="&#xc5;" horiz-adv-x="730" 
d="M225 274h243l-122 288zM691 0h-106l-93 218h-290l-92 -218h-71l303 706h47zM364 747q-44 0 -76 32t-32 75t32 74.5t76 31.5t76 -31.5t32 -74.5t-32 -75t-76 -32zM364 793q27 0 44 17t17 44q0 28 -16.5 45t-44.5 17t-44.5 -17t-16.5 -45q0 -27 17 -44t44 -17z" />
    <glyph glyph-name="AE" unicode="&#xc6;" horiz-adv-x="1069" 
d="M515 280v351l-223 -351h223zM1010 0h-495v224h-259l-142 -224h-75l448 700h509v-60h-383v-250h286v-60h-286v-270h397v-60z" />
    <glyph glyph-name="Ccedilla" unicode="&#xc7;" horiz-adv-x="721" 
d="M490 -136q0 -38 -34 -63.5t-84 -25.5q-36 0 -65.5 16t-43.5 43l31 30q14 -20 33.5 -30.5t41.5 -10.5q25 0 40.5 11t15.5 31q0 22 -26 33.5t-76 12.5l34 81q-136 16 -223 113.5t-87 239.5q0 157 102 261t254 104q94 0 164.5 -41t114.5 -121l-49 -48q-38 74 -93 109.5
t-131 35.5q-113 0 -181.5 -80.5t-68.5 -215.5q0 -132 70.5 -212.5t179.5 -80.5q78 0 132.5 35.5t92.5 110.5l49 -34q-46 -89 -116.5 -133.5t-166.5 -44.5h-1l-18 -44q53 -4 81 -25t28 -57z" />
    <glyph glyph-name="Egrave" unicode="&#xc8;" horiz-adv-x="663" 
d="M399 768h-50l-116 167h108zM603 0h-495v700h482v-60h-384v-250h286v-60h-286v-270h397v-60z" />
    <glyph glyph-name="Eacute" unicode="&#xc9;" horiz-adv-x="663" 
d="M335 768l58 167h108l-116 -167h-50zM603 0h-495v700h482v-60h-384v-250h286v-60h-286v-270h397v-60z" />
    <glyph glyph-name="Ecircumflex" unicode="&#xca;" horiz-adv-x="663" 
d="M603 0h-495v700h482v-60h-384v-250h286v-60h-286v-270h397v-60zM522 765h-49l-111 107l-111 -107h-49l136 184h46z" />
    <glyph glyph-name="Edieresis" unicode="&#xcb;" horiz-adv-x="663" 
d="M319 782h-93v114h93v-114zM497 782h-93v114h93v-114zM603 0h-495v700h482v-60h-384v-250h286v-60h-286v-270h397v-60z" />
    <glyph glyph-name="Igrave" unicode="&#xcc;" horiz-adv-x="315" 
d="M108 700h98v-700h-98v700zM194 768h-50l-116 167h108z" />
    <glyph glyph-name="Iacute" unicode="&#xcd;" horiz-adv-x="315" 
d="M108 700h98v-700h-98v700zM129 768l58 167h108l-116 -167h-50z" />
    <glyph glyph-name="Icircumflex" unicode="&#xce;" horiz-adv-x="315" 
d="M108 700h98v-700h-98v700zM317 765h-49l-111 107l-111 -107h-49l136 184h46z" />
    <glyph glyph-name="Idieresis" unicode="&#xcf;" horiz-adv-x="315" 
d="M108 700h98v-700h-98v700zM114 782h-93v114h93v-114zM292 782h-93v114h93v-114z" />
    <glyph glyph-name="Eth" unicode="&#xd0;" horiz-adv-x="780" 
d="M733 352q0 -163 -103.5 -257.5t-280.5 -94.5h-221v331h-92v58h92v311h214q181 0 286 -93.5t105 -254.5zM226 331v-274h113q137 0 211.5 76.5t74.5 218.5q0 138 -76.5 214.5t-214.5 76.5h-108v-254h154v-58h-154z" />
    <glyph glyph-name="Ntilde" unicode="&#xd1;" horiz-adv-x="794" 
d="M469 788q-15 0 -32.5 8t-51.5 32q-27 20 -39.5 26t-22.5 6q-20 0 -33.5 -17.5t-22.5 -57.5h-51q13 65 41.5 102t65.5 37q15 0 32.5 -8t51.5 -32q27 -20 39.5 -26t22.5 -6q20 0 33.5 17.5t22.5 57.5h51q-13 -65 -41.5 -102t-65.5 -37zM201 700l415 -517v517h70v-703h-39
l-469 583v-580h-70v700h93z" />
    <glyph glyph-name="Ograve" unicode="&#xd2;" horiz-adv-x="791" 
d="M433 768h-50l-116 167h108zM396 -10q-149 0 -249 103.5t-100 256.5t100 256.5t249 103.5t248.5 -103.5t99.5 -256.5t-99.5 -256.5t-248.5 -103.5zM396 654q-110 0 -174 -82t-64 -222t64 -222t174 -82t174 82t64 222t-64 222t-174 82z" />
    <glyph glyph-name="Oacute" unicode="&#xd3;" horiz-adv-x="791" 
d="M368 768l58 167h108l-116 -167h-50zM396 -10q-149 0 -249 103.5t-100 256.5t100 256.5t249 103.5t248.5 -103.5t99.5 -256.5t-99.5 -256.5t-248.5 -103.5zM396 654q-110 0 -174 -82t-64 -222t64 -222t174 -82t174 82t64 222t-64 222t-174 82z" />
    <glyph glyph-name="Ocircumflex" unicode="&#xd4;" horiz-adv-x="791" 
d="M396 -10q-149 0 -249 103.5t-100 256.5t100 256.5t249 103.5t248.5 -103.5t99.5 -256.5t-99.5 -256.5t-248.5 -103.5zM396 654q-110 0 -174 -82t-64 -222t64 -222t174 -82t174 82t64 222t-64 222t-174 82zM556 765h-49l-111 107l-111 -107h-49l136 184h46z" />
    <glyph glyph-name="Otilde" unicode="&#xd5;" horiz-adv-x="791" 
d="M469 788q-15 0 -32.5 8t-51.5 32q-27 20 -39.5 26t-22.5 6q-20 0 -33.5 -17.5t-22.5 -57.5h-51q13 65 41.5 102t65.5 37q15 0 32.5 -8t51.5 -32q27 -20 39.5 -26t22.5 -6q20 0 33.5 17.5t22.5 57.5h51q-13 -65 -41.5 -102t-65.5 -37zM396 -10q-149 0 -249 103.5
t-100 256.5t100 256.5t249 103.5t248.5 -103.5t99.5 -256.5t-99.5 -256.5t-248.5 -103.5zM396 654q-110 0 -174 -82t-64 -222t64 -222t174 -82t174 82t64 222t-64 222t-174 82z" />
    <glyph glyph-name="Odieresis" unicode="&#xd6;" horiz-adv-x="791" 
d="M353 782h-93v114h93v-114zM531 782h-93v114h93v-114zM396 -10q-149 0 -249 103.5t-100 256.5t100 256.5t249 103.5t248.5 -103.5t99.5 -256.5t-99.5 -256.5t-248.5 -103.5zM396 654q-110 0 -174 -82t-64 -222t64 -222t174 -82t174 82t64 222t-64 222t-174 82z" />
    <glyph glyph-name="multiply" unicode="&#xd7;" horiz-adv-x="552" 
d="M462 192l-43 -43l-142 145l-142 -145l-42 43l144 144l-144 143l42 43l142 -145l142 145l43 -43l-145 -143z" />
    <glyph glyph-name="Oslash" unicode="&#xd8;" horiz-adv-x="791" 
d="M396 654q-110 0 -174 -82t-64 -222q0 -55 10.5 -101.5t30.5 -84.5l370 410q-32 39 -76 59.5t-97 20.5zM396 46q110 0 174 82t64 222q0 51 -9 95t-26 79l-368 -407q31 -35 73 -53t92 -18zM744 350q0 -153 -99.5 -256.5t-248.5 -103.5q-59 0 -114 18.5t-100 53.5l-91 -100
l-42 37l92 101q-46 50 -70 114.5t-24 135.5q0 153 100 256.5t249 103.5q63 0 120 -20.5t103 -59.5l81 89l42 -37l-83 -92q41 -48 63 -110t22 -130z" />
    <glyph glyph-name="Ugrave" unicode="&#xd9;" horiz-adv-x="759" 
d="M422 768h-50l-116 167h108zM593 280v420h70v-431q0 -129 -75 -204t-201 -75q-140 0 -215.5 73t-75.5 206v431h98v-420q0 -106 53 -164t148 -58q98 0 148 56t50 166z" />
    <glyph glyph-name="Uacute" unicode="&#xda;" horiz-adv-x="759" 
d="M357 768l58 167h108l-116 -167h-50zM593 280v420h70v-431q0 -129 -75 -204t-201 -75q-140 0 -215.5 73t-75.5 206v431h98v-420q0 -106 53 -164t148 -58q98 0 148 56t50 166z" />
    <glyph glyph-name="Ucircumflex" unicode="&#xdb;" horiz-adv-x="759" 
d="M593 280v420h70v-431q0 -129 -75 -204t-201 -75q-140 0 -215.5 73t-75.5 206v431h98v-420q0 -106 53 -164t148 -58q98 0 148 56t50 166zM545 765h-49l-111 107l-111 -107h-49l136 184h46z" />
    <glyph glyph-name="Udieresis" unicode="&#xdc;" horiz-adv-x="759" 
d="M342 782h-93v114h93v-114zM520 782h-93v114h93v-114zM593 280v420h70v-431q0 -129 -75 -204t-201 -75q-140 0 -215.5 73t-75.5 206v431h98v-420q0 -106 53 -164t148 -58q98 0 148 56t50 166z" />
    <glyph glyph-name="Yacute" unicode="&#xdd;" horiz-adv-x="693" 
d="M150 700l217 -339l215 339h77l-263 -408v-292h-98v292l-263 408h115zM319 768l58 167h108l-116 -167h-50z" />
    <glyph glyph-name="Thorn" unicode="&#xde;" horiz-adv-x="652" 
d="M206 157v-157h-98v700h98v-125h147q129 0 199 -54.5t70 -155.5q0 -99 -71 -153.5t-198 -54.5h-147zM206 517v-301h129q94 0 139 36.5t45 112.5q0 78 -45 115t-139 37h-129z" />
    <glyph glyph-name="germandbls" unicode="&#xdf;" horiz-adv-x="684" 
d="M537 610q0 -38 -21.5 -71t-74.5 -72q-36 -26 -49 -42t-13 -34q0 -21 20.5 -37.5t85.5 -44.5q85 -36 119 -72t34 -89q0 -69 -49.5 -113.5t-125.5 -44.5q-64 0 -115 31t-79 86l43 41q33 -53 69.5 -78t82.5 -25q42 0 66 20.5t24 56.5q0 32 -23 53.5t-93 50.5
q-74 30 -104.5 61.5t-30.5 77.5q0 35 19 65t72 72q47 37 62 59t15 49q0 44 -33 69t-91 25q-70 0 -112 -49t-42 -133v-522h-94v509q0 112 70.5 181t176.5 69q85 0 138 -41t53 -108z" />
    <glyph glyph-name="agrave" unicode="&#xe0;" horiz-adv-x="565" 
d="M383 230v13l-80 -13q-82 -13 -116.5 -37.5t-34.5 -65.5q0 -36 21.5 -55.5t62.5 -19.5q58 0 102.5 53t44.5 125zM295 275l88 15v37q0 58 -29.5 85.5t-92.5 27.5q-48 0 -77.5 -19t-29.5 -51q0 -9 3 -17.5t9 -16.5l-49 -33q-14 13 -21.5 30t-7.5 35q0 57 50 93t134 36
q99 0 151.5 -43t52.5 -123v-331h-83l-9 115q-18 -53 -68.5 -89t-113.5 -36q-65 0 -104.5 35t-39.5 94q0 62 50 97.5t187 58.5zM311 561h-48l-122 188h105z" />
    <glyph glyph-name="aacute" unicode="&#xe1;" horiz-adv-x="565" 
d="M383 230v13l-80 -13q-82 -13 -116.5 -37.5t-34.5 -65.5q0 -36 21.5 -55.5t62.5 -19.5q58 0 102.5 53t44.5 125zM295 275l88 15v37q0 58 -29.5 85.5t-92.5 27.5q-48 0 -77.5 -19t-29.5 -51q0 -9 3 -17.5t9 -16.5l-49 -33q-14 13 -21.5 30t-7.5 35q0 57 50 93t134 36
q99 0 151.5 -43t52.5 -123v-331h-83l-9 115q-18 -53 -68.5 -89t-113.5 -36q-65 0 -104.5 35t-39.5 94q0 62 50 97.5t187 58.5zM249 561l65 188h105l-122 -188h-48z" />
    <glyph glyph-name="acircumflex" unicode="&#xe2;" horiz-adv-x="565" 
d="M383 230v13l-80 -13q-82 -13 -116.5 -37.5t-34.5 -65.5q0 -36 21.5 -55.5t62.5 -19.5q58 0 102.5 53t44.5 125zM295 275l88 15v37q0 58 -29.5 85.5t-92.5 27.5q-48 0 -77.5 -19t-29.5 -51q0 -9 3 -17.5t9 -16.5l-49 -33q-14 13 -21.5 30t-7.5 35q0 57 50 93t134 36
q99 0 151.5 -43t52.5 -123v-331h-83l-9 115q-18 -53 -68.5 -89t-113.5 -36q-65 0 -104.5 35t-39.5 94q0 62 50 97.5t187 58.5zM255 751h46l134 -199h-49l-107 122l-107 -122h-49z" />
    <glyph glyph-name="atilde" unicode="&#xe3;" horiz-adv-x="565" 
d="M383 230v13l-80 -13q-82 -13 -116.5 -37.5t-34.5 -65.5q0 -36 21.5 -55.5t62.5 -19.5q58 0 102.5 53t44.5 125zM295 275l88 15v37q0 58 -29.5 85.5t-92.5 27.5q-48 0 -77.5 -19t-29.5 -51q0 -9 3 -17.5t9 -16.5l-49 -33q-14 13 -21.5 30t-7.5 35q0 57 50 93t134 36
q99 0 151.5 -43t52.5 -123v-331h-83l-9 115q-18 -53 -68.5 -89t-113.5 -36q-65 0 -104.5 35t-39.5 94q0 62 50 97.5t187 58.5zM352 585q-15 0 -32.5 8t-51.5 32q-27 20 -39.5 26t-22.5 6q-20 0 -33.5 -17.5t-22.5 -57.5h-51q13 65 41.5 102t65.5 37q15 0 32.5 -8t51.5 -32
q27 -20 39.5 -26t22.5 -6q20 0 33.5 17.5t22.5 57.5h51q-13 -65 -41.5 -102t-65.5 -37z" />
    <glyph glyph-name="adieresis" unicode="&#xe4;" horiz-adv-x="565" 
d="M383 230v13l-80 -13q-82 -13 -116.5 -37.5t-34.5 -65.5q0 -36 21.5 -55.5t62.5 -19.5q58 0 102.5 53t44.5 125zM295 275l88 15v37q0 58 -29.5 85.5t-92.5 27.5q-48 0 -77.5 -19t-29.5 -51q0 -9 3 -17.5t9 -16.5l-49 -33q-14 13 -21.5 30t-7.5 35q0 57 50 93t134 36
q99 0 151.5 -43t52.5 -123v-331h-83l-9 115q-18 -53 -68.5 -89t-113.5 -36q-65 0 -104.5 35t-39.5 94q0 62 50 97.5t187 58.5zM236 591h-93v114h93v-114zM414 591h-93v114h93v-114z" />
    <glyph glyph-name="aring" unicode="&#xe5;" horiz-adv-x="565" 
d="M383 230v13l-80 -13q-82 -13 -116.5 -37.5t-34.5 -65.5q0 -36 21.5 -55.5t62.5 -19.5q58 0 102.5 53t44.5 125zM295 275l88 15v37q0 58 -29.5 85.5t-92.5 27.5q-48 0 -77.5 -19t-29.5 -51q0 -9 3 -17.5t9 -16.5l-49 -33q-14 13 -21.5 30t-7.5 35q0 57 50 93t134 36
q99 0 151.5 -43t52.5 -123v-331h-83l-9 115q-18 -53 -68.5 -89t-113.5 -36q-65 0 -104.5 35t-39.5 94q0 62 50 97.5t187 58.5zM279 557q-44 0 -76 31.5t-32 75.5q0 43 32 74t76 31t76 -31t32 -74q0 -44 -32 -75.5t-76 -31.5zM279 602q28 0 44.5 17t16.5 45q0 27 -17 44.5
t-44 17.5t-44 -17.5t-17 -44.5q0 -28 16.5 -45t44.5 -17z" />
    <glyph glyph-name="ae" unicode="&#xe6;" horiz-adv-x="878" 
d="M781 165l46 -14q-18 -77 -73.5 -119t-139.5 -42q-69 0 -122.5 33t-80.5 92q-27 -58 -81.5 -91.5t-127.5 -33.5q-64 0 -104 35.5t-40 93.5q0 62 50 97.5t187 58.5l88 15v37q0 58 -29.5 85.5t-92.5 27.5q-48 0 -77.5 -19t-29.5 -51q0 -9 3 -17.5t9 -16.5l-49 -33
q-14 13 -21.5 30t-7.5 35q0 57 49.5 93t132.5 36q60 0 103 -22.5t65 -64.5q31 42 76 64.5t97 22.5q102 0 160 -66t58 -183h-357q1 -95 43.5 -146.5t119.5 -51.5q55 0 90 27.5t56 87.5zM610 445q-55 0 -90.5 -39t-44.5 -110h254q-2 74 -32 111.5t-87 37.5zM383 230v13
l-80 -13q-82 -13 -116.5 -37.5t-34.5 -65.5q0 -36 22.5 -55.5t61.5 -19.5q64 0 105.5 50.5t41.5 127.5z" />
    <glyph glyph-name="ccedilla" unicode="&#xe7;" horiz-adv-x="541" 
d="M384 -136q0 -38 -34 -63.5t-84 -25.5q-36 0 -65.5 16t-43.5 43l31 30q14 -20 33.5 -30.5t41.5 -10.5q25 0 40.5 11t15.5 31q0 22 -26 33.5t-76 12.5l34 81q-91 12 -146 78t-55 166q0 114 71.5 187.5t181.5 73.5q82 0 130.5 -41.5t48.5 -108.5q0 -25 -10 -48t-27 -38
l-42 34q9 12 13.5 25t4.5 26q0 44 -30 70.5t-83 26.5q-71 0 -115.5 -54.5t-44.5 -141.5q0 -94 41 -145.5t115 -51.5q55 0 91 28.5t55 86.5l45 -14q-16 -73 -70 -116t-132 -45l-18 -44q53 -4 81 -25t28 -57z" />
    <glyph glyph-name="egrave" unicode="&#xe8;" horiz-adv-x="552" 
d="M456 165l45 -14q-18 -77 -73.5 -119t-139.5 -42q-104 0 -171 68.5t-67 178.5q0 114 67 187t168 73q103 0 160.5 -66t57.5 -183h-356q1 -95 43 -146.5t119 -51.5q55 0 90 27.5t57 87.5zM284 445q-55 0 -90.5 -39t-43.5 -110h253q-2 74 -32 111.5t-87 37.5zM321 561h-48
l-122 188h105z" />
    <glyph glyph-name="eacute" unicode="&#xe9;" horiz-adv-x="552" 
d="M259 561l65 188h105l-122 -188h-48zM456 165l45 -14q-18 -77 -73.5 -119t-139.5 -42q-104 0 -171 68.5t-67 178.5q0 114 67 187t168 73q103 0 160.5 -66t57.5 -183h-356q1 -95 43 -146.5t119 -51.5q55 0 90 27.5t57 87.5zM284 445q-55 0 -90.5 -39t-43.5 -110h253
q-2 74 -32 111.5t-87 37.5z" />
    <glyph glyph-name="ecircumflex" unicode="&#xea;" horiz-adv-x="552" 
d="M265 751h46l134 -199h-49l-107 122l-107 -122h-49zM456 165l45 -14q-18 -77 -73.5 -119t-139.5 -42q-104 0 -171 68.5t-67 178.5q0 114 67 187t168 73q103 0 160.5 -66t57.5 -183h-356q1 -95 43 -146.5t119 -51.5q55 0 90 27.5t57 87.5zM284 445q-55 0 -90.5 -39
t-43.5 -110h253q-2 74 -32 111.5t-87 37.5z" />
    <glyph glyph-name="edieresis" unicode="&#xeb;" horiz-adv-x="552" 
d="M246 591h-93v114h93v-114zM424 591h-93v114h93v-114zM456 165l45 -14q-18 -77 -73.5 -119t-139.5 -42q-104 0 -171 68.5t-67 178.5q0 114 67 187t168 73q103 0 160.5 -66t57.5 -183h-356q1 -95 43 -146.5t119 -51.5q55 0 90 27.5t57 87.5zM284 445q-55 0 -90.5 -39
t-43.5 -110h253q-2 74 -32 111.5t-87 37.5z" />
    <glyph glyph-name="igrave" unicode="&#xec;" horiz-adv-x="293" 
d="M99 487h94v-487h-94v487zM178 561h-48l-122 188h105z" />
    <glyph glyph-name="iacute" unicode="&#xed;" horiz-adv-x="293" 
d="M116 561l65 188h105l-122 -188h-48zM99 487h94v-487h-94v487z" />
    <glyph glyph-name="icircumflex" unicode="&#xee;" horiz-adv-x="293" 
d="M122 751h46l122 -199h-49l-95 122l-94 -122h-49zM99 487h94v-487h-94v487z" />
    <glyph glyph-name="idieresis" unicode="&#xef;" horiz-adv-x="293" 
d="M104 591h-93v114h93v-114zM282 591h-93v114h93v-114zM99 487h94v-487h-94v487z" />
    <glyph glyph-name="eth" unicode="&#xf0;" horiz-adv-x="592" 
d="M542 286q0 -130 -69 -213t-177 -83q-106 0 -176 72t-70 181t69.5 181.5t173.5 72.5q40 0 78.5 -17t62.5 -46q-9 53 -36.5 103.5t-69.5 87.5l-135 -67l-21 43l113 56q-35 23 -75.5 35.5t-86.5 16.5l8 51q61 -4 115.5 -22.5t100.5 -49.5l92 46l21 -43l-71 -35
q73 -65 113 -161t40 -209zM441 243q0 96 -38.5 148.5t-107.5 52.5t-107 -53t-38 -148t38 -148t107 -53t107.5 53t38.5 148z" />
    <glyph glyph-name="ntilde" unicode="&#xf1;" horiz-adv-x="621" 
d="M329 429q-59 0 -97.5 -50.5t-38.5 -130.5v-248h-94v487h90l4 -115q22 60 68 92.5t108 32.5q75 0 117.5 -46t42.5 -128v-323h-94v305q0 57 -28 90.5t-78 33.5zM391 585q-15 0 -32.5 8t-51.5 32q-27 20 -39.5 26t-22.5 6q-20 0 -33.5 -17.5t-22.5 -57.5h-51q13 65 41.5 102
t65.5 37q15 0 32.5 -8t51.5 -32q27 -20 39.5 -26t22.5 -6q20 0 33.5 17.5t22.5 57.5h51q-13 -65 -41.5 -102t-65.5 -37z" />
    <glyph glyph-name="ograve" unicode="&#xf2;" horiz-adv-x="592" 
d="M542 243q0 -109 -70 -181t-176 -72t-176 72t-70 181t70 181.5t176 72.5t176 -72.5t70 -181.5zM441 243q0 95 -38 148t-107 53t-107.5 -53t-38.5 -148t38.5 -148t107.5 -53t107 53t38 148zM327 561h-48l-122 188h105z" />
    <glyph glyph-name="oacute" unicode="&#xf3;" horiz-adv-x="592" 
d="M266 561l65 188h105l-122 -188h-48zM542 243q0 -109 -70 -181t-176 -72t-176 72t-70 181t70 181.5t176 72.5t176 -72.5t70 -181.5zM441 243q0 95 -38 148t-107 53t-107.5 -53t-38.5 -148t38.5 -148t107.5 -53t107 53t38 148z" />
    <glyph glyph-name="ocircumflex" unicode="&#xf4;" horiz-adv-x="592" 
d="M272 751h46l134 -199h-49l-107 122l-107 -122h-49zM542 243q0 -109 -70 -181t-176 -72t-176 72t-70 181t70 181.5t176 72.5t176 -72.5t70 -181.5zM441 243q0 95 -38 148t-107 53t-107.5 -53t-38.5 -148t38.5 -148t107.5 -53t107 53t38 148z" />
    <glyph glyph-name="otilde" unicode="&#xf5;" horiz-adv-x="592" 
d="M542 243q0 -109 -70 -181t-176 -72t-176 72t-70 181t70 181.5t176 72.5t176 -72.5t70 -181.5zM441 243q0 95 -38 148t-107 53t-107.5 -53t-38.5 -148t38.5 -148t107.5 -53t107 53t38 148zM369 585q-15 0 -32.5 8t-51.5 32q-27 20 -39.5 26t-22.5 6q-20 0 -33.5 -17.5
t-22.5 -57.5h-51q13 65 41.5 102t65.5 37q15 0 32.5 -8t51.5 -32q27 -20 39.5 -26t22.5 -6q20 0 33.5 17.5t22.5 57.5h51q-13 -65 -41.5 -102t-65.5 -37z" />
    <glyph glyph-name="odieresis" unicode="&#xf6;" horiz-adv-x="592" 
d="M253 591h-93v114h93v-114zM431 591h-93v114h93v-114zM542 243q0 -109 -70 -181t-176 -72t-176 72t-70 181t70 181.5t176 72.5t176 -72.5t70 -181.5zM441 243q0 95 -38 148t-107 53t-107.5 -53t-38.5 -148t38.5 -148t107.5 -53t107 53t38 148z" />
    <glyph glyph-name="divide" unicode="&#xf7;" horiz-adv-x="634" 
d="M369 471h-101v102h101v-102zM545 309h-456v60h456v-60zM369 103h-101v103h101v-103z" />
    <glyph glyph-name="oslash" unicode="&#xf8;" horiz-adv-x="592" 
d="M296 444q-69 0 -107.5 -53t-38.5 -148q0 -34 4.5 -61.5t14.5 -50.5l228 268q-19 22 -44.5 33.5t-56.5 11.5zM296 42q69 0 107 53t38 148q0 31 -4.5 58t-12.5 50l-227 -267q19 -21 44 -31.5t55 -10.5zM542 243q0 -109 -70 -181t-176 -72q-39 0 -75 11t-67 32l-62 -73
l-40 34l63 74q-32 35 -48.5 79.5t-16.5 95.5q0 109 70 181.5t176 72.5q40 0 77 -12t68 -34l59 70l40 -34l-60 -71q30 -35 46 -79t16 -94z" />
    <glyph glyph-name="ugrave" unicode="&#xf9;" horiz-adv-x="613" 
d="M284 58q58 0 96.5 51.5t38.5 132.5v245h94v-487h-90l-4 119q-22 -63 -66 -96t-106 -33q-70 0 -112.5 47.5t-42.5 126.5v323h94v-306q0 -61 25 -92t73 -31zM334 561h-48l-122 188h105z" />
    <glyph glyph-name="uacute" unicode="&#xfa;" horiz-adv-x="613" 
d="M273 561l65 188h105l-122 -188h-48zM284 58q58 0 96.5 51.5t38.5 132.5v245h94v-487h-90l-4 119q-22 -63 -66 -96t-106 -33q-70 0 -112.5 47.5t-42.5 126.5v323h94v-306q0 -61 25 -92t73 -31z" />
    <glyph glyph-name="ucircumflex" unicode="&#xfb;" horiz-adv-x="613" 
d="M279 751h46l134 -199h-49l-107 122l-107 -122h-49zM284 58q58 0 96.5 51.5t38.5 132.5v245h94v-487h-90l-4 119q-22 -63 -66 -96t-106 -33q-70 0 -112.5 47.5t-42.5 126.5v323h94v-306q0 -61 25 -92t73 -31z" />
    <glyph glyph-name="udieresis" unicode="&#xfc;" horiz-adv-x="613" 
d="M260 591h-93v114h93v-114zM438 591h-93v114h93v-114zM284 58q58 0 96.5 51.5t38.5 132.5v245h94v-487h-90l-4 119q-22 -63 -66 -96t-106 -33q-70 0 -112.5 47.5t-42.5 126.5v323h94v-306q0 -61 25 -92t73 -31z" />
    <glyph glyph-name="yacute" unicode="&#xfd;" horiz-adv-x="532" 
d="M101 -225q-45 0 -74.5 26.5t-29.5 67.5q0 13 3 25t9 23l59 -15q-4 -13 -5 -18.5t-1 -11.5q0 -18 11.5 -29.5t29.5 -11.5q32 0 55.5 28t63.5 121l19 43l-214 464h102l160 -356l145 356h71l-230 -536q-40 -94 -80.5 -135t-93.5 -41zM251 561l65 188h105l-122 -188h-48z" />
    <glyph glyph-name="thorn" unicode="&#xfe;" horiz-adv-x="641" 
d="M340 436q-63 0 -105 -53.5t-42 -129.5v-49q0 -69 43 -113.5t102 -44.5q70 0 111.5 54.5t41.5 148.5q0 86 -41 136.5t-110 50.5zM361 -10q-57 0 -101 25.5t-66 70.5v-301h-94v964h94v-380q19 58 67.5 93t111.5 35q95 0 156.5 -67.5t61.5 -177.5q0 -113 -67 -187.5
t-163 -74.5z" />
    <glyph glyph-name="ydieresis" unicode="&#xff;" horiz-adv-x="532" 
d="M101 -225q-45 0 -74.5 26.5t-29.5 67.5q0 13 3 25t9 23l59 -15q-4 -13 -5 -18.5t-1 -11.5q0 -18 11.5 -29.5t29.5 -11.5q32 0 55.5 28t63.5 121l19 43l-214 464h102l160 -356l145 356h71l-230 -536q-40 -94 -80.5 -135t-93.5 -41zM238 591h-93v114h93v-114zM416 591h-93
v114h93v-114z" />
    <glyph glyph-name="Amacron" unicode="&#x100;" horiz-adv-x="730" 
d="M225 274h243l-122 288zM691 0h-106l-93 218h-290l-92 -218h-71l303 706h47zM504 847v-57h-280v57h280z" />
    <glyph glyph-name="amacron" unicode="&#x101;" horiz-adv-x="565" 
d="M383 230v13l-80 -13q-82 -13 -116.5 -37.5t-34.5 -65.5q0 -36 21.5 -55.5t62.5 -19.5q58 0 102.5 53t44.5 125zM295 275l88 15v37q0 58 -29.5 85.5t-92.5 27.5q-48 0 -77.5 -19t-29.5 -51q0 -9 3 -17.5t9 -16.5l-49 -33q-14 13 -21.5 30t-7.5 35q0 57 50 93t134 36
q99 0 151.5 -43t52.5 -123v-331h-83l-9 115q-18 -53 -68.5 -89t-113.5 -36q-65 0 -104.5 35t-39.5 94q0 62 50 97.5t187 58.5zM419 647v-57h-280v57h280z" />
    <glyph glyph-name="Abreve" unicode="&#x102;" horiz-adv-x="730" 
d="M225 274h243l-122 288zM691 0h-106l-93 218h-290l-92 -218h-71l303 706h47zM466 942h43q0 -74 -41 -120.5t-104 -46.5t-104 46.5t-41 120.5h43q4 -47 32 -75.5t70 -28.5t70 28.5t32 75.5z" />
    <glyph glyph-name="abreve" unicode="&#x103;" horiz-adv-x="565" 
d="M383 230v13l-80 -13q-82 -13 -116.5 -37.5t-34.5 -65.5q0 -36 21.5 -55.5t62.5 -19.5q58 0 102.5 53t44.5 125zM295 275l88 15v37q0 58 -29.5 85.5t-92.5 27.5q-48 0 -77.5 -19t-29.5 -51q0 -9 3 -17.5t9 -16.5l-49 -33q-14 13 -21.5 30t-7.5 35q0 57 50 93t134 36
q99 0 151.5 -43t52.5 -123v-331h-83l-9 115q-18 -53 -68.5 -89t-113.5 -36q-65 0 -104.5 35t-39.5 94q0 62 50 97.5t187 58.5zM379 745h43q0 -78 -40 -127.5t-103 -49.5t-103 49.5t-40 127.5h43q4 -50 32 -82t68 -32t68 32t32 82z" />
    <glyph glyph-name="Aogonek" unicode="&#x104;" horiz-adv-x="730" 
d="M646 -105l40 -17q-18 -50 -54 -76.5t-85 -26.5q-41 0 -70.5 25.5t-29.5 65.5q0 41 29.5 76.5t100.5 76.5l-85 199h-290l-92 -218h-71l303 706h47l302 -706h-68q-67 -42 -89 -67t-22 -52q0 -24 15 -38.5t39 -14.5q27 0 45 15.5t35 51.5zM225 274h243l-122 288z" />
    <glyph glyph-name="aogonek" unicode="&#x105;" horiz-adv-x="565" 
d="M383 230v13l-80 -13q-82 -13 -116.5 -37.5t-34.5 -65.5q0 -36 21.5 -55.5t62.5 -19.5q58 0 102.5 53t44.5 125zM485 -105l40 -17q-18 -50 -54 -76.5t-85 -26.5q-41 0 -70.5 25.5t-29.5 65.5q0 38 25.5 71t81.5 68l-9 110q-18 -53 -68.5 -89t-113.5 -36q-65 0 -104.5 35
t-39.5 94q0 62 50 97.5t187 58.5l88 15v37q0 58 -29.5 85.5t-92.5 27.5q-48 0 -77.5 -19t-29.5 -51q0 -9 3 -17.5t9 -16.5l-49 -33q-14 13 -21.5 30t-7.5 35q0 57 50 93t134 36q99 0 151.5 -43t52.5 -123v-331h-14q-67 -42 -89 -67t-22 -52q0 -24 15 -38.5t39 -14.5
q27 0 45 15.5t35 51.5z" />
    <glyph glyph-name="Cacute" unicode="&#x106;" horiz-adv-x="721" 
d="M400 -10q-151 0 -252 100.5t-101 254.5q0 157 102 261t254 104q94 0 164.5 -41t114.5 -121l-49 -48q-38 74 -93 109.5t-131 35.5q-113 0 -181.5 -80.5t-68.5 -215.5q0 -132 70.5 -212.5t179.5 -80.5q78 0 132.5 35.5t92.5 110.5l49 -34q-46 -89 -116.5 -133.5
t-166.5 -44.5zM377 768l58 167h108l-116 -167h-50z" />
    <glyph glyph-name="cacute" unicode="&#x107;" horiz-adv-x="541" 
d="M268 561l65 188h105l-122 -188h-48zM421 346q0 44 -30 70.5t-83 26.5q-71 0 -115.5 -54.5t-44.5 -141.5q0 -94 41 -145.5t115 -51.5q55 0 91 28.5t55 86.5l45 -14q-17 -75 -73 -118t-137 -43q-104 0 -169.5 67.5t-65.5 178.5q0 114 71.5 187.5t181.5 73.5
q82 0 130.5 -41.5t48.5 -108.5q0 -25 -10 -48t-27 -38l-42 34q9 12 13.5 25t4.5 26z" />
    <glyph glyph-name="Ccircumflex" unicode="&#x108;" horiz-adv-x="721" 
d="M400 -10q-151 0 -252 100.5t-101 254.5q0 157 102 261t254 104q94 0 164.5 -41t114.5 -121l-49 -48q-38 74 -93 109.5t-131 35.5q-113 0 -181.5 -80.5t-68.5 -215.5q0 -132 70.5 -212.5t179.5 -80.5q78 0 132.5 35.5t92.5 110.5l49 -34q-46 -89 -116.5 -133.5
t-166.5 -44.5zM565 765h-49l-111 107l-111 -107h-49l136 184h46z" />
    <glyph glyph-name="ccircumflex" unicode="&#x109;" horiz-adv-x="541" 
d="M274 751h46l134 -199h-49l-107 122l-107 -122h-49zM421 346q0 44 -30 70.5t-83 26.5q-71 0 -115.5 -54.5t-44.5 -141.5q0 -94 41 -145.5t115 -51.5q55 0 91 28.5t55 86.5l45 -14q-17 -75 -73 -118t-137 -43q-104 0 -169.5 67.5t-65.5 178.5q0 114 71.5 187.5t181.5 73.5
q82 0 130.5 -41.5t48.5 -108.5q0 -25 -10 -48t-27 -38l-42 34q9 12 13.5 25t4.5 26z" />
    <glyph glyph-name="Cdotaccent" unicode="&#x10a;" horiz-adv-x="721" 
d="M455 790h-101v122h101v-122zM400 -10q-151 0 -252 100.5t-101 254.5q0 157 102 261t254 104q94 0 164.5 -41t114.5 -121l-49 -48q-38 74 -93 109.5t-131 35.5q-113 0 -181.5 -80.5t-68.5 -215.5q0 -132 70.5 -212.5t179.5 -80.5q78 0 132.5 35.5t92.5 110.5l49 -34
q-46 -89 -116.5 -133.5t-166.5 -44.5z" />
    <glyph glyph-name="cdotaccent" unicode="&#x10b;" horiz-adv-x="541" 
d="M421 346q0 44 -30 70.5t-83 26.5q-71 0 -115.5 -54.5t-44.5 -141.5q0 -94 41 -145.5t115 -51.5q55 0 91 28.5t55 86.5l45 -14q-17 -75 -73 -118t-137 -43q-104 0 -169.5 67.5t-65.5 178.5q0 114 71.5 187.5t181.5 73.5q82 0 130.5 -41.5t48.5 -108.5q0 -25 -10 -48
t-27 -38l-42 34q9 12 13.5 25t4.5 26zM348 593h-101v122h101v-122z" />
    <glyph glyph-name="Ccaron" unicode="&#x10c;" horiz-adv-x="721" 
d="M400 -10q-151 0 -252 100.5t-101 254.5q0 157 102 261t254 104q94 0 164.5 -41t114.5 -121l-49 -48q-38 74 -93 109.5t-131 35.5q-113 0 -181.5 -80.5t-68.5 -215.5q0 -132 70.5 -212.5t179.5 -80.5q78 0 132.5 35.5t92.5 110.5l49 -34q-46 -89 -116.5 -133.5
t-166.5 -44.5zM565 945l-138 -184h-46l-136 184h49l111 -107l111 107h49z" />
    <glyph glyph-name="ccaron" unicode="&#x10d;" horiz-adv-x="541" 
d="M454 752l-134 -199h-46l-132 199h49l107 -122l107 122h49zM421 346q0 44 -30 70.5t-83 26.5q-71 0 -115.5 -54.5t-44.5 -141.5q0 -94 41 -145.5t115 -51.5q55 0 91 28.5t55 86.5l45 -14q-17 -75 -73 -118t-137 -43q-104 0 -169.5 67.5t-65.5 178.5q0 114 71.5 187.5
t181.5 73.5q82 0 130.5 -41.5t48.5 -108.5q0 -25 -10 -48t-27 -38l-42 34q9 12 13.5 25t4.5 26z" />
    <glyph glyph-name="Dcaron" unicode="&#x10e;" horiz-adv-x="760" 
d="M517 945l-138 -184h-46l-136 184h49l111 -107l111 107h49zM713 352q0 -163 -103.5 -257.5t-280.5 -94.5h-221v700h214q181 0 286 -93.5t105 -254.5zM605 352q0 138 -76.5 214.5t-214.5 76.5h-108v-586h113q137 0 211.5 76.5t74.5 218.5z" />
    <glyph glyph-name="dcaron" unicode="&#x10f;" horiz-adv-x="632" 
d="M658 749h95l-79 -205h-43zM301 51q63 0 105 53t42 129v50q0 69 -43 114t-102 45q-70 0 -111.5 -55t-41.5 -150q0 -86 41 -136t110 -50zM279 497q59 0 102 -24.5t66 -70.5v347h94v-749h-90l-4 119q-19 -59 -67 -94t-112 -35q-95 0 -156.5 68t-61.5 177q0 113 66.5 187.5
t162.5 74.5z" />
    <glyph glyph-name="Dcroat" unicode="&#x110;" horiz-adv-x="780" 
d="M733 352q0 -163 -103.5 -257.5t-280.5 -94.5h-221v331h-92v58h92v311h214q181 0 286 -93.5t105 -254.5zM226 331v-274h113q137 0 211.5 76.5t74.5 218.5q0 138 -76.5 214.5t-214.5 76.5h-108v-254h154v-58h-154z" />
    <glyph glyph-name="dcroat" unicode="&#x111;" horiz-adv-x="635" 
d="M301 51q63 0 105 53t42 129v50q0 69 -43 114t-102 45q-70 0 -111.5 -55t-41.5 -150q0 -86 41 -136t110 -50zM451 0l-4 119q-19 -59 -67 -94t-112 -35q-95 0 -156.5 68t-61.5 177q0 113 66.5 187.5t162.5 74.5q59 0 102 -24.5t66 -70.5v192h-157v49h157v106h94v-106h80
v-49h-80v-594h-90z" />
    <glyph glyph-name="Emacron" unicode="&#x112;" horiz-adv-x="663" 
d="M502 847v-57h-280v57h280zM603 0h-495v700h482v-60h-384v-250h286v-60h-286v-270h397v-60z" />
    <glyph glyph-name="emacron" unicode="&#x113;" horiz-adv-x="552" 
d="M456 165l45 -14q-18 -77 -73.5 -119t-139.5 -42q-104 0 -171 68.5t-67 178.5q0 114 67 187t168 73q103 0 160.5 -66t57.5 -183h-356q1 -95 43 -146.5t119 -51.5q55 0 90 27.5t57 87.5zM284 445q-55 0 -90.5 -39t-43.5 -110h253q-2 74 -32 111.5t-87 37.5zM429 647v-57
h-280v57h280z" />
    <glyph glyph-name="Ebreve" unicode="&#x114;" horiz-adv-x="663" 
d="M464 942h43q0 -74 -41 -120.5t-104 -46.5t-104 46.5t-41 120.5h43q4 -47 32 -75.5t70 -28.5t70 28.5t32 75.5zM603 0h-495v700h482v-60h-384v-250h286v-60h-286v-270h397v-60z" />
    <glyph glyph-name="ebreve" unicode="&#x115;" horiz-adv-x="552" 
d="M456 165l45 -14q-18 -77 -73.5 -119t-139.5 -42q-104 0 -171 68.5t-67 178.5q0 114 67 187t168 73q103 0 160.5 -66t57.5 -183h-356q1 -95 43 -146.5t119 -51.5q55 0 90 27.5t57 87.5zM284 445q-55 0 -90.5 -39t-43.5 -110h253q-2 74 -32 111.5t-87 37.5zM389 745h43
q0 -78 -40 -127.5t-103 -49.5t-103 49.5t-40 127.5h43q4 -50 32 -82t68 -32t68 32t32 82z" />
    <glyph glyph-name="Edotaccent" unicode="&#x116;" horiz-adv-x="663" 
d="M412 790h-101v122h101v-122zM603 0h-495v700h482v-60h-384v-250h286v-60h-286v-270h397v-60z" />
    <glyph glyph-name="edotaccent" unicode="&#x117;" horiz-adv-x="552" 
d="M456 165l45 -14q-18 -77 -73.5 -119t-139.5 -42q-104 0 -171 68.5t-67 178.5q0 114 67 187t168 73q103 0 160.5 -66t57.5 -183h-356q1 -95 43 -146.5t119 -51.5q55 0 90 27.5t57 87.5zM284 445q-55 0 -90.5 -39t-43.5 -110h253q-2 74 -32 111.5t-87 37.5zM339 593h-101
v122h101v-122z" />
    <glyph glyph-name="Eogonek" unicode="&#x118;" horiz-adv-x="663" 
d="M554 -105l40 -17q-18 -50 -54 -76.5t-85 -26.5q-41 0 -70.5 25.5t-29.5 65.5q0 36 23.5 68.5t74.5 65.5h-345v700h482v-60h-384v-250h286v-60h-286v-270h397v-60h-72q-67 -42 -89 -67t-22 -52q0 -24 15 -38.5t39 -14.5q27 0 45 15.5t35 51.5z" />
    <glyph glyph-name="eogonek" unicode="&#x119;" horiz-adv-x="552" 
d="M435 -105l40 -17q-18 -50 -54 -76.5t-85 -26.5q-41 0 -70.5 25.5t-29.5 65.5q0 34 20.5 65t64.5 61q-15 -1 -21 -1.5t-12 -0.5q-104 0 -171 68.5t-67 178.5q0 114 67 187t168 73q103 0 160.5 -66t57.5 -183h-356q0 -95 42.5 -146.5t119.5 -51.5q55 0 90 27.5t57 87.5
l45 -14q-9 -39 -33.5 -74t-86.5 -86q-50 -42 -65 -64.5t-15 -45.5q0 -24 15 -38.5t39 -14.5q27 0 45 15.5t35 51.5zM284 445q-55 0 -90.5 -39t-44.5 -110h254q-2 74 -32 111.5t-87 37.5z" />
    <glyph glyph-name="Ecaron" unicode="&#x11a;" horiz-adv-x="663" 
d="M522 945l-138 -184h-46l-136 184h49l111 -107l111 107h49zM603 0h-495v700h482v-60h-384v-250h286v-60h-286v-270h397v-60z" />
    <glyph glyph-name="ecaron" unicode="&#x11b;" horiz-adv-x="552" 
d="M445 752l-134 -199h-46l-132 199h49l107 -122l107 122h49zM456 165l45 -14q-18 -77 -73.5 -119t-139.5 -42q-104 0 -171 68.5t-67 178.5q0 114 67 187t168 73q103 0 160.5 -66t57.5 -183h-356q1 -95 43 -146.5t119 -51.5q55 0 90 27.5t57 87.5zM284 445q-55 0 -90.5 -39
t-43.5 -110h253q-2 74 -32 111.5t-87 37.5z" />
    <glyph glyph-name="Gcircumflex" unicode="&#x11c;" horiz-adv-x="780" 
d="M694 324v-324h-45l-35 104q-28 -50 -87.5 -82t-129.5 -32q-154 0 -252 99t-98 256t104 261t258 104q95 0 165.5 -40.5t116.5 -120.5l-49 -50q-40 76 -95.5 111.5t-131.5 35.5q-114 0 -185 -81t-71 -216t69 -215t184 -80q77 0 130 46t53 114v110h99zM569 765h-49l-111 107
l-111 -107h-49l136 184h46z" />
    <glyph glyph-name="gcircumflex" unicode="&#x11d;" horiz-adv-x="589" 
d="M254 751h46l134 -199h-49l-107 122l-107 -122h-49zM273 221q48 0 76.5 30.5t28.5 84.5t-28.5 84.5t-76.5 30.5q-47 0 -75.5 -30.5t-28.5 -84.5t28.5 -84.5t75.5 -30.5zM550 -46q0 -80 -79.5 -129.5t-198.5 -49.5q-117 0 -183 35.5t-66 99.5q0 41 36.5 68.5t100.5 34.5
q-43 8 -67 32t-24 60q0 33 21.5 58.5t61.5 41.5q-37 22 -57.5 56.5t-20.5 74.5q0 69 56 115t143 46q34 0 64.5 -7.5t56.5 -22.5q34 40 64 57.5t63 17.5q31 0 50.5 -18t19.5 -48q0 -17 -6 -33t-16 -27l-45 25q4 5 6.5 12t2.5 13q0 11 -6 17t-17 6q-17 0 -35.5 -12.5
t-41.5 -39.5q21 -21 31.5 -47t10.5 -54q0 -69 -57 -115.5t-145 -46.5q-24 0 -45.5 4t-41.5 11q-24 -12 -35.5 -25t-11.5 -27q0 -22 18 -33t53 -11h159q86 0 133.5 -36.5t47.5 -102.5zM466 -70q0 36 -26.5 55t-78.5 19h-128q-59 -1 -97.5 -25.5t-38.5 -63.5q0 -41 47.5 -64.5
t128.5 -23.5q88 0 140.5 27.5t52.5 75.5z" />
    <glyph glyph-name="Gbreve" unicode="&#x11e;" horiz-adv-x="780" 
d="M511 942h43q0 -74 -41 -120.5t-104 -46.5t-104 46.5t-41 120.5h43q4 -47 32 -75.5t70 -28.5t70 28.5t32 75.5zM694 324v-324h-45l-35 104q-28 -50 -87.5 -82t-129.5 -32q-154 0 -252 99t-98 256t104 261t258 104q95 0 165.5 -40.5t116.5 -120.5l-49 -50
q-40 76 -95.5 111.5t-131.5 35.5q-114 0 -185 -81t-71 -216t69 -215t184 -80q77 0 130 46t53 114v110h99z" />
    <glyph glyph-name="gbreve" unicode="&#x11f;" horiz-adv-x="589" 
d="M273 221q48 0 76.5 30.5t28.5 84.5t-28.5 84.5t-76.5 30.5q-47 0 -75.5 -30.5t-28.5 -84.5t28.5 -84.5t75.5 -30.5zM550 -46q0 -80 -79.5 -129.5t-198.5 -49.5q-117 0 -183 35.5t-66 99.5q0 41 36.5 68.5t100.5 34.5q-43 8 -67 32t-24 60q0 33 21.5 58.5t61.5 41.5
q-37 22 -57.5 56.5t-20.5 74.5q0 69 56 115t143 46q34 0 64.5 -7.5t56.5 -22.5q34 40 64 57.5t63 17.5q31 0 50.5 -18t19.5 -48q0 -17 -6 -33t-16 -27l-45 25q4 5 6.5 12t2.5 13q0 11 -6 17t-17 6q-17 0 -35.5 -12.5t-41.5 -39.5q21 -21 31.5 -47t10.5 -54q0 -69 -57 -115.5
t-145 -46.5q-24 0 -45.5 4t-41.5 11q-24 -12 -35.5 -25t-11.5 -27q0 -22 18 -33t53 -11h159q86 0 133.5 -36.5t47.5 -102.5zM466 -70q0 36 -26.5 55t-78.5 19h-128q-59 -1 -97.5 -25.5t-38.5 -63.5q0 -41 47.5 -64.5t128.5 -23.5q88 0 140.5 27.5t52.5 75.5zM382 745h43
q0 -78 -40 -127.5t-103 -49.5t-103 49.5t-40 127.5h43q4 -50 32 -82t68 -32t68 32t32 82z" />
    <glyph glyph-name="Gdotaccent" unicode="&#x120;" horiz-adv-x="780" 
d="M460 790h-101v122h101v-122zM694 324v-324h-45l-35 104q-28 -50 -87.5 -82t-129.5 -32q-154 0 -252 99t-98 256t104 261t258 104q95 0 165.5 -40.5t116.5 -120.5l-49 -50q-40 76 -95.5 111.5t-131.5 35.5q-114 0 -185 -81t-71 -216t69 -215t184 -80q77 0 130 46t53 114
v110h99z" />
    <glyph glyph-name="gdotaccent" unicode="&#x121;" horiz-adv-x="589" 
d="M273 221q48 0 76.5 30.5t28.5 84.5t-28.5 84.5t-76.5 30.5q-47 0 -75.5 -30.5t-28.5 -84.5t28.5 -84.5t75.5 -30.5zM550 -46q0 -80 -79.5 -129.5t-198.5 -49.5q-117 0 -183 35.5t-66 99.5q0 41 36.5 68.5t100.5 34.5q-43 8 -67 32t-24 60q0 33 21.5 58.5t61.5 41.5
q-37 22 -57.5 56.5t-20.5 74.5q0 69 56 115t143 46q34 0 64.5 -7.5t56.5 -22.5q34 40 64 57.5t63 17.5q31 0 50.5 -18t19.5 -48q0 -17 -6 -33t-16 -27l-45 25q4 5 6.5 12t2.5 13q0 11 -6 17t-17 6q-17 0 -35.5 -12.5t-41.5 -39.5q21 -21 31.5 -47t10.5 -54q0 -69 -57 -115.5
t-145 -46.5q-24 0 -45.5 4t-41.5 11q-24 -12 -35.5 -25t-11.5 -27q0 -22 18 -33t53 -11h159q86 0 133.5 -36.5t47.5 -102.5zM466 -70q0 36 -26.5 55t-78.5 19h-128q-59 -1 -97.5 -25.5t-38.5 -63.5q0 -41 47.5 -64.5t128.5 -23.5q88 0 140.5 27.5t52.5 75.5zM332 593h-101
v122h101v-122z" />
    <glyph glyph-name="Gcommaaccent" unicode="&#x122;" horiz-adv-x="780" 
d="M409 -149h-56v91h112v-96q0 -56 -35 -86t-101 -30v49q43 0 61.5 15t18.5 50v7zM694 324v-324h-45l-35 104q-28 -50 -87.5 -82t-129.5 -32q-154 0 -252 99t-98 256t104 261t258 104q95 0 165.5 -40.5t116.5 -120.5l-49 -50q-40 76 -95.5 111.5t-131.5 35.5
q-114 0 -185 -81t-71 -216t69 -215t184 -80q77 0 130 46t53 114v110h99z" />
    <glyph glyph-name="gcommaaccent" unicode="&#x123;" horiz-adv-x="589" 
d="M280 656h57v-91h-113v96q0 55 35 85.5t101 30.5v-49q-43 0 -61.5 -15t-18.5 -50v-7zM273 221q48 0 76.5 30.5t28.5 84.5t-28.5 84.5t-76.5 30.5q-47 0 -75.5 -30.5t-28.5 -84.5t28.5 -84.5t75.5 -30.5zM550 -46q0 -80 -79.5 -129.5t-198.5 -49.5q-117 0 -183 35.5
t-66 99.5q0 41 36.5 68.5t100.5 34.5q-43 8 -67 32t-24 60q0 33 21.5 58.5t61.5 41.5q-37 22 -57.5 56.5t-20.5 74.5q0 69 56 115t143 46q34 0 64.5 -7.5t56.5 -22.5q34 40 64 57.5t63 17.5q31 0 50.5 -18t19.5 -48q0 -17 -6 -33t-16 -27l-45 25q4 5 6.5 12t2.5 13
q0 11 -6 17t-17 6q-17 0 -35.5 -12.5t-41.5 -39.5q21 -21 31.5 -47t10.5 -54q0 -69 -57 -115.5t-145 -46.5q-24 0 -45.5 4t-41.5 11q-24 -12 -35.5 -25t-11.5 -27q0 -22 18 -33t53 -11h159q86 0 133.5 -36.5t47.5 -102.5zM466 -70q0 36 -26.5 55t-78.5 19h-128
q-59 -1 -97.5 -25.5t-38.5 -63.5q0 -41 47.5 -64.5t128.5 -23.5q88 0 140.5 27.5t52.5 75.5z" />
    <glyph glyph-name="Hcircumflex" unicode="&#x124;" horiz-adv-x="822" 
d="M206 0h-98v700h98v-311h410v311h98v-700h-98v331h-410v-331zM571 765h-49l-111 107l-111 -107h-49l136 184h46z" />
    <glyph glyph-name="hcircumflex" unicode="&#x125;" horiz-adv-x="621" 
d="M99 0v749h94v-377q22 60 68 92.5t108 32.5q75 0 117.5 -46t42.5 -128v-323h-94v305q0 57 -28 90.5t-78 33.5q-59 0 -97.5 -50.5t-38.5 -130.5v-248h-94zM474 797h-49l-111 107l-111 -107h-49l136 184h46z" />
    <glyph glyph-name="Hbar" unicode="&#x126;" horiz-adv-x="862" 
d="M226 464v-127h410v127h-410zM636 279h-410v-279h-98v464h-92v58h92v178h98v-178h410v178h98v-178h92v-58h-92v-464h-98v279z" />
    <glyph glyph-name="hbar" unicode="&#x127;" horiz-adv-x="624" 
d="M332 429q-59 0 -97.5 -50.5t-38.5 -130.5v-248h-94v594h-81v49h81v106h94v-106h157v-49h-157v-222q22 60 68 92.5t108 32.5q75 0 117.5 -46t42.5 -128v-323h-94v305q0 57 -28 90.5t-78 33.5z" />
    <glyph glyph-name="Itilde" unicode="&#x128;" horiz-adv-x="315" 
d="M108 700h98v-700h-98v700zM230 788q-15 0 -32.5 8t-51.5 32q-27 20 -39.5 26t-22.5 6q-20 0 -33.5 -17.5t-22.5 -57.5h-51q13 65 41.5 102t65.5 37q15 0 32.5 -8t51.5 -32q27 -20 39.5 -26t22.5 -6q20 0 33.5 17.5t22.5 57.5h51q-13 -65 -41.5 -102t-65.5 -37z" />
    <glyph glyph-name="itilde" unicode="&#x129;" horiz-adv-x="293" 
d="M256 724h50q-13 -67 -40 -103t-63 -36q-16 0 -31 8.5t-40 34.5q-18 18 -26.5 23.5t-16.5 5.5q-19 0 -30.5 -16t-21.5 -59h-50q12 66 39 102.5t64 36.5q16 0 31.5 -8.5t39.5 -34.5q18 -18 26.5 -23.5t15.5 -5.5q19 0 31 15.5t22 59.5zM99 487h94v-487h-94v487z" />
    <glyph glyph-name="Imacron" unicode="&#x12a;" horiz-adv-x="315" 
d="M108 700h98v-700h-98v700zM297 847v-57h-280v57h280z" />
    <glyph glyph-name="imacron" unicode="&#x12b;" horiz-adv-x="293" 
d="M268 647v-57h-243v57h243zM99 487h94v-487h-94v487z" />
    <glyph glyph-name="Ibreve" unicode="&#x12c;" horiz-adv-x="315" 
d="M108 700h98v-700h-98v700zM259 942h43q0 -74 -41 -120.5t-104 -46.5t-104 46.5t-41 120.5h43q4 -47 32 -75.5t70 -28.5t70 28.5t32 75.5z" />
    <glyph glyph-name="ibreve" unicode="&#x12d;" horiz-adv-x="293" 
d="M146 631q39 0 63.5 30.5t28.5 83.5h43q-1 -81 -37.5 -129t-97.5 -48q-60 0 -96.5 48t-37.5 129h43q4 -53 28 -83.5t63 -30.5zM99 487h94v-487h-94v487z" />
    <glyph glyph-name="Iogonek" unicode="&#x12e;" horiz-adv-x="315" 
d="M225 -105l40 -17q-18 -50 -54 -76.5t-84 -26.5q-41 0 -70.5 25.5t-29.5 65.5q0 36 22.5 69t70.5 65h-12v700h98v-700q-69 -40 -92 -65.5t-23 -53.5q0 -24 15 -38.5t39 -14.5q27 0 45.5 15.5t34.5 51.5z" />
    <glyph glyph-name="iogonek" unicode="&#x12f;" horiz-adv-x="293" 
d="M197 593h-101v122h101v-122zM212 -105l41 -17q-19 -50 -55 -76.5t-84 -26.5q-41 0 -70.5 25.5t-29.5 65.5q0 36 23 68t74 66h-12v487h94v-487q-69 -41 -91.5 -66t-22.5 -53q0 -24 14.5 -38.5t38.5 -14.5q27 0 45.5 15.5t34.5 51.5z" />
    <glyph glyph-name="Idotaccent" unicode="&#x130;" horiz-adv-x="315" 
d="M108 700h98v-700h-98v700zM207 790h-101v122h101v-122z" />
    <glyph glyph-name="dotlessi" unicode="&#x131;" horiz-adv-x="293" 
d="M99 487h94v-487h-94v487z" />
    <glyph glyph-name="Jcircumflex" unicode="&#x134;" horiz-adv-x="596" 
d="M259 54q70 0 107 45.5t37 131.5v469h98v-472q0 -107 -66.5 -172.5t-172.5 -65.5q-92 0 -152 52t-60 128q0 42 16.5 74t52.5 58l43 -39q-23 -22 -32.5 -43t-9.5 -46q0 -53 39 -86.5t100 -33.5zM615 765h-49l-111 107l-111 -107h-49l136 184h46z" />
    <glyph glyph-name="jcircumflex" unicode="&#x135;" horiz-adv-x="293" 
d="M122 751h46l122 -199h-49l-95 122l-94 -122h-49zM193 487v-525q0 -87 -42.5 -137t-117.5 -50q-58 0 -91.5 27t-33.5 73q0 14 5 27t13 22l48 -17q-4 -6 -5.5 -13.5t-1.5 -15.5q0 -24 15.5 -38t42.5 -14q39 0 56.5 27.5t17.5 91.5v542h94z" />
    <glyph glyph-name="Kcommaaccent" unicode="&#x136;" horiz-adv-x="738" 
d="M361 -149h-56v91h112v-96q0 -56 -35 -86t-101 -30v49q43 0 61.5 15t18.5 50v7zM698 0h-124l-277 346l-91 -86v-260h-98v700h98v-362l372 362h94l-306 -289z" />
    <glyph glyph-name="kcommaaccent" unicode="&#x137;" horiz-adv-x="591" 
d="M306 -149h-56v91h112v-96q0 -56 -35 -86t-101 -30v49q43 0 61.5 15t18.5 50v7zM555 0h-111l-180 230l-71 -64v-166h-94v749h94v-511l268 249h87l-219 -198z" />
    <glyph glyph-name="kgreenlandic" unicode="&#x138;" horiz-adv-x="591" 
d="M555 0h-111l-180 230l-71 -64v-166h-94v487h94v-249l268 249h87l-219 -198z" />
    <glyph glyph-name="Lacute" unicode="&#x139;" horiz-adv-x="630" 
d="M137 768l58 167h108l-116 -167h-50zM574 0h-466v700h98v-640h368v-60z" />
    <glyph glyph-name="lacute" unicode="&#x13a;" horiz-adv-x="293" 
d="M119 808l58 167h108l-116 -167h-50zM99 749h94v-749h-94v749z" />
    <glyph glyph-name="Lcommaaccent" unicode="&#x13b;" horiz-adv-x="630" 
d="M340 -149h-56v91h112v-96q0 -56 -35 -86t-101 -30v49q43 0 61.5 15t18.5 50v7zM574 0h-466v700h98v-640h368v-60z" />
    <glyph glyph-name="lcommaaccent" unicode="&#x13c;" horiz-adv-x="293" 
d="M146 -149h-56v91h112v-96q0 -56 -35 -86t-101 -30v49q43 0 61.5 15t18.5 50v7zM99 749h94v-749h-94v749z" />
    <glyph glyph-name="Lcaron" unicode="&#x13d;" horiz-adv-x="630" 
d="M418 749h95l-79 -205h-43zM574 0h-466v700h98v-640h368v-60z" />
    <glyph glyph-name="lcaron" unicode="&#x13e;" horiz-adv-x="293" 
d="M318 749h95l-79 -205h-43zM99 749h94v-749h-94v749z" />
    <glyph glyph-name="Ldot" unicode="&#x13f;" horiz-adv-x="630" 
d="M574 0h-466v700h98v-640h368v-60zM496 290h-101v122h101v-122z" />
    <glyph glyph-name="ldot" unicode="&#x140;" horiz-adv-x="412" 
d="M99 749h94v-749h-94v749zM394 314h-101v122h101v-122z" />
    <glyph glyph-name="Lslash" unicode="&#x141;" horiz-adv-x="645" 
d="M588 60v-60h-466v268l-86 -37v59l86 37v373h98v-332l186 78v-59l-186 -79v-248h368z" />
    <glyph glyph-name="lslash" unicode="&#x142;" horiz-adv-x="337" 
d="M215 379v-379h-94v333l-101 -61v62l101 62v353h94v-308l102 61v-61z" />
    <glyph glyph-name="Nacute" unicode="&#x143;" horiz-adv-x="794" 
d="M369 768l58 167h108l-116 -167h-50zM201 700l415 -517v517h70v-703h-39l-469 583v-580h-70v700h93z" />
    <glyph glyph-name="nacute" unicode="&#x144;" horiz-adv-x="621" 
d="M288 561l65 188h105l-122 -188h-48zM329 429q-59 0 -97.5 -50.5t-38.5 -130.5v-248h-94v487h90l4 -115q22 60 68 92.5t108 32.5q75 0 117.5 -46t42.5 -128v-323h-94v305q0 57 -28 90.5t-78 33.5z" />
    <glyph glyph-name="Ncommaaccent" unicode="&#x145;" horiz-adv-x="794" 
d="M396 -149h-56v91h112v-96q0 -56 -35 -86t-101 -30v49q43 0 61.5 15t18.5 50v7zM201 700l415 -517v517h70v-703h-39l-469 583v-580h-70v700h93z" />
    <glyph glyph-name="ncommaaccent" unicode="&#x146;" horiz-adv-x="621" 
d="M318 -149h-56v91h112v-96q0 -56 -35 -86t-101 -30v49q43 0 61.5 15t18.5 50v7zM329 429q-59 0 -97.5 -50.5t-38.5 -130.5v-248h-94v487h90l4 -115q22 60 68 92.5t108 32.5q75 0 117.5 -46t42.5 -128v-323h-94v305q0 57 -28 90.5t-78 33.5z" />
    <glyph glyph-name="Ncaron" unicode="&#x147;" horiz-adv-x="794" 
d="M556 945l-138 -184h-46l-136 184h49l111 -107l111 107h49zM201 700l415 -517v517h70v-703h-39l-469 583v-580h-70v700h93z" />
    <glyph glyph-name="ncaron" unicode="&#x148;" horiz-adv-x="621" 
d="M474 752l-134 -199h-46l-132 199h49l107 -122l107 122h49zM329 429q-59 0 -97.5 -50.5t-38.5 -130.5v-248h-94v487h90l4 -115q22 60 68 92.5t108 32.5q75 0 117.5 -46t42.5 -128v-323h-94v305q0 57 -28 90.5t-78 33.5z" />
    <glyph glyph-name="Eng" unicode="&#x14a;" horiz-adv-x="792" 
d="M528 -225q-57 0 -90 27t-33 73q0 14 5 27t13 22l48 -17q-4 -6 -5.5 -13.5t-1.5 -15.5q0 -25 16 -38.5t45 -13.5q46 0 68 34.5t22 106.5v68l-438 545v-580h-69v700h92l415 -517v517h69v-736q0 -87 -42 -138t-114 -51z" />
    <glyph glyph-name="eng" unicode="&#x14b;" horiz-adv-x="621" 
d="M369 -225q-58 0 -91.5 27t-33.5 73q0 14 5 27t13 22l48 -17q-4 -6 -5.5 -13.5t-1.5 -15.5q0 -24 15.5 -38t42.5 -14q39 0 56.5 27.5t17.5 91.5v360q0 57 -28 90.5t-78 33.5q-59 0 -97.5 -50.5t-38.5 -130.5v-248h-94v487h90l4 -115q22 60 68 92.5t108 32.5
q75 0 117.5 -46t42.5 -128v-361q0 -87 -42.5 -137t-117.5 -50z" />
    <glyph glyph-name="Omacron" unicode="&#x14c;" horiz-adv-x="791" 
d="M536 847v-57h-280v57h280zM396 -10q-149 0 -249 103.5t-100 256.5t100 256.5t249 103.5t248.5 -103.5t99.5 -256.5t-99.5 -256.5t-248.5 -103.5zM396 654q-110 0 -174 -82t-64 -222t64 -222t174 -82t174 82t64 222t-64 222t-174 82z" />
    <glyph glyph-name="omacron" unicode="&#x14d;" horiz-adv-x="592" 
d="M436 647v-57h-280v57h280zM542 243q0 -109 -70 -181t-176 -72t-176 72t-70 181t70 181.5t176 72.5t176 -72.5t70 -181.5zM441 243q0 95 -38 148t-107 53t-107.5 -53t-38.5 -148t38.5 -148t107.5 -53t107 53t38 148z" />
    <glyph glyph-name="Obreve" unicode="&#x14e;" horiz-adv-x="791" 
d="M498 942h43q0 -74 -41 -120.5t-104 -46.5t-104 46.5t-41 120.5h43q4 -47 32 -75.5t70 -28.5t70 28.5t32 75.5zM396 -10q-149 0 -249 103.5t-100 256.5t100 256.5t249 103.5t248.5 -103.5t99.5 -256.5t-99.5 -256.5t-248.5 -103.5zM396 654q-110 0 -174 -82t-64 -222
t64 -222t174 -82t174 82t64 222t-64 222t-174 82z" />
    <glyph glyph-name="obreve" unicode="&#x14f;" horiz-adv-x="592" 
d="M542 243q0 -109 -70 -181t-176 -72t-176 72t-70 181t70 181.5t176 72.5t176 -72.5t70 -181.5zM441 243q0 95 -38 148t-107 53t-107.5 -53t-38.5 -148t38.5 -148t107.5 -53t107 53t38 148zM396 745h43q0 -78 -40 -127.5t-103 -49.5t-103 49.5t-40 127.5h43q4 -50 32 -82
t68 -32t68 32t32 82z" />
    <glyph glyph-name="Ohungarumlaut" unicode="&#x150;" horiz-adv-x="791" 
d="M396 -10q-149 0 -249 103.5t-100 256.5t100 256.5t249 103.5t248.5 -103.5t99.5 -256.5t-99.5 -256.5t-248.5 -103.5zM396 654q-110 0 -174 -82t-64 -222t64 -222t174 -82t174 82t64 222t-64 222t-174 82zM274 768l70 167h98l-119 -167h-49zM444 768l70 167h97l-119 -167
h-48z" />
    <glyph glyph-name="ohungarumlaut" unicode="&#x151;" horiz-adv-x="592" 
d="M184 561l70 188h98l-119 -188h-49zM351 561l70 188h97l-119 -188h-48zM542 243q0 -109 -70 -181t-176 -72t-176 72t-70 181t70 181.5t176 72.5t176 -72.5t70 -181.5zM441 243q0 95 -38 148t-107 53t-107.5 -53t-38.5 -148t38.5 -148t107.5 -53t107 53t38 148z" />
    <glyph glyph-name="OE" unicode="&#x152;" horiz-adv-x="1109" 
d="M1050 0h-618q-178 0 -281.5 94.5t-103.5 257.5q0 161 105 254.5t286 93.5h598v-60h-384v-250h286v-60h-286v-270h398v-60zM554 643h-108q-138 0 -214.5 -77t-76.5 -214q0 -141 74.5 -218t212.5 -77h112v586z" />
    <glyph glyph-name="oe" unicode="&#x153;" horiz-adv-x="941" 
d="M844 165l45 -14q-17 -77 -72.5 -119t-139.5 -42q-60 0 -109.5 27t-80.5 76q-32 -50 -81.5 -76.5t-109.5 -26.5q-106 0 -176 72t-70 181t70 181.5t176 72.5q60 0 110 -27.5t83 -78.5q30 51 78.5 78.5t105.5 27.5q103 0 161 -66t58 -183h-357q1 -95 43.5 -146.5
t119.5 -51.5q54 0 89 27.5t57 87.5zM672 445q-55 0 -90.5 -39t-43.5 -110h254q-3 75 -33 112t-87 37zM441 243q0 95 -38 148t-107 53t-107.5 -53t-38.5 -148t38.5 -148t107.5 -53t107 53t38 148z" />
    <glyph glyph-name="Racute" unicode="&#x154;" horiz-adv-x="733" 
d="M358 642h-152v-275h152q86 0 130.5 36t44.5 106q0 66 -44.5 99.5t-130.5 33.5zM342 309h-136v-309h-98v700h270q126 0 194 -48.5t68 -140.5q0 -80 -55 -126t-145 -48v-3q60 -8 94 -35.5t55 -89.5l40 -109q10 -28 24 -53t33 -47h-110q-12 16 -24.5 42t-20.5 50l-42 113
q-22 62 -53 83t-94 21zM322 768l58 167h108l-116 -167h-50z" />
    <glyph glyph-name="racute" unicode="&#x155;" horiz-adv-x="505" 
d="M238 561l65 188h105l-122 -188h-48zM189 487l4 -141q23 69 67 110.5t98 41.5q50 0 80 -29t30 -77q0 -24 -8.5 -45.5t-22.5 -34.5l-46 35q6 8 9.5 18.5t3.5 22.5q0 24 -14 37.5t-40 13.5q-56 0 -106.5 -74.5t-50.5 -156.5v-208h-94v487h90z" />
    <glyph glyph-name="Rcommaaccent" unicode="&#x156;" horiz-adv-x="733" 
d="M349 -149h-56v91h112v-96q0 -56 -35 -86t-101 -30v49q43 0 61.5 15t18.5 50v7zM358 642h-152v-275h152q86 0 130.5 36t44.5 106q0 66 -44.5 99.5t-130.5 33.5zM342 309h-136v-309h-98v700h270q126 0 194 -48.5t68 -140.5q0 -80 -55 -126t-145 -48v-3q60 -8 94 -35.5
t55 -89.5l40 -109q10 -28 24 -53t33 -47h-110q-12 16 -24.5 42t-20.5 50l-42 113q-22 62 -53 83t-94 21z" />
    <glyph glyph-name="rcommaaccent" unicode="&#x157;" horiz-adv-x="505" 
d="M146 -149h-56v91h112v-96q0 -56 -35 -86t-101 -30v49q43 0 61.5 15t18.5 50v7zM189 487l4 -141q23 69 67 110.5t98 41.5q50 0 80 -29t30 -77q0 -24 -8.5 -45.5t-22.5 -34.5l-46 35q6 8 9.5 18.5t3.5 22.5q0 24 -14 37.5t-40 13.5q-56 0 -106.5 -74.5t-50.5 -156.5v-208
h-94v487h90z" />
    <glyph glyph-name="Rcaron" unicode="&#x158;" horiz-adv-x="733" 
d="M510 945l-138 -184h-46l-136 184h49l111 -107l111 107h49zM358 642h-152v-275h152q86 0 130.5 36t44.5 106q0 66 -44.5 99.5t-130.5 33.5zM342 309h-136v-309h-98v700h270q126 0 194 -48.5t68 -140.5q0 -80 -55 -126t-145 -48v-3q60 -8 94 -35.5t55 -89.5l40 -109
q10 -28 24 -53t33 -47h-110q-12 16 -24.5 42t-20.5 50l-42 113q-22 62 -53 83t-94 21z" />
    <glyph glyph-name="rcaron" unicode="&#x159;" horiz-adv-x="505" 
d="M424 752l-134 -199h-46l-132 199h49l107 -122l107 122h49zM189 487l4 -141q23 69 67 110.5t98 41.5q50 0 80 -29t30 -77q0 -24 -8.5 -45.5t-22.5 -34.5l-46 35q6 8 9.5 18.5t3.5 22.5q0 24 -14 37.5t-40 13.5q-56 0 -106.5 -74.5t-50.5 -156.5v-208h-94v487h90z" />
    <glyph glyph-name="Sacute" unicode="&#x15a;" horiz-adv-x="631" 
d="M313 53q77 0 121.5 33.5t44.5 92.5q0 47 -29.5 75.5t-100.5 47.5l-96 26q-102 27 -144.5 70.5t-42.5 116.5q0 85 69 140t175 55q83 0 150 -34.5t102 -93.5l-49 -47q-30 55 -83 85t-120 30q-68 0 -109.5 -31t-41.5 -83q0 -46 28 -72.5t102 -45.5l94 -25q99 -26 144 -71
t45 -116q0 -96 -73.5 -156t-185.5 -60q-93 0 -170.5 41.5t-112.5 110.5l50 42q38 -64 98 -97.5t135 -33.5zM292 768l58 167h108l-116 -167h-50z" />
    <glyph glyph-name="sacute" unicode="&#x15b;" horiz-adv-x="511" 
d="M226 561l65 188h105l-122 -188h-48zM253 442q-46 0 -73 -18t-27 -49q0 -27 17.5 -42t65.5 -28l83 -20q73 -19 104.5 -50.5t31.5 -86.5q0 -69 -55 -113.5t-140 -44.5q-74 0 -131 31t-85 86l43 41q31 -51 75 -77t98 -26q50 0 80.5 20.5t30.5 55.5q0 30 -18.5 46.5
t-72.5 30.5l-72 17q-71 17 -103.5 49t-32.5 85q0 66 51 107t130 41q63 0 112.5 -25.5t82.5 -75.5l-39 -47q-23 43 -65 68t-91 25z" />
    <glyph glyph-name="Scircumflex" unicode="&#x15c;" horiz-adv-x="631" 
d="M313 53q77 0 121.5 33.5t44.5 92.5q0 47 -29.5 75.5t-100.5 47.5l-96 26q-102 27 -144.5 70.5t-42.5 116.5q0 85 69 140t175 55q83 0 150 -34.5t102 -93.5l-49 -47q-30 55 -83 85t-120 30q-68 0 -109.5 -31t-41.5 -83q0 -46 28 -72.5t102 -45.5l94 -25q99 -26 144 -71
t45 -116q0 -96 -73.5 -156t-185.5 -60q-93 0 -170.5 41.5t-112.5 110.5l50 42q38 -64 98 -97.5t135 -33.5zM479 765h-49l-111 107l-111 -107h-49l136 184h46z" />
    <glyph glyph-name="scircumflex" unicode="&#x15d;" horiz-adv-x="511" 
d="M240 751h46l134 -199h-49l-107 122l-107 -122h-49zM253 442q-46 0 -73 -18t-27 -49q0 -27 17.5 -42t65.5 -28l83 -20q73 -19 104.5 -50.5t31.5 -86.5q0 -69 -55 -113.5t-140 -44.5q-74 0 -131 31t-85 86l43 41q31 -51 75 -77t98 -26q50 0 80.5 20.5t30.5 55.5
q0 30 -18.5 46.5t-72.5 30.5l-72 17q-71 17 -103.5 49t-32.5 85q0 66 51 107t130 41q63 0 112.5 -25.5t82.5 -75.5l-39 -47q-23 43 -65 68t-91 25z" />
    <glyph glyph-name="Scedilla" unicode="&#x15e;" horiz-adv-x="631" 
d="M405 -136q0 -38 -34 -63.5t-84 -25.5q-36 0 -65.5 16t-43.5 43l31 30q14 -20 33.5 -30.5t41.5 -10.5q25 0 40.5 11t15.5 31q0 22 -26 33.5t-76 12.5l34 81q-81 9 -146 49t-96 101l50 42q38 -64 98 -97.5t135 -33.5q77 0 121.5 33.5t44.5 92.5q0 47 -29.5 75.5
t-100.5 47.5l-96 26q-102 27 -144.5 70.5t-42.5 116.5q0 85 69 140t175 55q83 0 150 -34.5t102 -93.5l-49 -47q-30 55 -83 85t-120 30q-68 0 -109.5 -31t-41.5 -83q0 -46 28 -72.5t102 -45.5l94 -25q99 -26 144 -71t45 -116q0 -96 -73.5 -156t-184.5 -60l-18 -44
q53 -4 81 -25t28 -57z" />
    <glyph glyph-name="scedilla" unicode="&#x15f;" horiz-adv-x="511" 
d="M349 -136q0 -38 -34 -63.5t-84 -25.5q-36 0 -65.5 16t-43.5 43l31 30q14 -20 33.5 -30.5t41.5 -10.5q25 0 40.5 11t15.5 31q0 22 -26 33.5t-76 12.5l34 82q-59 9 -104 38.5t-68 75.5l43 41q31 -51 75 -77t98 -26q50 0 80.5 20.5t30.5 55.5q0 30 -18.5 46.5t-72.5 30.5
l-72 17q-71 17 -103.5 49t-32.5 85q0 66 51 107t130 41q63 0 112.5 -25.5t82.5 -75.5l-39 -47q-23 43 -65 68t-91 25q-46 0 -73 -18t-27 -49q0 -27 17.5 -42t65.5 -28l83 -20q73 -19 104.5 -50.5t31.5 -86.5q0 -69 -55 -113.5t-140 -44.5h-2l-18 -44q53 -4 81 -25t28 -57z
" />
    <glyph glyph-name="Scaron" unicode="&#x160;" horiz-adv-x="631" 
d="M313 53q77 0 121.5 33.5t44.5 92.5q0 47 -29.5 75.5t-100.5 47.5l-96 26q-102 27 -144.5 70.5t-42.5 116.5q0 85 69 140t175 55q83 0 150 -34.5t102 -93.5l-49 -47q-30 55 -83 85t-120 30q-68 0 -109.5 -31t-41.5 -83q0 -46 28 -72.5t102 -45.5l94 -25q99 -26 144 -71
t45 -116q0 -96 -73.5 -156t-185.5 -60q-93 0 -170.5 41.5t-112.5 110.5l50 42q38 -64 98 -97.5t135 -33.5zM479 945l-138 -184h-46l-136 184h49l111 -107l111 107h49z" />
    <glyph glyph-name="scaron" unicode="&#x161;" horiz-adv-x="511" 
d="M420 752l-134 -199h-46l-132 199h49l107 -122l107 122h49zM253 442q-46 0 -73 -18t-27 -49q0 -27 17.5 -42t65.5 -28l83 -20q73 -19 104.5 -50.5t31.5 -86.5q0 -69 -55 -113.5t-140 -44.5q-74 0 -131 31t-85 86l43 41q31 -51 75 -77t98 -26q50 0 80.5 20.5t30.5 55.5
q0 30 -18.5 46.5t-72.5 30.5l-72 17q-71 17 -103.5 49t-32.5 85q0 66 51 107t130 41q63 0 112.5 -25.5t82.5 -75.5l-39 -47q-23 43 -65 68t-91 25z" />
    <glyph glyph-name="Tcommaaccent" unicode="&#x162;" horiz-adv-x="734" 
d="M473 -136q0 -38 -34 -63.5t-84 -25.5q-36 0 -65.5 16t-43.5 43l31 30q14 -20 33.5 -30.5t41.5 -10.5q25 0 40.5 11t15.5 31q0 22 -26 33.5t-76 12.5l37 89h-25v641h-269v59h636v-59h-269v-641h-29l-23 -54q53 -4 81 -25t28 -57z" />
    <glyph glyph-name="tcommaaccent" unicode="&#x163;" horiz-adv-x="433" 
d="M324 -136q0 -38 -34 -63.5t-84 -25.5q-36 0 -65.5 16t-43.5 43l31 30q14 -20 33.5 -30.5t41.5 -10.5q25 0 40.5 11t15.5 31q0 22 -26 33.5t-76 12.5l36 86q-43 13 -66 47.5t-23 84.5l2 304h-79v54h79l3 130l91 34v-164h173l-5 -54h-168v-297q0 -42 18 -63.5t52 -21.5
q36 0 54.5 26t24.5 84l50 -6q-4 -77 -44.5 -121t-109.5 -44h-11l-19 -44q53 -4 81 -25t28 -57z" />
    <glyph glyph-name="Tcaron" unicode="&#x164;" horiz-adv-x="734" 
d="M527 945l-138 -184h-46l-136 184h49l111 -107l111 107h49zM416 0h-98v641h-269v59h636v-59h-269v-641z" />
    <glyph glyph-name="tcaron" unicode="&#x165;" horiz-adv-x="433" 
d="M306 777h95l-79 -205h-43zM106 433h-79v54h79l3 130l91 34v-164h173l-5 -54h-168v-297q0 -42 18 -63.5t52 -21.5q36 0 54.5 26t24.5 84l50 -6q-4 -77 -44.5 -121t-109.5 -44q-66 0 -103.5 37t-37.5 102z" />
    <glyph glyph-name="Tbar" unicode="&#x166;" horiz-adv-x="734" 
d="M560 389v-58h-144v-331h-98v331h-144v58h144v252h-269v59h636v-59h-269v-252h144z" />
    <glyph glyph-name="tbar" unicode="&#x167;" horiz-adv-x="446" 
d="M357 161l50 -6q-4 -77 -44.5 -121t-109.5 -44q-66 0 -103.5 37t-37.5 102l1 146h-79v54h79l1 104h-79v54h79l3 130l91 34v-164h173l-5 -54h-168v-104h168v-54h-168v-139q0 -42 18 -63.5t52 -21.5q36 0 54.5 26t24.5 84z" />
    <glyph glyph-name="Utilde" unicode="&#x168;" horiz-adv-x="759" 
d="M458 788q-15 0 -32.5 8t-51.5 32q-27 20 -39.5 26t-22.5 6q-20 0 -33.5 -17.5t-22.5 -57.5h-51q13 65 41.5 102t65.5 37q15 0 32.5 -8t51.5 -32q27 -20 39.5 -26t22.5 -6q20 0 33.5 17.5t22.5 57.5h51q-13 -65 -41.5 -102t-65.5 -37zM593 280v420h70v-431
q0 -129 -75 -204t-201 -75q-140 0 -215.5 73t-75.5 206v431h98v-420q0 -106 53 -164t148 -58q98 0 148 56t50 166z" />
    <glyph glyph-name="utilde" unicode="&#x169;" horiz-adv-x="613" 
d="M284 58q58 0 96.5 51.5t38.5 132.5v245h94v-487h-90l-4 119q-22 -63 -66 -96t-106 -33q-70 0 -112.5 47.5t-42.5 126.5v323h94v-306q0 -61 25 -92t73 -31zM376 585q-15 0 -32.5 8t-51.5 32q-27 20 -39.5 26t-22.5 6q-20 0 -33.5 -17.5t-22.5 -57.5h-51q13 65 41.5 102
t65.5 37q15 0 32.5 -8t51.5 -32q27 -20 39.5 -26t22.5 -6q20 0 33.5 17.5t22.5 57.5h51q-13 -65 -41.5 -102t-65.5 -37z" />
    <glyph glyph-name="Umacron" unicode="&#x16a;" horiz-adv-x="759" 
d="M525 847v-57h-280v57h280zM593 280v420h70v-431q0 -129 -75 -204t-201 -75q-140 0 -215.5 73t-75.5 206v431h98v-420q0 -106 53 -164t148 -58q98 0 148 56t50 166z" />
    <glyph glyph-name="umacron" unicode="&#x16b;" horiz-adv-x="613" 
d="M284 58q58 0 96.5 51.5t38.5 132.5v245h94v-487h-90l-4 119q-22 -63 -66 -96t-106 -33q-70 0 -112.5 47.5t-42.5 126.5v323h94v-306q0 -61 25 -92t73 -31zM443 647v-57h-280v57h280z" />
    <glyph glyph-name="Ubreve" unicode="&#x16c;" horiz-adv-x="759" 
d="M487 942h43q0 -74 -41 -120.5t-104 -46.5t-104 46.5t-41 120.5h43q4 -47 32 -75.5t70 -28.5t70 28.5t32 75.5zM593 280v420h70v-431q0 -129 -75 -204t-201 -75q-140 0 -215.5 73t-75.5 206v431h98v-420q0 -106 53 -164t148 -58q98 0 148 56t50 166z" />
    <glyph glyph-name="ubreve" unicode="&#x16d;" horiz-adv-x="613" 
d="M284 58q58 0 96.5 51.5t38.5 132.5v245h94v-487h-90l-4 119q-22 -63 -66 -96t-106 -33q-70 0 -112.5 47.5t-42.5 126.5v323h94v-306q0 -61 25 -92t73 -31zM403 745h43q0 -78 -40 -127.5t-103 -49.5t-103 49.5t-40 127.5h43q4 -50 32 -82t68 -32t68 32t32 82z" />
    <glyph glyph-name="Uring" unicode="&#x16e;" horiz-adv-x="759" 
d="M593 280v420h70v-431q0 -129 -75 -204t-201 -75q-140 0 -215.5 73t-75.5 206v431h98v-420q0 -106 53 -164t148 -58q98 0 148 56t50 166zM385 747q-44 0 -76 32t-32 75t32 74.5t76 31.5t76 -31.5t32 -74.5t-32 -75t-76 -32zM385 793q27 0 44 17t17 44q0 28 -16.5 45
t-44.5 17t-44.5 -17t-16.5 -45q0 -27 17 -44t44 -17z" />
    <glyph glyph-name="uring" unicode="&#x16f;" horiz-adv-x="613" 
d="M303 557q-44 0 -76 31.5t-32 75.5q0 43 32 74t76 31t76 -31t32 -74q0 -44 -32 -75.5t-76 -31.5zM303 602q28 0 44.5 17t16.5 45q0 27 -17 44.5t-44 17.5t-44 -17.5t-17 -44.5q0 -28 16.5 -45t44.5 -17zM284 58q58 0 96.5 51.5t38.5 132.5v245h94v-487h-90l-4 119
q-22 -63 -66 -96t-106 -33q-70 0 -112.5 47.5t-42.5 126.5v323h94v-306q0 -61 25 -92t73 -31z" />
    <glyph glyph-name="Uhungarumlaut" unicode="&#x170;" horiz-adv-x="759" 
d="M593 280v420h70v-431q0 -129 -75 -204t-201 -75q-140 0 -215.5 73t-75.5 206v431h98v-420q0 -106 53 -164t148 -58q98 0 148 56t50 166zM263 768l70 167h98l-119 -167h-49zM433 768l70 167h97l-119 -167h-48z" />
    <glyph glyph-name="uhungarumlaut" unicode="&#x171;" horiz-adv-x="613" 
d="M284 58q58 0 96.5 51.5t38.5 132.5v245h94v-487h-90l-4 119q-22 -63 -66 -96t-106 -33q-70 0 -112.5 47.5t-42.5 126.5v323h94v-306q0 -61 25 -92t73 -31zM191 561l70 188h98l-119 -188h-49zM358 561l70 188h97l-119 -188h-48z" />
    <glyph glyph-name="Uogonek" unicode="&#x172;" horiz-adv-x="759" 
d="M422 -225q-41 0 -70.5 25.5t-29.5 65.5q0 33 20 63.5t62 60.5h-17q-140 0 -215.5 73t-75.5 206v431h98v-420q0 -106 53 -164t148 -58q98 0 148 56t50 166v420h70v-431q0 -97 -43.5 -164.5t-122.5 -96.5q-58 -37 -84 -67t-26 -60q0 -24 14.5 -38.5t38.5 -14.5
q27 0 45.5 15.5t34.5 51.5l41 -17q-19 -50 -55 -76.5t-84 -26.5z" />
    <glyph glyph-name="uogonek" unicode="&#x173;" horiz-adv-x="613" 
d="M521 -105l40 -17q-18 -50 -54 -76.5t-85 -26.5q-41 0 -70.5 25.5t-29.5 65.5q0 37 24 69.5t77 66.5l-4 117q-22 -63 -66 -96t-106 -33q-70 0 -112.5 47.5t-42.5 126.5v323h94v-306q0 -61 25 -92t73 -31q58 0 96.5 51.5t38.5 132.5v245h94v-487h-15q-67 -42 -89 -67
t-22 -52q0 -24 15 -38.5t39 -14.5q27 0 45 15.5t35 51.5z" />
    <glyph glyph-name="Wcircumflex" unicode="&#x174;" horiz-adv-x="996" 
d="M710 -6h-47l-161 488l-161 -488h-46l-256 706h100l196 -551l137 424l-42 127h96l174 -544l188 544h69zM658 765h-49l-111 107l-111 -107h-49l136 184h46z" />
    <glyph glyph-name="wcircumflex" unicode="&#x175;" horiz-adv-x="772" 
d="M362 751h46l134 -199h-49l-107 122l-107 -122h-49zM543 -5h-38l-121 321l-124 -321h-38l-195 492h100l134 -352l94 259l-35 93h97l122 -350l138 350h68z" />
    <glyph glyph-name="Ycircumflex" unicode="&#x176;" horiz-adv-x="693" 
d="M150 700l217 -339l215 339h77l-263 -408v-292h-98v292l-263 408h115zM506 765h-49l-111 107l-111 -107h-49l136 184h46z" />
    <glyph glyph-name="ycircumflex" unicode="&#x177;" horiz-adv-x="532" 
d="M101 -225q-45 0 -74.5 26.5t-29.5 67.5q0 13 3 25t9 23l59 -15q-4 -13 -5 -18.5t-1 -11.5q0 -18 11.5 -29.5t29.5 -11.5q32 0 55.5 28t63.5 121l19 43l-214 464h102l160 -356l145 356h71l-230 -536q-40 -94 -80.5 -135t-93.5 -41zM257 751h46l134 -199h-49l-107 122
l-107 -122h-49z" />
    <glyph glyph-name="Ydieresis" unicode="&#x178;" horiz-adv-x="693" 
d="M150 700l217 -339l215 339h77l-263 -408v-292h-98v292l-263 408h115zM303 782h-93v114h93v-114zM481 782h-93v114h93v-114z" />
    <glyph glyph-name="Zacute" unicode="&#x179;" horiz-adv-x="703" 
d="M175 60h465v-60h-589v45l461 595h-437v60h561v-45zM315 768l58 167h108l-116 -167h-50z" />
    <glyph glyph-name="zacute" unicode="&#x17a;" horiz-adv-x="535" 
d="M238 561l65 188h105l-122 -188h-48zM55 0v33l297 398h-280v56h402v-32l-295 -399h301v-56h-425z" />
    <glyph glyph-name="Zdotaccent" unicode="&#x17b;" horiz-adv-x="703" 
d="M393 790h-101v122h101v-122zM175 60h465v-60h-589v45l461 595h-437v60h561v-45z" />
    <glyph glyph-name="zdotaccent" unicode="&#x17c;" horiz-adv-x="535" 
d="M55 0v33l297 398h-280v56h402v-32l-295 -399h301v-56h-425zM318 593h-101v122h101v-122z" />
    <glyph glyph-name="Zcaron" unicode="&#x17d;" horiz-adv-x="703" 
d="M502 945l-138 -184h-46l-136 184h49l111 -107l111 107h49zM175 60h465v-60h-589v45l461 595h-437v60h561v-45z" />
    <glyph glyph-name="zcaron" unicode="&#x17e;" horiz-adv-x="535" 
d="M424 752l-134 -199h-46l-132 199h49l107 -122l107 122h49zM55 0v33l297 398h-280v56h402v-32l-295 -399h301v-56h-425z" />
    <glyph glyph-name="florin" unicode="&#x192;" horiz-adv-x="531" 
d="M56 -192q-52 0 -83.5 28.5t-31.5 73.5q0 20 9.5 40.5t24.5 35.5l45 -22q-10 -14 -15 -27t-5 -23q0 -25 13.5 -38.5t37.5 -13.5q36 0 56 29t30 102l47 352h-102l6 47h102l15 112q13 100 58.5 153t118.5 53q53 0 86.5 -27.5t33.5 -69.5q0 -20 -9.5 -39.5t-24.5 -33.5
l-45 21q11 16 15.5 27.5t4.5 20.5q0 22 -14.5 34.5t-41.5 12.5q-36 0 -55.5 -28.5t-29.5 -102.5l-18 -133h122l-6 -47h-122l-45 -331q-13 -101 -58.5 -153.5t-118.5 -52.5z" />
    <glyph glyph-name="AEacute" unicode="&#x1fc;" horiz-adv-x="1069" 
d="M711 768l58 167h108l-116 -167h-50zM515 280v351l-223 -351h223zM1010 0h-495v224h-259l-142 -224h-75l448 700h509v-60h-383v-250h286v-60h-286v-270h397v-60z" />
    <glyph glyph-name="aeacute" unicode="&#x1fd;" horiz-adv-x="878" 
d="M413 561l65 188h105l-122 -188h-48zM781 165l46 -14q-18 -77 -73.5 -119t-139.5 -42q-69 0 -122.5 33t-80.5 92q-27 -58 -81.5 -91.5t-127.5 -33.5q-64 0 -104 35.5t-40 93.5q0 62 50 97.5t187 58.5l88 15v37q0 58 -29.5 85.5t-92.5 27.5q-48 0 -77.5 -19t-29.5 -51
q0 -9 3 -17.5t9 -16.5l-49 -33q-14 13 -21.5 30t-7.5 35q0 57 49.5 93t132.5 36q60 0 103 -22.5t65 -64.5q31 42 76 64.5t97 22.5q102 0 160 -66t58 -183h-357q1 -95 43.5 -146.5t119.5 -51.5q55 0 90 27.5t56 87.5zM610 445q-55 0 -90.5 -39t-44.5 -110h254
q-2 74 -32 111.5t-87 37.5zM383 230v13l-80 -13q-82 -13 -116.5 -37.5t-34.5 -65.5q0 -36 22.5 -55.5t61.5 -19.5q64 0 105.5 50.5t41.5 127.5z" />
    <glyph glyph-name="Oslashacute" unicode="&#x1fe;" horiz-adv-x="791" 
d="M396 654q-110 0 -174 -82t-64 -222q0 -55 10.5 -101.5t30.5 -84.5l370 410q-32 39 -76 59.5t-97 20.5zM396 46q110 0 174 82t64 222q0 51 -9 95t-26 79l-368 -407q31 -35 73 -53t92 -18zM744 350q0 -153 -99.5 -256.5t-248.5 -103.5q-59 0 -114 18.5t-100 53.5l-91 -100
l-42 37l92 101q-46 50 -70 114.5t-24 135.5q0 153 100 256.5t249 103.5q63 0 120 -20.5t103 -59.5l81 89l42 -37l-83 -92q41 -48 63 -110t22 -130zM368 768l58 167h108l-116 -167h-50z" />
    <glyph glyph-name="oslashacute" unicode="&#x1ff;" horiz-adv-x="592" 
d="M296 444q-69 0 -107.5 -53t-38.5 -148q0 -34 4.5 -61.5t14.5 -50.5l228 268q-19 22 -44.5 33.5t-56.5 11.5zM296 42q69 0 107 53t38 148q0 31 -4.5 58t-12.5 50l-227 -267q19 -21 44 -31.5t55 -10.5zM542 243q0 -109 -70 -181t-176 -72q-39 0 -75 11t-67 32l-62 -73
l-40 34l63 74q-32 35 -48.5 79.5t-16.5 95.5q0 109 70 181.5t176 72.5q40 0 77 -12t68 -34l59 70l40 -34l-60 -71q30 -35 46 -79t16 -94zM266 561l65 188h105l-122 -188h-48z" />
    <glyph glyph-name="Scommaaccent" unicode="&#x218;" horiz-adv-x="631" 
d="M319 -149h-56v91h112v-96q0 -56 -35 -86t-101 -30v49q43 0 61.5 15t18.5 50v7zM313 53q77 0 121.5 33.5t44.5 92.5q0 47 -29.5 75.5t-100.5 47.5l-96 26q-102 27 -144.5 70.5t-42.5 116.5q0 85 69 140t175 55q83 0 150 -34.5t102 -93.5l-49 -47q-30 55 -83 85t-120 30
q-68 0 -109.5 -31t-41.5 -83q0 -46 28 -72.5t102 -45.5l94 -25q99 -26 144 -71t45 -116q0 -96 -73.5 -156t-185.5 -60q-93 0 -170.5 41.5t-112.5 110.5l50 42q38 -64 98 -97.5t135 -33.5z" />
    <glyph glyph-name="scommaaccent" unicode="&#x219;" horiz-adv-x="511" 
d="M263 -149h-56v91h112v-96q0 -56 -35 -86t-101 -30v49q43 0 61.5 15t18.5 50v7zM253 442q-46 0 -73 -18t-27 -49q0 -27 17.5 -42t65.5 -28l83 -20q73 -19 104.5 -50.5t31.5 -86.5q0 -69 -55 -113.5t-140 -44.5q-74 0 -131 31t-85 86l43 41q31 -51 75 -77t98 -26
q50 0 80.5 20.5t30.5 55.5q0 30 -18.5 46.5t-72.5 30.5l-72 17q-71 17 -103.5 49t-32.5 85q0 66 51 107t130 41q63 0 112.5 -25.5t82.5 -75.5l-39 -47q-23 43 -65 68t-91 25z" />
    <glyph glyph-name="uni021A" unicode="&#x21a;" horiz-adv-x="734" 
d="M366 -149h-56v91h112v-96q0 -56 -35 -86t-101 -30v49q43 0 61.5 15t18.5 50v7zM416 0h-98v641h-269v59h636v-59h-269v-641z" />
    <glyph glyph-name="uni021B" unicode="&#x21b;" horiz-adv-x="433" 
d="M231 -149h-56v91h112v-96q0 -56 -35 -86t-101 -30v49q43 0 61.5 15t18.5 50v7zM106 433h-79v54h79l3 130l91 34v-164h173l-5 -54h-168v-297q0 -42 18 -63.5t52 -21.5q36 0 54.5 26t24.5 84l50 -6q-4 -77 -44.5 -121t-109.5 -44q-66 0 -103.5 37t-37.5 102z" />
    <glyph glyph-name="uni0237" unicode="&#x237;" horiz-adv-x="293" 
d="M193 487v-525q0 -87 -42.5 -137t-117.5 -50q-58 0 -91.5 27t-33.5 73q0 14 5 27t13 22l48 -17q-4 -6 -5.5 -13.5t-1.5 -15.5q0 -24 15.5 -38t42.5 -14q39 0 56.5 27.5t17.5 91.5v542h94z" />
    <glyph glyph-name="circumflex" unicode="&#x2c6;" horiz-adv-x="500" 
d="M226 751h46l134 -199h-49l-107 122l-107 -122h-49z" />
    <glyph glyph-name="caron" unicode="&#x2c7;" horiz-adv-x="500" 
d="M406 752l-134 -199h-46l-132 199h49l107 -122l107 122h49z" />
    <glyph glyph-name="breve" unicode="&#x2d8;" horiz-adv-x="500" 
d="M350 745h43q0 -78 -40 -127.5t-103 -49.5t-103 49.5t-40 127.5h43q4 -50 32 -82t68 -32t68 32t32 82z" />
    <glyph glyph-name="dotaccent" unicode="&#x2d9;" horiz-adv-x="500" 
d="M301 593h-101v122h101v-122z" />
    <glyph glyph-name="ring" unicode="&#x2da;" horiz-adv-x="500" 
d="M250 557q-44 0 -76 31.5t-32 75.5q0 43 32 74t76 31t76 -31t32 -74q0 -44 -32 -75.5t-76 -31.5zM250 602q28 0 44.5 17t16.5 45q0 27 -17 44.5t-44 17.5t-44 -17.5t-17 -44.5q0 -28 16.5 -45t44.5 -17z" />
    <glyph glyph-name="ogonek" unicode="&#x2db;" horiz-adv-x="500" 
d="M242 -225q-41 0 -70.5 25.5t-29.5 65.5q0 43 33 80.5t119 85.5l27 -30q-69 -43 -91.5 -68t-22.5 -53q0 -24 15 -38.5t39 -14.5q27 0 45 15.5t35 51.5l40 -17q-18 -50 -54 -76.5t-85 -26.5z" />
    <glyph glyph-name="tilde" unicode="&#x2dc;" horiz-adv-x="500" 
d="M323 585q-15 0 -32.5 8t-51.5 32q-27 20 -39.5 26t-22.5 6q-20 0 -33.5 -17.5t-22.5 -57.5h-51q13 65 41.5 102t65.5 37q15 0 32.5 -8t51.5 -32q27 -20 39.5 -26t22.5 -6q20 0 33.5 17.5t22.5 57.5h51q-13 -65 -41.5 -102t-65.5 -37z" />
    <glyph glyph-name="hungarumlaut" unicode="&#x2dd;" horiz-adv-x="500" 
d="M83 561l70 188h98l-119 -188h-49zM250 561l70 188h97l-119 -188h-48z" />
    <glyph glyph-name="Wgrave" unicode="&#x1e80;" horiz-adv-x="996" 
d="M535 768h-50l-116 167h108zM710 -6h-47l-161 488l-161 -488h-46l-256 706h100l196 -551l137 424l-42 127h96l174 -544l188 544h69z" />
    <glyph glyph-name="wgrave" unicode="&#x1e81;" horiz-adv-x="772" 
d="M543 -5h-38l-121 321l-124 -321h-38l-195 492h100l134 -352l94 259l-35 93h97l122 -350l138 350h68zM417 561h-48l-122 188h105z" />
    <glyph glyph-name="Wacute" unicode="&#x1e82;" horiz-adv-x="996" 
d="M470 768l58 167h108l-116 -167h-50zM710 -6h-47l-161 488l-161 -488h-46l-256 706h100l196 -551l137 424l-42 127h96l174 -544l188 544h69z" />
    <glyph glyph-name="wacute" unicode="&#x1e83;" horiz-adv-x="772" 
d="M356 561l65 188h105l-122 -188h-48zM543 -5h-38l-121 321l-124 -321h-38l-195 492h100l134 -352l94 259l-35 93h97l122 -350l138 350h68z" />
    <glyph glyph-name="Wdieresis" unicode="&#x1e84;" horiz-adv-x="996" 
d="M455 782h-93v114h93v-114zM633 782h-93v114h93v-114zM710 -6h-47l-161 488l-161 -488h-46l-256 706h100l196 -551l137 424l-42 127h96l174 -544l188 544h69z" />
    <glyph glyph-name="wdieresis" unicode="&#x1e85;" horiz-adv-x="772" 
d="M343 591h-93v114h93v-114zM521 591h-93v114h93v-114zM543 -5h-38l-121 321l-124 -321h-38l-195 492h100l134 -352l94 259l-35 93h97l122 -350l138 350h68z" />
    <glyph glyph-name="Ygrave" unicode="&#x1ef2;" horiz-adv-x="693" 
d="M150 700l217 -339l215 339h77l-263 -408v-292h-98v292l-263 408h115zM384 768h-50l-116 167h108z" />
    <glyph glyph-name="ygrave" unicode="&#x1ef3;" horiz-adv-x="532" 
d="M101 -225q-45 0 -74.5 26.5t-29.5 67.5q0 13 3 25t9 23l59 -15q-4 -13 -5 -18.5t-1 -11.5q0 -18 11.5 -29.5t29.5 -11.5q32 0 55.5 28t63.5 121l19 43l-214 464h102l160 -356l145 356h71l-230 -536q-40 -94 -80.5 -135t-93.5 -41zM312 561h-48l-122 188h105z" />
    <glyph glyph-name="endash" unicode="&#x2013;" horiz-adv-x="566" 
d="M493 253h-420v66h420v-66z" />
    <glyph glyph-name="emdash" unicode="&#x2014;" horiz-adv-x="866" 
d="M793 253h-720v66h720v-66z" />
    <glyph glyph-name="quoteleft" unicode="&#x2018;" horiz-adv-x="261" 
d="M130 553h58v-118h-117v131q0 69 38.5 106.5t109.5 37.5v-49q-48 0 -68.5 -22.5t-20.5 -72.5v-13z" />
    <glyph glyph-name="quoteright" unicode="&#x2019;" horiz-adv-x="261" 
d="M131 582h-58v118h117v-131q0 -69 -38.5 -106.5t-109.5 -37.5v49q48 0 68.5 22.5t20.5 72.5v13z" />
    <glyph glyph-name="quotesinglbase" unicode="&#x201a;" horiz-adv-x="261" 
d="M131 6h-58v118h117v-131q0 -69 -38.5 -106.5t-109.5 -37.5v49q48 0 68.5 22.5t20.5 72.5v13z" />
    <glyph glyph-name="quotedblleft" unicode="&#x201c;" horiz-adv-x="481" 
d="M130 553h58v-118h-117v131q0 69 38.5 106.5t109.5 37.5v-49q-48 0 -68.5 -22.5t-20.5 -72.5v-13zM350 553h58v-118h-117v131q0 69 38.5 106.5t109.5 37.5v-49q-48 0 -68.5 -22.5t-20.5 -72.5v-13z" />
    <glyph glyph-name="quotedblright" unicode="&#x201d;" horiz-adv-x="482" 
d="M131 582h-58v118h117v-131q0 -69 -38.5 -106.5t-109.5 -37.5v49q48 0 68.5 22.5t20.5 72.5v13zM352 582h-58v118h117v-131q0 -69 -38.5 -106.5t-109.5 -37.5v49q48 0 68.5 22.5t20.5 72.5v13z" />
    <glyph glyph-name="quotedblbase" unicode="&#x201e;" horiz-adv-x="482" 
d="M131 6h-58v118h117v-131q0 -69 -38.5 -106.5t-109.5 -37.5v49q48 0 68.5 22.5t20.5 72.5v13zM352 6h-58v118h117v-131q0 -69 -38.5 -106.5t-109.5 -37.5v49q48 0 68.5 22.5t20.5 72.5v13z" />
    <glyph glyph-name="dagger" unicode="&#x2020;" horiz-adv-x="452" 
d="M252 283h-52v275h-140v52h140v139h52v-139h140v-52h-140v-275z" />
    <glyph glyph-name="daggerdbl" unicode="&#x2021;" horiz-adv-x="452" 
d="M252 283h-52v130h-140v52h140v102h-140v52h140v130h52v-130h140v-52h-140v-102h140v-52h-140v-130z" />
    <glyph glyph-name="bullet" unicode="&#x2022;" horiz-adv-x="409" 
d="M205 142q-54 0 -93 39t-39 93t39 93t93 39t92.5 -39t38.5 -93q0 -55 -38 -93.5t-93 -38.5z" />
    <glyph glyph-name="ellipsis" unicode="&#x2026;" horiz-adv-x="730" 
d="M658 0h-118v124h118v-124zM424 0h-118v124h118v-124zM191 0h-118v124h118v-124z" />
    <glyph glyph-name="perthousand" unicode="&#x2030;" horiz-adv-x="1303" 
d="M673 710l-453 -720h-59l453 720h59zM210 365q-63 0 -106.5 49.5t-43.5 122.5t43.5 123t106.5 50q64 0 107.5 -50t43.5 -123t-43.5 -122.5t-107.5 -49.5zM210 422q40 0 65 32t25 83t-25 83.5t-65 32.5t-64 -32t-24 -84q0 -51 24 -83t64 -32zM622 -10q-63 0 -106.5 49.5
t-43.5 122.5t43.5 123t106.5 50q64 0 107.5 -50t43.5 -123t-43.5 -122.5t-107.5 -49.5zM992 -10q-63 0 -106.5 49.5t-43.5 122.5t43.5 123t106.5 50t106.5 -50t43.5 -123t-43.5 -122.5t-106.5 -49.5zM622 47q40 0 65 32t25 83t-25 83.5t-65 32.5t-64 -32t-24 -84
q0 -51 24 -83t64 -32zM992 47q40 0 64.5 32t24.5 83t-24.5 83.5t-64.5 32.5t-64.5 -32.5t-24.5 -83.5t24.5 -83t64.5 -32z" />
    <glyph glyph-name="guilsinglleft" unicode="&#x2039;" horiz-adv-x="392" 
d="M274 32l-218 208v8l218 208h62l-170 -212l170 -212h-62z" />
    <glyph glyph-name="guilsinglright" unicode="&#x203a;" horiz-adv-x="392" 
d="M56 32l170 212l-170 212h62l218 -208v-8l-218 -208h-62z" />
    <glyph glyph-name="fraction" unicode="&#x2044;" horiz-adv-x="183" 
d="M-96 -10h-58l433 720h58z" />
    <glyph glyph-name="uni2070" unicode="&#x2070;" horiz-adv-x="424" 
d="M212 296q-75 0 -121 56.5t-46 148.5t46 148.5t121 56.5t121 -56.5t46 -148.5t-46 -148.5t-121 -56.5zM212 667q-42 0 -61.5 -40t-19.5 -126t19.5 -126t61.5 -40q41 0 60.5 40.5t19.5 125.5t-19.5 125.5t-60.5 40.5z" />
    <glyph glyph-name="uni2074" unicode="&#x2074;" horiz-adv-x="407" 
d="M290 443h82v-38h-82v-103h-75v103h-183v28l181 267h77v-257zM85 443h130v194z" />
    <glyph glyph-name="uni2075" unicode="&#x2075;" horiz-adv-x="377" 
d="M105 700h212l-8 -70h-176l-12 -90q16 10 35.5 15.5t40.5 5.5q59 0 96 -34t37 -89q0 -64 -45 -103t-118 -39q-57 0 -93.5 26.5t-36.5 70.5q0 21 11 37.5t31 26.5l28 -27q-12 -9 -16.5 -17.5t-4.5 -20.5q0 -25 19.5 -40t50.5 -15q42 0 65.5 27t23.5 74q0 38 -20.5 60
t-56.5 22q-20 0 -36 -6.5t-31 -21.5h-22z" />
    <glyph glyph-name="uni2076" unicode="&#x2076;" horiz-adv-x="393" 
d="M225 552q53 0 88.5 -34t35.5 -88q0 -59 -42 -96.5t-106 -37.5q-70 0 -113 54t-43 139q0 94 52 155.5t135 61.5q50 0 81 -23.5t31 -59.5q0 -20 -9 -34.5t-24 -18.5l-31 19q7 6 10.5 13.5t3.5 16.5q0 23 -15.5 35t-44.5 12q-53 0 -83 -48.5t-28 -126.5q10 28 37.5 44.5
t64.5 16.5zM200 509q-34 0 -52.5 -22.5t-18.5 -64.5t19 -65.5t52 -23.5q34 0 52.5 23t18.5 66q0 42 -18.5 64.5t-52.5 22.5z" />
    <glyph glyph-name="uni2077" unicode="&#x2077;" horiz-adv-x="349" 
d="M43 630v70h281v-30l-44 -71q-44 -71 -66 -145t-21 -152h-74q11 82 37.5 150t79.5 147l20 31h-213z" />
    <glyph glyph-name="uni2078" unicode="&#x2078;" horiz-adv-x="389" 
d="M322 611q0 -27 -18 -49t-51 -36q48 -18 70.5 -45t22.5 -65q0 -53 -43 -86.5t-110 -33.5t-108 28.5t-41 76.5q0 33 22.5 57.5t63.5 38.5q-33 16 -49.5 40t-16.5 56q0 50 37 81.5t93 31.5q55 0 91.5 -27t36.5 -68zM194 667q-31 0 -48.5 -14t-17.5 -38q0 -22 14 -37t47 -26
l31 -12q25 13 38 30.5t13 39.5q0 26 -21 41.5t-56 15.5zM276 397q0 22 -15 37.5t-50 28.5l-53 20q-31 -14 -47 -33.5t-16 -45.5q0 -32 26.5 -50.5t71.5 -18.5q37 0 60 17t23 45z" />
    <glyph glyph-name="uni2079" unicode="&#x2079;" horiz-adv-x="393" 
d="M193 493q34 0 52 22.5t18 64.5t-18.5 65.5t-51.5 23.5q-35 0 -53.5 -23t-18.5 -66q0 -42 18.5 -64.5t53.5 -22.5zM167 450q-53 0 -88 34t-35 88q0 59 42 96.5t106 37.5q70 0 113 -54t43 -139q0 -94 -52 -155.5t-135 -61.5q-51 0 -82 23.5t-31 59.5q0 20 9.5 34.5
t24.5 18.5l31 -19q-7 -6 -11 -13.5t-4 -16.5q0 -23 15.5 -35t44.5 -12q53 0 83.5 48.5t28.5 126.5q-10 -28 -37.5 -44.5t-65.5 -16.5z" />
    <glyph glyph-name="uni2080" unicode="&#x2080;" horiz-adv-x="424" 
d="M212 -106q-75 0 -121 56.5t-46 148.5t46 148.5t121 56.5t121 -56.5t46 -148.5t-46 -148.5t-121 -56.5zM212 265q-42 0 -61.5 -40t-19.5 -126t19.5 -126t61.5 -40q41 0 60.5 40.5t19.5 125.5t-19.5 125.5t-60.5 40.5z" />
    <glyph glyph-name="uni2081" unicode="&#x2081;" horiz-adv-x="298" 
d="M215 303v-403h-76v304q-8 -15 -38 -39t-52 -33l-14 39q33 19 73 58t60 74h47z" />
    <glyph glyph-name="uni2082" unicode="&#x2082;" horiz-adv-x="374" 
d="M312 186q0 -51 -39.5 -95.5t-162.5 -122.5h215l-5 -68h-291v23l106 102q55 54 75 91t20 76q0 32 -18.5 50.5t-50.5 18.5q-31 0 -48.5 -17t-17.5 -47q0 -15 8.5 -28.5t23.5 -24.5l-29 -28q-22 7 -37 29.5t-15 49.5q0 48 35.5 78.5t93.5 30.5q62 0 99.5 -31.5t37.5 -86.5z
" />
    <glyph glyph-name="uni2083" unicode="&#x2083;" horiz-adv-x="383" 
d="M339 13q0 -54 -44 -86.5t-115 -32.5q-60 0 -98 28t-38 73q0 25 17 45t41 26l24 -27q-17 -9 -24.5 -19.5t-7.5 -24.5q0 -27 20.5 -43t54.5 -16q41 0 63 20.5t22 59.5q0 41 -23 61.5t-67 20.5h-9v30h9q40 1 60.5 19.5t20.5 54.5q0 29 -19 45.5t-51 16.5q-31 0 -48 -13
t-17 -37q0 -12 6 -21.5t19 -15.5l-20 -30q-24 6 -38.5 23.5t-14.5 42.5q0 39 35.5 65t88.5 26q62 0 99.5 -26.5t37.5 -72.5q0 -37 -28.5 -62t-73.5 -28v-2q53 -3 85.5 -30.5t32.5 -69.5z" />
    <glyph glyph-name="uni2084" unicode="&#x2084;" horiz-adv-x="407" 
d="M290 41h82v-38h-82v-103h-75v103h-183v28l181 267h77v-257zM85 41h130v194z" />
    <glyph glyph-name="uni2085" unicode="&#x2085;" horiz-adv-x="377" 
d="M105 298h212l-8 -70h-176l-12 -90q16 10 35.5 15.5t40.5 5.5q59 0 96 -34t37 -89q0 -64 -45 -103t-118 -39q-57 0 -93.5 26.5t-36.5 70.5q0 21 11 37.5t31 26.5l28 -27q-12 -9 -16.5 -17.5t-4.5 -20.5q0 -25 19.5 -40t50.5 -15q42 0 65.5 27t23.5 74q0 38 -20.5 60
t-56.5 22q-20 0 -36 -6.5t-31 -21.5h-22z" />
    <glyph glyph-name="uni2086" unicode="&#x2086;" horiz-adv-x="393" 
d="M225 150q53 0 88.5 -34t35.5 -88q0 -59 -42 -96.5t-106 -37.5q-70 0 -113 54t-43 139q0 94 52 155.5t135 61.5q50 0 81 -23.5t31 -59.5q0 -20 -9 -34.5t-24 -18.5l-31 19q7 6 10.5 13.5t3.5 16.5q0 23 -15.5 35t-44.5 12q-53 0 -83 -48.5t-28 -126.5q10 28 37.5 44.5
t64.5 16.5zM200 107q-34 0 -52.5 -22.5t-18.5 -64.5t19 -65.5t52 -23.5q34 0 52.5 23t18.5 66q0 42 -18.5 64.5t-52.5 22.5z" />
    <glyph glyph-name="uni2087" unicode="&#x2087;" horiz-adv-x="349" 
d="M43 228v70h281v-30l-44 -71q-44 -71 -66 -145t-21 -152h-74q11 82 37.5 150t79.5 147l20 31h-213z" />
    <glyph glyph-name="uni2088" unicode="&#x2088;" horiz-adv-x="389" 
d="M322 209q0 -27 -18 -49t-51 -36q48 -18 70.5 -45t22.5 -65q0 -53 -43 -86.5t-110 -33.5t-108 28.5t-41 76.5q0 33 22.5 57.5t63.5 38.5q-33 16 -49.5 40t-16.5 56q0 50 37 81.5t93 31.5q55 0 91.5 -27t36.5 -68zM194 265q-31 0 -48.5 -14t-17.5 -38q0 -22 14 -37t47 -26
l31 -12q25 13 38 30.5t13 39.5q0 26 -21 41.5t-56 15.5zM276 -5q0 22 -15 37.5t-50 28.5l-53 20q-31 -14 -47 -33.5t-16 -45.5q0 -32 26.5 -50.5t71.5 -18.5q37 0 60 17t23 45z" />
    <glyph glyph-name="uni2089" unicode="&#x2089;" horiz-adv-x="393" 
d="M193 91q34 0 52 22.5t18 64.5t-18.5 65.5t-51.5 23.5q-35 0 -53.5 -23t-18.5 -66q0 -42 18.5 -64.5t53.5 -22.5zM167 48q-53 0 -88 34t-35 88q0 59 42 96.5t106 37.5q70 0 113 -54t43 -139q0 -94 -52 -155.5t-135 -61.5q-51 0 -82 23.5t-31 59.5q0 20 9.5 34.5t24.5 18.5
l31 -19q-7 -6 -11 -13.5t-4 -16.5q0 -23 15.5 -35t44.5 -12q53 0 83.5 48.5t28.5 126.5q-10 -28 -37.5 -44.5t-65.5 -16.5z" />
    <glyph glyph-name="Euro" unicode="&#x20ac;" horiz-adv-x="650" 
d="M390 -10q-100 0 -173.5 70t-95.5 188h-91v47h84q-1 19 -1.5 30t-0.5 20q0 8 0.5 18l1.5 30h-84v47h90q23 123 97.5 196.5t176.5 73.5q82 0 140 -48.5t78 -130.5l-59 -27q-18 75 -56.5 110.5t-99.5 35.5q-73 0 -118 -54t-58 -156h219l-10 -47h-214q-1 -7 -1 -16v-28
q0 -10 0.5 -22t1.5 -32h193l-10 -47h-177q15 -93 61 -143.5t114 -50.5q64 0 105.5 34.5t63.5 106.5l47 -26q-29 -86 -87.5 -132.5t-136.5 -46.5z" />
    <glyph glyph-name="trademark" unicode="&#x2122;" horiz-adv-x="852" 
d="M230 396h-64v270h-114v34h292v-34h-114v-270zM486 700l83 -207l83 207h77v-304h-64v250l-100 -251h-24l-99 251v-250h-39v304h83z" />
    <glyph glyph-name="uni2153" unicode="&#x2153;" horiz-adv-x="829" 
d="M194 -10h-58l433 720h58zM215 705v-403h-76v304q-8 -15 -38 -39t-52 -33l-14 39q33 19 73 58t60 74h47zM786 113q0 -54 -44 -86.5t-115 -32.5q-60 0 -98 28t-38 73q0 25 17 45t41 26l24 -27q-17 -9 -24.5 -19.5t-7.5 -24.5q0 -27 20.5 -43t54.5 -16q41 0 63 20.5t22 59.5
q0 41 -23 61.5t-67 20.5h-9v30h9q40 1 60.5 19.5t20.5 54.5q0 29 -19 45.5t-51 16.5q-31 0 -48 -13t-17 -37q0 -12 6 -21.5t19 -15.5l-20 -30q-24 6 -38.5 23.5t-14.5 42.5q0 39 35.5 65t88.5 26q62 0 99.5 -26.5t37.5 -72.5q0 -37 -28.5 -62t-73.5 -28v-2q53 -3 85.5 -30.5
t32.5 -69.5z" />
    <glyph glyph-name="uni2154" unicode="&#x2154;" horiz-adv-x="906" 
d="M312 588q0 -51 -39.5 -95.5t-162.5 -122.5h215l-5 -68h-291v23l106 102q55 54 75 91t20 76q0 32 -18.5 50.5t-50.5 18.5q-31 0 -48.5 -17t-17.5 -47q0 -15 8.5 -28.5t23.5 -24.5l-29 -28q-22 7 -37 29.5t-15 49.5q0 48 35.5 78.5t93.5 30.5q62 0 99.5 -31.5t37.5 -86.5z
M271 -10h-58l433 720h58zM863 113q0 -54 -44 -86.5t-115 -32.5q-60 0 -98 28t-38 73q0 25 17 45t41 26l24 -27q-17 -9 -24.5 -19.5t-7.5 -24.5q0 -27 20.5 -43t54.5 -16q41 0 63 20.5t22 59.5q0 41 -23 61.5t-67 20.5h-9v30h9q40 1 60.5 19.5t20.5 54.5q0 29 -19 45.5
t-51 16.5q-31 0 -48 -13t-17 -37q0 -12 6 -21.5t19 -15.5l-20 -30q-24 6 -38.5 23.5t-14.5 42.5q0 39 35.5 65t88.5 26q62 0 99.5 -26.5t37.5 -72.5q0 -37 -28.5 -62t-73.5 -28v-2q53 -3 85.5 -30.5t32.5 -69.5z" />
    <glyph glyph-name="uni215B" unicode="&#x215b;" horiz-adv-x="835" 
d="M769 309q0 -27 -18 -49t-51 -36q48 -18 70.5 -45t22.5 -65q0 -53 -43 -86.5t-110 -33.5t-108 28.5t-41 76.5q0 33 22.5 57.5t63.5 38.5q-33 16 -49.5 40t-16.5 56q0 50 37 81.5t93 31.5q55 0 91.5 -27t36.5 -68zM641 365q-31 0 -48.5 -14t-17.5 -38q0 -22 14 -37t47 -26
l31 -12q25 13 38 30.5t13 39.5q0 26 -21 41.5t-56 15.5zM723 95q0 22 -15 37.5t-50 28.5l-53 20q-31 -14 -47 -33.5t-16 -45.5q0 -32 26.5 -50.5t71.5 -18.5q37 0 60 17t23 45zM194 -10h-58l433 720h58zM215 705v-403h-76v304q-8 -15 -38 -39t-52 -33l-14 39q33 19 73 58
t60 74h47z" />
    <glyph glyph-name="uni215C" unicode="&#x215c;" horiz-adv-x="907" 
d="M841 308q0 -27 -18 -49t-51 -36q48 -18 70.5 -45t22.5 -65q0 -53 -43 -86.5t-110 -33.5t-108 28.5t-41 76.5q0 33 22.5 57.5t63.5 38.5q-33 16 -49.5 40t-16.5 56q0 50 37 81.5t93 31.5q55 0 91.5 -27t36.5 -68zM713 364q-31 0 -48.5 -14t-17.5 -38q0 -22 14 -37t47 -26
l31 -12q25 13 38 30.5t13 39.5q0 26 -21 41.5t-56 15.5zM795 94q0 22 -15 37.5t-50 28.5l-53 20q-31 -14 -47 -33.5t-16 -45.5q0 -32 26.5 -50.5t71.5 -18.5q37 0 60 17t23 45zM339 415q0 -54 -44 -86.5t-115 -32.5q-60 0 -98 28t-38 73q0 25 17 45t41 26l24 -27
q-17 -9 -24.5 -19.5t-7.5 -24.5q0 -27 20.5 -43t54.5 -16q41 0 63 20.5t22 59.5q0 41 -23 61.5t-67 20.5h-9v30h9q40 1 60.5 19.5t20.5 54.5q0 29 -19 45.5t-51 16.5q-31 0 -48 -13t-17 -37q0 -12 6 -21.5t19 -15.5l-20 -30q-24 6 -38.5 23.5t-14.5 42.5q0 39 35.5 65
t88.5 26q62 0 99.5 -26.5t37.5 -72.5q0 -37 -28.5 -62t-73.5 -28v-2q53 -3 85.5 -30.5t32.5 -69.5zM266 -10h-58l433 720h58z" />
    <glyph glyph-name="uni215D" unicode="&#x215d;" horiz-adv-x="897" 
d="M831 308q0 -27 -18 -49t-51 -36q48 -18 70.5 -45t22.5 -65q0 -53 -43 -86.5t-110 -33.5t-108 28.5t-41 76.5q0 33 22.5 57.5t63.5 38.5q-33 16 -49.5 40t-16.5 56q0 50 37 81.5t93 31.5q55 0 91.5 -27t36.5 -68zM703 364q-31 0 -48.5 -14t-17.5 -38q0 -22 14 -37t47 -26
l31 -12q25 13 38 30.5t13 39.5q0 26 -21 41.5t-56 15.5zM785 94q0 22 -15 37.5t-50 28.5l-53 20q-31 -14 -47 -33.5t-16 -45.5q0 -32 26.5 -50.5t71.5 -18.5q37 0 60 17t23 45zM105 700h212l-8 -70h-176l-12 -90q16 10 35.5 15.5t40.5 5.5q59 0 96 -34t37 -89
q0 -64 -45 -103t-118 -39q-57 0 -93.5 26.5t-36.5 70.5q0 21 11 37.5t31 26.5l28 -27q-12 -9 -16.5 -17.5t-4.5 -20.5q0 -25 19.5 -40t50.5 -15q42 0 65.5 27t23.5 74q0 38 -20.5 60t-56.5 22q-20 0 -36 -6.5t-31 -21.5h-22zM255 -10h-58l433 720h58z" />
    <glyph glyph-name="uni215E" unicode="&#x215e;" horiz-adv-x="830" 
d="M764 308q0 -27 -18 -49t-51 -36q48 -18 70.5 -45t22.5 -65q0 -53 -43 -86.5t-110 -33.5t-108 28.5t-41 76.5q0 33 22.5 57.5t63.5 38.5q-33 16 -49.5 40t-16.5 56q0 50 37 81.5t93 31.5q55 0 91.5 -27t36.5 -68zM636 364q-31 0 -48.5 -14t-17.5 -38q0 -22 14 -37t47 -26
l31 -12q25 13 38 30.5t13 39.5q0 26 -21 41.5t-56 15.5zM718 94q0 22 -15 37.5t-50 28.5l-53 20q-31 -14 -47 -33.5t-16 -45.5q0 -32 26.5 -50.5t71.5 -18.5q37 0 60 17t23 45zM188 -10h-58l433 720h58zM43 630v70h281v-30l-44 -71q-44 -71 -66 -145t-21 -152h-74
q11 82 37.5 150t79.5 147l20 31h-213z" />
    <glyph glyph-name="minus" unicode="&#x2212;" horiz-adv-x="634" 
d="M545 311h-456v60h456v-60z" />
    <glyph glyph-name="approxequal" unicode="&#x2248;" horiz-adv-x="650" 
d="M219 396q-29 0 -60.5 -10.5t-62.5 -30.5v60q32 20 63.5 30.5t59.5 10.5q21 0 43 -4t62 -16q41 -12 62 -16t41 -4q32 0 63.5 10t63.5 31v-60q-32 -21 -63.5 -31t-63.5 -10q-20 0 -41 4t-62 16q-40 12 -62 16t-43 4zM219 262q-29 0 -60.5 -10.5t-62.5 -30.5v60
q31 20 62.5 30.5t60.5 10.5q21 0 43 -4t62 -16q41 -12 62 -16t41 -4q32 0 63.5 10t63.5 31v-60q-33 -21 -64.5 -31t-62.5 -10q-20 0 -41 4t-62 16q-40 12 -62 16t-43 4z" />
    <glyph glyph-name="notequal" unicode="&#x2260;" horiz-adv-x="650" 
d="M554 292v-55h-274l-83 -110h-63l83 110h-121v55h162l69 91h-231v55h273l84 112h63l-84 -112h122v-55h-164l-69 -91h233z" />
    <glyph glyph-name="lessequal" unicode="&#x2264;" horiz-adv-x="530" 
d="M442 205l-350 158v69l350 158v-65l-282 -127l282 -127v-66zM442 98h-350v61h350v-61z" />
    <glyph glyph-name="greaterequal" unicode="&#x2265;" horiz-adv-x="530" 
d="M438 432v-69l-349 -158v66l281 127l-281 127v65zM438 159v-61h-349v61h349z" />
    <glyph glyph-name="commaaccent" unicode="&#xf6c3;" horiz-adv-x="500" 
d="M253 -149h-56v91h112v-96q0 -56 -35 -86t-101 -30v49q43 0 61.5 15t18.5 50v7z" />
    <glyph glyph-name="idotaccent" horiz-adv-x="293" 
d="M99 487h94v-487h-94v487zM197 593h-101v122h101v-122z" />
    <glyph glyph-name="a.ord" horiz-adv-x="415" 
d="M270 443v11l-51 -9q-52 -9 -74 -25t-22 -44q0 -23 14.5 -36t40.5 -13q37 0 64.5 34t27.5 82zM210 479l60 10v26q0 39 -20 57t-62 18q-32 0 -51.5 -12.5t-19.5 -33.5q0 -8 3 -15t9 -14l-38 -26q-12 9 -19 23t-7 30q0 40 36.5 65.5t98.5 25.5q74 0 112 -31t38 -92v-226h-73
l-6 77q-12 -37 -47 -60.5t-78 -23.5q-46 0 -74.5 24.5t-28.5 65.5q0 44 36 70t131 42z" />
    <glyph glyph-name="b.ord" horiz-adv-x="471" 
d="M268 277q-40 0 -70.5 17.5t-45.5 48.5l-6 -59h-74v524h80v-263q13 40 46.5 64t77.5 24q67 0 111 -47.5t44 -124.5q0 -80 -47.5 -132t-115.5 -52zM249 584q-42 0 -69.5 -35.5t-27.5 -87.5v-32q0 -46 28.5 -77.5t66.5 -31.5q46 0 72.5 37t26.5 101q0 59 -26 92.5t-71 33.5z
" />
    <glyph glyph-name="c.ord" horiz-adv-x="397" 
d="M303 527q0 29 -19.5 47t-54.5 18q-48 0 -77 -37t-29 -97q0 -64 27.5 -99t76.5 -35q36 0 60.5 19.5t37.5 58.5l35 -12q-13 -53 -53 -83t-99 -30q-74 0 -121 47.5t-47 124.5q0 81 51 132.5t130 51.5q60 0 94.5 -28.5t34.5 -76.5q0 -17 -7.5 -33.5t-19.5 -26.5l-33 24
q7 9 10 17.5t3 17.5z" />
    <glyph glyph-name="d.ord" horiz-adv-x="466" 
d="M222 326q41 0 68.5 35.5t27.5 87.5v32q0 47 -28 78t-67 31q-46 0 -72 -36.5t-26 -101.5q0 -59 25.5 -92.5t71.5 -33.5zM202 633q40 0 70 -17t46 -48v240h80v-524h-77l-3 81q-13 -40 -46 -64t-77 -24q-67 0 -111 47.5t-44 125.5q0 79 47 131t115 52z" />
    <glyph glyph-name="e.ord" horiz-adv-x="406" 
d="M330 401l35 -11q-13 -54 -53 -83.5t-101 -29.5q-75 0 -123 48t-48 125q0 81 48 132t122 51t115.5 -47t41.5 -130h-245q1 -64 29 -98t79 -34q37 0 61 18.5t39 58.5zM209 595q-36 0 -58 -26.5t-27 -76.5h160q-1 52 -19.5 77.5t-55.5 25.5z" />
    <glyph glyph-name="f.ord" horiz-adv-x="280" 
d="M222 775q-29 0 -44 -22t-15 -62v-65h99l-4 -42h-95v-300h-80v300h-55v42h55v50q0 62 36.5 100.5t95.5 38.5q43 0 69.5 -21t26.5 -54q0 -12 -4.5 -23t-12.5 -17l-35 15q4 6 5.5 11t1.5 11q0 17 -12 27.5t-32 10.5z" />
    <glyph glyph-name="g.ord" horiz-adv-x="432" 
d="M201 442q31 0 48.5 20.5t17.5 57.5t-17.5 57.5t-48.5 20.5t-48.5 -20.5t-17.5 -57.5t17.5 -57.5t48.5 -20.5zM400 254q0 -58 -56 -92.5t-145 -34.5q-84 0 -131 23.5t-47 67.5q0 27 25.5 45.5t68.5 22.5q-31 7 -47.5 24.5t-16.5 43.5q0 25 17 45t45 29q-28 16 -43 40
t-15 52q0 49 41 81t105 32q24 0 45.5 -5t39.5 -14q25 30 46.5 42.5t45.5 12.5t39 -14t15 -37q0 -13 -4.5 -24.5t-12.5 -20.5l-36 18q4 7 5.5 11t1.5 8q0 8 -4.5 12.5t-13.5 4.5q-11 0 -23 -8t-28 -27q15 -15 23 -33.5t8 -38.5q0 -49 -41.5 -81t-105.5 -32q-18 0 -33.5 2.5
t-29.5 7.5q-14 -7 -21.5 -16t-7.5 -18q0 -14 12 -22t33 -8h117q61 0 95 -26t34 -73zM331 232q0 24 -17.5 35.5t-52.5 11.5h-102q-34 -2 -57 -17t-23 -37q0 -28 33 -43.5t89 -15.5q59 0 94.5 17.5t35.5 48.5z" />
    <glyph glyph-name="h.ord" horiz-adv-x="455" 
d="M72 284v524h80v-262q16 42 48 64.5t75 22.5q53 0 82.5 -32.5t29.5 -89.5v-227h-80v214q0 37 -18 58t-50 21q-37 0 -62 -34t-25 -87v-172h-80z" />
    <glyph glyph-name="i.ord" horiz-adv-x="225" 
d="M155 699h-84v91h84v-91zM72 626h80v-342h-80v342z" />
    <glyph glyph-name="j.ord" horiz-adv-x="225" 
d="M155 699h-84v91h84v-91zM152 626v-367q0 -62 -31.5 -97t-88.5 -35q-43 0 -68 19.5t-25 52.5q0 10 4 20t11 17l37 -14q-3 -5 -4.5 -10t-1.5 -11q0 -17 10 -26t29 -9q25 0 36.5 17.5t11.5 59.5v383h80z" />
    <glyph glyph-name="k.ord" horiz-adv-x="439" 
d="M411 284h-93l-117 155l-49 -44v-111h-80v524h80v-357l187 175h67l-151 -137z" />
    <glyph glyph-name="l.ord" horiz-adv-x="225" 
d="M72 808h80v-524h-80v524z" />
    <glyph glyph-name="m.ord" horiz-adv-x="671" 
d="M270 633q45 0 72 -22.5t34 -65.5q14 41 46 64.5t74 23.5q52 0 80.5 -32t28.5 -90v-227h-80v214q0 38 -16 58.5t-47 20.5q-36 0 -59.5 -34t-23.5 -88v-171h-80v214q0 38 -16.5 58.5t-47.5 20.5q-36 0 -59.5 -34t-23.5 -88v-171h-80v342h78l2 -79q16 41 46.5 63.5
t71.5 22.5z" />
    <glyph glyph-name="n.ord" horiz-adv-x="455" 
d="M72 284v342h78l2 -80q16 42 48 64.5t75 22.5q53 0 82.5 -32.5t29.5 -89.5v-227h-80v214q0 37 -18 58t-50 21q-37 0 -62 -34t-25 -87v-172h-80z" />
    <glyph glyph-name="o.ord" horiz-adv-x="434" 
d="M394 455q0 -77 -50.5 -127.5t-126.5 -50.5t-126.5 50.5t-50.5 127.5t50.5 127.5t126.5 50.5t126.5 -50.5t50.5 -127.5zM309 455q0 68 -23.5 103.5t-68.5 35.5t-69 -35.5t-24 -103.5t24 -103.5t69 -35.5t68.5 35.5t23.5 103.5z" />
    <glyph glyph-name="p.ord" horiz-adv-x="471" 
d="M249 584q-42 0 -69.5 -35.5t-27.5 -87.5v-32q0 -46 28.5 -77.5t66.5 -31.5q46 0 72.5 37t26.5 101q0 59 -26 92.5t-71 33.5zM268 277q-39 0 -69 17t-47 48v-208h-80v492h78l2 -81q13 40 47.5 64t77.5 24q67 0 110.5 -47.5t43.5 -124.5q0 -80 -47.5 -132t-115.5 -52z" />
    <glyph glyph-name="q.ord" horiz-adv-x="471" 
d="M203 633q40 0 69.5 -16.5t45.5 -48.5l6 58h74v-492h-80v232q-13 -42 -45 -65.5t-77 -23.5q-68 0 -112 47.5t-44 125.5q0 80 47 131.5t116 51.5zM223 326q41 0 68 35.5t27 88.5v30q0 47 -28 78.5t-66 31.5q-46 0 -72.5 -37t-26.5 -101q0 -59 26 -92.5t72 -33.5z" />
    <glyph glyph-name="r.ord" horiz-adv-x="375" 
d="M150 626l2 -96q16 47 46.5 75.5t68.5 28.5q37 0 58.5 -21t21.5 -56q0 -16 -6.5 -32t-16.5 -26l-37 24q5 6 7.5 14t2.5 16q0 16 -10 25.5t-27 9.5q-39 0 -73.5 -53t-34.5 -113v-138h-80v342h78z" />
    <glyph glyph-name="s.ord" horiz-adv-x="371" 
d="M185 591q-30 0 -47.5 -11.5t-17.5 -31.5q0 -17 12 -26.5t46 -18.5l56 -14q52 -13 74.5 -35.5t22.5 -62.5q0 -50 -40 -82t-102 -32q-53 0 -94.5 21t-61.5 59l32 31q23 -34 55 -51.5t69 -17.5q34 0 53.5 12.5t19.5 35.5q0 20 -12.5 30.5t-47.5 18.5l-52 12
q-51 12 -74.5 35.5t-23.5 62.5q0 48 37.5 77.5t96.5 29.5q44 0 79.5 -17t57.5 -49l-28 -38q-18 30 -47 46t-63 16z" />
    <glyph glyph-name="t.ord" horiz-adv-x="325" 
d="M78 584h-54v42h54l2 84l78 31v-115h120l-4 -42h-116v-201q0 -28 12 -43t35 -15q25 0 38 18t16 58l38 -4q-2 -56 -32 -88t-83 -32q-49 0 -77 27.5t-28 76.5z" />
    <glyph glyph-name="u.ord" horiz-adv-x="451" 
d="M377 626v-342h-77l-3 81q-16 -43 -46.5 -65.5t-72.5 -22.5q-51 0 -80.5 33t-29.5 89v227h81v-213q0 -40 15.5 -60t46.5 -20q38 0 62 34t24 88v171h80z" />
    <glyph glyph-name="v.ord" horiz-adv-x="390" 
d="M111 626l101 -236l101 236h54l-154 -345h-33l-157 345h88z" />
    <glyph glyph-name="w.ord" horiz-adv-x="567" 
d="M397 281h-29l-85 218l-90 -218h-27l-143 345h87l91 -229l59 159l-27 70h85l81 -228l92 228h53z" />
    <glyph glyph-name="x.ord" horiz-adv-x="413" 
d="M383 284h-91l-99 138l-105 -138h-58l136 175l-120 167h91l83 -115l87 115h57l-118 -151z" />
    <glyph glyph-name="y.ord" horiz-adv-x="390" 
d="M163 272l13 29l-153 325h88l105 -234l96 234h55l-165 -378q-27 -64 -56 -92.5t-68 -28.5q-33 0 -54 18.5t-21 49.5q0 9 2.5 18.5t6.5 18.5l47 -11q-4 -7 -5 -12t-1 -11q0 -13 8 -21t21 -8q21 0 37 19.5t44 83.5z" />
    <glyph glyph-name="z.ord" horiz-adv-x="394" 
d="M43 284v25l202 274h-190v43h292v-23l-201 -275h205v-44h-308z" />
    <glyph glyph-name="A.sc" horiz-adv-x="681" 
d="M429 223l-108 245l-106 -245h214zM628 0h-101l-75 171h-259l-74 -171h-66l262 598h49z" />
    <glyph glyph-name="B.sc" horiz-adv-x="649" 
d="M580 160q0 -77 -59.5 -118.5t-167.5 -41.5h-240v594h221q105 0 163 -38.5t58 -109.5q0 -58 -43.5 -96t-112.5 -43v-2q84 -3 132.5 -41t48.5 -104zM317 539h-108v-206h107q71 0 106 26t35 78q0 51 -35 76.5t-105 25.5zM482 165q0 56 -40 84.5t-119 28.5h-114v-223h124
q74 0 111.5 27.5t37.5 82.5z" />
    <glyph glyph-name="C.sc" horiz-adv-x="671" 
d="M371 -10q-132 0 -221 85.5t-89 216.5q0 134 90 223t223 89q81 0 143.5 -34.5t99.5 -100.5l-46 -44q-33 61 -79 90t-110 29q-97 0 -156 -67t-59 -179q0 -110 60.5 -178t153.5 -68q67 -1 114 27t78 89l45 -30q-38 -73 -100.5 -110.5t-146.5 -37.5z" />
    <glyph glyph-name="D.sc" horiz-adv-x="710" 
d="M649 299q0 -139 -90.5 -219t-245.5 -80h-200v594h192q160 0 252 -79t92 -216zM544 299q0 115 -64.5 178t-182.5 63h-88v-486h94q117 0 179 62.5t62 182.5z" />
    <glyph glyph-name="E.sc" horiz-adv-x="624" 
d="M551 0h-438v594h426v-57h-330v-202h245v-57h-245v-221h342v-57z" />
    <glyph glyph-name="F.sc" horiz-adv-x="587" 
d="M209 0h-96v594h412v-57h-316v-211h245v-58h-245v-268z" />
    <glyph glyph-name="G.sc" horiz-adv-x="725" 
d="M631 279v-279h-40l-35 95q-26 -49 -76 -77t-112 -28q-134 0 -220.5 84.5t-86.5 217.5q0 134 92 223t228 89q84 0 146.5 -34.5t99.5 -101.5l-47 -43q-32 61 -79 90t-113 29q-98 0 -159 -68t-61 -180t59 -179.5t155 -67.5q64 0 108.5 42t44.5 104v84h96z" />
    <glyph glyph-name="H.sc" horiz-adv-x="764" 
d="M209 0h-96v594h96v-260h346v260h95v-594h-95v278h-346v-278z" />
    <glyph glyph-name="I.sc" horiz-adv-x="322" 
d="M113 594h96v-594h-96v594z" />
    <glyph glyph-name="J.sc" horiz-adv-x="569" 
d="M248 49q59 0 91 38t32 108v399h95v-395q0 -95 -58.5 -152t-154.5 -57q-81 0 -135 47t-54 115q0 38 15.5 66.5t46.5 48.5l41 -36q-19 -18 -27.5 -36t-8.5 -40q0 -46 33 -76t84 -30z" />
    <glyph glyph-name="K.sc" horiz-adv-x="694" 
d="M639 0h-118l-235 289l-77 -72v-217h-96v594h96v-302l318 302h87l-260 -242z" />
    <glyph glyph-name="L.sc" horiz-adv-x="595" 
d="M525 0h-412v594h96v-537h316v-57z" />
    <glyph glyph-name="M.sc" horiz-adv-x="852" 
d="M236 594l195 -452l191 452h116v-594h-94v501l-217 -504h-33l-216 504v-501h-65v594h123z" />
    <glyph glyph-name="N.sc" horiz-adv-x="733" 
d="M204 594l351 -414v414h65v-596h-37l-405 480v-478h-65v594h91z" />
    <glyph glyph-name="O.sc" horiz-adv-x="736" 
d="M368 -10q-131 0 -219 88t-88 219t88.5 219t218.5 88q131 0 219 -88t88 -219q0 -132 -87.5 -219.5t-219.5 -87.5zM368 552q-93 0 -146.5 -68t-53.5 -187t53 -187t147 -68t147 67.5t53 187.5q0 119 -53 187t-147 68z" />
    <glyph glyph-name="P.sc" horiz-adv-x="618" 
d="M572 414q0 -87 -62.5 -134t-174.5 -47h-126v-233h-96v594h222q113 0 175 -47t62 -133zM209 539v-250h105q82 0 120 30.5t38 94.5t-38.5 94.5t-119.5 30.5h-105z" />
    <glyph glyph-name="Q.sc" horiz-adv-x="736" 
d="M572 -127q-54 0 -95.5 30t-68.5 89q-16 -1 -24.5 -1.5t-15.5 -0.5q-131 0 -219 88t-88 219t88.5 219t218.5 88q131 0 219 -88t88 -219q0 -102 -55.5 -181t-148.5 -110q20 -39 43.5 -56t57.5 -17q25 0 43.5 17.5t20.5 44.5l51 -18q-4 -46 -37 -75t-78 -29zM368 552
q-93 0 -146.5 -68t-53.5 -187t53 -187t147 -68t147 67.5t53 187.5q0 119 -53 187t-147 68z" />
    <glyph glyph-name="R.sc" horiz-adv-x="687" 
d="M333 539h-124v-225h124q74 0 112.5 29.5t38.5 86.5q0 54 -38.5 81.5t-112.5 27.5zM320 260h-111v-260h-96v594h244q110 0 169.5 -41t59.5 -119q0 -67 -49 -106.5t-129 -41.5v-3q54 -5 85 -29t49 -77l34 -87q8 -24 20 -45t31 -45h-107q-10 14 -19.5 33.5t-20.5 47.5
l-36 95q-18 50 -44 67t-80 17z" />
    <glyph glyph-name="S.sc" horiz-adv-x="596" 
d="M296 49q65 0 103 26.5t38 73.5q0 37 -24.5 60t-87.5 40l-84 22q-88 23 -125.5 61t-37.5 100q0 75 61 123.5t155 48.5q72 0 131 -29.5t91 -79.5l-44 -47q-27 47 -73.5 73t-104.5 26t-92.5 -24.5t-34.5 -66.5q0 -36 24 -57t87 -37l83 -22q86 -22 125.5 -61.5t39.5 -100.5
q0 -83 -65.5 -135.5t-164.5 -52.5q-81 0 -149.5 35t-100.5 94l46 42q34 -53 87.5 -82.5t116.5 -29.5z" />
    <glyph glyph-name="T.sc" horiz-adv-x="685" 
d="M390 0h-95v538h-233v56h562v-56h-234v-538z" />
    <glyph glyph-name="U.sc" horiz-adv-x="705" 
d="M537 237v357h65v-366q0 -111 -65.5 -174.5t-177.5 -63.5q-122 0 -188.5 62.5t-66.5 175.5v366h95v-356q0 -88 44.5 -136t125.5 -48q83 0 125.5 46t42.5 137z" />
    <glyph glyph-name="V.sc" horiz-adv-x="681" 
d="M155 594l203 -465l203 465h67l-265 -598h-43l-267 598h102z" />
    <glyph glyph-name="W.sc" horiz-adv-x="918" 
d="M646 -4h-43l-140 402l-140 -402h-42l-228 598h98l169 -451l116 333l-41 118h94l151 -445l160 445h65z" />
    <glyph glyph-name="X.sc" horiz-adv-x="681" 
d="M320 265l-202 -265h-74l241 311l-219 283h111l172 -222l167 222h73l-205 -267l253 -327h-112z" />
    <glyph glyph-name="Y.sc" horiz-adv-x="655" 
d="M161 594l187 -282l187 282h71l-231 -345v-249h-94v249l-231 345h111z" />
    <glyph glyph-name="Z.sc" horiz-adv-x="660" 
d="M186 57h397v-57h-520v39l396 498h-373v57h496v-39z" />
    <glyph glyph-name="Aacute.sc" horiz-adv-x="681" 
d="M312 661l65 188h105l-122 -188h-48zM429 223l-108 245l-106 -245h214zM628 0h-101l-75 171h-259l-74 -171h-66l262 598h49z" />
    <glyph glyph-name="Abreve.sc" horiz-adv-x="681" 
d="M429 223l-108 245l-106 -245h214zM628 0h-101l-75 171h-259l-74 -171h-66l262 598h49zM442 845h43q0 -78 -40 -127.5t-103 -49.5t-103 49.5t-40 127.5h43q4 -50 32 -82t68 -32t68 32t32 82z" />
    <glyph glyph-name="Acircumflex.sc" horiz-adv-x="681" 
d="M318 851h46l134 -199h-49l-107 122l-107 -122h-49zM429 223l-108 245l-106 -245h214zM628 0h-101l-75 171h-259l-74 -171h-66l262 598h49z" />
    <glyph glyph-name="Adieresis.sc" horiz-adv-x="681" 
d="M299 691h-93v114h93v-114zM477 691h-93v114h93v-114zM429 223l-108 245l-106 -245h214zM628 0h-101l-75 171h-259l-74 -171h-66l262 598h49z" />
    <glyph glyph-name="Agrave.sc" horiz-adv-x="681" 
d="M429 223l-108 245l-106 -245h214zM628 0h-101l-75 171h-259l-74 -171h-66l262 598h49zM373 661h-48l-122 188h105z" />
    <glyph glyph-name="Amacron.sc" horiz-adv-x="681" 
d="M429 223l-108 245l-106 -245h214zM628 0h-101l-75 171h-259l-74 -171h-66l262 598h49zM482 747v-57h-280v57h280z" />
    <glyph glyph-name="Aogonek.sc" horiz-adv-x="681" 
d="M429 223l-108 245l-106 -245h214zM584 -105l40 -17q-18 -50 -54 -76.5t-85 -26.5q-41 0 -70.5 25.5t-29.5 65.5q0 41 30 76.5t103 78.5l-66 150h-259l-74 -171h-66l262 598h49l264 -598h-67q-67 -42 -89 -67t-22 -52q0 -24 15 -38.5t39 -14.5q27 0 45 15.5t35 51.5z" />
    <glyph glyph-name="Aring.sc" horiz-adv-x="681" 
d="M342 657q-44 0 -76 31.5t-32 75.5q0 43 32 74t76 31t76 -31t32 -74q0 -44 -32 -75.5t-76 -31.5zM342 702q28 0 44.5 17t16.5 45q0 27 -17 44.5t-44 17.5t-44 -17.5t-17 -44.5q0 -28 16.5 -45t44.5 -17zM429 223l-108 245l-106 -245h214zM628 0h-101l-75 171h-259
l-74 -171h-66l262 598h49z" />
    <glyph glyph-name="Atilde.sc" horiz-adv-x="681" 
d="M429 223l-108 245l-106 -245h214zM628 0h-101l-75 171h-259l-74 -171h-66l262 598h49zM415 685q-15 0 -32.5 8t-51.5 32q-27 20 -39.5 26t-22.5 6q-20 0 -33.5 -17.5t-22.5 -57.5h-51q13 65 41.5 102t65.5 37q15 0 32.5 -8t51.5 -32q27 -20 39.5 -26t22.5 -6
q20 0 33.5 17.5t22.5 57.5h51q-13 -65 -41.5 -102t-65.5 -37z" />
    <glyph glyph-name="AE.sc" horiz-adv-x="981" 
d="M471 235v288l-192 -288h192zM909 0h-438v183h-226l-122 -183h-70l395 594h449v-57h-331v-202h245v-57h-245v-221h343v-57z" />
    <glyph glyph-name="AEacute.sc" horiz-adv-x="981" 
d="M628 661l65 188h105l-122 -188h-48zM471 235v288l-192 -288h192zM909 0h-438v183h-226l-122 -183h-70l395 594h449v-57h-331v-202h245v-57h-245v-221h343v-57z" />
    <glyph glyph-name="Cacute.sc" horiz-adv-x="671" 
d="M350 661l65 188h105l-122 -188h-48zM371 -10q-132 0 -221 85.5t-89 216.5q0 134 90 223t223 89q81 0 143.5 -34.5t99.5 -100.5l-46 -44q-33 61 -79 90t-110 29q-97 0 -156 -67t-59 -179q0 -110 60.5 -178t153.5 -68q67 -1 114 27t78 89l45 -30q-38 -73 -100.5 -110.5
t-146.5 -37.5z" />
    <glyph glyph-name="Ccaron.sc" horiz-adv-x="671" 
d="M536 852l-134 -199h-46l-132 199h49l107 -122l107 122h49zM371 -10q-132 0 -221 85.5t-89 216.5q0 134 90 223t223 89q81 0 143.5 -34.5t99.5 -100.5l-46 -44q-33 61 -79 90t-110 29q-97 0 -156 -67t-59 -179q0 -110 60.5 -178t153.5 -68q67 -1 114 27t78 89l45 -30
q-38 -73 -100.5 -110.5t-146.5 -37.5z" />
    <glyph glyph-name="Ccedilla.sc" horiz-adv-x="671" 
d="M465 -136q0 -38 -34 -63.5t-84 -25.5q-36 0 -65.5 16t-43.5 43l31 30q14 -20 33.5 -30.5t41.5 -10.5q25 0 40.5 11t15.5 31q0 22 -26 33.5t-76 12.5l34 81q-119 13 -195 96.5t-76 203.5q0 134 90 223t223 89q81 0 143.5 -34.5t99.5 -100.5l-46 -44q-33 61 -79 90t-110 29
q-97 0 -156 -67t-59 -179q0 -110 60.5 -178t153.5 -68q67 -1 114 27t78 89l45 -30q-38 -73 -100 -110.5t-144 -37.5l-18 -44q53 -4 81 -25t28 -57z" />
    <glyph glyph-name="Ccircumflex.sc" horiz-adv-x="671" 
d="M356 851h46l134 -199h-49l-107 122l-107 -122h-49zM371 -10q-132 0 -221 85.5t-89 216.5q0 134 90 223t223 89q81 0 143.5 -34.5t99.5 -100.5l-46 -44q-33 61 -79 90t-110 29q-97 0 -156 -67t-59 -179q0 -110 60.5 -178t153.5 -68q67 -1 114 27t78 89l45 -30
q-38 -73 -100.5 -110.5t-146.5 -37.5z" />
    <glyph glyph-name="Cdotaccent.sc" horiz-adv-x="671" 
d="M371 -10q-132 0 -221 85.5t-89 216.5q0 134 90 223t223 89q81 0 143.5 -34.5t99.5 -100.5l-46 -44q-33 61 -79 90t-110 29q-97 0 -156 -67t-59 -179q0 -110 60.5 -178t153.5 -68q67 -1 114 27t78 89l45 -30q-38 -73 -100.5 -110.5t-146.5 -37.5zM430 693h-101v122h101
v-122z" />
    <glyph glyph-name="Dcaron.sc" horiz-adv-x="710" 
d="M649 299q0 -139 -90.5 -219t-245.5 -80h-200v594h192q160 0 252 -79t92 -216zM544 299q0 115 -64.5 178t-182.5 63h-88v-486h94q117 0 179 62.5t62 182.5zM498 852l-134 -199h-46l-132 199h49l107 -122l107 122h49z" />
    <glyph glyph-name="Dcroat.sc" horiz-adv-x="728" 
d="M667 299q0 -140 -90 -219.5t-246 -79.5h-200v278h-81v56h81v260h192q160 0 252 -78.5t92 -216.5zM227 278v-224h95q117 0 179 62.5t62 182.5q0 115 -64.5 178t-182.5 63h-89v-206h131v-56h-131z" />
    <glyph glyph-name="Eacute.sc" horiz-adv-x="624" 
d="M302 661l65 188h105l-122 -188h-48zM551 0h-438v594h426v-57h-330v-202h245v-57h-245v-221h342v-57z" />
    <glyph glyph-name="Ebreve.sc" horiz-adv-x="624" 
d="M551 0h-438v594h426v-57h-330v-202h245v-57h-245v-221h342v-57zM432 845h43q0 -78 -40 -127.5t-103 -49.5t-103 49.5t-40 127.5h43q4 -50 32 -82t68 -32t68 32t32 82z" />
    <glyph glyph-name="Ecaron.sc" horiz-adv-x="624" 
d="M488 852l-134 -199h-46l-132 199h49l107 -122l107 122h49zM551 0h-438v594h426v-57h-330v-202h245v-57h-245v-221h342v-57z" />
    <glyph glyph-name="Ecircumflex.sc" horiz-adv-x="624" 
d="M308 851h46l134 -199h-49l-107 122l-107 -122h-49zM551 0h-438v594h426v-57h-330v-202h245v-57h-245v-221h342v-57z" />
    <glyph glyph-name="Edieresis.sc" horiz-adv-x="624" 
d="M290 691h-93v114h93v-114zM468 691h-93v114h93v-114zM551 0h-438v594h426v-57h-330v-202h245v-57h-245v-221h342v-57z" />
    <glyph glyph-name="Edotaccent.sc" horiz-adv-x="624" 
d="M383 693h-101v122h101v-122zM551 0h-438v594h426v-57h-330v-202h245v-57h-245v-221h342v-57z" />
    <glyph glyph-name="Egrave.sc" horiz-adv-x="624" 
d="M364 661h-48l-122 188h105zM551 0h-438v594h426v-57h-330v-202h245v-57h-245v-221h342v-57z" />
    <glyph glyph-name="Emacron.sc" horiz-adv-x="624" 
d="M472 747v-57h-280v57h280zM551 0h-438v594h426v-57h-330v-202h245v-57h-245v-221h342v-57z" />
    <glyph glyph-name="Eogonek.sc" horiz-adv-x="624" 
d="M490 -105l40 -17q-18 -50 -54 -76.5t-85 -26.5q-41 0 -70.5 25.5t-29.5 65.5q0 36 23.5 68.5t74.5 65.5h-276v594h426v-57h-330v-202h245v-57h-245v-221h342v-57h-84q-67 -42 -89 -67t-22 -52q0 -24 15 -38.5t39 -14.5q27 0 45 15.5t35 51.5z" />
    <glyph glyph-name="Eth.sc" horiz-adv-x="728" 
d="M667 299q0 -140 -90 -219.5t-246 -79.5h-200v278h-81v56h81v260h192q160 0 252 -78.5t92 -216.5zM227 278v-224h95q117 0 179 62.5t62 182.5q0 115 -64.5 178t-182.5 63h-89v-206h131v-56h-131z" />
    <glyph glyph-name="Gbreve.sc" horiz-adv-x="725" 
d="M631 279v-279h-40l-35 95q-26 -49 -76 -77t-112 -28q-134 0 -220.5 84.5t-86.5 217.5q0 134 92 223t228 89q84 0 146.5 -34.5t99.5 -101.5l-47 -43q-32 61 -79 90t-113 29q-98 0 -159 -68t-61 -180t59 -179.5t155 -67.5q64 0 108.5 42t44.5 104v84h96zM484 845h43
q0 -78 -40 -127.5t-103 -49.5t-103 49.5t-40 127.5h43q4 -50 32 -82t68 -32t68 32t32 82z" />
    <glyph glyph-name="Gcircumflex.sc" horiz-adv-x="725" 
d="M360 851h46l134 -199h-49l-107 122l-107 -122h-49zM631 279v-279h-40l-35 95q-26 -49 -76 -77t-112 -28q-134 0 -220.5 84.5t-86.5 217.5q0 134 92 223t228 89q84 0 146.5 -34.5t99.5 -101.5l-47 -43q-32 61 -79 90t-113 29q-98 0 -159 -68t-61 -180t59 -179.5t155 -67.5
q64 0 108.5 42t44.5 104v84h96z" />
    <glyph glyph-name="Gcommaaccent.sc" horiz-adv-x="725" 
d="M383 -149h-56v91h112v-96q0 -56 -35 -86t-101 -30v49q43 0 61.5 15t18.5 50v7zM631 279v-279h-40l-35 95q-26 -49 -76 -77t-112 -28q-134 0 -220.5 84.5t-86.5 217.5q0 134 92 223t228 89q84 0 146.5 -34.5t99.5 -101.5l-47 -43q-32 61 -79 90t-113 29q-98 0 -159 -68
t-61 -180t59 -179.5t155 -67.5q64 0 108.5 42t44.5 104v84h96z" />
    <glyph glyph-name="Gdotaccent.sc" horiz-adv-x="725" 
d="M631 279v-279h-40l-35 95q-26 -49 -76 -77t-112 -28q-134 0 -220.5 84.5t-86.5 217.5q0 134 92 223t228 89q84 0 146.5 -34.5t99.5 -101.5l-47 -43q-32 61 -79 90t-113 29q-98 0 -159 -68t-61 -180t59 -179.5t155 -67.5q64 0 108.5 42t44.5 104v84h96zM434 693h-101v122
h101v-122z" />
    <glyph glyph-name="Hbar.sc" horiz-adv-x="799" 
d="M227 393v-105h347v105h-347zM574 233h-347v-233h-96v393h-81v55h81v146h96v-146h347v146h94v-146h82v-55h-82v-393h-94v233z" />
    <glyph glyph-name="Hcircumflex.sc" horiz-adv-x="764" 
d="M358 851h46l134 -199h-49l-107 122l-107 -122h-49zM209 0h-96v594h96v-260h346v260h95v-594h-95v278h-346v-278z" />
    <glyph glyph-name="Iacute.sc" horiz-adv-x="322" 
d="M131 661l65 188h105l-122 -188h-48zM113 594h96v-594h-96v594z" />
    <glyph glyph-name="Ibreve.sc" horiz-adv-x="322" 
d="M113 594h96v-594h-96v594zM261 845h43q0 -78 -40 -127.5t-103 -49.5t-103 49.5t-40 127.5h43q4 -50 32 -82t68 -32t68 32t32 82z" />
    <glyph glyph-name="Icircumflex.sc" horiz-adv-x="322" 
d="M137 851h46l134 -199h-49l-107 122l-107 -122h-49zM113 594h96v-594h-96v594z" />
    <glyph glyph-name="Idieresis.sc" horiz-adv-x="322" 
d="M118 691h-93v114h93v-114zM296 691h-93v114h93v-114zM113 594h96v-594h-96v594z" />
    <glyph glyph-name="Idotaccent.sc" horiz-adv-x="322" 
d="M113 594h96v-594h-96v594zM211 693h-101v122h101v-122z" />
    <glyph glyph-name="Igrave.sc" horiz-adv-x="322" 
d="M113 594h96v-594h-96v594zM193 661h-48l-122 188h105z" />
    <glyph glyph-name="Imacron.sc" horiz-adv-x="322" 
d="M113 594h96v-594h-96v594zM301 747v-57h-280v57h280z" />
    <glyph glyph-name="Iogonek.sc" horiz-adv-x="322" 
d="M113 0v594h96v-594q-69 -40 -92 -65.5t-23 -53.5q0 -24 15 -38.5t39 -14.5q27 0 45 15.5t34 51.5l41 -17q-19 -50 -54.5 -76.5t-84.5 -26.5q-41 0 -70.5 25.5t-29.5 65.5q0 36 22.5 68.5t71.5 65.5h-10z" />
    <glyph glyph-name="Itilde.sc" horiz-adv-x="322" 
d="M113 594h96v-594h-96v594zM234 685q-15 0 -32.5 8t-51.5 32q-27 20 -39.5 26t-22.5 6q-20 0 -33.5 -17.5t-22.5 -57.5h-51q13 65 41.5 102t65.5 37q15 0 32.5 -8t51.5 -32q27 -20 39.5 -26t22.5 -6q20 0 33.5 17.5t22.5 57.5h51q-13 -65 -41.5 -102t-65.5 -37z" />
    <glyph glyph-name="Jcircumflex.sc" horiz-adv-x="569" 
d="M395 851h46l134 -199h-49l-107 122l-107 -122h-49zM248 49q59 0 91 38t32 108v399h95v-395q0 -95 -58.5 -152t-154.5 -57q-81 0 -135 47t-54 115q0 38 15.5 66.5t46.5 48.5l41 -36q-19 -18 -27.5 -36t-8.5 -40q0 -46 33 -76t84 -30z" />
    <glyph glyph-name="Kcommaaccent.sc" horiz-adv-x="697" 
d="M338 -149h-56v91h112v-96q0 -56 -35 -86t-101 -30v49q43 0 61.5 15t18.5 50v7zM639 0h-118l-235 289l-77 -72v-217h-96v594h96v-302l318 302h87l-260 -242z" />
    <glyph glyph-name="Lacute.sc" horiz-adv-x="595" 
d="M525 0h-412v594h96v-537h316v-57zM136 661l65 188h105l-122 -188h-48z" />
    <glyph glyph-name="Lcaron.sc" horiz-adv-x="595" 
d="M525 0h-412v594h96v-537h316v-57zM401 654h95l-79 -205h-43z" />
    <glyph glyph-name="Lcommaaccent.sc" horiz-adv-x="595" 
d="M525 0h-412v594h96v-537h316v-57zM325 -149h-56v91h112v-96q0 -56 -35 -86t-101 -30v49q43 0 61.5 15t18.5 50v7z" />
    <glyph glyph-name="Ldot.sc" horiz-adv-x="595" 
d="M525 0h-412v594h96v-537h316v-57zM528 267h-101v122h101v-122z" />
    <glyph glyph-name="Lslash.sc" horiz-adv-x="609" 
d="M540 57v-57h-412v225l-78 -32v56l78 31v314h95v-275l159 62v-56l-159 -63v-205h317z" />
    <glyph glyph-name="Nacute.sc" horiz-adv-x="733" 
d="M337 661l65 188h105l-122 -188h-48zM204 594l351 -414v414h65v-596h-37l-405 480v-478h-65v594h91z" />
    <glyph glyph-name="Ncaron.sc" horiz-adv-x="733" 
d="M523 852l-134 -199h-46l-132 199h49l107 -122l107 122h49zM204 594l351 -414v414h65v-596h-37l-405 480v-478h-65v594h91z" />
    <glyph glyph-name="Ncommaaccent.sc" horiz-adv-x="733" 
d="M367 -149h-56v91h112v-96q0 -56 -35 -86t-101 -30v49q43 0 61.5 15t18.5 50v7zM204 594l351 -414v414h65v-596h-37l-405 480v-478h-65v594h91z" />
    <glyph glyph-name="Ntilde.sc" horiz-adv-x="733" 
d="M204 594l351 -414v414h65v-596h-37l-405 480v-478h-65v594h91zM440 685q-15 0 -32.5 8t-51.5 32q-27 20 -39.5 26t-22.5 6q-20 0 -33.5 -17.5t-22.5 -57.5h-51q13 65 41.5 102t65.5 37q15 0 32.5 -8t51.5 -32q27 -20 39.5 -26t22.5 -6q20 0 33.5 17.5t22.5 57.5h51
q-13 -65 -41.5 -102t-65.5 -37z" />
    <glyph glyph-name="Eng.sc" horiz-adv-x="734" 
d="M480 -191q-51 0 -80 23.5t-29 63.5q0 14 4.5 26t12.5 20l44 -18q-4 -5 -5.5 -11.5t-1.5 -13.5q0 -20 14 -31.5t39 -11.5q40 0 59.5 29.5t19.5 89.5v56l-379 447v-478h-64v594h90l353 -414v414h64v-621q0 -76 -37.5 -120t-103.5 -44z" />
    <glyph glyph-name="Oacute.sc" horiz-adv-x="736" 
d="M368 -10q-131 0 -219 88t-88 219t88.5 219t218.5 88q131 0 219 -88t88 -219q0 -132 -87.5 -219.5t-219.5 -87.5zM368 552q-93 0 -146.5 -68t-53.5 -187t53 -187t147 -68t147 67.5t53 187.5q0 119 -53 187t-147 68zM338 661l65 188h105l-122 -188h-48z" />
    <glyph glyph-name="Obreve.sc" horiz-adv-x="736" 
d="M368 -10q-131 0 -219 88t-88 219t88.5 219t218.5 88q131 0 219 -88t88 -219q0 -132 -87.5 -219.5t-219.5 -87.5zM368 552q-93 0 -146.5 -68t-53.5 -187t53 -187t147 -68t147 67.5t53 187.5q0 119 -53 187t-147 68zM468 845h43q0 -78 -40 -127.5t-103 -49.5t-103 49.5
t-40 127.5h43q4 -50 32 -82t68 -32t68 32t32 82z" />
    <glyph glyph-name="Ocircumflex.sc" horiz-adv-x="736" 
d="M344 851h46l134 -199h-49l-107 122l-107 -122h-49zM368 -10q-131 0 -219 88t-88 219t88.5 219t218.5 88q131 0 219 -88t88 -219q0 -132 -87.5 -219.5t-219.5 -87.5zM368 552q-93 0 -146.5 -68t-53.5 -187t53 -187t147 -68t147 67.5t53 187.5q0 119 -53 187t-147 68z" />
    <glyph glyph-name="Odieresis.sc" horiz-adv-x="736" 
d="M325 691h-93v114h93v-114zM503 691h-93v114h93v-114zM368 -10q-131 0 -219 88t-88 219t88.5 219t218.5 88q131 0 219 -88t88 -219q0 -132 -87.5 -219.5t-219.5 -87.5zM368 552q-93 0 -146.5 -68t-53.5 -187t53 -187t147 -68t147 67.5t53 187.5q0 119 -53 187t-147 68z
" />
    <glyph glyph-name="Ograve.sc" horiz-adv-x="736" 
d="M368 -10q-131 0 -219 88t-88 219t88.5 219t218.5 88q131 0 219 -88t88 -219q0 -132 -87.5 -219.5t-219.5 -87.5zM368 552q-93 0 -146.5 -68t-53.5 -187t53 -187t147 -68t147 67.5t53 187.5q0 119 -53 187t-147 68zM400 661h-48l-122 188h105z" />
    <glyph glyph-name="Ohungarumlaut.sc" horiz-adv-x="736" 
d="M368 -10q-131 0 -219 88t-88 219t88.5 219t218.5 88q131 0 219 -88t88 -219q0 -132 -87.5 -219.5t-219.5 -87.5zM368 552q-93 0 -146.5 -68t-53.5 -187t53 -187t147 -68t147 67.5t53 187.5q0 119 -53 187t-147 68zM256 661l70 188h98l-119 -188h-49zM423 661l70 188h97
l-119 -188h-48z" />
    <glyph glyph-name="Omacron.sc" horiz-adv-x="736" 
d="M368 -10q-131 0 -219 88t-88 219t88.5 219t218.5 88q131 0 219 -88t88 -219q0 -132 -87.5 -219.5t-219.5 -87.5zM368 552q-93 0 -146.5 -68t-53.5 -187t53 -187t147 -68t147 67.5t53 187.5q0 119 -53 187t-147 68zM508 747v-57h-280v57h280z" />
    <glyph glyph-name="Oslash.sc" horiz-adv-x="736" 
d="M368 551q-93 0 -146.5 -68t-53.5 -186q0 -43 8 -81t23 -69l316 337q-27 33 -64 50t-83 17zM368 43q94 0 147.5 67.5t53.5 186.5q0 42 -7 77.5t-20 63.5l-314 -336q26 -29 61.5 -44t78.5 -15zM675 297q0 -130 -88 -217.5t-219 -87.5q-52 0 -99.5 15.5t-87.5 44.5l-78 -84
l-39 35l78 84q-39 42 -60 96t-21 114q0 130 88 217.5t219 87.5q55 0 105 -17t91 -49l71 76l38 -34l-72 -78q36 -41 55 -93.5t19 -109.5z" />
    <glyph glyph-name="Oslashacute.sc" horiz-adv-x="736" 
d="M338 661l65 188h105l-122 -188h-48zM368 551q-93 0 -146.5 -68t-53.5 -186q0 -43 8 -81t23 -69l316 337q-27 33 -64 50t-83 17zM368 43q94 0 147.5 67.5t53.5 186.5q0 42 -7 77.5t-20 63.5l-314 -336q26 -29 61.5 -44t78.5 -15zM675 297q0 -130 -88 -217.5t-219 -87.5
q-52 0 -99.5 15.5t-87.5 44.5l-78 -84l-39 35l78 84q-39 42 -60 96t-21 114q0 130 88 217.5t219 87.5q55 0 105 -17t91 -49l71 76l38 -34l-72 -78q36 -41 55 -93.5t19 -109.5z" />
    <glyph glyph-name="Otilde.sc" horiz-adv-x="736" 
d="M368 -10q-131 0 -219 88t-88 219t88.5 219t218.5 88q131 0 219 -88t88 -219q0 -132 -87.5 -219.5t-219.5 -87.5zM368 552q-93 0 -146.5 -68t-53.5 -187t53 -187t147 -68t147 67.5t53 187.5q0 119 -53 187t-147 68zM441 685q-15 0 -32.5 8t-51.5 32q-27 20 -39.5 26
t-22.5 6q-20 0 -33.5 -17.5t-22.5 -57.5h-51q13 65 41.5 102t65.5 37q15 0 32.5 -8t51.5 -32q27 -20 39.5 -26t22.5 -6q20 0 33.5 17.5t22.5 57.5h51q-13 -65 -41.5 -102t-65.5 -37z" />
    <glyph glyph-name="OE.sc" horiz-adv-x="1012" 
d="M941 0h-543q-156 0 -246.5 80t-90.5 219q0 137 92 216t252 79h523v-57h-331v-202h245v-57h-245v-221h344v-57zM165 299q0 -120 62 -182.5t181 -62.5h94v486h-89q-118 0 -183 -63t-65 -178z" />
    <glyph glyph-name="Racute.sc" horiz-adv-x="687" 
d="M302 661l65 188h105l-122 -188h-48zM333 539h-124v-225h124q74 0 112.5 29.5t38.5 86.5q0 54 -38.5 81.5t-112.5 27.5zM320 260h-111v-260h-96v594h244q110 0 169.5 -41t59.5 -119q0 -67 -49 -106.5t-129 -41.5v-3q54 -5 85 -29t49 -77l34 -87q8 -24 20 -45t31 -45h-107
q-10 14 -19.5 33.5t-20.5 47.5l-36 95q-18 50 -44 67t-80 17z" />
    <glyph glyph-name="Rcaron.sc" horiz-adv-x="687" 
d="M488 852l-134 -199h-46l-132 199h49l107 -122l107 122h49zM333 539h-124v-225h124q74 0 112.5 29.5t38.5 86.5q0 54 -38.5 81.5t-112.5 27.5zM320 260h-111v-260h-96v594h244q110 0 169.5 -41t59.5 -119q0 -67 -49 -106.5t-129 -41.5v-3q54 -5 85 -29t49 -77l34 -87
q8 -24 20 -45t31 -45h-107q-10 14 -19.5 33.5t-20.5 47.5l-36 95q-18 50 -44 67t-80 17z" />
    <glyph glyph-name="Rcommaaccent.sc" horiz-adv-x="687" 
d="M332 -149h-56v91h112v-96q0 -56 -35 -86t-101 -30v49q43 0 61.5 15t18.5 50v7zM333 539h-124v-225h124q74 0 112.5 29.5t38.5 86.5q0 54 -38.5 81.5t-112.5 27.5zM320 260h-111v-260h-96v594h244q110 0 169.5 -41t59.5 -119q0 -67 -49 -106.5t-129 -41.5v-3q54 -5 85 -29
t49 -77l34 -87q8 -24 20 -45t31 -45h-107q-10 14 -19.5 33.5t-20.5 47.5l-36 95q-18 50 -44 67t-80 17z" />
    <glyph glyph-name="Sacute.sc" horiz-adv-x="596" 
d="M271 661l65 188h105l-122 -188h-48zM296 49q65 0 103 26.5t38 73.5q0 37 -24.5 60t-87.5 40l-84 22q-88 23 -125.5 61t-37.5 100q0 75 61 123.5t155 48.5q72 0 131 -29.5t91 -79.5l-44 -47q-27 47 -73.5 73t-104.5 26t-92.5 -24.5t-34.5 -66.5q0 -36 24 -57t87 -37
l83 -22q86 -22 125.5 -61.5t39.5 -100.5q0 -83 -65.5 -135.5t-164.5 -52.5q-81 0 -149.5 35t-100.5 94l46 42q34 -53 87.5 -82.5t116.5 -29.5z" />
    <glyph glyph-name="Scaron.sc" horiz-adv-x="596" 
d="M457 852l-134 -199h-46l-132 199h49l107 -122l107 122h49zM296 49q65 0 103 26.5t38 73.5q0 37 -24.5 60t-87.5 40l-84 22q-88 23 -125.5 61t-37.5 100q0 75 61 123.5t155 48.5q72 0 131 -29.5t91 -79.5l-44 -47q-27 47 -73.5 73t-104.5 26t-92.5 -24.5t-34.5 -66.5
q0 -36 24 -57t87 -37l83 -22q86 -22 125.5 -61.5t39.5 -100.5q0 -83 -65.5 -135.5t-164.5 -52.5q-81 0 -149.5 35t-100.5 94l46 42q34 -53 87.5 -82.5t116.5 -29.5z" />
    <glyph glyph-name="Scedilla.sc" horiz-adv-x="596" 
d="M387 -136q0 -38 -34 -63.5t-84 -25.5q-36 0 -65.5 16t-43.5 43l31 30q14 -20 33.5 -30.5t41.5 -10.5q25 0 40.5 11t15.5 31q0 22 -26 33.5t-76 12.5l34 82q-70 8 -125 41.5t-83 84.5l46 42q34 -53 87.5 -82.5t116.5 -29.5q65 0 103 26.5t38 73.5q0 37 -24.5 60t-87.5 40
l-84 22q-88 23 -125.5 61t-37.5 100q0 75 61 123.5t155 48.5q72 0 131 -29.5t91 -79.5l-44 -47q-27 47 -73.5 73t-104.5 26t-92.5 -24.5t-34.5 -66.5q0 -36 24 -57t87 -37l83 -22q86 -22 125.5 -61.5t39.5 -100.5q0 -83 -65.5 -135.5t-164.5 -52.5l-18 -44q53 -4 81 -25
t28 -57z" />
    <glyph glyph-name="Scircumflex.sc" horiz-adv-x="596" 
d="M277 851h46l134 -199h-49l-107 122l-107 -122h-49zM296 49q65 0 103 26.5t38 73.5q0 37 -24.5 60t-87.5 40l-84 22q-88 23 -125.5 61t-37.5 100q0 75 61 123.5t155 48.5q72 0 131 -29.5t91 -79.5l-44 -47q-27 47 -73.5 73t-104.5 26t-92.5 -24.5t-34.5 -66.5
q0 -36 24 -57t87 -37l83 -22q86 -22 125.5 -61.5t39.5 -100.5q0 -83 -65.5 -135.5t-164.5 -52.5q-81 0 -149.5 35t-100.5 94l46 42q34 -53 87.5 -82.5t116.5 -29.5z" />
    <glyph glyph-name="Scommaaccent.sc" horiz-adv-x="596" 
d="M301 -149h-56v91h112v-96q0 -56 -35 -86t-101 -30v49q43 0 61.5 15t18.5 50v7zM296 49q65 0 103 26.5t38 73.5q0 37 -24.5 60t-87.5 40l-84 22q-88 23 -125.5 61t-37.5 100q0 75 61 123.5t155 48.5q72 0 131 -29.5t91 -79.5l-44 -47q-27 47 -73.5 73t-104.5 26
t-92.5 -24.5t-34.5 -66.5q0 -36 24 -57t87 -37l83 -22q86 -22 125.5 -61.5t39.5 -100.5q0 -83 -65.5 -135.5t-164.5 -52.5q-81 0 -149.5 35t-100.5 94l46 42q34 -53 87.5 -82.5t116.5 -29.5z" />
    <glyph glyph-name="Tbar.sc" horiz-adv-x="685" 
d="M513 334v-56h-122v-278h-96v278h-122v56h122v204h-233v56h562v-56h-233v-204h122z" />
    <glyph glyph-name="Tcaron.sc" horiz-adv-x="685" 
d="M390 0h-95v538h-233v56h562v-56h-234v-538zM500 852l-134 -199h-46l-132 199h49l107 -122l107 122h49z" />
    <glyph glyph-name="Tcommaaccent.sc" horiz-adv-x="685" 
d="M449 -136q0 -38 -34 -63.5t-84 -25.5q-36 0 -65.5 16t-43.5 43l31 30q14 -20 33.5 -30.5t41.5 -10.5q25 0 40.5 11t15.5 31q0 22 -26 33.5t-76 12.5l37 89h-24v538h-233v56h562v-56h-234v-538h-27l-23 -54q53 -4 81 -25t28 -57z" />
    <glyph glyph-name="uni021A.sc" horiz-adv-x="685" 
d="M390 0h-95v538h-233v56h562v-56h-234v-538zM343 -149h-56v91h112v-96q0 -56 -35 -86t-101 -30v49q43 0 61.5 15t18.5 50v7z" />
    <glyph glyph-name="Thorn.sc" horiz-adv-x="619" 
d="M209 0h-95v594h95v-103h126q113 0 175 -47t62 -134q0 -86 -62.5 -133t-174.5 -47h-126v-130zM473 310q0 65 -38.5 95.5t-119.5 30.5h-106v-251h106q81 0 119.5 30.5t38.5 94.5z" />
    <glyph glyph-name="Uacute.sc" horiz-adv-x="705" 
d="M328 661l65 188h105l-122 -188h-48zM537 237v357h65v-366q0 -111 -65.5 -174.5t-177.5 -63.5q-122 0 -188.5 62.5t-66.5 175.5v366h95v-356q0 -88 44.5 -136t125.5 -48q83 0 125.5 46t42.5 137z" />
    <glyph glyph-name="Ubreve.sc" horiz-adv-x="705" 
d="M537 237v357h65v-366q0 -111 -65.5 -174.5t-177.5 -63.5q-122 0 -188.5 62.5t-66.5 175.5v366h95v-356q0 -88 44.5 -136t125.5 -48q83 0 125.5 46t42.5 137zM458 845h43q0 -78 -40 -127.5t-103 -49.5t-103 49.5t-40 127.5h43q4 -50 32 -82t68 -32t68 32t32 82z" />
    <glyph glyph-name="Ucircumflex.sc" horiz-adv-x="705" 
d="M334 851h46l134 -199h-49l-107 122l-107 -122h-49zM537 237v357h65v-366q0 -111 -65.5 -174.5t-177.5 -63.5q-122 0 -188.5 62.5t-66.5 175.5v366h95v-356q0 -88 44.5 -136t125.5 -48q83 0 125.5 46t42.5 137z" />
    <glyph glyph-name="Udieresis.sc" horiz-adv-x="705" 
d="M316 691h-93v114h93v-114zM494 691h-93v114h93v-114zM537 237v357h65v-366q0 -111 -65.5 -174.5t-177.5 -63.5q-122 0 -188.5 62.5t-66.5 175.5v366h95v-356q0 -88 44.5 -136t125.5 -48q83 0 125.5 46t42.5 137z" />
    <glyph glyph-name="Ugrave.sc" horiz-adv-x="705" 
d="M390 661h-48l-122 188h105zM537 237v357h65v-366q0 -111 -65.5 -174.5t-177.5 -63.5q-122 0 -188.5 62.5t-66.5 175.5v366h95v-356q0 -88 44.5 -136t125.5 -48q83 0 125.5 46t42.5 137z" />
    <glyph glyph-name="Uhungarumlaut.sc" horiz-adv-x="705" 
d="M246 661l70 188h98l-119 -188h-49zM413 661l70 188h97l-119 -188h-48zM537 237v357h65v-366q0 -111 -65.5 -174.5t-177.5 -63.5q-122 0 -188.5 62.5t-66.5 175.5v366h95v-356q0 -88 44.5 -136t125.5 -48q83 0 125.5 46t42.5 137z" />
    <glyph glyph-name="Umacron.sc" horiz-adv-x="705" 
d="M498 747v-57h-280v57h280zM537 237v357h65v-366q0 -111 -65.5 -174.5t-177.5 -63.5q-122 0 -188.5 62.5t-66.5 175.5v366h95v-356q0 -88 44.5 -136t125.5 -48q83 0 125.5 46t42.5 137z" />
    <glyph glyph-name="Uogonek.sc" horiz-adv-x="705" 
d="M396 -225q-41 0 -70.5 25.5t-29.5 65.5q0 34 19.5 64.5t59.5 59.5h-16q-122 0 -188.5 62.5t-66.5 175.5v366h95v-356q0 -88 44.5 -136t125.5 -48q83 0 125.5 46t42.5 137v357h65v-366q0 -82 -37 -139.5t-106 -82.5q-49 -32 -73.5 -63t-24.5 -62q0 -24 14.5 -38.5
t38.5 -14.5q27 0 45.5 15.5t34.5 51.5l41 -17q-19 -50 -55 -76.5t-84 -26.5z" />
    <glyph glyph-name="Uring.sc" horiz-adv-x="705" 
d="M358 657q-44 0 -76 31.5t-32 75.5q0 43 32 74t76 31t76 -31t32 -74q0 -44 -32 -75.5t-76 -31.5zM358 702q28 0 44.5 17t16.5 45q0 27 -17 44.5t-44 17.5t-44 -17.5t-17 -44.5q0 -28 16.5 -45t44.5 -17zM537 237v357h65v-366q0 -111 -65.5 -174.5t-177.5 -63.5
q-122 0 -188.5 62.5t-66.5 175.5v366h95v-356q0 -88 44.5 -136t125.5 -48q83 0 125.5 46t42.5 137z" />
    <glyph glyph-name="Utilde.sc" horiz-adv-x="705" 
d="M537 237v357h65v-366q0 -111 -65.5 -174.5t-177.5 -63.5q-122 0 -188.5 62.5t-66.5 175.5v366h95v-356q0 -88 44.5 -136t125.5 -48q83 0 125.5 46t42.5 137zM431 685q-15 0 -32.5 8t-51.5 32q-27 20 -39.5 26t-22.5 6q-20 0 -33.5 -17.5t-22.5 -57.5h-51q13 65 41.5 102
t65.5 37q15 0 32.5 -8t51.5 -32q27 -20 39.5 -26t22.5 -6q20 0 33.5 17.5t22.5 57.5h51q-13 -65 -41.5 -102t-65.5 -37z" />
    <glyph glyph-name="Wacute.sc" horiz-adv-x="918" 
d="M646 -4h-43l-140 402l-140 -402h-42l-228 598h98l169 -451l116 333l-41 118h94l151 -445l160 445h65zM430 661l65 188h105l-122 -188h-48z" />
    <glyph glyph-name="Wcircumflex.sc" horiz-adv-x="918" 
d="M436 851h46l134 -199h-49l-107 122l-107 -122h-49zM646 -4h-43l-140 402l-140 -402h-42l-228 598h98l169 -451l116 333l-41 118h94l151 -445l160 445h65z" />
    <glyph glyph-name="Wgrave.sc" horiz-adv-x="918" 
d="M646 -4h-43l-140 402l-140 -402h-42l-228 598h98l169 -451l116 333l-41 118h94l151 -445l160 445h65zM492 661h-48l-122 188h105z" />
    <glyph glyph-name="Wdieresis.sc" horiz-adv-x="918" 
d="M417 691h-93v114h93v-114zM595 691h-93v114h93v-114zM646 -4h-43l-140 402l-140 -402h-42l-228 598h98l169 -451l116 333l-41 118h94l151 -445l160 445h65z" />
    <glyph glyph-name="Yacute.sc" horiz-adv-x="655" 
d="M299 661l65 188h105l-122 -188h-48zM161 594l187 -282l187 282h71l-231 -345v-249h-94v249l-231 345h111z" />
    <glyph glyph-name="Ycircumflex.sc" horiz-adv-x="655" 
d="M305 851h46l134 -199h-49l-107 122l-107 -122h-49zM161 594l187 -282l187 282h71l-231 -345v-249h-94v249l-231 345h111z" />
    <glyph glyph-name="Ydieresis.sc" horiz-adv-x="655" 
d="M286 691h-93v114h93v-114zM464 691h-93v114h93v-114zM161 594l187 -282l187 282h71l-231 -345v-249h-94v249l-231 345h111z" />
    <glyph glyph-name="Ygrave.sc" horiz-adv-x="655" 
d="M161 594l187 -282l187 282h71l-231 -345v-249h-94v249l-231 345h111zM360 661h-48l-122 188h105z" />
    <glyph glyph-name="Zacute.sc" horiz-adv-x="660" 
d="M293 661l65 188h105l-122 -188h-48zM186 57h397v-57h-520v39l396 498h-373v57h496v-39z" />
    <glyph glyph-name="Zcaron.sc" horiz-adv-x="660" 
d="M479 852l-134 -199h-46l-132 199h49l107 -122l107 122h49zM186 57h397v-57h-520v39l396 498h-373v57h496v-39z" />
    <glyph glyph-name="Zdotaccent.sc" horiz-adv-x="660" 
d="M186 57h397v-57h-520v39l396 498h-373v57h496v-39zM374 693h-101v122h101v-122z" />
    <glyph glyph-name="f_short" horiz-adv-x="363" 
d="M112 487v78q0 85 47 139t121 54q55 0 87.5 -27.5t32.5 -74.5q0 -15 -5.5 -29.5t-14.5 -22.5l-46 18q6 10 7.5 16t1.5 12q0 27 -14.5 41.5t-42.5 14.5q-38 0 -59 -33.5t-21 -92.5v-93h144l-5 -54h-139v-433h-94v433h-80v54h80z" />
    <glyph glyph-name="f_f_short" horiz-adv-x="700" 
d="M206 521v-34h242v78q0 16 2 32.5t6 32.5q-17 32 -48 49t-74 17q-63 0 -95.5 -44.5t-32.5 -130.5zM448 433h-242v-433h-94v433h-80v54h80v23q0 111 59 175t159 64q48 0 86 -16.5t64 -48.5q23 36 58.5 55t78.5 19q55 0 87.5 -27.5t32.5 -74.5q0 -15 -5.5 -29.5t-14.5 -22.5
l-46 18q6 10 7.5 16t1.5 12q0 27 -14.5 41.5t-42.5 14.5q-38 0 -59.5 -33.5t-21.5 -92.5v-93h145l-5 -54h-140v-433h-94v433z" />
    <glyph glyph-name="ampersand.sc" horiz-adv-x="687" 
d="M210 475q0 -23 10 -42t39 -49l34 -34q54 22 79 51t25 68q0 37 -26 60.5t-69 23.5t-67.5 -21t-24.5 -57zM154 167q0 -51 36.5 -82t95.5 -31q33 0 65.5 13t63.5 38l-181 177q-41 -20 -60.5 -48t-19.5 -67zM644 0h-123l-66 66q-43 -36 -91 -55t-98 -19q-91 0 -149 45
t-58 118q0 53 38 95t105 64l-25 25q-27 29 -40.5 59t-13.5 61q0 64 49 103.5t125 39.5q73 0 118.5 -36t45.5 -94q0 -52 -36.5 -94.5t-96.5 -62.5l145 -145q27 39 43 82.5t20 85.5l62 -10q-7 -51 -28.5 -102.5t-55.5 -96.5z" />
    <glyph glyph-name="caron.Slovak" horiz-adv-x="500" 
d="M225 749h95l-79 -205h-43z" />
    <glyph glyph-name="commaturn" horiz-adv-x="500" 
d="M245 656h57v-91h-113v96q0 55 35 85.5t101 30.5v-49q-43 0 -61.5 -15t-18.5 -50v-7z" />
    <glyph glyph-name="dotbelow" horiz-adv-x="500" 
d="M301 -197h-101v122h101v-122z" />
    <glyph glyph-name="grave.cap" horiz-adv-x="500" 
d="M333 768h-50l-116 167h108z" />
    <glyph glyph-name="acute.cap" horiz-adv-x="500" 
d="M167 768l58 167h108l-116 -167h-50z" />
    <glyph glyph-name="circumflex.cap" horiz-adv-x="500" 
d="M410 765h-49l-111 107l-111 -107h-49l136 184h46z" />
    <glyph glyph-name="tilde.cap" horiz-adv-x="500" 
d="M323 788q-15 0 -32.5 8t-51.5 32q-27 20 -39.5 26t-22.5 6q-20 0 -33.5 -17.5t-22.5 -57.5h-51q13 65 41.5 102t65.5 37q15 0 32.5 -8t51.5 -32q27 -20 39.5 -26t22.5 -6q20 0 33.5 17.5t22.5 57.5h51q-13 -65 -41.5 -102t-65.5 -37z" />
    <glyph glyph-name="macron.cap" horiz-adv-x="500" 
d="M390 847v-57h-280v57h280z" />
    <glyph glyph-name="breve.cap" horiz-adv-x="500" 
d="M352 942h43q0 -74 -41 -120.5t-104 -46.5t-104 46.5t-41 120.5h43q4 -47 32 -75.5t70 -28.5t70 28.5t32 75.5z" />
    <glyph glyph-name="dotaccent.cap" horiz-adv-x="500" 
d="M301 790h-101v122h101v-122z" />
    <glyph glyph-name="dieresis.cap" horiz-adv-x="500" 
d="M208 782h-93v114h93v-114zM386 782h-93v114h93v-114z" />
    <glyph glyph-name="ring.cap" horiz-adv-x="500" 
d="M250 747q-44 0 -76 32t-32 75t32 74.5t76 31.5t76 -31.5t32 -74.5t-32 -75t-76 -32zM250 793q27 0 44 17t17 44q0 28 -16.5 45t-44.5 17t-44.5 -17t-16.5 -45q0 -27 17 -44t44 -17z" />
    <glyph glyph-name="hungarumlaut.cap" horiz-adv-x="500" 
d="M83 768l70 167h98l-119 -167h-49zM253 768l70 167h97l-119 -167h-48z" />
    <glyph glyph-name="caron.cap" horiz-adv-x="500" 
d="M410 945l-138 -184h-46l-136 184h49l111 -107l111 107h49z" />
    <glyph glyph-name="exclamdown.cap" horiz-adv-x="285" 
d="M158 483l49 -483h-129l50 483h30zM201 576h-118v124h118v-124z" />
    <glyph glyph-name="questiondown.cap" horiz-adv-x="538" 
d="M143 171q0 -54 37.5 -86.5t101.5 -32.5t101.5 31.5t37.5 86.5q0 19 -8.5 38.5t-23.5 36.5l48 34q25 -20 39 -49t14 -59q0 -77 -60.5 -128.5t-155.5 -51.5q-102 0 -164 54t-62 138q0 82 56 141t154 83v92h52v-171q-77 -15 -122 -56.5t-45 -100.5zM227 701h118v-122h-118
v122z" />
    <glyph glyph-name="exclam.sc" horiz-adv-x="313" 
d="M143 194l-49 400h125l-50 -400h-26zM211 0h-110v117h110v-117z" />
    <glyph glyph-name="exclamdown.sc" horiz-adv-x="313" 
d="M169 400l50 -400h-125l49 400h26zM211 477h-110v117h110v-117z" />
    <glyph glyph-name="question.sc" horiz-adv-x="507" 
d="M250 604q89 0 142.5 -46.5t53.5 -120.5q0 -70 -50 -120t-138 -70v-70h-46v147q65 10 103 43t38 81q0 45 -30 72t-82 27t-84 -27.5t-32 -72.5q0 -17 7.5 -33.5t21.5 -31.5l-43 -33q-23 15 -36.5 41.5t-13.5 56.5q0 66 53.5 111.5t135.5 45.5zM289 0h-111v114h111v-114z
" />
    <glyph glyph-name="questiondown.sc" horiz-adv-x="507" 
d="M257 -10q-89 0 -142.5 46.5t-53.5 120.5q0 70 50 120t138 70v70h46v-147q-65 -10 -103 -43t-38 -81q0 -45 30 -72t82 -27t84 27.5t32 72.5q0 17 -7.5 33.5t-21.5 31.5l43 33q23 -15 36.5 -41.5t13.5 -56.5q0 -66 -53.5 -111.5t-135.5 -45.5zM218 594h111v-114h-111v114z
" />
    <glyph glyph-name="guilsinglleft.cap" horiz-adv-x="392" 
d="M274 132l-218 208v8l218 208h62l-170 -212l170 -212h-62z" />
    <glyph glyph-name="guilsinglright.cap" horiz-adv-x="392" 
d="M56 132l170 212l-170 212h62l218 -208v-8l-218 -208h-62z" />
    <glyph glyph-name="guillemotleft.cap" horiz-adv-x="637" 
d="M274 132l-218 208v8l218 208h62l-170 -212l170 -212h-62zM519 132l-218 208v8l218 208h62l-170 -212l170 -212h-62z" />
    <glyph glyph-name="guillemotright.cap" horiz-adv-x="637" 
d="M56 132l170 212l-170 212h62l218 -208v-8l-218 -208h-62zM301 132l170 212l-170 212h62l218 -208v-8l-218 -208h-62z" />
    <glyph glyph-name="slash.cap" horiz-adv-x="426" 
d="M98 -113h-70l300 882h70z" />
    <glyph glyph-name="backslash.cap" horiz-adv-x="426" 
d="M98 769l300 -882h-70l-300 882h70z" />
    <glyph glyph-name="bar.cap" horiz-adv-x="280" 
d="M173 -113h-66v882h66v-882z" />
    <glyph glyph-name="periodcentered.cap" horiz-adv-x="264" 
d="M191 279h-118v124h118v-124z" />
    <glyph glyph-name="bullet.cap" horiz-adv-x="409" 
d="M205 202q-54 0 -93 39t-39 93t39 93t93 39t92.5 -39t38.5 -93q0 -55 -38 -93.5t-93 -38.5z" />
    <glyph glyph-name="hyphen.cap" horiz-adv-x="395" 
d="M322 307h-249v74h249v-74z" />
    <glyph glyph-name="endash.cap" horiz-adv-x="566" 
d="M493 311h-420v66h420v-66z" />
    <glyph glyph-name="emdash.cap" horiz-adv-x="866" 
d="M793 311h-720v66h720v-66z" />
    <glyph glyph-name="parenleft.cap" horiz-adv-x="376" 
d="M66 327q0 145 61.5 264t174.5 196l34 -41q-98 -72 -147.5 -177t-49.5 -242t49.5 -242t147.5 -177l-34 -41q-113 77 -174.5 196t-61.5 264z" />
    <glyph glyph-name="parenright.cap" horiz-adv-x="376" 
d="M310 327q0 -145 -61.5 -264t-174.5 -196l-34 41q98 72 147.5 177t49.5 242t-49.5 242t-147.5 177l34 41q113 -77 174.5 -196t61.5 -264z" />
    <glyph glyph-name="bracketleft.cap" horiz-adv-x="361" 
d="M313 -124h-212v903h212v-39l-144 -11v-802l144 -12v-39z" />
    <glyph glyph-name="bracketright.cap" horiz-adv-x="361" 
d="M48 -85l144 12v802l-144 11v39h212v-903h-212v39z" />
    <glyph glyph-name="braceleft.cap" horiz-adv-x="430" 
d="M180 178q0 62 -27.5 91t-96.5 31v52q69 2 96.5 31t27.5 91q0 11 -1.5 25t-6.5 45q-6 36 -8 53.5t-2 31.5q0 66 45 108t118 42q14 0 29 -2t28 -6l-7 -42q-70 11 -107.5 -15.5t-37.5 -88.5q0 -9 1.5 -23.5t7.5 -47.5q6 -38 8 -56t2 -30q0 -60 -35 -98t-87 -44q52 -6 87 -44
t35 -98q0 -12 -2 -30t-8 -56q-6 -33 -7.5 -47.5t-1.5 -23.5q0 -62 37.5 -88t107.5 -15l7 -43q-17 -4 -31 -6t-26 -2q-73 0 -118 42t-45 109q0 14 2 31.5t8 52.5q5 31 6.5 45t1.5 25z" />
    <glyph glyph-name="braceright.cap" horiz-adv-x="430" 
d="M250 178q0 -11 1.5 -25t6.5 -45q6 -35 8 -52.5t2 -31.5q0 -67 -45 -109t-118 -42q-12 0 -26 2t-31 6l7 43q70 -11 107.5 15t37.5 88q0 9 -1.5 23.5t-7.5 47.5q-6 38 -8 56t-2 30q0 60 35 98t87 44q-52 6 -87 44t-35 98q0 12 2 30t8 56q6 33 7.5 47.5t1.5 23.5
q0 62 -37.5 88.5t-107.5 15.5l-7 42q13 4 28 6t29 2q73 0 118 -42t45 -108q0 -14 -2 -31.5t-8 -53.5q-5 -31 -6.5 -45t-1.5 -25q0 -62 27.5 -91t96.5 -31v-52q-69 -2 -96.5 -31t-27.5 -91z" />
    <glyph glyph-name="at.cap" horiz-adv-x="972" 
d="M650 534h61l-65 -267q-11 -43 4 -65.5t53 -22.5q65 0 108 63t43 169q0 138 -94 219t-248 81q-163 0 -272 -112.5t-109 -282.5q0 -161 103.5 -260t270.5 -99q84 0 148 19t122 61l27 -37q-58 -46 -134 -69.5t-163 -23.5q-192 0 -314 113.5t-122 295.5q0 92 32.5 174
t94.5 144t143.5 95.5t172.5 33.5q174 0 286.5 -97.5t112.5 -254.5q0 -57 -13.5 -105t-39.5 -86q-31 -44 -76 -69t-93 -25q-56 0 -90 28.5t-36 77.5q-22 -47 -62.5 -75.5t-87.5 -28.5q-61 0 -98.5 41t-37.5 108q0 108 67 187t161 79q45 0 76 -22t38 -58zM441 184q44 0 79 38
t50 103l12 48q13 55 -5.5 89.5t-59.5 34.5q-59 0 -103 -66.5t-44 -153.5q0 -43 19 -68t52 -25z" />
    <glyph glyph-name="published" horiz-adv-x="810" 
d="M45 350q0 154 104 257t256 103t256 -103t104 -257t-104 -257t-256 -103t-256 103t-104 257zM76 350q0 -140 95.5 -235t233.5 -95t233.5 95t95.5 235t-95.5 235t-233.5 95t-233.5 -95t-95.5 -235zM595 433q0 -58 -43.5 -91t-118.5 -33h-80v-160h-71v408h151
q76 0 119 -32.5t43 -91.5zM353 520v-173h64q53 0 78 21t25 65t-25.5 65.5t-77.5 21.5h-64z" />
    <glyph glyph-name="florin.op" horiz-adv-x="533" 
d="M73 -175q-49 0 -78.5 26.5t-29.5 67.5q0 19 9 37t23 30l42 -20q-10 -15 -14 -25.5t-4 -18.5q0 -22 12.5 -34.5t34.5 -12.5q33 0 51 26t27 89l43 313h-93l6 44h93l14 104q12 90 54.5 137.5t110.5 47.5q50 0 81 -25t31 -64q0 -18 -8.5 -35.5t-22.5 -30.5l-42 20
q11 18 14.5 26.5t3.5 15.5q0 20 -13.5 31.5t-37.5 11.5q-32 0 -50 -25t-27 -90l-17 -124h111l-6 -44h-111l-40 -293q-12 -89 -55 -137t-112 -48z" />
    <glyph glyph-name="Euro.op" horiz-adv-x="655" 
d="M396 -10q-97 0 -168 62.5t-93 167.5h-88v45h81q-1 17 -1.5 26t-0.5 17t0.5 17t1.5 26h-81v45h88q23 109 95 174.5t170 65.5q78 0 134.5 -44.5t74.5 -118.5l-57 -24q-18 67 -54 98t-95 31q-69 0 -111.5 -46.5t-55.5 -135.5h207l-10 -45h-202q-1 -6 -1 -14v-24
q0 -9 0.5 -20t1.5 -28h182l-9 -45h-167q15 -81 58.5 -124.5t107.5 -44.5q61 0 101 30.5t61 93.5l46 -26q-28 -75 -85 -117t-131 -42z" />
    <glyph glyph-name="dollar.op" horiz-adv-x="603" 
d="M162 479q0 -41 27 -64.5t92 -38.5h1v201q-55 -4 -87.5 -30.5t-32.5 -67.5zM458 160q0 41 -25 65t-90 41l-13 3v-219q60 4 94 33t34 77zM330 -8v-100h-48v100q-98 7 -158.5 53.5t-70.5 123.5l59 23q15 -68 56 -102.5t114 -39.5v231l-33 8q-90 23 -130 63t-40 105
q0 73 56.5 122t146.5 54v97h48v-97q71 -7 124.5 -45.5t71.5 -94.5l-54 -36q-14 50 -51 81t-91 38v-213l36 -9q89 -21 131.5 -62.5t42.5 -105.5q0 -81 -59 -134.5t-151 -59.5z" />
    <glyph glyph-name="sterling.op" horiz-adv-x="650" 
d="M608 102q0 -53 -39.5 -88.5t-97.5 -35.5q-28 0 -55.5 8t-57.5 25q-8 5 -32 22.5t-64 47.5q-21 -44 -53.5 -67t-75.5 -23t-69.5 25.5t-26.5 67.5t30 69.5t75 27.5q17 0 35 -4.5t42 -14.5q1 6 1 13.5v24.5t-1 37t-4 44h-105v46h100q-4 31 -5.5 57t-1.5 48q0 92 56 148
t149 56q75 0 120.5 -35.5t45.5 -90.5q0 -31 -18.5 -58t-43.5 -36l-32 29q17 15 24.5 30.5t7.5 33.5q0 33 -27.5 54t-70.5 21q-53 0 -80.5 -34.5t-27.5 -100.5v-122h146v-46h-147q-3 -46 -9 -84t-15 -69q67 -38 107.5 -51t81.5 -13q49 0 70.5 27t9.5 73l38 5q8 -11 14 -31
t6 -36zM90 83q0 -20 12 -32t32 -12q29 0 48.5 19t28.5 57q-17 10 -33.5 14.5t-33.5 4.5q-24 0 -39 -14t-15 -37z" />
    <glyph glyph-name="yen.op" horiz-adv-x="665" 
d="M564 224v-46h-184v-178h-93v178h-184v46h184v38l-28 45h-156v46h128l-167 273h110l180 -298l178 298h70l-166 -273h128v-46h-157l-27 -45v-38h184z" />
    <glyph glyph-name="florin.sc" horiz-adv-x="530" 
d="M73 -175q-49 0 -78.5 26.5t-29.5 67.5q0 19 9 37t23 30l42 -20q-10 -15 -14 -25.5t-4 -18.5q0 -22 12.5 -34.5t34.5 -12.5q33 0 51 26t27 89l40 288h-92l5 45h94l13 96q12 90 54.5 137.5t110.5 47.5q50 0 81 -25t31 -64q0 -18 -8.5 -35.5t-22.5 -30.5l-42 20
q11 18 14.5 26.5t3.5 15.5q0 20 -13.5 31.5t-37.5 11.5q-32 0 -50 -25t-27 -90l-16 -116h111l-6 -45h-112l-37 -268q-12 -89 -55 -137t-112 -48z" />
    <glyph glyph-name="Euro.sc" horiz-adv-x="611" 
d="M519 163l42 -25q-26 -70 -78 -109t-119 -39q-89 0 -153.5 59.5t-85.5 159.5h-78v43h72q-1 16 -1.5 24.5t-0.5 15.5q0 8 0.5 17t1.5 24h-72v43h78q21 103 87.5 165.5t156.5 62.5q72 0 123 -42.5t67 -112.5l-54 -22q-15 61 -47.5 90.5t-84.5 29.5q-62 0 -101 -44t-51 -127
h188l-9 -43h-183q-1 -6 -1 -13v-22q0 -9 0.5 -20t1.5 -26h166l-9 -43h-151q14 -76 53 -117.5t96 -41.5q55 0 91 28t55 85z" />
    <glyph glyph-name="dollar.sc" horiz-adv-x="577" 
d="M157 455q0 -37 24.5 -58t86.5 -35l2 -1v184q-52 -4 -82.5 -28t-30.5 -62zM435 150q0 39 -23 61t-84 37l-12 3v-202q56 4 87.5 30.5t31.5 70.5zM316 -7v-94h-46v94q-91 6 -149 49t-69 115l56 24q16 -64 55 -95.5t107 -36.5v213l-32 8q-84 20 -123 59.5t-39 102.5
q0 70 54.5 117t139.5 52v91h46v-91q68 -6 118.5 -42.5t68.5 -90.5l-52 -35q-14 48 -49 76.5t-86 34.5v-195l35 -9q84 -19 125 -59t41 -103q0 -77 -56.5 -128t-144.5 -57z" />
    <glyph glyph-name="sterling.sc" horiz-adv-x="618" 
d="M578 100q0 -52 -36.5 -87t-92.5 -35q-27 0 -53 7.5t-53 23.5q-9 5 -31.5 21t-59.5 44q-21 -42 -52.5 -63t-72.5 -21t-66.5 25t-25.5 65q0 39 29 65.5t72 26.5q17 0 34.5 -4.5t37.5 -13.5q1 5 1 11.5v20.5q0 17 -1 36.5t-4 42.5h-99v44h93q-5 45 -6.5 65t-1.5 37
q0 88 54.5 140.5t144.5 52.5q71 0 114 -33.5t43 -86.5q0 -30 -17.5 -55.5t-40.5 -33.5l-32 29q16 14 23 28t7 31q0 32 -25 50.5t-66 18.5q-50 0 -75 -31.5t-25 -92.5v-119h136v-44h-137q-2 -42 -8 -78t-15 -65q60 -33 98.5 -45t77.5 -12q46 0 66.5 26t9.5 69l36 6
q8 -11 13.5 -30.5t5.5 -35.5zM86 79q0 -19 11.5 -30.5t30.5 -11.5q27 0 45.5 18t27.5 53q-17 9 -32.5 13.5t-31.5 4.5q-23 0 -37 -13t-14 -34z" />
    <glyph glyph-name="yen.sc" horiz-adv-x="629" 
d="M535 212v-43h-173v-169h-94v169h-173v43h173v37l-27 44h-146v43h120l-159 258h113l168 -280l166 280h69l-157 -258h120v-43h-146l-27 -44v-37h173z" />
    <glyph glyph-name="florin.lt" 
d="M149 -192q-52 0 -83.5 28.5t-31.5 73.5q0 21 9.5 41.5t24.5 34.5l45 -22q-10 -14 -15 -27t-5 -23q0 -25 13.5 -38.5t37.5 -13.5q36 0 55.5 29t29.5 102l48 352h-102l6 47h102l15 112q13 101 58.5 153.5t118.5 52.5q53 0 86 -27t33 -70q0 -20 -9.5 -40t-24.5 -33l-45 21
q11 16 15.5 27.5t4.5 20.5q0 23 -14.5 35t-40.5 12q-36 0 -56 -29t-30 -102l-18 -133h123l-6 -47h-123l-44 -331q-13 -100 -58.5 -153t-118.5 -53z" />
    <glyph glyph-name="Euro.lt" 
d="M565 195l47 -26q-29 -86 -87.5 -132.5t-136.5 -46.5q-100 0 -173.5 70t-95.5 188h-87v47h80q-1 19 -1.5 30t-0.5 20q0 8 0.5 18l1.5 30h-80v47h86q23 123 97.5 196.5t176.5 73.5q82 0 140 -48.5t78 -130.5l-59 -27q-18 75 -56.5 110.5t-99.5 35.5q-73 0 -118 -54
t-58 -156h219l-10 -47h-214q-1 -7 -1 -16v-28q0 -10 0.5 -22t1.5 -32h193l-10 -47h-177q15 -93 61 -143.5t114 -50.5q64 0 105.5 34.5t63.5 106.5z" />
    <glyph glyph-name="dollar.lt" 
d="M172 535q0 -46 28.5 -72t102.5 -45l2 -1v232q-61 -5 -97 -35.5t-36 -78.5zM495 180q0 47 -26.5 74t-98.5 47l-15 4v-253q65 5 102.5 39t37.5 89zM355 -9v-112h-50v112q-105 6 -171 59.5t-76 141.5l62 22q16 -78 60.5 -117.5t124.5 -44.5v267l-35 9q-99 26 -142 70
t-43 116q0 81 61.5 135.5t158.5 59.5v108h50v-108q77 -8 134.5 -51.5t77.5 -107.5l-57 -36q-16 57 -56 92t-99 42v-244l38 -11q96 -24 142.5 -70t46.5 -117q0 -91 -63.5 -150t-163.5 -65z" />
    <glyph glyph-name="cent.lt" 
d="M503 172l45 -13q-16 -77 -71.5 -122t-135.5 -47l-9 -104h-45l9 107q-93 13 -148.5 81.5t-55.5 173.5q0 116 69.5 192.5t178.5 81.5l8 94h45l-8 -96q70 -8 110.5 -50.5t40.5 -105.5q0 -25 -11 -49.5t-27 -39.5l-42 35q9 12 14 26t5 28q0 40 -25.5 68t-69.5 34l-34 -415h6
q58 0 95.5 30t55.5 91zM191 260q0 -81 28.5 -133.5t81.5 -68.5l34 408q-66 -9 -105 -65t-39 -141z" />
    <glyph glyph-name="sterling.lt" 
d="M622 112q0 -59 -41.5 -98t-103.5 -39q-21 0 -41.5 4.5t-41.5 13.5q-17 7 -34.5 18t-38.5 26q-13 10 -36 28t-30 24q-23 -49 -57.5 -74t-79.5 -25q-46 0 -74 28.5t-28 74.5t32 76.5t80 30.5q18 0 37.5 -5t43.5 -17q1 17 1.5 28.5t0.5 21.5q0 18 -1 40t-4 48h-113v48h108
q-3 47 -5 76.5t-2 42.5q0 103 59 165t158 62q79 0 127 -39.5t48 -100.5q0 -35 -19.5 -65t-46.5 -40l-35 32q19 16 27.5 33.5t8.5 38.5q0 38 -29.5 61.5t-76.5 23.5q-56 0 -84.5 -38.5t-28.5 -113.5v-138h154v-48h-155q-3 -53 -9.5 -96.5t-17.5 -79.5q72 -45 115 -59.5
t85 -14.5q52 0 75.5 30t11.5 81l41 6q8 -12 14 -33.5t6 -37.5zM72 91q0 -23 13 -36.5t34 -13.5q30 0 51 21.5t31 64.5q-20 11 -37.5 16.5t-34.5 5.5q-26 0 -41.5 -16t-15.5 -42z" />
    <glyph glyph-name="yen.lt" 
d="M569 250v-47h-200v-203h-97v203h-200v47h200v42l-32 55h-168v47h141l-179 306h114l193 -339l191 339h74l-178 -306h141v-47h-168l-32 -55v-42h200z" />
    <glyph glyph-name="florin.ot" 
d="M168 -175q-49 0 -78.5 26.5t-29.5 67.5q0 18 8.5 36t22.5 31l42 -20q-10 -15 -14 -25.5t-4 -18.5q0 -22 12.5 -34.5t34.5 -12.5q33 0 51 25.5t27 89.5l43 313h-93l6 44h93l14 103q12 90 54.5 137.5t110.5 47.5q50 0 81 -25t31 -64q0 -19 -8.5 -36.5t-22.5 -29.5l-42 20
q11 17 14.5 26t3.5 17q0 20 -13.5 31t-37.5 11q-32 0 -50 -24.5t-27 -89.5l-17 -124h112l-6 -44h-112l-40 -293q-11 -89 -54 -137t-112 -48z" />
    <glyph glyph-name="Euro.ot" 
d="M557 175l45 -26q-28 -76 -85 -117.5t-131 -41.5q-96 0 -166 62.5t-92 167.5h-86v45h79q-1 17 -1.5 26t-0.5 17t0.5 17t1.5 26h-79v45h86q22 109 93.5 174.5t169.5 65.5q78 0 134.5 -44.5t74.5 -118.5l-57 -24q-17 66 -54 97.5t-95 31.5q-68 0 -110.5 -46.5t-55.5 -135.5
h206l-10 -45h-200q-1 -6 -1 -14v-24q0 -9 0.5 -20t1.5 -28h180l-9 -45h-165q16 -81 58 -124.5t106 -44.5q60 0 100 30.5t62 93.5z" />
    <glyph glyph-name="dollar.ot" 
d="M185 479q0 -41 27 -64.5t92 -38.5h1v201q-55 -4 -87.5 -30.5t-32.5 -67.5zM481 160q0 41 -25 65t-90 41l-12 3v-219q60 5 93.5 33.5t33.5 76.5zM354 -8v-100h-49v100q-98 7 -158.5 53.5t-69.5 123.5l58 23q15 -68 56 -102.5t114 -39.5v231l-32 8q-91 23 -131 63t-40 105
q0 73 56.5 122t146.5 54v97h49v-97q71 -7 124 -45.5t71 -94.5l-54 -36q-14 51 -50.5 81.5t-90.5 37.5v-213l35 -9q89 -21 131.5 -62.5t42.5 -105.5q0 -81 -58.5 -134.5t-150.5 -59.5z" />
    <glyph glyph-name="sterling.ot" 
d="M603 102q0 -53 -39 -88.5t-97 -35.5q-28 0 -55.5 8t-56.5 25q-9 5 -33 22t-63 47q-21 -44 -53.5 -66.5t-74.5 -22.5q-44 0 -70 25.5t-26 67.5t30 69.5t75 27.5q17 0 35 -4.5t41 -14.5q1 6 1 13.5v24.5t-1 37t-4 44h-105v46h100q-4 31 -5.5 57t-1.5 48q0 93 55.5 148.5
t148.5 55.5q75 0 120 -35.5t45 -90.5q0 -31 -18.5 -58t-43.5 -36l-32 29q17 14 24.5 29.5t7.5 34.5q0 33 -27 54t-70 21q-53 0 -80 -34.5t-27 -100.5v-122h145v-46h-146q-3 -46 -9 -84t-15 -69q64 -38 105 -51t82 -13q49 0 70.5 27t9.5 73l38 5q8 -11 14 -31t6 -36zM87 83
q0 -20 12.5 -32t32.5 -12q28 0 47.5 19t28.5 57q-17 10 -33.5 14.5t-33.5 4.5q-24 0 -39 -14t-15 -37z" />
    <glyph glyph-name="yen.ot" 
d="M551 224v-46h-184v-178h-94v178h-183v46h183v38l-27 45h-156v46h128l-165 273h110l178 -298l176 298h70l-165 -273h129v-46h-157l-27 -45v-38h184z" />
    <glyph glyph-name="florin.st" 
d="M169 -175q-49 0 -78.5 26.5t-29.5 67.5q0 18 8.5 36t22.5 31l43 -20q-10 -15 -14 -25.5t-4 -18.5q0 -22 12 -34.5t34 -12.5q33 0 51 25.5t27 89.5l41 288h-93l6 45h93l14 97q13 90 55 137t110 47q50 0 81 -25t31 -64q0 -18 -9 -36t-23 -30l-42 20q11 17 14.5 26t3.5 17
q0 20 -13 31t-37 11q-32 0 -50 -24.5t-27 -89.5l-17 -117h112l-7 -45h-111l-38 -268q-11 -89 -54 -137t-112 -48z" />
    <glyph glyph-name="Euro.st" 
d="M537 165l42 -26q-25 -70 -77 -108.5t-120 -38.5q-89 0 -153.5 58.5t-85.5 158.5h-78v43h72q-1 16 -1.5 24.5t-0.5 15.5q0 8 0.5 17t1.5 24h-72v43h78q21 103 87.5 164.5t156.5 61.5q72 0 123 -42.5t67 -111.5l-54 -23q-15 62 -47.5 91.5t-84.5 29.5q-62 0 -101 -43.5
t-51 -126.5h188l-9 -43h-183q-1 -6 -1 -13v-22q0 -9 0.5 -20t1.5 -26h166l-9 -43h-151q14 -76 52.5 -116.5t96.5 -40.5q55 0 91 28t55 85z" />
    <glyph glyph-name="dollar.st" 
d="M193 455q0 -37 24.5 -58t86.5 -35l2 -1v184q-52 -4 -82.5 -28t-30.5 -62zM470 150q0 39 -23 61t-84 37l-11 3v-202q55 4 86.5 30.5t31.5 70.5zM352 -7v-94h-46v94q-92 6 -150 49t-69 115l57 24q15 -63 54 -95t108 -37v213l-32 8q-85 21 -124 60t-39 102q0 70 54.5 117
t140.5 52v91h46v-91q68 -6 118.5 -42.5t68.5 -90.5l-53 -35q-15 48 -49 76.5t-85 34.5v-195l35 -9q84 -19 125 -59t41 -103q0 -77 -56.5 -128t-144.5 -57z" />
    <glyph glyph-name="sterling.st" 
d="M592 100q0 -52 -37 -87t-93 -35q-27 0 -53 7.5t-53 24.5q-9 5 -31.5 21.5t-59.5 44.5q-21 -42 -52.5 -63t-71.5 -21q-42 0 -67.5 25t-25.5 64q0 40 29 66.5t72 26.5q17 0 34.5 -4.5t37.5 -13.5q1 5 1 11v19q0 17 -1 36.5t-4 42.5h-99v44h94q-5 42 -6.5 63t-1.5 38
q0 87 54.5 139.5t143.5 52.5q72 0 115 -33.5t43 -86.5q0 -29 -18 -54.5t-41 -33.5l-32 28q16 13 23.5 27.5t7.5 31.5q0 32 -25.5 51t-66.5 19q-49 0 -74.5 -32t-25.5 -92v-118h137v-44h-138q-2 -41 -8 -77t-15 -65q64 -35 102 -46.5t75 -11.5q46 0 66 25.5t9 69.5l36 6
q8 -10 14 -30t6 -36zM100 80q0 -19 11.5 -30.5t30.5 -11.5q28 0 46 18t27 54q-18 9 -33.5 13.5t-30.5 4.5q-23 0 -37 -13t-14 -35z" />
    <glyph glyph-name="yen.st" 
d="M540 212v-43h-172v-169h-95v169h-172v43h172v37l-27 44h-145v43h119l-156 258h112l166 -280l165 280h69l-156 -258h120v-43h-145l-27 -44v-37h172z" />
    <glyph glyph-name="zero.op" horiz-adv-x="635" 
d="M317 -10q-118 0 -190.5 90t-72.5 233t72.5 233t190.5 90t191 -89.5t73 -233.5t-73 -233.5t-191 -89.5zM317 581q-78 0 -117.5 -67.5t-39.5 -200.5t39.5 -200.5t117.5 -67.5t118 68t40 200t-40 200t-118 68z" />
    <glyph glyph-name="one.op" horiz-adv-x="419" 
d="M307 634v-634h-96v482q-14 -25 -64.5 -66t-89.5 -57l-21 51q58 31 120 93t105 131h46z" />
    <glyph glyph-name="two.op" horiz-adv-x="565" 
d="M359 236q-18 -14 -69.5 -52t-135.5 -98h353l-8 -86h-466v34l164 147q50 44 80.5 73t42.5 42q35 38 51 74.5t16 74.5q0 60 -34.5 95t-94.5 35q-59 0 -95.5 -35t-36.5 -90q0 -25 12 -47t33 -38l-40 -39q-32 13 -52 47t-20 77q0 79 58 132.5t149 53.5q99 0 161 -53t62 -139
q0 -54 -29.5 -102t-100.5 -106z" />
    <glyph glyph-name="three.op" horiz-adv-x="589" 
d="M540 177q0 -82 -71.5 -134.5t-182.5 -52.5q-99 0 -163 46t-64 115q0 36 23.5 66t61.5 44l34 -38q-27 -16 -38.5 -32.5t-11.5 -36.5q0 -46 40.5 -76.5t103.5 -30.5q76 0 117.5 34t41.5 95q0 66 -43.5 102t-124.5 36h-19v47h19q74 1 110.5 29.5t36.5 87.5q0 49 -32 76
t-91 27t-94.5 -26t-35.5 -69q0 -19 9.5 -32.5t29.5 -22.5l-29 -43q-36 11 -57 38t-21 64q0 60 59 103t147 43q97 0 157 -41t60 -110q0 -59 -48 -100t-118 -45v-2q88 -4 141 -49t53 -112z" />
    <glyph glyph-name="four.op" horiz-adv-x="630" 
d="M454 217h143v-61h-143v-156h-94v156h-328v46l334 424h88v-409zM113 217h247v315z" />
    <glyph glyph-name="five.op" horiz-adv-x="569" 
d="M139 628h348l-10 -89h-295l-19 -162q24 18 59 29t72 11q95 0 156 -57t61 -147q0 -98 -73.5 -160.5t-190.5 -62.5q-90 0 -151 46t-61 114q0 32 18 58.5t50 41.5l36 -37q-19 -14 -27 -29t-8 -35q0 -43 39.5 -73t97.5 -30q74 0 119 46.5t45 123.5q0 66 -38.5 106t-103.5 40
q-38 0 -69 -12.5t-57 -38.5h-35z" />
    <glyph glyph-name="six.op" horiz-adv-x="600" 
d="M337 433q91 0 150 -60t59 -157q0 -98 -67.5 -162t-170.5 -64q-114 0 -184 93.5t-70 241.5q0 168 84 276.5t221 108.5q80 0 130.5 -40.5t50.5 -101.5q0 -35 -17 -60t-44 -34l-35 33q13 11 20 24.5t7 29.5q0 44 -29 68t-83 24q-99 0 -156.5 -94.5t-51.5 -244.5
q17 53 67.5 86t118.5 33zM308 374q-66 0 -103 -43.5t-37 -120.5q0 -76 38 -121t102 -45q66 0 103 44t37 122q0 76 -37 120t-103 44z" />
    <glyph glyph-name="seven.op" horiz-adv-x="538" 
d="M38 537v89h474v-45l-63 -93q-85 -127 -131.5 -273.5t-45.5 -288.5h-93q15 168 63 300.5t144 269.5l29 41h-377z" />
    <glyph glyph-name="eight.op" horiz-adv-x="601" 
d="M507 489q0 -51 -33.5 -89.5t-93.5 -58.5q89 -30 128 -71t39 -103q0 -77 -71 -127t-179 -50q-112 0 -179.5 46t-67.5 122q0 54 39.5 96t110.5 66q-57 23 -84.5 60t-27.5 90q0 72 60 119t151 47q89 0 148.5 -41.5t59.5 -105.5zM300 582q-58 0 -91.5 -25t-33.5 -69
q0 -36 21.5 -60.5t72.5 -42.5l63 -24q59 30 82.5 59t23.5 67q0 44 -37 69.5t-101 25.5zM455 155q0 37 -26.5 62t-92.5 49l-93 33q-69 -33 -96 -65t-27 -73q0 -54 48 -85.5t129 -31.5q70 0 114 30.5t44 80.5z" />
    <glyph glyph-name="nine.op" horiz-adv-x="600" 
d="M263 193q-91 0 -150 60t-59 157q0 98 67.5 162t170.5 64q114 0 184 -93.5t70 -241.5q0 -168 -84 -276.5t-221 -108.5q-80 0 -130.5 40.5t-50.5 101.5q0 35 17 60t44 34l35 -33q-13 -11 -20 -24.5t-7 -29.5q0 -44 29 -68t83 -24q99 0 156.5 94.5t51.5 244.5
q-17 -53 -67.5 -86t-118.5 -33zM292 252q66 0 103 43.5t37 120.5q0 76 -38 121t-102 45q-66 0 -103 -44t-37 -122q0 -76 37 -120t103 -44z" />
    <glyph glyph-name="zero.sc" horiz-adv-x="625" 
d="M313 -10q-111 0 -178.5 84t-67.5 223t67.5 223t178.5 84t178 -84.5t67 -222.5t-67 -222.5t-178 -84.5zM313 556q-70 0 -105.5 -65t-35.5 -194t35.5 -194t105.5 -65t105 65t35 194t-35 194t-105 65z" />
    <glyph glyph-name="one.sc" horiz-adv-x="417" 
d="M298 601v-601h-93v466q-12 -22 -56 -57t-78 -48l-20 48q50 25 106.5 79.5t92.5 112.5h48z" />
    <glyph glyph-name="two.sc" horiz-adv-x="549" 
d="M459 433q0 -75 -56 -142t-252 -204h332l-7 -87h-430v32l165 155q86 83 116.5 139t30.5 112q0 50 -30 79.5t-82 29.5t-84.5 -30t-32.5 -78q0 -22 13 -44t33 -36l-35 -37q-30 12 -51.5 44.5t-21.5 70.5q0 71 53 119t136 48q92 0 147.5 -46t55.5 -125z" />
    <glyph glyph-name="three.sc" horiz-adv-x="562" 
d="M499 168q0 -79 -64.5 -128.5t-167.5 -49.5q-90 0 -147.5 41.5t-57.5 107.5q0 36 22.5 64.5t57.5 39.5l30 -37q-24 -13 -35 -28.5t-11 -35.5q0 -43 36.5 -71.5t90.5 -28.5q67 0 104 34t37 94q0 62 -39 94t-114 32h-14v44h14q69 1 102 28.5t33 83.5q0 46 -29.5 73.5
t-80.5 27.5t-83 -23.5t-32 -61.5q0 -19 9 -32.5t28 -21.5l-25 -41q-34 9 -53 34t-19 61q0 57 52.5 96.5t132.5 39.5q90 0 144.5 -40t54.5 -109q0 -54 -44.5 -91.5t-108.5 -41.5v-2q80 -4 128.5 -46t48.5 -106z" />
    <glyph glyph-name="four.sc" horiz-adv-x="607" 
d="M426 212h130v-54h-130v-158h-91v158h-285v40l283 396h93v-382zM124 212h211v294z" />
    <glyph glyph-name="five.sc" horiz-adv-x="550" 
d="M151 594h316l-10 -91h-265l-21 -153q21 16 52 25t64 9q87 0 141.5 -49.5t54.5 -131.5q0 -96 -66 -154.5t-173 -58.5q-85 0 -139 39t-54 103q0 31 16.5 55.5t47.5 39.5l32 -37q-18 -14 -25.5 -27.5t-7.5 -29.5q0 -41 34 -66t88 -25q65 0 104 43.5t39 116.5q0 58 -33.5 93
t-91.5 35q-34 0 -60.5 -11t-48.5 -35h-32z" />
    <glyph glyph-name="six.sc" horiz-adv-x="578" 
d="M326 369q82 0 135 -51t53 -133q0 -86 -61.5 -140.5t-154.5 -54.5q-104 0 -167.5 79.5t-63.5 206.5q0 141 76.5 234.5t199.5 93.5q74 0 119.5 -35t45.5 -88q0 -29 -15 -50t-38 -28l-34 28q12 10 17.5 21t5.5 24q0 36 -26 55.5t-74 19.5q-86 0 -136.5 -78.5t-45.5 -200.5
q15 44 59.5 70.5t104.5 26.5zM296 314q-57 0 -89.5 -36.5t-32.5 -100.5t33 -101.5t89 -37.5q58 0 90.5 36.5t32.5 102.5q0 64 -32.5 100.5t-90.5 36.5z" />
    <glyph glyph-name="seven.sc" horiz-adv-x="515" 
d="M63 503v91h419v-42l-59 -93q-74 -110 -112.5 -226.5t-37.5 -232.5h-90q15 133 56.5 239t125.5 223l26 41h-328z" />
    <glyph glyph-name="eight.sc" horiz-adv-x="571" 
d="M473 465q0 -45 -30.5 -80.5t-82.5 -53.5q77 -28 113 -68.5t36 -99.5q0 -76 -63 -124.5t-161 -48.5q-100 0 -160.5 42.5t-60.5 114.5q0 50 35.5 89t98.5 60q-50 24 -75.5 60.5t-25.5 84.5q0 71 53.5 117t135.5 46q80 0 133.5 -39t53.5 -100zM287 555q-50 0 -79 -24
t-29 -64q0 -33 20 -56.5t66 -42.5l54 -20q46 23 67.5 51.5t21.5 63.5q0 42 -33 67t-88 25zM421 142q0 35 -24 59.5t-80 45.5l-82 31q-54 -25 -79.5 -56t-25.5 -71q0 -51 42 -81.5t113 -30.5q60 0 98 28t38 75z" />
    <glyph glyph-name="nine.sc" horiz-adv-x="578" 
d="M252 225q-82 0 -135 51t-53 133q0 86 61.5 140.5t154.5 54.5q104 0 167.5 -79.5t63.5 -206.5q0 -141 -76.5 -234.5t-199.5 -93.5q-74 0 -119.5 35t-45.5 88q0 29 15 50t38 28l34 -28q-12 -10 -17.5 -21t-5.5 -24q0 -36 26 -55.5t74 -19.5q86 0 136.5 78.5t45.5 200.5
q-15 -44 -59.5 -70.5t-104.5 -26.5zM282 280q57 0 89.5 36.5t32.5 100.5t-33 101.5t-89 37.5q-58 0 -90.5 -36.5t-32.5 -102.5q0 -64 32.5 -100.5t90.5 -36.5z" />
    <glyph glyph-name="zero.lt" 
d="M320 -10q-123 0 -196.5 99t-73.5 261t73.5 261t196.5 99q122 0 196 -99t74 -261t-74 -261t-196 -99zM320 655q-81 0 -121.5 -77t-40.5 -228t40.5 -228t121.5 -77q80 0 120.5 77t40.5 228t-40.5 228t-120.5 77z" />
    <glyph glyph-name="one.lt" 
d="M585 57v-57h-476v57h193v501q-28 -31 -83.5 -68t-101.5 -56l-21 52q78 35 146.5 94t110.5 129h46v-652h186z" />
    <glyph glyph-name="two.lt" 
d="M404 271q-32 -31 -79 -70t-142 -114h385l-8 -87h-492v35l192 185q99 94 136 161t37 135q0 61 -36 97t-98 36q-65 0 -103.5 -34t-38.5 -92q0 -26 15 -52.5t37 -41.5l-37 -39q-34 13 -58 51.5t-24 81.5q0 80 60.5 133.5t156.5 53.5q103 0 166.5 -53.5t63.5 -141.5
q0 -64 -30 -120t-103 -124z" />
    <glyph glyph-name="three.lt" 
d="M566 198q0 -91 -72.5 -149.5t-186.5 -58.5q-103 0 -168 48.5t-65 124.5q0 41 23.5 72t63.5 46l32 -39q-27 -17 -38.5 -35t-11.5 -41q0 -52 43 -86t107 -34q78 0 121 40t43 111q0 75 -47 114.5t-134 39.5h-16v50h16q80 1 120 34.5t40 99.5q0 55 -34 87.5t-94 32.5
q-62 0 -99 -29t-37 -77q0 -21 10 -36t30 -25l-27 -45q-37 12 -58 40.5t-21 68.5q0 66 59.5 112t150.5 46q102 0 162 -46t60 -127q0 -63 -50 -107.5t-122 -49.5v-2q90 -5 145 -55t55 -125z" />
    <glyph glyph-name="four.lt" 
d="M457 251h147v-61h-147v-190h-94v190h-328v46l326 464h96v-449zM116 251h247v353z" />
    <glyph glyph-name="five.lt" 
d="M188 700h356l-11 -93h-300l-25 -196q25 20 59.5 31t72.5 11q99 0 160 -58.5t61 -156.5q0 -110 -74.5 -179t-194.5 -69q-95 0 -156.5 46.5t-61.5 119.5q0 35 18 63t52 46l36 -40q-21 -18 -29 -33t-8 -34q0 -51 40 -81.5t103 -30.5q77 0 122 51.5t45 142.5q0 71 -39 112.5
t-107 41.5q-39 0 -70.5 -14t-56.5 -43h-37z" />
    <glyph glyph-name="six.lt" 
d="M358 433q93 0 153.5 -60t60.5 -157q0 -98 -69 -162t-174 -64q-117 0 -189 93.5t-72 241.5q0 168 86 276.5t226 108.5q82 0 134 -40.5t52 -101.5q0 -35 -17.5 -60t-45.5 -34l-34 33q13 12 20 25.5t7 28.5q0 44 -30 68t-86 24q-101 0 -160.5 -95t-53.5 -244q19 53 71 86
t121 33zM327 374q-67 0 -105.5 -44t-38.5 -120q0 -75 39.5 -120.5t104.5 -45.5q69 0 108 44t39 122q0 76 -39 120t-108 44z" />
    <glyph glyph-name="seven.lt" 
d="M76 607v93h493v-47l-63 -94q-87 -130 -134 -274.5t-46 -284.5h-93q15 162 63.5 293.5t147.5 273.5l28 40h-396z" />
    <glyph glyph-name="eight.lt" 
d="M531 546q0 -56 -35.5 -98t-97.5 -64q92 -35 132.5 -81.5t40.5 -116.5q0 -84 -71.5 -140t-180.5 -56q-113 0 -181.5 51t-68.5 136q0 59 40 104.5t115 73.5q-59 29 -87.5 71t-28.5 98q0 81 60.5 133.5t152.5 52.5q90 0 150 -46.5t60 -117.5zM322 656q-59 0 -93 -29.5
t-34 -79.5q0 -41 23 -70.5t72 -48.5l64 -27q58 32 82.5 66t24.5 78q0 50 -38 80.5t-101 30.5zM479 173q0 42 -28 71t-93 55l-94 37q-67 -35 -95 -71.5t-28 -84.5q0 -62 49 -99t129 -37q70 0 115 35.5t45 93.5z" />
    <glyph glyph-name="nine.lt" 
d="M283 267q-93 0 -153.5 60t-60.5 157q0 98 69 162t174 64q117 0 188.5 -93.5t71.5 -241.5q0 -168 -86 -276.5t-226 -108.5q-82 0 -133.5 40.5t-51.5 101.5q0 36 17 60.5t46 33.5l34 -33q-14 -12 -21 -25.5t-7 -28.5q0 -44 30.5 -68t85.5 -24q102 0 161 94.5t53 244.5
q-18 -53 -70 -86t-121 -33zM313 326q67 0 106 44t39 120q0 75 -40 120.5t-105 45.5q-68 0 -107 -44.5t-39 -121.5q0 -76 39 -120t107 -44z" />
    <glyph glyph-name="zero.ot" 
d="M59 313q0 143 72 233t189 90t189 -90t72 -233t-72 -233t-189 -90t-189 90t-72 233zM166 313q0 -133 38.5 -200.5t115.5 -67.5q76 0 115 67.5t39 200.5t-39 200.5t-115 67.5q-77 0 -115.5 -67.5t-38.5 -200.5z" />
    <glyph glyph-name="one.ot" 
d="M579 57v-57h-476v57h194v426q-29 -31 -85 -68t-100 -56l-21 51q79 36 147 95.5t110 128.5h46v-577h185z" />
    <glyph glyph-name="two.ot" 
d="M406 236q-19 -15 -70.5 -52.5t-135.5 -97.5h354l-8 -86h-466v34l164 147q79 71 94.5 86t27.5 29q35 38 51 74.5t16 74.5q0 60 -34 95t-94 35q-59 0 -95.5 -35t-36.5 -90q0 -25 11.5 -47t32.5 -38l-39 -39q-32 13 -52 47t-20 77q0 79 58 132.5t149 53.5q99 0 161 -53
t62 -139q0 -54 -29.5 -102t-100.5 -106z" />
    <glyph glyph-name="three.ot" 
d="M559 177q0 -82 -71 -134.5t-182 -52.5q-99 0 -163.5 46t-64.5 115q0 36 23.5 66t61.5 44l35 -38q-27 -16 -39 -32.5t-12 -36.5q0 -46 40.5 -76.5t104.5 -30.5q76 0 117 34t41 95q0 66 -43.5 102t-124.5 36h-18v47h18q74 1 110.5 29.5t36.5 87.5q0 49 -32 76.5t-91 27.5
t-94.5 -26.5t-35.5 -69.5q0 -19 10 -32.5t30 -22.5l-30 -43q-36 11 -56.5 38t-20.5 64q0 60 58.5 103.5t146.5 43.5q97 0 157 -41.5t60 -110.5q0 -60 -47.5 -100.5t-118.5 -44.5v-2q88 -4 141 -49t53 -112z" />
    <glyph glyph-name="four.ot" 
d="M464 217h139v-61h-139v-156h-94v156h-327v46l334 424h87v-409zM124 217h246v315z" />
    <glyph glyph-name="five.ot" 
d="M184 628h348l-10 -89h-294l-19 -162q23 18 58 29t73 11q95 0 156 -57t61 -147q0 -98 -74 -160.5t-191 -62.5q-90 0 -150.5 46t-60.5 114q0 32 18 58t49 42l36 -37q-19 -15 -27 -30t-8 -34q0 -43 40 -73t97 -30q74 0 119.5 46.5t45.5 123.5q0 65 -38.5 105.5t-104.5 40.5
q-38 0 -69 -12.5t-56 -38.5h-36z" />
    <glyph glyph-name="six.ot" 
d="M357 433q91 0 150 -60t59 -157q0 -98 -67.5 -162t-170.5 -64q-114 0 -184 93.5t-70 241.5q0 168 84 276.5t221 108.5q80 0 131 -40.5t51 -101.5q0 -35 -17 -60t-45 -34l-34 33q13 12 20 25.5t7 28.5q0 44 -29.5 68t-83.5 24q-99 0 -156.5 -95t-51.5 -244q18 53 68.5 86
t117.5 33zM328 374q-66 0 -103 -44t-37 -120t38 -121t102 -45q66 0 103 44t37 122q0 77 -37 120.5t-103 43.5z" />
    <glyph glyph-name="seven.ot" 
d="M81 537v89h478v-45l-62 -93q-85 -126 -132 -272.5t-46 -289.5h-93q15 168 63.5 300.5t144.5 269.5l28 41h-381z" />
    <glyph glyph-name="eight.ot" 
d="M529 489q0 -50 -33.5 -88.5t-93.5 -59.5q89 -30 128 -71t39 -103q0 -77 -71 -127t-179 -50q-112 0 -180 46t-68 122q0 54 39.5 96t110.5 66q-56 23 -83.5 60.5t-27.5 89.5q0 72 60 119t151 47q89 0 148.5 -41.5t59.5 -105.5zM321 582q-58 0 -91 -25t-33 -69
q0 -36 21.5 -60.5t71.5 -42.5l64 -24q58 29 81.5 58.5t23.5 67.5q0 45 -36.5 70t-101.5 25zM477 155q0 37 -27 62t-93 49l-93 33q-68 -32 -95 -64.5t-27 -73.5q0 -54 48 -85.5t129 -31.5q69 0 113.5 30.5t44.5 80.5z" />
    <glyph glyph-name="nine.ot" 
d="M283 193q-91 0 -150 60t-59 157q0 98 67.5 162t170.5 64q114 0 184 -93.5t70 -241.5q0 -168 -84 -276.5t-221 -108.5q-80 0 -130.5 40.5t-50.5 101.5q0 35 17 60t44 34l35 -33q-13 -11 -20 -24.5t-7 -29.5q0 -44 29 -68t83 -24q99 0 156.5 94.5t51.5 244.5
q-17 -53 -67.5 -86t-118.5 -33zM312 252q66 0 103 43.5t37 120.5q0 76 -38 121t-102 45q-66 0 -103 -44t-37 -122q0 -76 37 -120t103 -44z" />
    <glyph glyph-name="zero.st" 
d="M320 -10q-111 0 -178.5 84.5t-67.5 222.5t67.5 222.5t178.5 84.5t178.5 -84t67.5 -223t-67.5 -223t-178.5 -84zM320 556q-70 0 -105 -65t-35 -194t35 -194t105 -65t105 64.5t35 194.5t-35 194.5t-105 64.5z" />
    <glyph glyph-name="one.st" 
d="M585 57v-57h-476v57h193v399q-28 -30 -82.5 -66.5t-98.5 -54.5l-21 51q78 35 145 92.5t107 124.5h43v-546h190z" />
    <glyph glyph-name="two.st" 
d="M510 434q0 -76 -57 -144t-250 -203h332l-7 -87h-431v32l165 155q86 82 117 138t31 113q0 50 -30.5 79.5t-82.5 29.5t-84.5 -30t-32.5 -78q0 -22 12.5 -44t32.5 -36l-35 -37q-30 12 -51 45t-21 70q0 71 53 119t137 48q92 0 147 -45.5t55 -124.5z" />
    <glyph glyph-name="three.st" 
d="M536 168q0 -79 -64.5 -128.5t-167.5 -49.5q-90 0 -147.5 41.5t-57.5 107.5q0 36 22.5 64.5t58.5 39.5l29 -37q-24 -13 -35 -28.5t-11 -35.5q0 -43 37 -71.5t91 -28.5q67 0 103.5 34t36.5 94q0 62 -39 94t-113 32h-15v44h15q68 1 101.5 29t33.5 83q0 46 -29.5 73.5
t-80.5 27.5t-83.5 -23.5t-32.5 -61.5q0 -19 9 -32t28 -22l-25 -41q-34 9 -53 34t-19 61q0 57 52.5 96.5t132.5 39.5q90 0 144.5 -40t54.5 -109q0 -54 -44 -91.5t-109 -41.5v-2q80 -4 128.5 -46t48.5 -106z" />
    <glyph glyph-name="four.st" 
d="M442 212h131v-54h-131v-158h-91v158h-284v40l283 396h92v-382zM141 212h210v294z" />
    <glyph glyph-name="five.st" 
d="M202 594h315l-9 -91h-266l-20 -153q22 16 52 25t64 9q87 0 141.5 -49.5t54.5 -131.5q0 -96 -66 -154.5t-173 -58.5q-85 0 -139 39t-54 103q0 31 16.5 55.5t46.5 39.5l33 -37q-18 -14 -25.5 -27.5t-7.5 -29.5q0 -41 34 -66t88 -25q65 0 104 43.5t39 116.5q0 58 -33.5 93
t-91.5 35q-34 0 -60.5 -11t-48.5 -35h-32z" />
    <glyph glyph-name="six.st" 
d="M356 369q81 0 134.5 -51t53.5 -133q0 -86 -61.5 -140.5t-155.5 -54.5q-104 0 -167.5 79.5t-63.5 206.5q0 141 77 234.5t200 93.5q73 0 118.5 -35t45.5 -88q0 -30 -14.5 -51t-38.5 -27l-34 28q12 10 18 21t6 24q0 36 -26 55.5t-74 19.5q-86 0 -137 -78.5t-46 -200.5
q16 44 60.5 70.5t104.5 26.5zM326 314q-57 0 -89.5 -36.5t-32.5 -100.5t33 -101.5t89 -37.5q58 0 90.5 36.5t32.5 102.5q0 64 -32.5 100.5t-90.5 36.5z" />
    <glyph glyph-name="seven.st" 
d="M111 503v91h418v-42l-58 -93q-74 -110 -112.5 -226.5t-37.5 -232.5h-90q14 132 55.5 238.5t125.5 223.5l27 41h-328z" />
    <glyph glyph-name="eight.st" 
d="M507 465q0 -45 -30.5 -80.5t-82.5 -53.5q77 -28 113 -68.5t36 -99.5q0 -76 -63 -124.5t-161 -48.5q-100 0 -160.5 42.5t-60.5 114.5q0 50 35.5 89t98.5 60q-50 24 -75.5 60.5t-25.5 84.5q0 71 53.5 117t135.5 46q80 0 133.5 -39t53.5 -100zM321 555q-50 0 -79 -24
t-29 -64q0 -33 20 -56.5t66 -42.5l54 -20q46 23 67.5 51.5t21.5 63.5q0 42 -33 67t-88 25zM455 142q0 35 -24 59.5t-80 45.5l-82 31q-54 -25 -79.5 -56t-25.5 -71q0 -51 42 -81.5t113 -30.5q60 0 98 28t38 75z" />
    <glyph glyph-name="nine.st" horiz-adv-x="639" 
d="M284 225q-82 0 -135 51t-53 133q0 86 61.5 140.5t154.5 54.5q104 0 167.5 -79.5t63.5 -206.5q0 -141 -76.5 -234.5t-199.5 -93.5q-74 0 -119.5 35t-45.5 88q0 29 15 50t38 28l34 -28q-12 -10 -17.5 -21t-5.5 -24q0 -36 26 -55.5t74 -19.5q86 0 136.5 78.5t45.5 200.5
q-15 -44 -59.5 -70.5t-104.5 -26.5zM314 280q57 0 89.5 36.5t32.5 100.5t-33 101.5t-89 37.5q-58 0 -90.5 -36.5t-32.5 -102.5q0 -64 32.5 -100.5t90.5 -36.5z" />
    <glyph glyph-name="zero.dnom" horiz-adv-x="424" 
d="M212 -6q-75 0 -121 56.5t-46 148.5t46 148.5t121 56.5t121 -56.5t46 -148.5t-46 -148.5t-121 -56.5zM212 365q-42 0 -61.5 -40t-19.5 -126t19.5 -126t61.5 -40q41 0 60.5 40.5t19.5 125.5t-19.5 125.5t-60.5 40.5z" />
    <glyph glyph-name="one.dnom" horiz-adv-x="298" 
d="M215 403v-403h-76v304q-8 -15 -38 -39t-52 -33l-14 39q33 19 73 58t60 74h47z" />
    <glyph glyph-name="two.dnom" horiz-adv-x="374" 
d="M312 286q0 -51 -39.5 -95.5t-162.5 -122.5h215l-5 -68h-291v23l106 102q55 54 75 91t20 76q0 32 -18.5 50.5t-50.5 18.5q-31 0 -48.5 -17t-17.5 -47q0 -15 8.5 -28.5t23.5 -24.5l-29 -28q-22 7 -37 29.5t-15 49.5q0 48 35.5 78.5t93.5 30.5q62 0 99.5 -31.5t37.5 -86.5z
" />
    <glyph glyph-name="three.dnom" horiz-adv-x="383" 
d="M339 113q0 -54 -44 -86.5t-115 -32.5q-60 0 -98 28t-38 73q0 25 17 45t41 26l24 -27q-17 -9 -24.5 -19.5t-7.5 -24.5q0 -27 20.5 -43t54.5 -16q41 0 63 20.5t22 59.5q0 41 -23 61.5t-67 20.5h-9v30h9q40 1 60.5 19.5t20.5 54.5q0 29 -19 45.5t-51 16.5q-31 0 -48 -13
t-17 -37q0 -12 6 -21.5t19 -15.5l-20 -30q-24 6 -38.5 23.5t-14.5 42.5q0 39 35.5 65t88.5 26q62 0 99.5 -26.5t37.5 -72.5q0 -37 -28.5 -62t-73.5 -28v-2q53 -3 85.5 -30.5t32.5 -69.5z" />
    <glyph glyph-name="four.dnom" horiz-adv-x="407" 
d="M290 141h82v-38h-82v-103h-75v103h-183v28l181 267h77v-257zM85 141h130v194z" />
    <glyph glyph-name="five.dnom" horiz-adv-x="377" 
d="M105 398h212l-8 -70h-176l-12 -90q16 10 35.5 15.5t40.5 5.5q59 0 96 -34t37 -89q0 -64 -45 -103t-118 -39q-57 0 -93.5 26.5t-36.5 70.5q0 21 11 37.5t31 26.5l28 -27q-12 -9 -16.5 -17.5t-4.5 -20.5q0 -25 19.5 -40t50.5 -15q42 0 65.5 27t23.5 74q0 38 -20.5 60
t-56.5 22q-20 0 -36 -6.5t-31 -21.5h-22z" />
    <glyph glyph-name="six.dnom" horiz-adv-x="393" 
d="M225 250q53 0 88.5 -34t35.5 -88q0 -59 -42 -96.5t-106 -37.5q-70 0 -113 54t-43 139q0 94 52 155.5t135 61.5q50 0 81 -23.5t31 -59.5q0 -20 -9 -34.5t-24 -18.5l-31 19q7 6 10.5 13.5t3.5 16.5q0 23 -15.5 35t-44.5 12q-53 0 -83 -48.5t-28 -126.5q10 28 37.5 44.5
t64.5 16.5zM200 207q-34 0 -52.5 -22.5t-18.5 -64.5t19 -65.5t52 -23.5q34 0 52.5 23t18.5 66q0 42 -18.5 64.5t-52.5 22.5z" />
    <glyph glyph-name="seven.dnom" horiz-adv-x="349" 
d="M43 328v70h281v-30l-44 -71q-44 -71 -66 -145t-21 -152h-74q11 82 37.5 150t79.5 147l20 31h-213z" />
    <glyph glyph-name="eight.dnom" horiz-adv-x="389" 
d="M322 309q0 -27 -18 -49t-51 -36q48 -18 70.5 -45t22.5 -65q0 -53 -43 -86.5t-110 -33.5t-108 28.5t-41 76.5q0 33 22.5 57.5t63.5 38.5q-33 16 -49.5 40t-16.5 56q0 50 37 81.5t93 31.5q55 0 91.5 -27t36.5 -68zM194 365q-31 0 -48.5 -14t-17.5 -38q0 -22 14 -37t47 -26
l31 -12q25 13 38 30.5t13 39.5q0 26 -21 41.5t-56 15.5zM276 95q0 22 -15 37.5t-50 28.5l-53 20q-31 -14 -47 -33.5t-16 -45.5q0 -32 26.5 -50.5t71.5 -18.5q37 0 60 17t23 45z" />
    <glyph glyph-name="nine.dnom" horiz-adv-x="393" 
d="M193 191q34 0 52 22.5t18 64.5t-18.5 65.5t-51.5 23.5q-35 0 -53.5 -23t-18.5 -66q0 -42 18.5 -64.5t53.5 -22.5zM167 148q-53 0 -88 34t-35 88q0 59 42 96.5t106 37.5q70 0 113 -54t43 -139q0 -94 -52 -155.5t-135 -61.5q-51 0 -82 23.5t-31 59.5q0 20 9.5 34.5
t24.5 18.5l31 -19q-7 -6 -11 -13.5t-4 -16.5q0 -23 15.5 -35t44.5 -12q53 0 83.5 48.5t28.5 126.5q-10 -28 -37.5 -44.5t-65.5 -16.5z" />
    <glyph glyph-name="percent.op" horiz-adv-x="872" 
d="M692 636l-452 -646h-59l452 646h59zM212 289q-64 0 -107.5 50t-43.5 123q0 72 44 122t107 50t106.5 -49.5t43.5 -122.5q0 -74 -43 -123.5t-107 -49.5zM212 346q40 0 64.5 32t24.5 84q0 51 -24.5 83t-64.5 32t-64.5 -32t-24.5 -83q0 -52 24.5 -84t64.5 -32zM660 -10
q-63 0 -106.5 49.5t-43.5 122.5t43.5 123t106.5 50t106.5 -50t43.5 -123t-43.5 -122.5t-106.5 -49.5zM660 47q40 0 64.5 32t24.5 83t-24.5 83.5t-64.5 32.5t-64.5 -32.5t-24.5 -83.5t24.5 -83t64.5 -32z" />
    <glyph glyph-name="perthousand.op" horiz-adv-x="1248" 
d="M692 636l-452 -646h-59l452 646h59zM212 289q-64 0 -107.5 50t-43.5 123q0 72 44 122t107 50t106.5 -49.5t43.5 -122.5q0 -74 -43 -123.5t-107 -49.5zM212 346q40 0 64.5 32t24.5 84q0 51 -24.5 83t-64.5 32t-64.5 -32t-24.5 -83q0 -52 24.5 -84t64.5 -32zM660 -10
q-63 0 -106.5 49.5t-43.5 122.5t43.5 123t106.5 50t106.5 -50t43.5 -123t-43.5 -122.5t-106.5 -49.5zM1030 -10q-64 0 -107.5 49.5t-43.5 122.5t44 123t107 50t106.5 -50t43.5 -123t-43.5 -122.5t-106.5 -49.5zM660 47q40 0 64.5 32t24.5 83t-24.5 83.5t-64.5 32.5
t-64.5 -32.5t-24.5 -83.5t24.5 -83t64.5 -32zM1030 47q40 0 64.5 32t24.5 83t-24.5 83.5t-64.5 32.5t-64.5 -32t-24.5 -84t24.5 -83.5t64.5 -31.5z" />
    <glyph glyph-name="percent.lt" horiz-adv-x="900" 
d="M193 -10l453 720h59l-453 -720h-59zM242 365q-63 0 -106.5 49.5t-43.5 122.5t43.5 123t106.5 50q64 0 107.5 -50t43.5 -123t-43.5 -122.5t-107.5 -49.5zM242 653q-40 0 -64 -32t-24 -84q0 -51 24 -83t64 -32t65 32t25 83t-25 83.5t-65 32.5zM654 -10q-63 0 -106.5 49.5
t-43.5 122.5t43.5 123t106.5 50q64 0 107.5 -50t43.5 -123t-43.5 -122.5t-107.5 -49.5zM654 47q40 0 65 32t25 83t-25 83.5t-65 32.5t-64 -32t-24 -84q0 -51 24 -83t64 -32z" />
    <glyph glyph-name="perthousand.lt" horiz-adv-x="1300" 
d="M259 365q-64 0 -107.5 49.5t-43.5 122.5t44 123t107 50t106.5 -50t43.5 -123t-43.5 -122.5t-106.5 -49.5zM209 -10l453 720h59l-453 -720h-59zM259 653q-40 0 -64.5 -32.5t-24.5 -83.5t24.5 -83t64.5 -32t64.5 32t24.5 83t-24.5 83.5t-64.5 32.5zM671 -10
q-64 0 -107.5 49.5t-43.5 122.5t44 123t107 50t106.5 -50t43.5 -123t-43.5 -122.5t-106.5 -49.5zM1040 -10q-63 0 -106.5 49.5t-43.5 122.5t43.5 123t106.5 50q64 0 107.5 -50t43.5 -123t-43.5 -122.5t-107.5 -49.5zM1040 47q40 0 65 32t25 83t-25 83.5t-65 32.5t-64 -32
t-24 -84q0 -51 24 -83t64 -32zM671 47q40 0 64.5 32t24.5 83t-24.5 83.5t-64.5 32.5t-64.5 -32.5t-24.5 -83.5t24.5 -83t64.5 -32z" />
    <glyph glyph-name="percent.ot" horiz-adv-x="900" 
d="M707 636l-453 -646h-59l453 646h59zM226 289q-63 0 -106.5 50t-43.5 123q0 72 43.5 122t106.5 50t106.5 -49.5t43.5 -122.5q0 -74 -43 -123.5t-107 -49.5zM226 346q40 0 64.5 32t24.5 84q0 51 -24.5 83t-64.5 32t-64.5 -32t-24.5 -83q0 -52 24.5 -84t64.5 -32zM674 -10
q-63 0 -106.5 49.5t-43.5 122.5t43.5 123t106.5 50q64 0 107.5 -50t43.5 -123t-43.5 -122.5t-107.5 -49.5zM674 47q40 0 65 32t25 83t-25 83.5t-65 32.5t-64 -32t-24 -84q0 -51 24 -83t64 -32z" />
    <glyph glyph-name="perthousand.ot" horiz-adv-x="1300" 
d="M721 636l-453 -646h-59l453 646h59zM241 289q-64 0 -107.5 50t-43.5 123q0 72 44 122t107 50t106.5 -49.5t43.5 -122.5q0 -74 -43 -123.5t-107 -49.5zM241 346q40 0 64.5 32t24.5 84q0 51 -24.5 83t-64.5 32t-64.5 -32t-24.5 -83q0 -52 24 -84t65 -32zM1058 -10
q-63 0 -106.5 49.5t-43.5 122.5t43.5 123t106.5 50q64 0 107.5 -50t43.5 -123t-43.5 -122.5t-107.5 -49.5zM689 -10q-64 0 -107.5 49.5t-43.5 122.5t44 123t107 50t106.5 -50t43.5 -123t-43.5 -122.5t-106.5 -49.5zM1058 47q40 0 65 32t25 83t-25 83.5t-65 32.5t-64 -32
t-24 -84q0 -51 24 -83t64 -32zM689 47q40 0 64.5 32t24.5 83t-24.5 83.5t-64.5 32.5t-64.5 -32.5t-24.5 -83.5t24.5 -83t64.5 -32z" />
    <glyph glyph-name="plus.op" horiz-adv-x="634" 
d="M545 339v-60h-198v-198h-59v198h-199v60h199v198h59v-198h198z" />
    <glyph glyph-name="minus.op" horiz-adv-x="634" 
d="M545 281h-456v60h456v-60z" />
    <glyph glyph-name="multiply.op" horiz-adv-x="552" 
d="M93 162l144 144l-144 143l42 43l142 -145l142 145l43 -43l-145 -143l145 -144l-43 -43l-142 145l-142 -145z" />
    <glyph glyph-name="divide.op" horiz-adv-x="634" 
d="M369 441h-101v102h101v-102zM545 279h-456v60h456v-60zM369 73h-101v103h101v-103z" />
    <glyph glyph-name="equal.op" horiz-adv-x="650" 
d="M554 350h-458v59h458v-59zM554 207h-458v59h458v-59z" />
    <glyph glyph-name="less.op" horiz-adv-x="511" 
d="M431 83l-347 186v76l347 186v-71l-290 -153l290 -153v-71z" />
    <glyph glyph-name="greater.op" horiz-adv-x="511" 
d="M80 531l348 -186v-76l-348 -186v71l290 153l-290 153v71z" />
    <glyph glyph-name="plusminus.op" horiz-adv-x="637" 
d="M547 405v-60h-198v-168h-59v168h-199v60h199v167h59v-167h198zM547 68h-456v61h456v-61z" />
    <glyph glyph-name="lessequal.op" horiz-adv-x="530" 
d="M442 175l-350 158v69l350 158v-65l-282 -127l282 -127v-66zM442 68h-350v61h350v-61z" />
    <glyph glyph-name="greaterequal.op" horiz-adv-x="530" 
d="M89 560l349 -158v-69l-349 -158v66l281 127l-281 127v65zM89 129h349v-61h-349v61z" />
    <glyph glyph-name="notequal.op" horiz-adv-x="650" 
d="M554 262v-55h-274l-83 -110h-63l83 110h-121v55h162l69 91h-231v55h273l84 112h63l-84 -112h122v-55h-164l-69 -91h233z" />
    </font>
</defs>
</svg>
