<svg fill="none" height="41" viewBox="0 0 39 41" width="39" xmlns="http://www.w3.org/2000/svg" xmlns:xlink="http://www.w3.org/1999/xlink"><clipPath id="a"><path d="m28 41h17v41h-17z" transform="matrix(-1 -0 0 -1 56 82)"/></clipPath><g clip-path="url(#a)"><path d="m25.5 23.5-6-6-6 6" stroke="#010c2d" stroke-linecap="round" stroke-linejoin="round" stroke-width="2"/></g><path clip-rule="evenodd" d="m19.2587 3c-9.53171 0-17.2587 7.727-17.2587 17.2587s7.72699 17.2587 17.2587 17.2587c9.5317 0 17.2587-7.727 17.2587-17.2587s-7.727-17.2587-17.2587-17.2587zm-19.2587 17.2587c0-10.63628 8.62242-19.2587 19.2587-19.2587 10.6363 0 19.2587 8.62242 19.2587 19.2587 0 10.6363-8.6224 19.2587-19.2587 19.2587-10.63628 0-19.2587-8.6224-19.2587-19.2587z" fill="#010c2d" fill-rule="evenodd"/></svg>