<svg width="39" height="39" viewBox="0 0 39 39" fill="none" xmlns="http://www.w3.org/2000/svg">
<path fill-rule="evenodd" clip-rule="evenodd" d="M19.2587 2C9.72699 2 2 9.72699 2 19.2587C2 28.7904 9.72699 36.5174 19.2587 36.5174C28.7904 36.5174 36.5174 28.7904 36.5174 19.2587C36.5174 9.72699 28.7904 2 19.2587 2ZM0 19.2587C0 8.62242 8.62242 0 19.2587 0C29.895 0 38.5174 8.62242 38.5174 19.2587C38.5174 29.895 29.895 38.5174 19.2587 38.5174C8.62242 38.5174 0 29.895 0 19.2587Z" fill="#010C2D"/>
<path d="M12.2588 23.0839L16.9761 27.2789C17.504 27.7483 18.339 27.5372 18.5804 26.8733L24.2588 11.2578" stroke="#010C2D" stroke-width="3" stroke-linecap="round"/>
</svg>
