<svg width="724" height="680" viewBox="0 0 724 680" fill="none" xmlns="http://www.w3.org/2000/svg">
<path d="M724 680H5.69922C2.92533 676.245 0.674805 671.854 0.674805 664.739C0.674939 646.162 16 646.146 16 627.569C15.9998 610.122 2.49886 609.054 0.84375 593.633C0.84375 593.633 0.69043 592.565 0.69043 589.967C0.935623 571.838 15.9997 571.668 16 553.246V552.24C16 533.833 0.96634 533.648 0.69043 515.565C0.966273 497.499 15.9998 497.313 16 478.906C16 478.767 15.9997 478.643 15.9844 478.504C15.9844 478.303 16 478.101 16 477.885C15.9998 459.292 0.674805 459.292 0.674805 440.715C0.67504 422.138 15.9997 422.122 16 403.546C16 384.969 0.674989 384.953 0.674805 366.376C0.674804 347.799 15.9999 347.783 16 329.206C16 310.629 0.674872 310.629 0.674805 292.036C0.674804 273.444 15.9998 273.381 16 254.805C16 236.228 0.674956 236.212 0.674805 217.635C0.674804 199.058 15.9998 199.043 16 180.45C16 161.858 0.674889 161.857 0.674805 143.28C0.674804 124.703 16 124.703 16 106.11C16 87.5177 0.674805 87.5331 0.674805 68.9404C0.674838 50.3478 16 50.3631 16 31.7705C15.9999 15.1776 3.79529 13.4052 1.16992 0H724V680Z" fill="#D9D9D9"/>
</svg>
