<svg fill="none" height="680" viewBox="0 0 724 680" width="724" xmlns="http://www.w3.org/2000/svg"><path d="m0 680h718.301c2.774-3.755 5.024-8.146 5.024-15.261 0-18.577-15.325-18.593-15.325-37.17 0-17.447 13.501-18.515 15.156-33.936 0 0 .154-1.068.154-3.666-.246-18.129-15.31-18.299-15.31-36.721v-1.006c0-18.407 15.034-18.592 15.31-36.675-.276-18.066-15.31-18.252-15.31-36.659 0-.139 0-.263.016-.402 0-.201-.016-.403-.016-.619 0-18.593 15.325-18.593 15.325-37.17s-15.325-18.593-15.325-37.169c0-18.577 15.325-18.593 15.325-37.17s-15.325-18.593-15.325-37.17 15.325-18.577 15.325-37.17c0-18.592-15.325-18.655-15.325-37.231 0-18.577 15.325-18.593 15.325-37.17s-15.325-18.592-15.325-37.185c0-18.592 15.325-18.593 15.325-37.17s-15.325-18.577-15.325-37.17c0-18.5923 15.325-18.5769 15.325-37.1696 0-18.5926-15.325-18.5773-15.325-37.1699 0-16.5929 12.205-18.3653 14.83-31.7705h-722.83z" fill="#d9d9d9"/></svg>