<svg fill="none" height="1346" viewBox="0 0 1440 1346" width="1440" xmlns="http://www.w3.org/2000/svg"><path d="m1436.36 27.4476c-22.3 5.2189-24.06-27.4476-46.62-27.4476-22.55 0-22.57 27.6133-45.13 27.6133-22.55 0-22.57-27.6133-45.13-27.6133-22.55 0-22.57 27.6133-45.13 27.6133-22.55 0-22.57-27.6133-45.13-27.6133-22.55 0-22.57 27.6133-45.13 27.6133-22.55 0-22.55-27.6133-45.13-27.6133-22.57 0-22.55 27.6133-45.13 27.6133-22.57 0-22.57-27.6133-45.13-27.6133s-22.57 27.6133-45.13 27.6133c-22.556 0-22.575-27.6133-45.13-27.6133-22.556 0-22.575 27.6133-45.131 27.6133-22.555 0-22.574-27.6133-45.13-27.6133-21.185 0-22.481 24.3273-41.205 27.3095 0 0-1.296.2761-4.451.2761-22.011-.4418-22.218-27.5856-44.586-27.5856-.225 0-.432 0-.657 0-.188 0-.376 0-.563 0-22.35 0-22.575 27.0886-44.53 27.5856-21.936-.497-22.161-27.5856-44.51-27.5856-.169 0-.32 0-.489.0276133-.244 0-.488-.0276133-.751-.0276133-22.574 0-22.574 27.6133-45.13 27.6133s-22.575-27.6133-45.13-27.6133c-22.556 0-22.575 27.6133-45.131 27.6133-22.555 0-22.574-27.6133-45.13-27.6133s-22.556 27.6133-45.13 27.6133c-22.575 0-22.65-27.6133-45.206-27.6133-22.555 0-22.574 27.6133-45.13 27.6133s-22.574-27.6133-45.148-27.6133c-22.575 0-22.575 27.6133-45.131 27.6133-22.555 0-22.555-27.6133-45.13-27.6133-22.574 0-22.556 27.6133-45.13 27.6133-22.575 0-22.556-27.6133-45.13-27.6133-22.575 0-22.556 27.6133-45.1307 27.6133-22.5746 0-22.5558-27.6133-45.1303-27.6133-18.593 0-21.4665 17.2031-34.51914849 24.5206l-.00086141 1321.4794h1440.0000099v-1319.657c-1.15.4142-2.37.7732-3.66 1.077z" fill="#d9d9d9"/></svg>