<svg fill="none" height="350" viewBox="0 0 1440 350" width="1440" xmlns="http://www.w3.org/2000/svg"><path d="m3.64428 322.553c22.29282-5.219 24.05822 27.447 46.61402 27.447s22.5744-27.613 45.1301-27.613c22.5556 0 22.5746 27.613 45.1306 27.613s22.574-27.613 45.13-27.613 22.575 27.613 45.13 27.613c22.556 0 22.575-27.613 45.131-27.613 22.555 0 22.555 27.613 45.13 27.613s22.556-27.613 45.13-27.613c22.575 0 22.575 27.613 45.131 27.613 22.555 0 22.574-27.613 45.13-27.613s22.574 27.613 45.13 27.613 22.575-27.613 45.131-27.613c22.555 0 22.574 27.613 45.13 27.613 21.184 0 22.481-24.327 41.205-27.309 0 0 1.296-.277 4.451-.277 22.011.442 22.218 27.586 44.586 27.586h.657.563c22.349 0 22.575-27.089 44.53-27.586 21.936.497 22.161 27.586 44.51 27.586.169 0 .319 0 .488-.028.245 0 .489.028.752.028 22.574 0 22.574-27.613 45.13-27.613s22.575 27.613 45.13 27.613c22.556 0 22.575-27.613 45.131-27.613 22.555 0 22.574 27.613 45.13 27.613s22.556-27.613 45.13-27.613c22.575 0 22.645 27.613 45.205 27.613s22.58-27.613 45.13-27.613c22.56 0 22.57 27.613 45.15 27.613 22.57 0 22.57-27.613 45.13-27.613s22.56 27.613 45.13 27.613 22.56-27.613 45.13-27.613 22.56 27.613 45.13 27.613 22.56-27.613 45.13-27.613c22.58 0 22.56 27.613 45.13 27.613 18.59 0 21.47-17.203 34.52-24.521v-325.479l-1440.0000306.00012589.00088279 323.65687411c1.14562781-.414 2.36635781-.773 3.66222781-1.077z" fill="#fff"/></svg>